<svg width="20" height="20" viewBox="0 0 20 20" fill="none" xmlns="http://www.w3.org/2000/svg">
<path fill-rule="evenodd" clip-rule="evenodd" d="M7.49996 1.5C7.93039 1.5 8.31253 1.77543 8.44864 2.18377L12.5 14.3377L14.0513 9.68377C14.1874 9.27543 14.5695 9 15 9H18.3333C18.8856 9 19.3333 9.44772 19.3333 10C19.3333 10.5523 18.8856 11 18.3333 11H15.7207L13.4486 17.8162C13.3125 18.2246 12.9304 18.5 12.5 18.5C12.0695 18.5 11.6874 18.2246 11.5513 17.8162L7.49996 5.66228L5.94864 10.3162C5.81253 10.7246 5.43039 11 4.99996 11H1.66663C1.11434 11 0.666626 10.5523 0.666626 10C0.666626 9.44772 1.11434 9 1.66663 9H4.2792L6.55128 2.18377C6.68739 1.77543 7.06953 1.5 7.49996 1.5Z" fill="#192743"/>
</svg>
