<svg width="20" height="20" viewBox="0 0 20 20" fill="none" xmlns="http://www.w3.org/2000/svg">
<path fill-rule="evenodd" clip-rule="evenodd" d="M1 3.28571C1 2.02335 2.02335 1 3.28571 1H6.71429C7.97665 1 9 2.02335 9 3.28571V6.71429C9 7.97665 7.97665 9 6.71429 9H3.28571C2.02335 9 1 7.97665 1 6.71429V3.28571ZM3.01681 3.01681H7.05042V7.05042H3.01681V3.01681Z" fill="#192743"/>
<path fill-rule="evenodd" clip-rule="evenodd" d="M1 13.2857C1 12.0233 2.02335 11 3.28571 11H6.71429C7.97665 11 9 12.0233 9 13.2857V16.7143C9 17.9767 7.97665 19 6.71429 19H3.28571C2.02335 19 1 17.9767 1 16.7143V13.2857ZM3.01681 12.9496H7.05042V16.9832H3.01681V12.9496Z" fill="#192743"/>
<path fill-rule="evenodd" clip-rule="evenodd" d="M13.2857 1C12.0233 1 11 2.02335 11 3.28571V6.71429C11 7.97665 12.0233 9 13.2857 9H16.7143C17.9767 9 19 7.97665 19 6.71429V3.28571C19 2.02335 17.9767 1 16.7143 1H13.2857ZM16.9832 3.01681H12.9496V7.05042H16.9832V3.01681Z" fill="#192743"/>
<path d="M11 15C11 14.4477 11.4477 14 12 14H18C18.5523 14 19 14.4477 19 15C19 15.5523 18.5523 16 18 16H12C11.4477 16 11 15.5523 11 15Z" fill="#192743"/>
<path d="M15 11C15.5523 11 16 11.4477 16 12V18C16 18.5523 15.5523 19 15 19C14.4477 19 14 18.5523 14 18V12C14 11.4477 14.4477 11 15 11Z" fill="#192743"/>
</svg>
