<svg width="20" height="20" viewBox="0 0 20 20" fill="none" xmlns="http://www.w3.org/2000/svg">
<g clip-path="url(#clip0_134_4047)">
<path fill-rule="evenodd" clip-rule="evenodd" d="M9.99996 2.66675C5.94987 2.66675 2.66663 5.94999 2.66663 10.0001C2.66663 14.0502 5.94987 17.3334 9.99996 17.3334C14.05 17.3334 17.3333 14.0502 17.3333 10.0001C17.3333 5.94999 14.05 2.66675 9.99996 2.66675ZM0.666626 10.0001C0.666626 4.84542 4.8453 0.666748 9.99996 0.666748C15.1546 0.666748 19.3333 4.84542 19.3333 10.0001C19.3333 15.1547 15.1546 19.3334 9.99996 19.3334C4.8453 19.3334 0.666626 15.1547 0.666626 10.0001Z" fill="#192743"/>
<path fill-rule="evenodd" clip-rule="evenodd" d="M10 5.66675C10.5523 5.66675 11 6.11446 11 6.66675V10.0001C11 10.5524 10.5523 11.0001 10 11.0001C9.44771 11.0001 9 10.5524 9 10.0001V6.66675C9 6.11446 9.44771 5.66675 10 5.66675Z" fill="#192743"/>
<path fill-rule="evenodd" clip-rule="evenodd" d="M9 13.3333C9 12.781 9.44771 12.3333 10 12.3333H10.0083C10.5606 12.3333 11.0083 12.781 11.0083 13.3333C11.0083 13.8855 10.5606 14.3333 10.0083 14.3333H10C9.44771 14.3333 9 13.8855 9 13.3333Z" fill="#192743"/>
</g>
<defs>
<clipPath id="clip0_134_4047">
<rect width="20" height="20" fill="white"/>
</clipPath>
</defs>
</svg>
