<svg width="20" height="20" viewBox="0 0 20 20" fill="none" xmlns="http://www.w3.org/2000/svg">
<path d="M10.0001 6.5C10.5524 6.5 11.0001 6.94772 11.0001 7.5V10.8333C11.0001 11.3856 10.5524 11.8333 10.0001 11.8333C9.44784 11.8333 9.00012 11.3856 9.00012 10.8333V7.5C9.00012 6.94772 9.44784 6.5 10.0001 6.5Z" fill="#192743"/>
<path d="M10.0001 13.1667C9.44784 13.1667 9.00012 13.6145 9.00012 14.1667C9.00012 14.719 9.44784 15.1667 10.0001 15.1667H10.0085C10.5607 15.1667 11.0085 14.719 11.0085 14.1667C11.0085 13.6145 10.5607 13.1667 10.0085 13.1667H10.0001Z" fill="#192743"/>
<path fill-rule="evenodd" clip-rule="evenodd" d="M8.69188 1.75728C9.09125 1.53243 9.54183 1.41431 10.0001 1.41431C10.4585 1.41431 10.909 1.53243 11.3084 1.75728C11.7078 1.98212 12.0424 2.30611 12.2801 2.69797L12.283 2.70271L19.3413 14.4861L19.3495 14.4999C19.5823 14.9031 19.7055 15.3603 19.7068 15.8259C19.7081 16.2915 19.5875 16.7494 19.3569 17.1539C19.1263 17.5584 18.7938 17.8955 18.3925 18.1317C17.9912 18.3678 17.5351 18.4947 17.0695 18.4999L17.0585 18.5L2.93081 18.4999C2.46521 18.4948 2.00907 18.3678 1.60776 18.1317C1.20645 17.8955 0.873965 17.5584 0.643384 17.1539C0.412803 16.7494 0.292164 16.2915 0.293467 15.8259C0.294771 15.3603 0.417973 14.9031 0.650816 14.4999L0.658939 14.4861L7.71727 2.70272L8.57514 3.21659L7.72014 2.69797C7.95783 2.30611 8.29251 1.98212 8.69188 1.75728ZM9.43127 3.73336L2.37971 15.5054C2.3235 15.6049 2.29378 15.7172 2.29346 15.8315C2.29313 15.9479 2.32329 16.0624 2.38094 16.1635C2.43858 16.2646 2.52171 16.3489 2.62203 16.4079C2.72115 16.4663 2.83363 16.4979 2.94856 16.4999H17.0517C17.1666 16.4979 17.2791 16.4663 17.3782 16.4079C17.4786 16.3489 17.5617 16.2646 17.6193 16.1635C17.677 16.0624 17.7071 15.9479 17.7068 15.8315C17.7065 15.7172 17.6768 15.6049 17.6206 15.5054L10.5701 3.73522L10.5691 3.73344C10.5097 3.63627 10.4264 3.55592 10.3272 3.50005C10.2274 3.44384 10.1147 3.41431 10.0001 3.41431C9.88556 3.41431 9.77292 3.44384 9.67307 3.50005C9.57386 3.5559 9.49062 3.63623 9.43127 3.73336Z" fill="#192743"/>
</svg>
