<svg width="20" height="20" viewBox="0 0 20 20" fill="none" xmlns="http://www.w3.org/2000/svg">
<path fill-rule="evenodd" clip-rule="evenodd" d="M5 9C7.20914 9 9 7.20914 9 5C9 2.79086 7.20914 1 5 1C2.79086 1 1 2.79086 1 5C1 7.20914 2.79086 9 5 9ZM5 7C6.10457 7 7 6.10457 7 5C7 3.89543 6.10457 3 5 3C3.89543 3 3 3.89543 3 5C3 6.10457 3.89543 7 5 7Z" fill="#192743"/>
<path d="M15.9583 3C16.5336 3 17 3.46637 17 4.04167V8.20833C17 8.78363 16.5336 9.25 15.9583 9.25C15.383 9.25 14.9167 8.78363 14.9167 8.20833V5.08333H11.7917C11.2164 5.08333 10.75 4.61696 10.75 4.04167C10.75 3.46637 11.2164 3 11.7917 3H15.9583Z" fill="#192743"/>
<path d="M4.04167 17C3.46637 17 3 16.5336 3 15.9583V11.7917C3 11.2164 3.46637 10.75 4.04167 10.75C4.61696 10.75 5.08333 11.2164 5.08333 11.7917V14.9167H8.20833C8.78363 14.9167 9.25 15.383 9.25 15.9583C9.25 16.5336 8.78363 17 8.20833 17H4.04167Z" fill="#192743"/>
<path fill-rule="evenodd" clip-rule="evenodd" d="M11 13C11 11.8954 11.8954 11 13 11H17C18.1046 11 19 11.8954 19 13V17C19 18.1046 18.1046 19 17 19H13C11.8954 19 11 18.1046 11 17V13ZM13 13H17V17H13V13Z" fill="#192743"/>
</svg>
