<svg width="20" height="20" viewBox="0 0 20 20" fill="none" xmlns="http://www.w3.org/2000/svg">
<path d="M7 9.5C7 8.94772 7.44772 8.5 8 8.5H12C12.5523 8.5 13 8.94772 13 9.5C13 10.0523 12.5523 10.5 12 10.5H8C7.44772 10.5 7 10.0523 7 9.5Z" fill="#192743"/>
<path fill-rule="evenodd" clip-rule="evenodd" d="M1.2 1C0.537258 1 0 1.53726 0 2.2V5.8C0 6.46275 0.537262 7 1.2 7H1.5V17.3C1.5 17.9627 2.03726 18.5 2.7 18.5H17.3C17.9627 18.5 18.5 17.9627 18.5 17.3V7H18.8C19.4627 7 20 6.46274 20 5.8V2.2C20 1.53725 19.4627 1 18.8 1H1.2ZM16.5 7H3.5V16.5H16.5V7ZM2 5H18V3H2V5Z" fill="#192743"/>
</svg>
