<svg width="20" height="20" viewBox="0 0 20 20" fill="none" xmlns="http://www.w3.org/2000/svg">
<path d="M3.23554 10.3659C3.28432 10.4902 3.35894 10.6067 3.4594 10.7072L9.29273 16.5405C9.68325 16.931 10.3164 16.931 10.7069 16.5405C11.0975 16.15 11.0975 15.5168 10.7069 15.1263L6.58068 11H15.8332C16.3855 11 16.8332 10.5523 16.8332 10C16.8332 9.44776 16.3855 9.00004 15.8332 9.00004H6.58076L10.7069 4.87386C11.0975 4.48333 11.0975 3.85017 10.7069 3.45964C10.3164 3.06912 9.68325 3.06912 9.29273 3.45964L3.4648 9.28757C3.44606 9.30603 3.42804 9.32523 3.41079 9.34512C3.34357 9.42251 3.29023 9.50777 3.25076 9.59766C3.19658 9.72078 3.1665 9.8569 3.1665 10L3.16651 10.0031C3.16689 10.1311 3.19133 10.2535 3.23554 10.3659Z" fill="#192743"/>
</svg>
