<svg width="20" height="20" viewBox="0 0 20 20" fill="none" xmlns="http://www.w3.org/2000/svg">
<path d="M9.59741 16.7489C9.72053 16.8031 9.85665 16.8332 9.99979 16.8332C10.1289 16.8332 10.2523 16.8087 10.3656 16.7641C10.49 16.7154 10.6065 16.6407 10.7069 16.5403L16.5403 10.7069C16.9308 10.3164 16.9308 9.68326 16.5403 9.29273C16.1498 8.90221 15.5166 8.90221 15.1261 9.29273L10.9998 13.419L10.9998 4.16651C10.9998 3.61422 10.5521 3.16651 9.9998 3.16651C9.44751 3.16651 8.9998 3.61422 8.9998 4.1665L8.99979 13.4189L4.87361 9.29273C4.48309 8.90221 3.84992 8.90221 3.4594 9.29273C3.06887 9.68325 3.06887 10.3164 3.4594 10.7069L9.28731 16.5349C9.30578 16.5536 9.32498 16.5716 9.34487 16.5889C9.42226 16.6561 9.50753 16.7094 9.59741 16.7489Z" fill="#192743"/>
</svg>
