<svg width="20" height="20" viewBox="0 0 20 20" fill="none" xmlns="http://www.w3.org/2000/svg">
<path d="M10 1C10.5523 1 11 1.44772 11 2V8.26765L16.4282 5.13367C16.9065 4.85753 17.5181 5.0214 17.7943 5.4997C18.0704 5.97799 17.9065 6.58958 17.4282 6.86572L11.9999 9.99976L17.4282 13.1338C17.9065 13.4099 18.0704 14.0215 17.7943 14.4998C17.5181 14.9781 16.9065 15.142 16.4282 14.8658L11 11.7319V18C11 18.5523 10.5523 19 10 19C9.44773 19 9.00002 18.5523 9.00002 18L9.00002 11.7318L3.57182 14.8657C3.09353 15.1419 2.48194 14.978 2.2058 14.4997C1.92966 14.0214 2.09353 13.4098 2.57182 13.1337L7.99992 9.99976L2.57182 6.86584C2.09353 6.5897 1.92965 5.97811 2.2058 5.49981C2.48194 5.02152 3.09353 4.85765 3.57182 5.13379L9.00002 8.26776L9.00002 2C9.00002 1.44772 9.44773 1 10 1Z" fill="#192743"/>
</svg>
