<svg width="20" height="20" viewBox="0 0 20 20" fill="none" xmlns="http://www.w3.org/2000/svg">
<path fill-rule="evenodd" clip-rule="evenodd" d="M10 7.33325C10.5523 7.33325 11 7.78097 11 8.33325V16.6666C11 17.2189 10.5523 17.6666 10 17.6666C9.44772 17.6666 9 17.2189 9 16.6666V8.33325C9 7.78097 9.44772 7.33325 10 7.33325Z" fill="#192743"/>
<path fill-rule="evenodd" clip-rule="evenodd" d="M15 2.33325C15.5523 2.33325 16 2.78097 16 3.33325V16.6666C16 17.2189 15.5523 17.6666 15 17.6666C14.4477 17.6666 14 17.2189 14 16.6666V3.33325C14 2.78097 14.4477 2.33325 15 2.33325Z" fill="#192743"/>
<path fill-rule="evenodd" clip-rule="evenodd" d="M5 12.3333C5.55228 12.3333 6 12.781 6 13.3333V16.6666C6 17.2189 5.55228 17.6666 5 17.6666C4.44772 17.6666 4 17.2189 4 16.6666V13.3333C4 12.781 4.44772 12.3333 5 12.3333Z" fill="#192743"/>
</svg>
