<svg width="20" height="20" viewBox="0 0 20 20" fill="none" xmlns="http://www.w3.org/2000/svg">
<path fill-rule="evenodd" clip-rule="evenodd" d="M5.75732 2.25736C6.88253 1.13214 8.40866 0.5 9.99996 0.5C11.5913 0.5 13.1174 1.13214 14.2426 2.25736C15.3678 3.38258 16 4.9087 16 6.5C16 9.26933 16.592 10.9763 17.1279 11.9586C17.3971 12.4524 17.6577 12.7733 17.8353 12.9607C17.9243 13.0547 17.9932 13.1158 18.0327 13.1488C18.052 13.1649 18.0644 13.1743 18.0687 13.1775C18.4255 13.4241 18.5831 13.8735 18.457 14.2898C18.3293 14.7115 17.9406 15 17.5 15H2.49996C2.05929 15 1.67056 14.7115 1.54286 14.2898C1.41681 13.8735 1.57444 13.4241 1.9312 13.1775C1.93534 13.1746 1.93951 13.1718 1.94371 13.169L1.94274 13.1696L1.94045 13.1712L1.93654 13.1738L1.9312 13.1775C1.92886 13.1791 1.92918 13.179 1.9312 13.1775C1.93109 13.1776 1.9313 13.1774 1.9312 13.1775C1.93555 13.1742 1.9479 13.1649 1.96719 13.1488C2.00674 13.1158 2.07559 13.0547 2.16463 12.9607C2.34218 12.7733 2.60277 12.4524 2.87206 11.9586C3.40789 10.9763 3.99996 9.26933 3.99996 6.5C3.99996 4.9087 4.6321 3.38258 5.75732 2.25736ZM4.5816 13H15.4183C15.4029 12.9725 15.3875 12.9446 15.3721 12.9164C14.6579 11.607 14 9.56401 14 6.5C14 5.43913 13.5785 4.42172 12.8284 3.67157C12.0782 2.92143 11.0608 2.5 9.99996 2.5C8.93909 2.5 7.92167 2.92143 7.17153 3.67157C6.42138 4.42172 5.99996 5.43913 5.99996 6.5C5.99996 9.56401 5.34202 11.607 4.62785 12.9164C4.61245 12.9446 4.59703 12.9725 4.5816 13Z" fill="#192743"/>
<path fill-rule="evenodd" clip-rule="evenodd" d="M7.44448 16.6687C7.90366 16.3618 8.52465 16.4853 8.83149 16.9445C8.93124 17.0938 9.08587 17.2341 9.29322 17.3378C9.50081 17.4416 9.74503 17.5001 10 17.5001C10.255 17.5001 10.4992 17.4416 10.7068 17.3378C10.9141 17.2341 11.0688 17.0938 11.1685 16.9445C11.4754 16.4853 12.0963 16.3618 12.5555 16.6687C13.0147 16.9755 13.1382 17.5965 12.8313 18.0557C12.5246 18.5147 12.0958 18.8792 11.6012 19.1266C11.1068 19.3738 10.5551 19.5 10 19.5C9.44488 19.5 8.89321 19.3738 8.39882 19.1266C7.90419 18.8792 7.47538 18.5147 7.16865 18.0557C6.86181 17.5965 6.98531 16.9755 7.44448 16.6687Z" fill="#192743"/>
</svg>
