<svg width="20" height="20" viewBox="0 0 20 20" fill="none" xmlns="http://www.w3.org/2000/svg">
<path fill-rule="evenodd" clip-rule="evenodd" d="M3.99992 13C4.55221 13 4.99992 13.4477 4.99992 14V18C4.99992 18.5523 4.55221 19 3.99992 19C3.44764 19 2.99992 18.5523 2.99992 18V14C2.99992 13.4477 3.44764 13 3.99992 13ZM7.99992 11C8.55221 11 8.99992 11.4477 8.99992 12V18C8.99992 18.5523 8.55221 19 7.99992 19C7.44764 19 6.99992 18.5523 6.99992 18V12C6.99992 11.4477 7.44764 11 7.99992 11ZM11.9999 12C12.5522 12 12.9999 12.4477 12.9999 13V18C12.9999 18.5523 12.5522 19 11.9999 19C11.4476 19 10.9999 18.5523 10.9999 18V13C10.9999 12.4477 11.4476 12 11.9999 12ZM15.9999 9C16.5522 9 16.9999 9.44771 16.9999 10V18C16.9999 18.5523 16.5522 19 15.9999 19C15.4476 19 14.9999 18.5523 14.9999 18V10C14.9999 9.44772 15.4476 9 15.9999 9ZM16.9999 1C17.5522 1 17.9999 1.44772 17.9999 2V6C17.9999 6.55228 17.5522 7 16.9999 7C16.4476 7 15.9999 6.55228 15.9999 6V4.41406L11.707 8.70703C11.3164 9.09756 10.6834 9.09756 10.2929 8.70703L6.99992 5.41406L3.70696 8.70703C3.31643 9.09756 2.68342 9.09756 2.29289 8.70703C1.90237 8.31651 1.90237 7.68349 2.29289 7.29297L6.29289 3.29297C6.68342 2.90244 7.31643 2.90244 7.70696 3.29297L10.9999 6.58594L14.5859 3H12.9999C12.4476 3 11.9999 2.55228 11.9999 2C11.9999 1.44772 12.4476 1 12.9999 1H16.9999Z" fill="#192743"/>
</svg>
