<svg width="20" height="20" viewBox="0 0 20 20" fill="none" xmlns="http://www.w3.org/2000/svg">
<path fill-rule="evenodd" clip-rule="evenodd" d="M3.99992 7.99992C4.55221 7.99992 4.99992 8.44764 4.99992 8.99992V17.9999C4.99992 18.5522 4.55221 18.9999 3.99992 18.9999C3.44764 18.9999 2.99992 18.5522 2.99992 17.9999V8.99992C2.99992 8.44764 3.44764 7.99992 3.99992 7.99992ZM7.99992 9.99992C8.55221 9.99992 8.99992 10.4476 8.99992 10.9999V17.9999C8.99992 18.5522 8.55221 18.9999 7.99992 18.9999C7.44764 18.9999 6.99992 18.5522 6.99992 17.9999V10.9999C6.99992 10.4476 7.44764 9.99992 7.99992 9.99992ZM11.9999 11.9999C12.5522 11.9999 12.9999 12.4476 12.9999 12.9999V17.9999C12.9999 18.5522 12.5522 18.9999 11.9999 18.9999C11.4476 18.9999 10.9999 18.5522 10.9999 17.9999V12.9999C10.9999 12.4476 11.4476 11.9999 11.9999 11.9999ZM15.9999 13.9999C16.5522 13.9999 16.9999 14.4476 16.9999 14.9999V17.9999C16.9999 18.5522 16.5522 18.9999 15.9999 18.9999C15.4476 18.9999 14.9999 18.5522 14.9999 17.9999V14.9999C14.9999 14.4476 15.4476 13.9999 15.9999 13.9999ZM10.2929 1.29289C10.6834 0.902369 11.3164 0.902369 11.707 1.29289L15.9999 5.58586V3.99992C15.9999 3.44764 16.4476 2.99992 16.9999 2.99992C17.5522 2.99992 17.9999 3.44764 17.9999 3.99992V7.99992C17.9999 8.55221 17.5522 8.99992 16.9999 8.99992H12.9999C12.4476 8.99992 11.9999 8.55221 11.9999 7.99992C11.9999 7.44764 12.4476 6.99992 12.9999 6.99992H14.5859L10.9999 3.41399L7.70696 6.70696C7.31643 7.09748 6.68342 7.09748 6.29289 6.70696L2.29289 2.70696C1.90237 2.31643 1.90237 1.68342 2.29289 1.29289C2.68342 0.902369 3.31643 0.902369 3.70696 1.29289L6.99992 4.58586L10.2929 1.29289Z" fill="#192743"/>
</svg>
