<svg width="20" height="20" viewBox="0 0 20 20" fill="none" xmlns="http://www.w3.org/2000/svg">
<path fill-rule="evenodd" clip-rule="evenodd" d="M5.83334 3.5C5.65653 3.5 5.48696 3.57024 5.36193 3.69526C5.23691 3.82029 5.16667 3.98986 5.16667 4.16667V15.5568L9.41877 12.5196C9.76646 12.2712 10.2335 12.2712 10.5812 12.5196L14.8333 15.5568V4.16667C14.8333 3.98986 14.7631 3.82029 14.6381 3.69526C14.5131 3.57024 14.3435 3.5 14.1667 3.5H5.83334ZM3.94772 2.28105C4.44782 1.78095 5.12609 1.5 5.83334 1.5H14.1667C14.8739 1.5 15.5522 1.78095 16.0523 2.28105C16.5524 2.78115 16.8333 3.45942 16.8333 4.16667V17.5C16.8333 17.8746 16.624 18.2178 16.2909 18.3892C15.9578 18.5606 15.5569 18.5315 15.2521 18.3137L10 14.5622L4.74791 18.3137C4.4431 18.5315 4.04216 18.5606 3.70909 18.3892C3.37602 18.2178 3.16667 17.8746 3.16667 17.5V4.16667C3.16667 3.45942 3.44762 2.78115 3.94772 2.28105Z" fill="#192743"/>
</svg>
