<svg width="20" height="20" viewBox="0 0 20 20" fill="none" xmlns="http://www.w3.org/2000/svg">
<path fill-rule="evenodd" clip-rule="evenodd" d="M8.33341 1.5C7.62617 1.5 6.94789 1.78095 6.4478 2.28105C5.9477 2.78115 5.66675 3.45942 5.66675 4.16667V4.83333H3.33341C1.86066 4.83333 0.666748 6.02724 0.666748 7.5V15.8333C0.666748 17.3061 1.86066 18.5 3.33341 18.5H6.66675H13.3334H16.6667C18.1395 18.5 19.3334 17.3061 19.3334 15.8333V7.5C19.3334 6.02724 18.1395 4.83333 16.6667 4.83333H14.3334V4.16667C14.3334 3.45942 14.0525 2.78115 13.5524 2.28105C13.0523 1.78095 12.374 1.5 11.6667 1.5H8.33341ZM12.3334 4.83333V4.16667C12.3334 3.98986 12.2632 3.82029 12.1382 3.69526C12.0131 3.57024 11.8436 3.5 11.6667 3.5H8.33341C8.1566 3.5 7.98703 3.57024 7.86201 3.69526C7.73699 3.82029 7.66675 3.98986 7.66675 4.16667V4.83333H12.3334ZM7.66675 6.83333H12.3334V16.5H7.66675V6.83333ZM5.66675 6.83333H3.33341C2.96522 6.83333 2.66675 7.13181 2.66675 7.5V15.8333C2.66675 16.2015 2.96522 16.5 3.33341 16.5H5.66675V6.83333ZM14.3334 16.5V6.83333H16.6667C17.0349 6.83333 17.3334 7.13181 17.3334 7.5V15.8333C17.3334 16.2015 17.0349 16.5 16.6667 16.5H14.3334Z" fill="#192743"/>
</svg>
