<svg width="20" height="20" viewBox="0 0 20 20" fill="none" xmlns="http://www.w3.org/2000/svg">
<path fill-rule="evenodd" clip-rule="evenodd" d="M5.5 3V2C5.5 1.44772 5.94772 1 6.5 1C7.05228 1 7.5 1.44772 7.5 2V3H12.5V2C12.5 1.44772 12.9477 1 13.5 1C14.0523 1 14.5 1.44772 14.5 2V3H16C17.3807 3 18.5 4.11929 18.5 5.5V16.5C18.5 17.8807 17.3807 19 16 19H4C2.61929 19 1.5 17.8807 1.5 16.5V5.5C1.5 4.11929 2.61929 3 4 3H5.5ZM16.5 5.5V7H3.5V5.5C3.5 5.22386 3.72386 5 4 5H16C16.2761 5 16.5 5.22386 16.5 5.5ZM16.5 9H3.5V16.5C3.5 16.7761 3.72386 17 4 17H16C16.2761 17 16.5 16.7761 16.5 16.5V9Z" fill="#192743"/>
</svg>
