<svg width="20" height="20" viewBox="0 0 20 20" fill="none" xmlns="http://www.w3.org/2000/svg">
<path d="M4 2V3H2.5C1.11929 3 0 4.11929 0 5.5V16.5C0 17.8807 1.11929 19 2.5 19H14.5C15.8807 19 17 17.8807 17 16.5V11H15V16.5C15 16.7761 14.7761 17 14.5 17H2.5C2.22386 17 2 16.7761 2 16.5V9H11.1707C11.0602 8.68722 11 8.35064 11 8C11 7.64936 11.0602 7.31278 11.1707 7H2V5.5C2 5.22386 2.22386 5 2.5 5H16.95C16.7184 3.85888 15.7095 3 14.5 3H13V2C13 1.44772 12.5523 1 12 1C11.4477 1 11 1.44772 11 2V3H6V2C6 1.44772 5.55228 1 5 1C4.44772 1 4 1.44772 4 2Z" fill="#192743"/>
<path d="M13.5 7C12.9477 7 12.5 7.44772 12.5 8C12.5 8.55228 12.9477 9 13.5 9H18.5C19.0523 9 19.5 8.55228 19.5 8C19.5 7.44772 19.0523 7 18.5 7H13.5Z" fill="#192743"/>
</svg>
