<svg width="20" height="20" viewBox="0 0 20 20" fill="none" xmlns="http://www.w3.org/2000/svg">
<path d="M7 9C6.44772 9 6 9.44771 6 10C6 10.5523 6.44772 11 7 11H13C13.5523 11 14 10.5523 14 10C14 9.44771 13.5523 9 13 9H7Z" fill="#192743"/>
<path d="M6 14C6 13.4477 6.44772 13 7 13H10C10.5523 13 11 13.4477 11 14C11 14.5523 10.5523 15 10 15H7C6.44772 15 6 14.5523 6 14Z" fill="#192743"/>
<path fill-rule="evenodd" clip-rule="evenodd" d="M5 2C5 0.89543 5.89543 0 7 0H13C14.1046 0 15 0.895431 15 2H15.25C16.7688 2 18 3.23122 18 4.75V17.25C18 18.7688 16.7688 20 15.25 20H4.75C3.23122 20 2 18.7688 2 17.25V4.75C2 3.23122 3.23122 2 4.75 2L5 2ZM7 2V4H13V2H7ZM15 4C15 5.10457 14.1046 6 13 6H7C5.89543 6 5 5.10457 5 4H4.75C4.33579 4 4 4.33579 4 4.75V17.25C4 17.6642 4.33579 18 4.75 18H15.25C15.6642 18 16 17.6642 16 17.25V4.75C16 4.33579 15.6642 4 15.25 4H15Z" fill="#192743"/>
</svg>
