<svg width="20" height="20" viewBox="0 0 20 20" fill="none" xmlns="http://www.w3.org/2000/svg">
<path d="M2.50008 1.66665C2.03985 1.66665 1.66675 2.03974 1.66675 2.49998L1.66675 17.5C1.66675 17.9602 2.03985 18.3333 2.50008 18.3333C2.96032 18.3333 3.33342 17.9602 3.33342 17.5L3.33342 2.49998C3.33342 2.03974 2.96032 1.66665 2.50008 1.66665Z" fill="#192743"/>
<path d="M12.256 5.24406C11.9306 4.91862 11.4029 4.91862 11.0775 5.24406L6.91083 9.41073C6.58539 9.73616 6.58539 10.2638 6.91083 10.5892L11.0775 14.7559C11.4029 15.0813 11.9306 15.0813 12.256 14.7559C12.5814 14.4305 12.5814 13.9028 12.256 13.5774L9.51193 10.8333L17.5596 10.8333C17.987 10.8333 18.3334 10.4602 18.3334 9.99998C18.3334 9.53974 17.987 9.16665 17.5596 9.16665L9.51193 9.16665L12.256 6.42257C12.5814 6.09713 12.5814 5.5695 12.256 5.24406Z" fill="#192743"/>
</svg>
