<svg width="20" height="20" viewBox="0 0 20 20" fill="none" xmlns="http://www.w3.org/2000/svg">
<g clip-path="url(#clip0_2910_2910)">
<path fill-rule="evenodd" clip-rule="evenodd" d="M13.2165 5.51819C13.5757 5.39846 13.9721 5.49183 14.2399 5.7594C14.5077 6.0272 14.6018 6.42354 14.4821 6.78284L12.7155 12.0826C12.616 12.3812 12.3813 12.6159 12.0827 12.7155L6.7829 14.4821C6.42359 14.6018 6.02726 14.5077 5.75946 14.2399C5.49189 13.972 5.39852 13.5756 5.51825 13.2164L7.28485 7.91663L7.32782 7.80823C7.44335 7.56206 7.65557 7.37196 7.91669 7.28479L13.2165 5.51819ZM9.02313 9.02307L8.04657 11.9518L10.9753 10.9752L11.9518 8.04651L9.02313 9.02307Z" fill="#192743"/>
<path fill-rule="evenodd" clip-rule="evenodd" d="M9.99969 0.666626C15.1542 0.666626 19.3335 4.84513 19.3337 9.99963C19.3337 15.1543 15.1544 19.3336 9.99969 19.3336C4.84519 19.3334 0.666687 15.1542 0.666687 9.99963C0.666863 4.84523 4.84529 0.666802 9.99969 0.666626ZM9.99969 2.66663C5.94986 2.6668 2.66686 5.9498 2.66669 9.99963C2.66669 14.0496 5.94976 17.3334 9.99969 17.3336C14.0498 17.3336 17.3337 14.0497 17.3337 9.99963C17.3335 5.9497 14.0497 2.66663 9.99969 2.66663Z" fill="#192743"/>
</g>
<defs>
<clipPath id="clip0_2910_2910">
<rect width="20" height="20" fill="white"/>
</clipPath>
</defs>
</svg>
