<svg width="20" height="20" viewBox="0 0 20 20" fill="none" xmlns="http://www.w3.org/2000/svg">
<g clip-path="url(#clip0_134_4449)">
<path fill-rule="evenodd" clip-rule="evenodd" d="M7 0.5C6.44772 0.5 6 0.947715 6 1.5V3H5.3C4.02974 3 3 4.02975 3 5.3V6H1.5C0.947715 6 0.5 6.44772 0.5 7C0.5 7.55228 0.947715 8 1.5 8H3V12H1.5C0.947715 12 0.5 12.4477 0.5 13C0.5 13.5523 0.947715 14 1.5 14H3V14.7C3 15.9703 4.02975 17 5.3 17H6V18.5C6 19.0523 6.44772 19.5 7 19.5C7.55228 19.5 8 19.0523 8 18.5V17H12V18.5C12 19.0523 12.4477 19.5 13 19.5C13.5523 19.5 14 19.0523 14 18.5V17H14.7C15.9703 17 17 15.9703 17 14.7V14H18.5C19.0523 14 19.5 13.5523 19.5 13C19.5 12.4477 19.0523 12 18.5 12H17V8H18.5C19.0523 8 19.5 7.55228 19.5 7C19.5 6.44772 19.0523 6 18.5 6H17V5.3C17 4.02974 15.9703 3 14.7 3H14V1.5C14 0.947715 13.5523 0.5 13 0.5C12.4477 0.5 12 0.947715 12 1.5V3H8V1.5C8 0.947715 7.55228 0.5 7 0.5ZM8.2 7C7.53726 7 7 7.53726 7 8.2V11.8C7 12.4627 7.53726 13 8.2 13H11.8C12.4627 13 13 12.4627 13 11.8V8.2C13 7.53726 12.4627 7 11.8 7H8.2ZM5 5.3C5 5.13431 5.13431 5 5.3 5H14.7C14.8657 5 15 5.13431 15 5.3V14.7C15 14.8657 14.8657 15 14.7 15H5.3C5.13431 15 5 14.8657 5 14.7V5.3Z" fill="#192743"/>
</g>
<defs>
<clipPath id="clip0_134_4449">
<rect width="20" height="20" fill="white"/>
</clipPath>
</defs>
</svg>
