<svg width="20" height="20" viewBox="0 0 20 20" fill="none" xmlns="http://www.w3.org/2000/svg">
<path d="M15.293 10.2945C15.6835 9.9023 16.3166 9.90219 16.707 10.2945C17.0972 10.6869 17.097 11.3228 16.707 11.7154L10.7774 17.6763C10.3477 18.1077 9.65113 18.108 9.22169 17.6763L3.29298 11.7154C2.90273 11.3228 2.9026 10.687 3.29298 10.2945C3.68347 9.9023 4.31661 9.90219 4.70704 10.2945L10 15.6148L15.293 10.2945Z" fill="#192743"/>
<path d="M15.293 2.29449C15.6835 1.9023 16.3166 1.90219 16.707 2.29449C17.0972 2.68688 17.097 3.32284 16.707 3.71538L10.7774 9.67632C10.3477 10.1077 9.65113 10.108 9.22169 9.67632L3.29298 3.71538C2.90273 3.32283 2.9026 2.68696 3.29298 2.29449C3.68347 1.9023 4.31661 1.90219 4.70704 2.29449L10 7.6148L15.293 2.29449Z" fill="#192743"/>
</svg>
