<svg width="20" height="20" viewBox="0 0 20 20" fill="none" xmlns="http://www.w3.org/2000/svg">
<path d="M10.5821 2.61479C9.53925 2.17407 8.40547 1.96546 7.26614 2.00466C6.12681 2.04386 5.01162 2.32986 4.00452 2.84111C2.99743 3.35237 2.12467 4.07556 1.45196 4.95625C0.779248 5.83694 0.324108 6.85217 0.120806 7.92552C-0.0824961 8.99886 -0.0286629 10.1024 0.278253 11.1529C0.585169 12.2035 1.13717 13.1737 1.8927 13.9906C2.25251 14.3797 2.87381 14.416 3.28041 14.0717C3.68701 13.7274 3.72494 13.1329 3.36513 12.7439C2.80669 12.1401 2.39869 11.423 2.17184 10.6465C1.94499 9.86996 1.9052 9.05434 2.05547 8.26099C2.20573 7.46765 2.54214 6.71726 3.03936 6.06632C3.53659 5.41537 4.18167 4.88084 4.92604 4.50296C5.67041 4.12507 6.49469 3.91368 7.3368 3.88471C8.17891 3.85573 9.01692 4.00992 9.78774 4.33567C10.5586 4.66142 11.2421 5.15024 11.7869 5.76533C12.3317 6.38041 12.7236 7.10574 12.933 7.88671C13.0446 8.30269 13.4364 8.59355 13.8853 8.59355L14.9183 8.59355C15.58 8.59306 16.2247 8.79434 16.7588 9.16818C17.2929 9.54202 17.6886 10.069 17.8884 10.6726C18.0883 11.2762 18.082 11.925 17.8703 12.5249C17.6587 13.1248 17.2527 13.6446 16.7114 14.0088C16.2673 14.3076 16.1604 14.8943 16.4728 15.3193C16.7851 15.7442 17.3983 15.8465 17.8424 15.5476C18.7256 14.9534 19.3879 14.1054 19.7332 13.1266C20.0785 12.1478 20.0889 11.0892 19.7628 10.1044C19.4367 9.11954 18.7911 8.25978 17.9197 7.64983C17.0485 7.04003 15.9962 6.71164 14.9167 6.71229L14.6069 6.71229C14.3029 5.92482 13.8567 5.19236 13.2869 4.54903C12.5498 3.71685 11.625 3.05551 10.5821 2.61479Z" fill="#192743"/>
<path d="M10.002 9.06392C10.5449 9.06392 10.9851 9.48506 10.9851 10.0046V14.7886L12.5839 13.2588C12.9678 12.8915 13.5903 12.8915 13.9742 13.2588C14.3581 13.6261 14.3581 14.2217 13.9742 14.5891L10.6972 17.7245C10.4697 17.9422 10.1585 18.0309 9.86274 17.9906C9.80236 17.9824 9.74375 17.9689 9.68742 17.9507C9.54837 17.9059 9.41772 17.8305 9.30694 17.7245L6.02998 14.5891C5.64606 14.2217 5.64606 13.6261 6.02998 13.2588C6.4139 12.8915 7.03636 12.8915 7.42027 13.2588L9.01892 14.7884V10.0046C9.01892 9.48506 9.45906 9.06392 10.002 9.06392Z" fill="#192743"/>
</svg>
