<svg width="20" height="20" viewBox="0 0 20 20" fill="none" xmlns="http://www.w3.org/2000/svg">
<g clip-path="url(#clip0_134_4173)">
<path fill-rule="evenodd" clip-rule="evenodd" d="M10.9999 0.999939C10.9999 0.447654 10.5522 -6.10352e-05 9.99991 -6.10352e-05C9.44762 -6.10352e-05 8.99991 0.447654 8.99991 0.999939V10.5856L5.70702 7.29273C5.31649 6.90221 4.68333 6.90221 4.2928 7.29273C3.90228 7.68326 3.90228 8.31642 4.2928 8.70695L9.2845 13.6986C9.32637 13.7415 9.37206 13.7806 9.42102 13.8154C9.44899 13.8353 9.47804 13.8538 9.50804 13.8708C9.65328 13.953 9.82111 13.9999 9.99991 13.9999C10.1811 13.9999 10.3511 13.9517 10.4977 13.8674C10.5307 13.8484 10.5626 13.8276 10.5931 13.8051C10.6367 13.7729 10.6775 13.7373 10.7153 13.6986L15.707 8.70695C16.0975 8.31642 16.0975 7.68326 15.707 7.29273C15.3165 6.90221 14.6833 6.90221 14.2928 7.29273L10.9999 10.5856V0.999939ZM0.999908 11.9999C1.55219 11.9999 1.99991 12.4477 1.99991 12.9999V16.9999C1.99991 17.2652 2.10527 17.5195 2.2928 17.707C2.48034 17.8946 2.73469 17.9999 2.99991 17.9999H16.9999C17.2651 17.9999 17.5195 17.8946 17.707 17.707C17.8946 17.5195 17.9999 17.2652 17.9999 16.9999V12.9999C17.9999 12.4477 18.4476 11.9999 18.9999 11.9999C19.5522 11.9999 19.9999 12.4477 19.9999 12.9999V16.9999C19.9999 17.7956 19.6838 18.5586 19.1212 19.1213C18.5586 19.6839 17.7956 19.9999 16.9999 19.9999H2.99991C2.20426 19.9999 1.4412 19.6839 0.878588 19.1213C0.315979 18.5586 -9.15527e-05 17.7956 -9.15527e-05 16.9999V12.9999C-9.15527e-05 12.4477 0.447624 11.9999 0.999908 11.9999Z" fill="#192743"/>
</g>
<defs>
<clipPath id="clip0_134_4173">
<rect width="20" height="20" fill="white"/>
</clipPath>
</defs>
</svg>
