<svg width="20" height="20" viewBox="0 0 20 20" fill="none" xmlns="http://www.w3.org/2000/svg">
<path d="M6.8 1C6.35817 1 6 1.35817 6 1.8V3.2C6 3.64183 6.35817 4 6.8 4H8.2C8.64183 4 9 3.64183 9 3.2V1.8C9 1.35817 8.64183 1 8.2 1H6.8Z" fill="#192743"/>
<path d="M6.8 6C6.35817 6 6 6.35817 6 6.8V8.2C6 8.64183 6.35817 9 6.8 9H8.2C8.64183 9 9 8.64183 9 8.2V6.8C9 6.35817 8.64183 6 8.2 6H6.8Z" fill="#192743"/>
<path d="M6 11.8C6 11.3582 6.35817 11 6.8 11H8.2C8.64183 11 9 11.3582 9 11.8V13.2C9 13.6418 8.64183 14 8.2 14H6.8C6.35817 14 6 13.6418 6 13.2V11.8Z" fill="#192743"/>
<path d="M6.8 16C6.35817 16 6 16.3582 6 16.8V18.2C6 18.6418 6.35817 19 6.8 19H8.2C8.64183 19 9 18.6418 9 18.2V16.8C9 16.3582 8.64183 16 8.2 16H6.8Z" fill="#192743"/>
<path d="M11 1.8C11 1.35817 11.3582 1 11.8 1H13.2C13.6418 1 14 1.35817 14 1.8V3.2C14 3.64183 13.6418 4 13.2 4H11.8C11.3582 4 11 3.64183 11 3.2V1.8Z" fill="#192743"/>
<path d="M11.8 6C11.3582 6 11 6.35817 11 6.8V8.2C11 8.64183 11.3582 9 11.8 9H13.2C13.6418 9 14 8.64183 14 8.2V6.8C14 6.35817 13.6418 6 13.2 6H11.8Z" fill="#192743"/>
<path d="M11 11.8C11 11.3582 11.3582 11 11.8 11H13.2C13.6418 11 14 11.3582 14 11.8V13.2C14 13.6418 13.6418 14 13.2 14H11.8C11.3582 14 11 13.6418 11 13.2V11.8Z" fill="#192743"/>
<path d="M11.8 16C11.3582 16 11 16.3582 11 16.8V18.2C11 18.6418 11.3582 19 11.8 19H13.2C13.6418 19 14 18.6418 14 18.2V16.8C14 16.3582 13.6418 16 13.2 16H11.8Z" fill="#192743"/>
</svg>
