<svg width="20" height="20" viewBox="0 0 20 20" fill="none" xmlns="http://www.w3.org/2000/svg">
<g clip-path="url(#clip0_134_4189)">
<path fill-rule="evenodd" clip-rule="evenodd" d="M1.44767 3.11436C1.94777 2.61426 2.62605 2.33331 3.33329 2.33331H9.16663C9.71891 2.33331 10.1666 2.78103 10.1666 3.33331C10.1666 3.8856 9.71891 4.33331 9.16663 4.33331H3.33329C3.15648 4.33331 2.98691 4.40355 2.86189 4.52857C2.73686 4.6536 2.66663 4.82317 2.66663 4.99998V16.6666C2.66663 16.8435 2.73686 17.013 2.86189 17.1381C2.98691 17.2631 3.15648 17.3333 3.33329 17.3333H15C15.1768 17.3333 15.3463 17.2631 15.4714 17.1381C15.5964 17.013 15.6666 16.8435 15.6666 16.6666V10.8333C15.6666 10.281 16.1143 9.83331 16.6666 9.83331C17.2189 9.83331 17.6666 10.281 17.6666 10.8333V16.6666C17.6666 17.3739 17.3857 18.0522 16.8856 18.5523C16.3855 19.0524 15.7072 19.3333 15 19.3333H3.33329C2.62605 19.3333 1.94777 19.0524 1.44767 18.5523C0.947578 18.0522 0.666626 17.3739 0.666626 16.6666V4.99998C0.666626 4.29274 0.947577 3.61446 1.44767 3.11436Z" fill="#192743"/>
<path fill-rule="evenodd" clip-rule="evenodd" d="M16.6666 2.56555C16.463 2.56555 16.2677 2.64644 16.1237 2.79043L8.40292 10.5112L8.04099 11.959L9.48871 11.597L17.2095 3.87621C17.3535 3.73223 17.4344 3.53694 17.4344 3.33332C17.4344 3.12969 17.3535 2.93441 17.2095 2.79043C17.0655 2.64644 16.8703 2.56555 16.6666 2.56555ZM14.7095 1.37621C15.2286 0.857155 15.9326 0.565552 16.6666 0.565552C17.4007 0.565552 18.1047 0.857155 18.6237 1.37621C19.1428 1.89527 19.4344 2.59926 19.4344 3.33332C19.4344 4.06738 19.1428 4.77137 18.6237 5.29043L10.7071 13.2071C10.5789 13.3353 10.4183 13.4262 10.2425 13.4701L6.90916 14.3035C6.56839 14.3887 6.2079 14.2888 5.95952 14.0404C5.71114 13.792 5.61129 13.4316 5.69648 13.0908L6.52982 9.75745C6.57377 9.58162 6.66469 9.42104 6.79285 9.29288L14.7095 1.37621Z" fill="#192743"/>
</g>
<defs>
<clipPath id="clip0_134_4189">
<rect width="20" height="20" fill="white"/>
</clipPath>
</defs>
</svg>
