<svg width="20" height="20" viewBox="0 0 20 20" fill="none" xmlns="http://www.w3.org/2000/svg">
<path fill-rule="evenodd" clip-rule="evenodd" d="M7 1H4C2.34315 1 1 2.34315 1 4V16C1 17.6569 2.34315 19 4 19H7H16C17.6569 19 19 17.6569 19 16V4C19 2.34315 17.6569 1 16 1H7ZM6 3H4C3.44772 3 3 3.44772 3 4V6.38274C3.0468 6.37763 3.09448 6.375 3.14286 6.375H6V3ZM3 8.36726V11.7577C3.0468 11.7526 3.09448 11.75 3.14286 11.75H6V8.375H3.14286C3.09448 8.375 3.0468 8.37237 3 8.36726ZM3 13.7423V16C3 16.5523 3.44772 17 4 17H6V13.75H3.14286C3.09448 13.75 3.0468 13.7474 3 13.7423ZM8 17H16C16.5523 17 17 16.5523 17 16V13.7423C16.9532 13.7474 16.9055 13.75 16.8571 13.75H8V17ZM17 11.7577V8.36726C16.9532 8.37237 16.9055 8.375 16.8571 8.375H8V11.75H16.8571C16.9055 11.75 16.9532 11.7526 17 11.7577ZM17 6.38274C16.9532 6.37763 16.9055 6.375 16.8571 6.375H8V3H16C16.5523 3 17 3.44772 17 4V6.38274Z" fill="#192743"/>
</svg>
