<svg width="20" height="20" viewBox="0 0 20 20" fill="none" xmlns="http://www.w3.org/2000/svg">
<path d="M17.5 18.3331C17.0398 18.3331 16.6667 17.96 16.6667 17.4998L16.6667 2.4998C16.6667 2.03956 17.0398 1.66646 17.5 1.66646C17.9602 1.66646 18.3333 2.03956 18.3333 2.4998L18.3333 17.4998C18.3333 17.96 17.9602 18.3331 17.5 18.3331Z" fill="#192743"/>
<path d="M7.25593 14.7556C6.9305 15.081 6.40286 15.081 6.07742 14.7556L1.91075 10.5889C1.58532 10.2635 1.58532 9.73583 1.91075 9.41039L6.07742 5.24372C6.40286 4.91828 6.9305 4.91828 7.25593 5.24372C7.58137 5.56916 7.58137 6.0968 7.25593 6.42223L4.51185 9.16631L12.5 9.16631C12.9602 9.16631 13.3333 9.53941 13.3333 9.99964C13.3333 10.4599 12.9602 10.833 12.5 10.833L4.51185 10.833L7.25593 13.5771C7.58137 13.9025 7.58137 14.4301 7.25593 14.7556Z" fill="#192743"/>
</svg>
