<svg width="20" height="20" viewBox="0 0 20 20" fill="none" xmlns="http://www.w3.org/2000/svg">
<path d="M2.50002 1.66644C2.96026 1.66644 3.33335 2.03954 3.33335 2.49978V17.4998C3.33335 17.96 2.96026 18.3331 2.50002 18.3331C2.03978 18.3331 1.66669 17.96 1.66669 17.4998V2.49978C1.66669 2.03954 2.03978 1.66644 2.50002 1.66644Z" fill="#192743"/>
<path d="M12.7441 5.24401C13.0695 4.91857 13.5972 4.91857 13.9226 5.24401L18.0893 9.41067C18.4147 9.73611 18.4147 10.2637 18.0893 10.5892L13.9226 14.7559C13.5972 15.0813 13.0695 15.0813 12.7441 14.7559C12.4187 14.4304 12.4187 13.9028 12.7441 13.5773L15.4882 10.8333H7.50002C7.03978 10.8333 6.66669 10.4602 6.66669 9.99993C6.66669 9.53969 7.03978 9.1666 7.50002 9.1666H15.4882L12.7441 6.42252C12.4187 6.09708 12.4187 5.56944 12.7441 5.24401Z" fill="#192743"/>
</svg>
