<svg width="20" height="20" viewBox="0 0 20 20" fill="none" xmlns="http://www.w3.org/2000/svg">
<g clip-path="url(#clip0_134_4250)">
<path fill-rule="evenodd" clip-rule="evenodd" d="M1.70711 0.292893C1.31658 -0.0976311 0.683417 -0.0976311 0.292893 0.292893C-0.0976311 0.683417 -0.0976311 1.31658 0.292893 1.70711L3.65104 5.06525C2.22059 6.32728 1.02366 7.8358 0.118844 9.52201C-0.0347894 9.80832 -0.0397387 10.1514 0.105573 10.442L1 9.99483C0.105573 10.442 0.106337 10.4436 0.106337 10.4436L0.107406 10.4457L0.110457 10.4517L0.120207 10.4708C0.128326 10.4866 0.139683 10.5085 0.154253 10.536C0.183388 10.5911 0.225415 10.6689 0.280148 10.7662C0.389539 10.9607 0.55013 11.2338 0.760467 11.5595C1.1799 12.2089 1.80365 13.0774 2.62138 13.9496C4.23861 15.6747 6.73332 17.5365 9.99482 17.5365L10.0112 17.5364C11.6872 17.509 13.3184 17.0261 14.7331 16.1473L18.2825 19.6967C18.6731 20.0873 19.3062 20.0873 19.6967 19.6967C20.0873 19.3062 20.0873 18.6731 19.6967 18.2825L15.5686 14.1544C15.5648 14.1505 15.561 14.1466 15.5572 14.1428C15.5541 14.1397 15.551 14.1367 15.5479 14.1337L5.85418 4.43996C5.84737 4.43296 5.84048 4.42606 5.83351 4.41929L1.70711 0.292893ZM5.06841 6.48262C3.90977 7.48668 2.9222 8.67372 2.14533 9.99719C2.22524 10.1325 2.32379 10.2937 2.44055 10.4744C2.81327 11.0516 3.36498 11.8186 4.08046 12.5817C5.52805 14.1258 7.52792 15.5334 9.98667 15.5365C11.1385 15.5164 12.2631 15.2217 13.2696 14.6838L11.6425 13.0567C11.5441 13.1127 11.4428 13.164 11.339 13.2102C10.9155 13.399 10.4582 13.5004 9.99454 13.5086C9.53089 13.5168 9.07034 13.4315 8.64036 13.2578C8.21039 13.0842 7.8198 12.8257 7.49189 12.4978C7.16399 12.1699 6.90549 11.7793 6.73182 11.3493C6.55814 10.9193 6.47285 10.4588 6.48103 9.99511C6.48921 9.53145 6.5907 9.0742 6.77943 8.65062C6.82568 8.54682 6.87694 8.44556 6.93297 8.34718L5.06841 6.48262ZM8.4886 9.90281C8.48411 9.94513 8.48147 9.98769 8.48072 10.0304C8.47728 10.2255 8.51317 10.4193 8.58626 10.6003C8.65934 10.7812 8.76812 10.9456 8.90611 11.0835C9.0441 11.2215 9.20846 11.3303 9.3894 11.4034C9.57034 11.4765 9.76415 11.5124 9.95926 11.5089C10.002 11.5082 10.0445 11.5055 10.0868 11.5011L8.4886 9.90281Z" fill="#192743"/>
<path fill-rule="evenodd" clip-rule="evenodd" d="M8.50554 4.62308C8.99292 4.50899 9.49191 4.45197 9.99247 4.45314L9.99482 4.45315C12.4573 4.45315 14.46 5.86213 15.9092 7.40793C16.6247 8.1711 17.1764 8.9381 17.5491 9.51522C17.6661 9.69642 17.7649 9.8579 17.8449 9.99341C17.4396 10.6867 16.9757 11.3445 16.4582 11.9595C16.1026 12.3821 16.157 13.0129 16.5795 13.3685C17.0021 13.7241 17.633 13.6698 17.9885 13.2472C18.7113 12.3883 19.3424 11.4562 19.8716 10.4662C20.0245 10.1802 20.0291 9.83774 19.8841 9.54762L18.9896 9.99483C19.8841 9.54762 19.8833 9.54609 19.8833 9.54609L19.8822 9.54397L19.8792 9.53793L19.8694 9.51884C19.8613 9.50305 19.85 9.48118 19.8354 9.45365C19.8063 9.39859 19.7642 9.32079 19.7095 9.22348C19.6001 9.02901 19.4395 8.75585 19.2292 8.43017C18.8097 7.78072 18.186 6.9123 17.3683 6.04005C15.7512 4.31521 13.2569 2.45359 9.99597 2.45315L9.99482 2.45315V3.45315L9.99717 2.45315L9.99597 2.45315C9.34079 2.4517 8.68766 2.52639 8.04971 2.67571C7.51196 2.80159 7.17807 3.33956 7.30395 3.87731C7.42982 4.41506 7.96779 4.74895 8.50554 4.62308Z" fill="#192743"/>
</g>
<defs>
<clipPath id="clip0_134_4250">
<rect width="20" height="20" fill="white"/>
</clipPath>
</defs>
</svg>
