<svg width="20" height="20" viewBox="0 0 20 20" fill="none" xmlns="http://www.w3.org/2000/svg">
<path fill-rule="evenodd" clip-rule="evenodd" d="M2.89764 9.78702C2.97095 9.91146 3.06209 10.0608 3.17066 10.2289C3.50731 10.7502 4.00566 11.443 4.652 12.1324C5.96083 13.5285 7.77175 14.8035 10.0001 14.8035C12.2284 14.8035 14.0393 13.5285 15.3482 12.1324C15.9945 11.443 16.4928 10.7502 16.8295 10.2289C16.9381 10.0608 17.0292 9.91146 17.1025 9.78702C17.0292 9.66258 16.9381 9.51325 16.8295 9.34515C16.4928 8.82388 15.9945 8.13107 15.3482 7.44164C14.0393 6.04555 12.2284 4.77058 10.0001 4.77058C7.77175 4.77058 5.96083 6.04555 4.652 7.44164C4.00566 8.13107 3.50731 8.82388 3.17066 9.34515C3.06209 9.51325 2.97095 9.66258 2.89764 9.78702ZM18.1149 9.78702C18.9067 9.39112 18.9064 9.39051 18.9064 9.39051L18.9051 9.38787L18.9023 9.38246L18.8936 9.36533C18.8863 9.35114 18.8761 9.33147 18.863 9.30669C18.8367 9.25714 18.7989 9.18708 18.7496 9.09943C18.651 8.92424 18.5063 8.67811 18.3168 8.38461C17.9388 7.79931 17.3767 7.0167 16.6398 6.23071C15.1822 4.67596 12.9357 3.00008 10.0001 3.00008C7.06442 3.00008 4.81793 4.67596 3.36035 6.23071C2.62348 7.0167 2.06137 7.79931 1.68336 8.38461C1.49381 8.67811 1.34911 8.92424 1.25057 9.09943C1.20126 9.18708 1.16342 9.25714 1.1372 9.30669C1.12408 9.33147 1.11387 9.35114 1.10658 9.36533L1.09782 9.38246L1.09509 9.38787L1.09414 9.38977C1.09414 9.38977 1.09346 9.39112 1.88525 9.78702L1.09346 9.39112C0.968847 9.64035 0.968847 9.93369 1.09346 10.1829L1.88525 9.78702C1.09346 10.1829 1.09346 10.1829 1.09346 10.1829L1.09509 10.1862L1.09782 10.1916L1.10658 10.2087C1.11387 10.2229 1.12408 10.2426 1.1372 10.2673C1.16342 10.3169 1.20126 10.387 1.25057 10.4746C1.34911 10.6498 1.49381 10.8959 1.68336 11.1894C2.06137 11.7747 2.62348 12.5573 3.36035 13.3433C4.81793 14.8981 7.06442 16.574 10.0001 16.574C12.9357 16.574 15.1822 14.8981 16.6398 13.3433C17.3767 12.5573 17.9388 11.7747 18.3168 11.1894C18.5063 10.8959 18.651 10.6498 18.7496 10.4746C18.7989 10.387 18.8367 10.3169 18.863 10.2673C18.8761 10.2426 18.8863 10.2229 18.8936 10.2087L18.9023 10.1916L18.9051 10.1862L18.906 10.1843C18.906 10.1843 18.9067 10.1829 18.1149 9.78702ZM18.1149 9.78702L18.9067 10.1829C19.0313 9.93369 19.031 9.63974 18.9064 9.39051L18.1149 9.78702Z" fill="#192743"/>
<path fill-rule="evenodd" clip-rule="evenodd" d="M10 8.45914C9.26667 8.45914 8.67216 9.05366 8.67216 9.78702C8.67216 10.5204 9.26667 11.1149 10 11.1149C10.7334 11.1149 11.3279 10.5204 11.3279 9.78702C11.3279 9.05366 10.7334 8.45914 10 8.45914ZM6.90165 9.78702C6.90165 8.07583 8.28885 6.68864 10 6.68864C11.7112 6.68864 13.0984 8.07583 13.0984 9.78702C13.0984 11.4982 11.7112 12.8854 10 12.8854C8.28885 12.8854 6.90165 11.4982 6.90165 9.78702Z" fill="#192743"/>
</svg>
