<svg width="20" height="20" viewBox="0 0 20 20" fill="none" xmlns="http://www.w3.org/2000/svg">
<path d="M11.6971 14.8284C12.0095 15.1408 12.516 15.1408 12.8285 14.8284C13.1409 14.516 13.1409 14.0095 12.8285 13.6971L11.1314 12L12.8284 10.3029C13.1408 9.99052 13.1408 9.48399 12.8284 9.17157C12.516 8.85915 12.0094 8.85915 11.697 9.17157L9.99999 10.8686L8.30297 9.17157C7.99056 8.85915 7.48402 8.85915 7.1716 9.17157C6.85919 9.48399 6.85918 9.99052 7.1716 10.3029L8.86862 12L7.17152 13.6971C6.8591 14.0095 6.8591 14.516 7.17152 14.8284C7.48394 15.1408 7.99047 15.1408 8.30289 14.8284L9.99999 13.1313L11.6971 14.8284Z" fill="#192743"/>
<path fill-rule="evenodd" clip-rule="evenodd" d="M4.5 0C3.11929 0 2 1.11929 2 2.5V17.4994C2 18.8801 3.11984 20 4.50056 20H15.4994C16.8801 20 18 18.8801 18 17.4994V5.82843C18 5.29799 17.7893 4.78929 17.4142 4.41421L13.5858 0.585786C13.2107 0.210713 12.702 0 12.1716 0H4.5ZM12 7C10.8954 7 10 6.10457 10 5V2H5C4.44772 2 4 2.44772 4 3V17C4 17.5523 4.44772 18 5 18H15C15.5523 18 16 17.5523 16 17V7H12ZM15 5L12 2V5H15Z" fill="#192743"/>
</svg>
