<svg width="20" height="20" viewBox="0 0 20 20" fill="none" xmlns="http://www.w3.org/2000/svg">
<path fill-rule="evenodd" clip-rule="evenodd" d="M2 1C1.44772 1 1 1.47405 1 2.05882C1 2.6436 1.44772 3.11765 2 3.11765H18C18.5523 3.11765 19 2.6436 19 2.05882C19 1.47405 18.5523 1 18 1H2ZM5 6.29412C4.44772 6.29412 4 6.76817 4 7.35294C4 7.93771 4.44772 8.41177 5 8.41177H15C15.5523 8.41177 16 7.93771 16 7.35294C16 6.76817 15.5523 6.29412 15 6.29412H5ZM7 12.6471C7 12.0623 7.44772 11.5882 8 11.5882H12C12.5523 11.5882 13 12.0623 13 12.6471C13 13.2318 12.5523 13.7059 12 13.7059H8C7.44772 13.7059 7 13.2318 7 12.6471ZM9 16.8824C8.44772 16.8824 8 17.3564 8 17.9412C8 18.5259 8.44772 19 9 19H11C11.5523 19 12 18.5259 12 17.9412C12 17.3564 11.5523 16.8824 11 16.8824H9Z" fill="#192743"/>
</svg>
