<svg width="20" height="20" viewBox="0 0 20 20" fill="none" xmlns="http://www.w3.org/2000/svg">
<path fill-rule="evenodd" clip-rule="evenodd" d="M6.89062 9.21375L6.33937 7.58625H2.90063L2.34938 9.21375H0L3.33375 0H5.9325L9.26625 9.21375H6.89062ZM5.76188 5.85375L4.62 2.48063L3.49125 5.85375H5.76188Z" fill="#192743"/>
<path fill-rule="evenodd" clip-rule="evenodd" d="M18.1781 15.2749C18.7118 15.3886 19.1406 15.6555 19.4643 16.0755C19.7881 16.4868 19.9499 16.9593 19.9499 17.493C19.9499 18.263 19.6787 18.8755 19.1362 19.3305C18.6024 19.7768 17.8543 19.9999 16.8918 19.9999H12.5999V10.7861H16.7474C17.6837 10.7861 18.4143 11.0005 18.9393 11.4293C19.4731 11.858 19.7399 12.4399 19.7399 13.1749C19.7399 13.7174 19.5956 14.168 19.3068 14.5268C19.0268 14.8855 18.6506 15.1349 18.1781 15.2749ZM17.1543 12.8336C16.9618 12.6674 16.6818 12.5843 16.3143 12.5843H14.8443V14.5136H16.3143C16.6818 14.5136 16.9618 14.4349 17.1543 14.2774C17.3556 14.1111 17.4562 13.8705 17.4562 13.5555C17.4562 13.2405 17.3556 12.9999 17.1543 12.8336ZM16.4981 18.1886C16.8743 18.1886 17.1631 18.1055 17.3643 17.9393C17.5743 17.7643 17.6793 17.5149 17.6793 17.1911C17.6793 16.8674 17.5699 16.6136 17.3512 16.4299C17.1412 16.2461 16.8481 16.1543 16.4718 16.1543H14.8443V18.1886H16.4981Z" fill="#192743"/>
<path d="M3.125 17.0833C3.125 17.6586 3.59137 18.125 4.16667 18.125H8.33333C8.90863 18.125 9.375 17.6586 9.375 17.0833C9.375 16.508 8.90863 16.0417 8.33333 16.0417H5.20833V12.9167C5.20833 12.3414 4.74196 11.875 4.16667 11.875C3.59137 11.875 3.125 12.3414 3.125 12.9167V17.0833Z" fill="#192743"/>
<path d="M16.875 2.91667C16.875 2.34137 16.4086 1.875 15.8333 1.875H11.6667C11.0914 1.875 10.625 2.34137 10.625 2.91667C10.625 3.49196 11.0914 3.95833 11.6667 3.95833H14.7917V7.08333C14.7917 7.65863 15.258 8.125 15.8333 8.125C16.4086 8.125 16.875 7.65863 16.875 7.08333V2.91667Z" fill="#192743"/>
</svg>
