<svg width="20" height="20" viewBox="0 0 20 20" fill="none" xmlns="http://www.w3.org/2000/svg">
<path d="M6.66638 0.666687C8.10998 0.666687 9.30559 1.14445 10.3177 1.5495C10.3358 1.55671 10.3536 1.5648 10.3715 1.57196C11.4311 1.99583 12.3027 2.33368 13.3334 2.33368C14.4704 2.33368 15.1758 2.14394 15.5658 1.98798C15.7615 1.9097 15.8829 1.83843 15.9427 1.79852C15.9661 1.78296 15.9804 1.77127 15.9867 1.7663C16.2722 1.50157 16.6873 1.42609 17.0492 1.57587C17.4228 1.73061 17.6663 2.09536 17.6664 2.49969V12.4997C17.6664 12.7649 17.5609 13.0192 17.3734 13.2067L16.6664 12.4997C17.3153 13.1486 17.3685 13.2028 17.3724 13.2077L17.3715 13.2097L17.3695 13.2116L17.3646 13.2155L17.3549 13.2263C17.3475 13.2333 17.3388 13.2412 17.3295 13.2497C17.311 13.2665 17.2884 13.2856 17.2621 13.3073C17.2089 13.3511 17.1392 13.4045 17.0521 13.4626C16.8776 13.5789 16.6338 13.7154 16.309 13.8454C15.6573 14.1061 14.6961 14.3337 13.3334 14.3337C11.8899 14.3337 10.6951 13.8549 9.68298 13.4499C9.66496 13.4427 9.6462 13.4356 9.6283 13.4284C8.56869 13.0046 7.69697 12.6667 6.66638 12.6667C5.52945 12.6667 4.82391 12.8555 4.43396 13.0114C4.39749 13.026 4.36473 13.0433 4.33337 13.0573V18.3337C4.3332 18.8858 3.88555 19.3337 3.33337 19.3337C2.7812 19.3337 2.33355 18.8858 2.33337 18.3337V2.49969C2.33346 2.2346 2.43888 1.98012 2.62634 1.79266L3.33337 2.49969C2.62643 1.79275 2.62679 1.79221 2.62732 1.79169L2.63513 1.78387L2.64587 1.77411C2.6532 1.76713 2.66109 1.75904 2.67029 1.75067C2.68891 1.73374 2.71208 1.71396 2.73865 1.69208C2.79174 1.64837 2.8608 1.59568 2.94763 1.53778C3.12211 1.42146 3.36599 1.28492 3.6908 1.15497C4.34245 0.894305 5.30384 0.666723 6.66638 0.666687ZM6.66638 2.66669C5.52945 2.66672 4.82391 2.85546 4.43396 3.01141C4.39793 3.02582 4.36441 3.04057 4.33337 3.05438V10.9421C4.92965 10.7816 5.69632 10.6667 6.66638 10.6667C8.10999 10.6667 9.30559 11.1445 10.3177 11.5495C10.3358 11.5567 10.3536 11.5648 10.3715 11.572C11.4311 11.9958 12.3027 12.3337 13.3334 12.3337C14.4704 12.3337 15.1758 12.1439 15.5658 11.988C15.6017 11.9736 15.6354 11.9597 15.6664 11.946V4.05731C15.0701 4.21781 14.3035 4.33368 13.3334 4.33368C11.8899 4.33368 10.6951 3.85491 9.68298 3.44989C9.66496 3.44268 9.6462 3.43557 9.6283 3.42841C8.56869 3.00456 7.69697 2.66669 6.66638 2.66669Z" fill="#192743"/>
</svg>
