<svg width="20" height="20" viewBox="0 0 20 20" fill="none" xmlns="http://www.w3.org/2000/svg">
<path fill-rule="evenodd" clip-rule="evenodd" d="M3.33334 3.5C3.15653 3.5 2.98696 3.57024 2.86193 3.69526C2.73691 3.82029 2.66667 3.98986 2.66667 4.16667V15.8333C2.66667 16.0101 2.73691 16.1797 2.86193 16.3047C2.98696 16.4298 3.15653 16.5 3.33334 16.5H16.6667C16.8435 16.5 17.0131 16.4298 17.1381 16.3047C17.2631 16.1797 17.3333 16.0101 17.3333 15.8333V6.66667C17.3333 6.48986 17.2631 6.32029 17.1381 6.19526C17.0131 6.07024 16.8435 6 16.6667 6H9.16667C8.83232 6 8.52009 5.8329 8.33462 5.5547L6.96482 3.5H3.33334ZM1.44772 2.28105C1.94782 1.78095 2.62609 1.5 3.33334 1.5H7.5C7.83436 1.5 8.14659 1.6671 8.33206 1.9453L9.70186 4H16.6667C17.3739 4 18.0522 4.28095 18.5523 4.78105C19.0524 5.28115 19.3333 5.95942 19.3333 6.66667V15.8333C19.3333 16.5406 19.0524 17.2189 18.5523 17.719C18.0522 18.219 17.3739 18.5 16.6667 18.5H3.33334C2.62609 18.5 1.94782 18.219 1.44772 17.719C0.947623 17.2189 0.666672 16.5406 0.666672 15.8333V4.16667C0.666672 3.45942 0.947623 2.78115 1.44772 2.28105Z" fill="#192743"/>
</svg>
