<svg width="20" height="20" viewBox="0 0 20 20" fill="none" xmlns="http://www.w3.org/2000/svg">
<path fill-rule="evenodd" clip-rule="evenodd" d="M6.5 10C6.5 8.067 8.067 6.5 10 6.5C11.933 6.5 13.5 8.067 13.5 10C13.5 11.933 11.933 13.5 10 13.5C8.067 13.5 6.5 11.933 6.5 10ZM10 8.5C9.17157 8.5 8.5 9.17157 8.5 10C8.5 10.8284 9.17157 11.5 10 11.5C10.8284 11.5 11.5 10.8284 11.5 10C11.5 9.17157 10.8284 8.5 10 8.5Z" fill="#192743"/>
<path fill-rule="evenodd" clip-rule="evenodd" d="M15.4491 12.2091L16.2725 12.5725C16.2471 12.6301 16.2395 12.6939 16.2507 12.7559C16.2617 12.8167 16.2904 12.8729 16.3331 12.9175L16.3723 12.9567C16.5929 13.1771 16.7679 13.4388 16.8873 13.7268C17.0067 14.0148 17.0682 14.3236 17.0682 14.6354C17.0682 14.9472 17.0067 15.256 16.8873 15.544C16.7681 15.8318 16.5933 16.0932 16.373 16.3134L15.7367 15.6777L16.3723 16.3141L16.373 16.3134C16.1527 16.534 15.891 16.709 15.6029 16.8284C15.3149 16.9478 15.0061 17.0093 14.6943 17.0093C14.3825 17.0093 14.0737 16.9478 13.7857 16.8284C13.4977 16.709 13.236 16.534 13.0156 16.3134L12.9764 16.2742C12.9318 16.2315 12.8756 16.2028 12.8148 16.1918C12.7528 16.1806 12.689 16.1881 12.6314 16.2136L12.6226 16.2175C12.5661 16.2417 12.5179 16.2818 12.484 16.333C12.4503 16.3839 12.4321 16.4434 12.4316 16.5044V16.6273C12.4316 17.2566 12.1817 17.8601 11.7367 18.305C11.2917 18.75 10.6882 19 10.0589 19C9.42962 19 8.82611 18.75 8.38114 18.305C7.93616 17.8601 7.68618 17.2566 7.68618 16.6273V16.575C7.68339 16.5143 7.66312 16.4556 7.62773 16.4062C7.59095 16.3547 7.53957 16.3156 7.48025 16.2938C7.46245 16.2872 7.44487 16.2801 7.42752 16.2725C7.36994 16.2471 7.30607 16.2395 7.24414 16.2507C7.1833 16.2617 7.12708 16.2904 7.08246 16.3331L7.0433 16.3723C6.823 16.5928 6.5611 16.768 6.2732 16.8873C5.98516 17.0067 5.6764 17.0682 5.36459 17.0682C5.05278 17.0682 4.74402 17.0067 4.45598 16.8873C4.16794 16.7679 3.90625 16.5929 3.68589 16.3723C3.46561 16.1521 3.29085 15.8907 3.17157 15.6029C3.05217 15.3149 2.99071 15.0061 2.99071 14.6943C2.99071 14.3825 3.05217 14.0737 3.17157 13.7857C3.29091 13.4978 3.4658 13.2363 3.68624 13.016L3.72578 12.9764C3.7685 12.9318 3.79718 12.8756 3.80821 12.8148C3.81944 12.7528 3.81185 12.689 3.78644 12.6314L3.78254 12.6226C3.75834 12.5661 3.71821 12.5179 3.66699 12.484C3.61613 12.4503 3.55659 12.4321 3.4956 12.4316H3.37273C2.74344 12.4316 2.13993 12.1817 1.69496 11.7367C1.24998 11.2917 1 10.6882 1 10.0589C1 9.42962 1.24998 8.82611 1.69496 8.38114C2.13993 7.93616 2.74344 7.68618 3.37273 7.68618H3.42505C3.48572 7.68339 3.54435 7.66312 3.59384 7.62773C3.64525 7.59095 3.68441 7.53957 3.70623 7.48025C3.71277 7.46245 3.71988 7.44487 3.72753 7.42752C3.75295 7.36994 3.76053 7.30607 3.7493 7.24414C3.73827 7.1833 3.70958 7.12708 3.66686 7.08247L3.62769 7.0433C3.40708 6.82293 3.23207 6.56125 3.11266 6.2732C2.99326 5.98516 2.9318 5.6764 2.9318 5.36459C2.9318 5.05278 2.99326 4.74402 3.11266 4.45598C3.232 4.16809 3.40689 3.90653 3.62733 3.68624C3.84762 3.4658 4.10918 3.29091 4.39707 3.17157C4.68511 3.05217 4.99387 2.99071 5.30568 2.99071C5.61749 2.99071 5.92625 3.05217 6.21429 3.17157C6.50234 3.29098 6.76402 3.46599 6.98439 3.68659L7.02356 3.72577C7.06818 3.76849 7.12439 3.79718 7.18523 3.80821C7.24716 3.81944 7.31103 3.81185 7.36861 3.78644C7.4148 3.76606 7.46249 3.74965 7.51118 3.73733C7.53572 3.71734 7.55725 3.69366 7.57491 3.66699C7.60862 3.6161 7.6268 3.55652 7.62727 3.49549V3.37273C7.62727 2.74344 7.87726 2.13993 8.32223 1.69496C8.7672 1.24998 9.37071 1 10 1C10.6293 1 11.2328 1.24998 11.6778 1.69496C12.1227 2.13993 12.3727 2.74344 12.3727 3.37273V3.43669C12.3732 3.49768 12.3914 3.55722 12.4251 3.60808C12.459 3.6593 12.5072 3.69948 12.5636 3.72368L12.5725 3.72749C12.6301 3.7529 12.6939 3.76053 12.7559 3.7493C12.8167 3.73827 12.8729 3.70959 12.9175 3.66687L12.9567 3.62769C13.177 3.40724 13.4389 3.232 13.7268 3.11266C14.0148 2.99326 14.3236 2.9318 14.6354 2.9318C14.9472 2.9318 15.256 2.99326 15.544 3.11266C15.8318 3.23194 16.0932 3.4067 16.3134 3.62698C16.534 3.84734 16.709 4.10902 16.8284 4.39707C16.9478 4.68511 17.0093 4.99387 17.0093 5.30568C17.0093 5.6175 16.9478 5.92625 16.8284 6.21429C16.7091 6.50219 16.5342 6.76374 16.3138 6.98403L16.2742 7.02355C16.2315 7.06817 16.2028 7.12439 16.1918 7.18523C16.1806 7.24716 16.1881 7.31103 16.2136 7.36861C16.2339 7.41479 16.2503 7.46249 16.2627 7.51117C16.2827 7.53572 16.3063 7.55725 16.333 7.57491C16.3839 7.60862 16.4435 7.6268 16.5045 7.62727H16.6273C17.2566 7.62727 17.8601 7.87726 18.305 8.32223C18.75 8.7672 19 9.37071 19 10C19 10.6293 18.75 11.2328 18.305 11.6778C17.8601 12.1227 17.2566 12.3727 16.6273 12.3727H16.5633C16.5023 12.3732 16.4428 12.3914 16.3919 12.4251C16.3407 12.459 16.3005 12.5072 16.2763 12.5636L15.4491 12.2091ZM10 2.8C9.8481 2.8 9.70243 2.86034 9.59502 2.96775C9.48761 3.07516 9.42727 3.22083 9.42727 3.37273V3.5015C9.42563 3.91397 9.3034 4.31696 9.07565 4.66086C8.84791 5.00476 8.52457 5.27456 8.14545 5.43704C8.07473 5.46735 8.00059 5.48839 7.92487 5.49979C7.58479 5.61592 7.21967 5.6438 6.86409 5.57933C6.44827 5.50393 6.06458 5.3057 5.76248 5.01019L5.75538 5.00325L5.71124 4.95903C5.65805 4.90578 5.59453 4.86318 5.525 4.83436C5.45547 4.80554 5.38095 4.7907 5.30568 4.7907C5.23042 4.7907 5.15589 4.80554 5.08636 4.83436C5.01683 4.86318 4.95367 4.90543 4.90048 4.95868L4.89977 4.95939C4.84652 5.01258 4.80428 5.07574 4.77545 5.14527C4.74663 5.2148 4.7318 5.28933 4.7318 5.36459C4.7318 5.43986 4.74663 5.51438 4.77545 5.58391C4.80428 5.65344 4.84652 5.7166 4.89977 5.7698L4.95132 5.82135C5.24683 6.12345 5.44502 6.50718 5.52042 6.923C5.59412 7.32948 5.54714 7.74843 5.38559 8.1282C5.23731 8.51525 4.97846 8.85042 4.64098 9.09179C4.2958 9.33868 3.88432 9.47601 3.46005 9.48594L3.439 9.48618H3.37273C3.22083 9.48618 3.07516 9.54652 2.96775 9.65393C2.86034 9.76134 2.8 9.90701 2.8 10.0589C2.8 10.2108 2.86034 10.3565 2.96775 10.4639C3.07516 10.5713 3.22083 10.6316 3.37273 10.6316H3.5015C3.91397 10.6333 4.31696 10.7555 4.66086 10.9833C5.00343 11.2101 5.27246 11.5318 5.43515 11.9091C5.60421 12.2945 5.65443 12.7217 5.57933 13.1359C5.50393 13.5517 5.3057 13.9354 5.01019 14.2375L5.00325 14.2446L4.95903 14.2888C4.90578 14.342 4.86319 14.4055 4.83436 14.475C4.80554 14.5445 4.7907 14.6191 4.7907 14.6943C4.7907 14.7696 4.80554 14.8441 4.83436 14.9136C4.86319 14.9832 4.90543 15.0463 4.95868 15.0995L4.95939 15.1002C5.01258 15.1535 5.07574 15.1957 5.14527 15.2245C5.2148 15.2534 5.28933 15.2682 5.36459 15.2682C5.43985 15.2682 5.51438 15.2534 5.58391 15.2245C5.65344 15.1957 5.71661 15.1535 5.7698 15.1002L5.82135 15.0487C6.12345 14.7532 6.50718 14.555 6.923 14.4796C7.32948 14.4059 7.74843 14.4529 8.12819 14.6144C8.51525 14.7627 8.85042 15.0215 9.09179 15.359C9.33868 15.7042 9.47601 16.1157 9.48594 16.54L9.48618 16.561V16.6273C9.48618 16.7792 9.54652 16.9248 9.65393 17.0323C9.76134 17.1397 9.90701 17.2 10.0589 17.2C10.2108 17.2 10.3565 17.1397 10.4639 17.0323C10.5713 16.9248 10.6316 16.7792 10.6316 16.6273V16.5021L10.6316 16.4985C10.6333 16.086 10.7555 15.683 10.9833 15.3391C11.2101 14.9966 11.5318 14.7275 11.9091 14.5648C12.2945 14.3958 12.7217 14.3456 13.1359 14.4207C13.5517 14.4961 13.9354 14.6943 14.2375 14.9898L14.2446 14.9967L14.2888 15.041C14.3419 15.0942 14.4055 15.1368 14.475 15.1656C14.5445 15.1945 14.6191 15.2093 14.6943 15.2093C14.7696 15.2093 14.8441 15.1945 14.9136 15.1656C14.9832 15.1368 15.0463 15.0946 15.0995 15.0413L15.1002 15.0406C15.1535 14.9874 15.1957 14.9243 15.2245 14.8547C15.2534 14.7852 15.2682 14.7107 15.2682 14.6354C15.2682 14.5601 15.2534 14.4856 15.2245 14.4161C15.1957 14.3466 15.1535 14.2834 15.1002 14.2302L15.0487 14.1786C14.7532 13.8765 14.555 13.4928 14.4796 13.077C14.4045 12.6628 14.4547 12.2356 14.6238 11.8501C14.7864 11.4729 15.0555 11.1512 15.3981 10.9243C15.7419 10.6966 16.1449 10.5744 16.5574 10.5727L16.561 10.5727L16.6273 10.5727C16.7792 10.5727 16.9248 10.5124 17.0323 10.405C17.1397 10.2976 17.2 10.1519 17.2 10C17.2 9.8481 17.1397 9.70243 17.0323 9.59502C16.9248 9.48761 16.7792 9.42727 16.6273 9.42727H16.5021L16.4985 9.42727C16.086 9.42562 15.683 9.3034 15.3391 9.07565C14.9952 8.84791 14.7254 8.52457 14.563 8.14545C14.5326 8.07473 14.5116 8.00059 14.5002 7.92487C14.3841 7.58479 14.3562 7.21967 14.4207 6.86409C14.4961 6.44827 14.6943 6.06458 14.9898 5.76248L14.9967 5.75539L15.041 5.71124C15.0942 5.65805 15.1368 5.59453 15.1656 5.525C15.1945 5.45547 15.2093 5.38095 15.2093 5.30568C15.2093 5.23042 15.1945 5.15589 15.1656 5.08636C15.1368 5.01683 15.0946 4.95367 15.0413 4.90048L15.0406 4.89977C14.9874 4.84652 14.9243 4.80428 14.8547 4.77545C14.7852 4.74663 14.7107 4.7318 14.6354 4.7318C14.5601 4.7318 14.4856 4.74663 14.4161 4.77545C14.3466 4.80428 14.2834 4.84652 14.2302 4.89977L14.1786 4.95132C13.8766 5.24683 13.4928 5.44502 13.077 5.52042C12.6628 5.59552 12.2356 5.5453 11.8501 5.37624C11.4729 5.21356 11.1512 4.94452 10.9243 4.60195C10.6966 4.25805 10.5744 3.85506 10.5727 3.44259L10.5727 3.439V3.37273C10.5727 3.22083 10.5124 3.07516 10.405 2.96775C10.2976 2.86034 10.1519 2.8 10 2.8Z" fill="#192743"/>
</svg>
