<svg width="20" height="20" viewBox="0 0 20 20" fill="none" xmlns="http://www.w3.org/2000/svg">
<path fill-rule="evenodd" clip-rule="evenodd" d="M17 7C17 10.5273 14.391 13.4453 10.9976 13.9295C10.9992 13.9528 11 13.9763 11 14V15.5H12.5C13.0523 15.5 13.5 15.9477 13.5 16.5C13.5 17.0523 13.0523 17.5 12.5 17.5H11V19C11 19.5523 10.5523 20 10 20C9.44772 20 9 19.5523 9 19V17.5H7.5C6.94772 17.5 6.5 17.0523 6.5 16.5C6.5 15.9477 6.94772 15.5 7.5 15.5H9V14C9 13.9763 9.00083 13.9528 9.00245 13.9295C5.60896 13.4453 3 10.5273 3 7C3 3.13401 6.13401 0 10 0C13.866 0 17 3.13401 17 7ZM10 12C12.7614 12 15 9.76142 15 7C15 4.23858 12.7614 2 10 2C7.23858 2 5 4.23858 5 7C5 9.76142 7.23858 12 10 12Z" fill="#192743"/>
</svg>
