<svg width="20" height="20" viewBox="0 0 20 20" fill="none" xmlns="http://www.w3.org/2000/svg">
<path fill-rule="evenodd" clip-rule="evenodd" d="M10.6139 0.877396C10.2528 0.596532 9.74717 0.596532 9.38606 0.877396L1.88606 6.71073C1.64247 6.90019 1.5 7.19149 1.5 7.50008V16.6667C1.5 17.374 1.78095 18.0523 2.28105 18.5524C2.78115 19.0525 3.45942 19.3334 4.16667 19.3334H15.8333C16.5406 19.3334 17.2189 19.0525 17.719 18.5524C18.219 18.0523 18.5 17.374 18.5 16.6667V7.50008C18.5 7.19149 18.3575 6.90019 18.1139 6.71073L10.6139 0.877396ZM3.69526 17.1382C3.57024 17.0131 3.5 16.8436 3.5 16.6667V7.98916L10 2.93361L16.5 7.98917V16.6667C16.5 16.8436 16.4298 17.0131 16.3047 17.1382C16.1797 17.2632 16.0101 17.3334 15.8333 17.3334H13.5V10.0001C13.5 9.44779 13.0523 9.00008 12.5 9.00008H7.5C6.94772 9.00008 6.5 9.44779 6.5 10.0001V17.3334H4.16667C3.98986 17.3334 3.82029 17.2632 3.69526 17.1382ZM11.5 17.3334V11.0001H8.5V17.3334H11.5Z" fill="#192743"/>
</svg>
