<svg width="20" height="20" viewBox="0 0 20 20" fill="none" xmlns="http://www.w3.org/2000/svg">
<g clip-path="url(#clip0_134_4262)">
<path fill-rule="evenodd" clip-rule="evenodd" d="M10 17.3333C14.0501 17.3333 17.3334 14.05 17.3334 9.99992C17.3334 5.94983 14.0501 2.66659 10 2.66659C5.94995 2.66659 2.66671 5.94983 2.66671 9.99992C2.66671 14.05 5.94995 17.3333 10 17.3333ZM19.3334 9.99992C19.3334 15.1546 15.1547 19.3333 10 19.3333C4.84538 19.3333 0.666708 15.1546 0.666708 9.99992C0.666708 4.84526 4.84538 0.666586 10 0.666586C15.1547 0.666586 19.3334 4.84526 19.3334 9.99992Z" fill="#192743"/>
<path fill-rule="evenodd" clip-rule="evenodd" d="M10 14.3333C9.44771 14.3333 9 13.8855 9 13.3333L9 9.99992C9 9.44763 9.44771 8.99992 10 8.99992C10.5523 8.99992 11 9.44763 11 9.99992L11 13.3333C11 13.8855 10.5523 14.3333 10 14.3333Z" fill="#192743"/>
<path fill-rule="evenodd" clip-rule="evenodd" d="M11 6.66675C11 7.21903 10.5523 7.66675 10 7.66675H9.99167C9.43938 7.66675 8.99167 7.21903 8.99167 6.66675C8.99167 6.11446 9.43938 5.66675 9.99167 5.66675H10C10.5523 5.66675 11 6.11446 11 6.66675Z" fill="#192743"/>
</g>
<defs>
<clipPath id="clip0_134_4262">
<rect width="20" height="20" fill="white"/>
</clipPath>
</defs>
</svg>
