<svg width="20" height="20" viewBox="0 0 20 20" fill="none" xmlns="http://www.w3.org/2000/svg">
<path d="M12.4782 2.33331C12.4928 2.33299 12.5075 2.33299 12.5222 2.33331H15.8334C16.3857 2.33331 16.8334 2.78103 16.8334 3.33331C16.8334 3.8856 16.3857 4.33331 15.8334 4.33331H13.193L8.94302 15.6667H11.6666C12.2189 15.6667 12.6666 16.1144 12.6666 16.6667C12.6666 17.219 12.2189 17.6667 11.6666 17.6667H7.52245C7.50743 17.667 7.49239 17.667 7.47731 17.6667H4.16663C3.61434 17.6667 3.16663 17.219 3.16663 16.6667C3.16663 16.1144 3.61434 15.6667 4.16663 15.6667H6.80702L11.057 4.33331H8.33337C7.78109 4.33331 7.33337 3.8856 7.33337 3.33331C7.33337 2.78103 7.78109 2.33331 8.33337 2.33331H12.4782Z" fill="#192743"/>
</svg>
