<svg width="20" height="20" viewBox="0 0 20 20" fill="none" xmlns="http://www.w3.org/2000/svg">
<path fill-rule="evenodd" clip-rule="evenodd" d="M16 1H4C2.34315 1 1 2.34315 1 4V16C1 17.6569 2.34315 19 4 19H16C17.6569 19 19 17.6569 19 16V4C19 2.34315 17.6569 1 16 1ZM3 4C3 3.44772 3.44772 3 4 3H16C16.5523 3 17 3.44772 17 4V6.00774C16.9532 6.00263 16.9055 6 16.8571 6H3.14286C3.09448 6 3.0468 6.00263 3 6.00774V4ZM3 7.99226V16C3 16.5523 3.44772 17 4 17H6.25V8H3.14286C3.09448 8 3.0468 7.99737 3 7.99226ZM8.25 17H16C16.5523 17 17 16.5523 17 16V7.99226C16.9532 7.99737 16.9055 8 16.8571 8H8.25V17Z" fill="#192743"/>
</svg>
