<svg width="20" height="20" viewBox="0 0 20 20" fill="none" xmlns="http://www.w3.org/2000/svg">
<path fill-rule="evenodd" clip-rule="evenodd" d="M10 0.5C5.99594 0.5 2.75 3.74594 2.75 7.75C2.75 10.0293 3.80296 12.0633 5.44513 13.3908C5.47206 13.4126 5.48759 13.4343 5.49495 13.4485L5.49614 13.451C5.49873 13.4564 5.5 13.4609 5.5 13.4609V14.2C5.5 15.3046 6.39543 16.2 7.5 16.2H12.5C13.6046 16.2 14.5 15.3046 14.5 14.2V13.4609C14.5 13.4609 14.5017 13.4551 14.505 13.4485C14.5124 13.4343 14.5279 13.4126 14.5549 13.3908C16.197 12.0633 17.25 10.0293 17.25 7.75C17.25 3.74594 14.0041 0.5 10 0.5ZM4.75 7.75C4.75 4.8505 7.1005 2.5 10 2.5C12.8995 2.5 15.25 4.8505 15.25 7.75C15.25 9.39978 14.4902 10.8714 13.2976 11.8354C12.8412 12.2043 12.5 12.7815 12.5 13.4594V14.2H11V11.5H12C12.2761 11.5 12.5 11.2761 12.5 11V10C12.5 9.72386 12.2761 9.5 12 9.5H8C7.72386 9.5 7.5 9.72386 7.5 10V11C7.5 11.2761 7.72386 11.5 8 11.5H9V14.2H7.5V13.4594C7.5 12.7815 7.15879 12.2043 6.70243 11.8354C5.50981 10.8714 4.75 9.39978 4.75 7.75Z" fill="#192743"/>
<path d="M7 18C6.44772 18 6 18.4477 6 19C6 19.5523 6.44772 20 7 20H13C13.5523 20 14 19.5523 14 19C14 18.4477 13.5523 18 13 18H7Z" fill="#192743"/>
</svg>
