<svg width="20" height="20" viewBox="0 0 20 20" fill="none" xmlns="http://www.w3.org/2000/svg">
<g clip-path="url(#clip0_134_4274)">
<path fill-rule="evenodd" clip-rule="evenodd" d="M10.5302 2.17239C11.5047 1.23124 12.8098 0.710469 14.1644 0.722241C15.5191 0.734013 16.815 1.27739 17.7729 2.23533C18.7309 3.19327 19.2743 4.48913 19.286 5.84382C19.2978 7.1985 18.777 8.50361 17.8359 9.47806L17.8237 9.49045L15.3238 11.9903C14.8 12.5143 14.1697 12.9195 13.4755 13.1784C12.7814 13.4374 12.0397 13.544 11.3007 13.4911C10.5617 13.4381 9.84276 13.2269 9.19259 12.8717C8.54242 12.5165 7.97625 12.0256 7.53249 11.4323C7.20168 10.9901 7.29202 10.3634 7.73427 10.0326C8.17652 9.70177 8.80321 9.79212 9.13402 10.2344C9.406 10.598 9.75301 10.8988 10.1515 11.1166C10.55 11.3343 10.9906 11.4637 11.4436 11.4962C11.8965 11.5286 12.3511 11.4633 12.7765 11.3046C13.202 11.1459 13.5883 10.8975 13.9094 10.5764L16.4029 8.0828C16.9762 7.48619 17.2933 6.68879 17.2861 5.8612C17.2789 5.03091 16.9458 4.23667 16.3587 3.64954C15.7716 3.06242 14.9774 2.72938 14.1471 2.72217C13.319 2.71497 12.5212 3.03241 11.9245 3.60629L10.4966 5.02584C10.105 5.41523 9.4718 5.41338 9.08242 5.02172C8.69304 4.63006 8.69488 3.9969 9.08654 3.60751L10.5199 2.18251L10.5302 2.17239Z" fill="#192743"/>
<path fill-rule="evenodd" clip-rule="evenodd" d="M6.5243 6.8216C7.21845 6.56266 7.96017 6.45603 8.69915 6.50896C9.43813 6.56188 10.1571 6.77312 10.8073 7.12833C11.4574 7.48355 12.0236 7.97444 12.4674 8.5677C12.7982 9.00995 12.7078 9.63664 12.2656 9.96745C11.8233 10.2983 11.1966 10.2079 10.8658 9.76566C10.5938 9.40205 10.2468 9.10118 9.84834 8.88346C9.44985 8.66575 9.0092 8.53629 8.55628 8.50385C8.10335 8.47141 7.64875 8.53676 7.22331 8.69547C6.79786 8.85417 6.41152 9.10252 6.09049 9.42366L3.59693 11.9172C3.02364 12.5138 2.70655 13.3112 2.71374 14.1388C2.72096 14.9691 3.05399 15.7634 3.64112 16.3505C4.22824 16.9376 5.02248 17.2706 5.85277 17.2779C6.68036 17.2851 7.47777 16.968 8.07438 16.3947L9.49282 14.9762C9.88334 14.5857 10.5165 14.5857 10.907 14.9762C11.2976 15.3668 11.2976 15.9999 10.907 16.3905L9.48203 17.8155L9.46963 17.8276C8.49519 18.7688 7.19008 19.2896 5.83539 19.2778C4.48071 19.266 3.18485 18.7226 2.2269 17.7647C1.26896 16.8068 0.72559 15.5109 0.713818 14.1562C0.702047 12.8015 1.22282 11.4964 2.16397 10.522L2.17615 10.5096L4.67602 8.0097C4.67598 8.00975 4.67606 8.00966 4.67602 8.0097C5.19978 7.48579 5.8302 7.08051 6.5243 6.8216Z" fill="#192743"/>
</g>
<defs>
<clipPath id="clip0_134_4274">
<rect width="20" height="20" fill="white"/>
</clipPath>
</defs>
</svg>
