<svg width="20" height="20" viewBox="0 0 20 20" fill="none" xmlns="http://www.w3.org/2000/svg">
<path d="M4.16667 3.5C3.98986 3.5 3.82029 3.57024 3.69526 3.69526C3.57024 3.82029 3.5 3.98986 3.5 4.16667V15.8333C3.5 16.0101 3.57024 16.1797 3.69526 16.3047C3.82029 16.4298 3.98986 16.5 4.16667 16.5H7.5C8.05228 16.5 8.5 16.9477 8.5 17.5C8.5 18.0523 8.05228 18.5 7.5 18.5H4.16667C3.45942 18.5 2.78115 18.219 2.28105 17.719C1.78095 17.2189 1.5 16.5406 1.5 15.8333V4.16667C1.5 3.45942 1.78095 2.78115 2.28105 2.28105C2.78115 1.78095 3.45942 1.5 4.16667 1.5H7.5C8.05228 1.5 8.5 1.94772 8.5 2.5C8.5 3.05228 8.05228 3.5 7.5 3.5H4.16667Z" fill="#192743"/>
<path d="M12.6261 5.12622C13.0167 4.7357 13.6498 4.7357 14.0404 5.12622L18.1997 9.28558C18.2326 9.31776 18.2632 9.3522 18.2914 9.38863C18.2988 9.39812 18.3059 9.40771 18.3129 9.4174C18.3352 9.44844 18.3555 9.48046 18.3738 9.51329C18.3778 9.52047 18.3817 9.52769 18.3855 9.53495C18.4586 9.67388 18.5 9.83211 18.5 10C18.5 10.1746 18.4552 10.3388 18.3766 10.4816C18.3542 10.5224 18.3287 10.5619 18.3002 10.5998C18.2695 10.6407 18.2357 10.6792 18.1992 10.7149L14.0404 14.8738C13.6498 15.2643 13.0167 15.2643 12.6261 14.8738C12.2356 14.4832 12.2356 13.8501 12.6261 13.4596L15.0857 11H7.5C6.94772 11 6.5 10.5523 6.5 10C6.5 9.44772 6.94772 9 7.5 9H15.0857L12.6261 6.54043C12.2356 6.14991 12.2356 5.51675 12.6261 5.12622Z" fill="#192743"/>
</svg>
