<svg width="20" height="20" viewBox="0 0 20 20" fill="none" xmlns="http://www.w3.org/2000/svg">
<path fill-rule="evenodd" clip-rule="evenodd" d="M11.5 2.5C11.5 1.94772 11.9477 1.5 12.5 1.5H17.5C18.0523 1.5 18.5 1.94772 18.5 2.5V7.5C18.5 8.05228 18.0523 8.5 17.5 8.5C16.9477 8.5 16.5 8.05228 16.5 7.5V3.5H12.5C11.9477 3.5 11.5 3.05228 11.5 2.5Z" fill="#192743"/>
<path fill-rule="evenodd" clip-rule="evenodd" d="M2.5 11.5C3.05228 11.5 3.5 11.9477 3.5 12.5V16.5H7.5C8.05228 16.5 8.5 16.9477 8.5 17.5C8.5 18.0523 8.05228 18.5 7.5 18.5H2.5C1.94772 18.5 1.5 18.0523 1.5 17.5V12.5C1.5 11.9477 1.94772 11.5 2.5 11.5Z" fill="#192743"/>
<path fill-rule="evenodd" clip-rule="evenodd" d="M18.2071 1.79289C18.5976 2.18342 18.5976 2.81658 18.2071 3.20711L12.3737 9.04044C11.9832 9.43096 11.35 9.43096 10.9595 9.04044C10.569 8.64992 10.569 8.01675 10.9595 7.62623L16.7929 1.79289C17.1834 1.40237 17.8165 1.40237 18.2071 1.79289Z" fill="#192743"/>
<path fill-rule="evenodd" clip-rule="evenodd" d="M9.04044 10.9596C9.43096 11.3501 9.43096 11.9833 9.04044 12.3738L3.20711 18.2071C2.81658 18.5977 2.18342 18.5977 1.79289 18.2071C1.40237 17.8166 1.40237 17.1834 1.79289 16.7929L7.62623 10.9596C8.01675 10.5691 8.64992 10.5691 9.04044 10.9596Z" fill="#192743"/>
</svg>
