<svg width="20" height="20" viewBox="0 0 20 20" fill="none" xmlns="http://www.w3.org/2000/svg">
<g clip-path="url(#clip0_134_4157)">
<path fill-rule="evenodd" clip-rule="evenodd" d="M19.7746 9.5045C19.7746 14.6275 15.6216 18.7805 10.4986 18.7805C9.15364 18.7805 7.8755 18.4942 6.72182 17.9793L1.55919 19.6959C0.777 19.9559 0.0337248 19.2111 0.295411 18.4295L2.02103 13.275C1.50788 12.123 1.22266 10.8471 1.22266 9.5045C1.22266 4.38152 5.37566 0.228516 10.4986 0.228516C15.6216 0.228516 19.7746 4.38152 19.7746 9.5045ZM17.7791 9.51196C17.7791 13.5325 14.5198 16.7919 10.4992 16.7919C9.32388 16.7919 8.21363 16.5134 7.23083 16.0187C7.00269 15.9039 6.73897 15.874 6.49632 15.9537L2.83984 17.1544L4.04949 13.5029C4.12987 13.2603 4.10056 12.9962 3.98609 12.7677C3.49542 11.788 3.21929 10.6822 3.21929 9.51196C3.21929 5.49138 6.47861 2.23206 10.4992 2.23206C14.5198 2.23206 17.7791 5.49138 17.7791 9.51196Z" fill="#192743"/>
</g>
<defs>
<clipPath id="clip0_134_4157">
<rect width="20" height="20" fill="white"/>
</clipPath>
</defs>
</svg>
