<svg width="20" height="20" viewBox="0 0 20 20" fill="none" xmlns="http://www.w3.org/2000/svg">
<path fill-rule="evenodd" clip-rule="evenodd" d="M5.625 10C5.625 11.1046 4.72957 12 3.625 12C2.52043 12 1.625 11.1046 1.625 10C1.625 8.89543 2.52043 8 3.625 8C4.72957 8 5.625 8.89543 5.625 10ZM11.875 10C11.875 11.1046 10.9796 12 9.875 12C8.77043 12 7.875 11.1046 7.875 10C7.875 8.89543 8.77043 8 9.875 8C10.9796 8 11.875 8.89543 11.875 10ZM16.125 12C17.2296 12 18.125 11.1046 18.125 10C18.125 8.89543 17.2296 8 16.125 8C15.0204 8 14.125 8.89543 14.125 10C14.125 11.1046 15.0204 12 16.125 12Z" fill="#192743"/>
</svg>
