<svg width="20" height="20" viewBox="0 0 20 20" fill="none" xmlns="http://www.w3.org/2000/svg">
<path fill-rule="evenodd" clip-rule="evenodd" d="M19 10C19 14.9706 14.9706 19 10 19C5.02944 19 1 14.9706 1 10C1 5.02944 5.02944 1 10 1C14.9706 1 19 5.02944 19 10ZM7.37505 8.50005C7.99637 8.50005 8.50005 7.99637 8.50005 7.37505C8.50005 6.75373 7.99637 6.25005 7.37505 6.25005C6.75373 6.25005 6.25005 6.75373 6.25005 7.37505C6.25005 7.99637 6.75373 8.50005 7.37505 8.50005ZM13.7501 13.3633C13.7501 12.9491 13.414 12.6133 12.9998 12.6133H7.00003C6.58582 12.6133 6.25001 12.9491 6.25001 13.3633C6.25001 13.7775 6.58582 14.1133 7.00003 14.1133H13C13.4142 14.1133 13.7501 13.7775 13.7501 13.3633ZM12.6251 8.50005C13.2464 8.50005 13.7501 7.99637 13.7501 7.37505C13.7501 6.75373 13.2464 6.25005 12.6251 6.25005C12.0037 6.25005 11.5001 6.75373 11.5001 7.37505C11.5001 7.99637 12.0037 8.50005 12.6251 8.50005Z" fill="#192743"/>
</svg>
