<svg width="20" height="20" viewBox="0 0 20 20" fill="none" xmlns="http://www.w3.org/2000/svg">
<path d="M10 0C15.5228 0 20 4.47715 20 10C20 10.6488 19.9381 11.284 19.8196 11.8999C19.4339 13.904 17.4227 14.7509 15.7377 14.4701L13.9978 14.1801C13.587 14.1116 13.1684 14.2458 12.874 14.5402C12.5041 14.9101 12.3273 15.4186 12.5762 15.9163C12.9989 16.7617 13.0048 17.7283 12.6312 18.5194C12.1307 19.5794 11.1096 20 10 20C4.47715 20 0 15.5228 0 10C0 4.47715 4.47715 0 10 0ZM10 2C5.58172 2 2 5.58172 2 10C2 14.4183 5.58172 18 10 18L10.1949 17.9979C10.4527 17.9885 10.6941 17.9379 10.8227 17.6655C10.9271 17.4444 10.9432 17.1224 10.7873 16.8107C10.1566 15.5492 10.4852 14.1006 11.4598 13.126C12.211 12.3748 13.2787 12.0327 14.3266 12.2073L16.0665 12.4973C17.0243 12.6569 17.735 12.1487 17.8556 11.5219C17.9503 11.03 18 10.5213 18 10C18 5.58172 14.4183 2 10 2ZM5.5 9C6.32843 9 7 9.6716 7 10.5C7 11.3284 6.32843 12 5.5 12C4.67157 12 4 11.3284 4 10.5C4 9.6716 4.67157 9 5.5 9ZM12.5 5C13.3284 5 14 5.67157 14 6.5C14 7.32843 13.3284 8 12.5 8C11.6716 8 11 7.32843 11 6.5C11 5.67157 11.6716 5 12.5 5ZM7.5 5C8.3284 5 9 5.67157 9 6.5C9 7.32843 8.3284 8 7.5 8C6.67157 8 6 7.32843 6 6.5C6 5.67157 6.67157 5 7.5 5Z" fill="#192743"/>
</svg>
