<svg width="20" height="20" viewBox="0 0 20 20" fill="none" xmlns="http://www.w3.org/2000/svg">
<path fill-rule="evenodd" clip-rule="evenodd" d="M2.09373 1.00441C2.14961 1.00964 2.20513 1.01956 2.25963 1.03416L13.8946 3.94662C14.2718 4.04103 14.5601 4.34553 14.6337 4.72732L15.5238 9.34276C15.5689 9.33653 15.6146 9.33336 15.6607 9.33336C15.9322 9.33336 16.1921 9.44377 16.3805 9.63922L18.7913 12.1392C19.1648 12.5266 19.1648 13.1401 18.7913 13.5275L13.1663 19.3608C12.9778 19.5563 12.7179 19.6667 12.4464 19.6667C12.1749 19.6667 11.915 19.5563 11.7266 19.3608L9.31585 16.8608C9.08343 16.6198 8.99562 16.2912 9.05243 15.984L4.60941 15.0625C4.22777 14.9834 3.92689 14.6897 3.83853 14.3101L1.03021 2.24467C1.01499 2.18413 1.00553 2.12247 1.00181 2.06055C0.99879 2.01083 0.999511 1.9612 1.00386 1.91206C1.02412 1.68148 1.12408 1.45687 1.30292 1.28302L1.3117 1.27459C1.49054 1.10485 1.71601 1.01409 1.94471 1.00153C1.99413 0.998792 2.04394 0.999713 2.09373 1.00441ZM6.83438 8.45409L3.79543 5.30259L5.64154 13.234L10.5023 14.2422L13.7769 10.8463L12.7906 5.73197L5.14152 3.81726L8.24095 7.03148C8.54443 6.90409 8.87847 6.83336 9.23212 6.83336C10.706 6.83336 11.8393 8.06185 11.8393 9.50002C11.8393 10.9382 10.706 12.1667 9.23212 12.1667C7.75827 12.1667 6.62498 10.9382 6.62498 9.50002C6.62498 9.13195 6.69921 8.77762 6.83438 8.45409ZM8.80304 9.02876C8.69588 9.14434 8.62498 9.30608 8.62498 9.50002C8.62498 9.9028 8.93077 10.1667 9.23212 10.1667C9.53347 10.1667 9.83927 9.9028 9.83927 9.50002C9.83927 9.09724 9.53347 8.83336 9.23212 8.83336C9.0851 8.83336 8.93703 8.89617 8.82392 9.00727C8.81709 9.01451 8.81013 9.02168 8.80304 9.02876ZM15.5804 11.8573L15.577 11.8608L11.5591 16.0275L11.5558 16.0309L11.4249 16.1667L12.4464 17.226L16.6822 12.8334L15.6607 11.774L15.5804 11.8573Z" fill="#192743"/>
</svg>
