<svg width="20" height="20" viewBox="0 0 20 20" fill="none" xmlns="http://www.w3.org/2000/svg">
<path fill-rule="evenodd" clip-rule="evenodd" d="M2.33325 5.41659C2.33325 3.71371 3.71371 2.33325 5.41659 2.33325C7.11946 2.33325 8.49992 3.71371 8.49992 5.41659C8.49992 7.11946 7.11946 8.49992 5.41659 8.49992C3.71371 8.49992 2.33325 7.11946 2.33325 5.41659ZM5.41659 4.33325C4.81828 4.33325 4.33325 4.81828 4.33325 5.41659C4.33325 6.01489 4.81828 6.49992 5.41659 6.49992C6.01489 6.49992 6.49992 6.01489 6.49992 5.41659C6.49992 4.81828 6.01489 4.33325 5.41659 4.33325Z" fill="#192743"/>
<path d="M16.5405 3.45964C16.931 3.85017 16.931 4.48333 16.5405 4.87385L4.87385 16.5405C4.48333 16.931 3.85017 16.931 3.45964 16.5405C3.06912 16.15 3.06912 15.5168 3.45964 15.1263L15.1263 3.45964C15.5168 3.06912 16.15 3.06912 16.5405 3.45964Z" fill="#192743"/>
<path fill-rule="evenodd" clip-rule="evenodd" d="M14.5833 11.5C12.8805 11.5 11.5 12.8805 11.5 14.5833C11.5 16.2862 12.8805 17.6667 14.5833 17.6667C16.2862 17.6667 17.6667 16.2862 17.6667 14.5833C17.6667 12.8805 16.2862 11.5 14.5833 11.5ZM13.5 14.5833C13.5 13.985 13.985 13.5 14.5833 13.5C15.1816 13.5 15.6667 13.985 15.6667 14.5833C15.6667 15.1816 15.1816 15.6667 14.5833 15.6667C13.985 15.6667 13.5 15.1816 13.5 14.5833Z" fill="#192743"/>
</svg>
