<svg width="20" height="20" viewBox="0 0 20 20" fill="none" xmlns="http://www.w3.org/2000/svg">
<path fill-rule="evenodd" clip-rule="evenodd" d="M6.25 3C6.25 2.58579 5.91421 2.25 5.5 2.25C5.08579 2.25 4.75 2.58579 4.75 3V4.5H3.25C2.83579 4.5 2.5 4.83579 2.5 5.25C2.5 5.66421 2.83579 6 3.25 6H4.75V7.5C4.75 7.91421 5.08579 8.25 5.5 8.25C5.91421 8.25 6.25 7.91421 6.25 7.5V6H7.75C8.16421 6 8.5 5.66421 8.5 5.25C8.5 4.83579 8.16421 4.5 7.75 4.5H6.25V3ZM16.5405 4.87379C16.931 4.48327 16.931 3.8501 16.5405 3.45958C16.15 3.06906 15.5168 3.06906 15.1263 3.45958L3.45964 15.1262C3.06912 15.5168 3.06912 16.1499 3.45964 16.5405C3.85017 16.931 4.48333 16.931 4.87385 16.5405L16.5405 4.87379ZM12.25 14C11.8358 14 11.5 14.3358 11.5 14.75C11.5 15.1642 11.8358 15.5 12.25 15.5H16.75C17.1642 15.5 17.5 15.1642 17.5 14.75C17.5 14.3358 17.1642 14 16.75 14H12.25Z" fill="#192743"/>
</svg>
