<svg width="20" height="20" viewBox="0 0 20 20" fill="none" xmlns="http://www.w3.org/2000/svg">
<path fill-rule="evenodd" clip-rule="evenodd" d="M7.33006 10.3235L14.8954 3.30131C15.6939 2.56009 16.9713 3.29152 16.7362 4.35538L14.5093 14.4344C14.0386 16.5647 12.0576 18.0129 9.88494 17.815C8.63088 17.7007 7.48855 17.0466 6.75526 16.0229C5.48483 14.2493 5.73106 11.8078 7.33006 10.3235ZM11.7311 14.3544C11.2737 15.1532 10.2554 15.4299 9.4566 14.9725C8.65781 14.5152 8.38105 13.4968 8.83844 12.698C9.29583 11.8992 10.3142 11.6225 11.113 12.0799C11.9117 12.5372 12.1885 13.5556 11.7311 14.3544ZM11.2843 4.56296L8.77052 6.90327L8.61037 6.93235C7.06394 7.21317 5.62704 7.95854 4.50028 9.0853C3.04166 10.5439 2.22222 12.5222 2.22222 14.585C2.22222 15.1987 1.72476 15.6961 1.11111 15.6961C0.497461 15.6961 0 15.1987 0 14.585C0 11.9329 1.05357 9.38931 2.92893 7.51395C4.76614 5.67674 7.2446 4.62823 9.83825 4.58632L11.2843 4.56296ZM17.534 7.88479L18.2588 8.94646C19.3851 10.5963 20 12.5589 20 14.585C20 15.1987 19.5025 15.6961 18.8889 15.6961C18.2752 15.6961 17.7778 15.1987 17.7778 14.585C17.7778 13.3633 17.4904 12.1713 16.9529 11.0992L16.8647 10.9231L17.534 7.88479Z" fill="#192743"/>
</svg>
