<svg width="20" height="20" viewBox="0 0 20 20" fill="none" xmlns="http://www.w3.org/2000/svg">
<path fill-rule="evenodd" clip-rule="evenodd" d="M13 8C13 9.65685 11.6569 11 10 11C8.34315 11 7 9.65685 7 8C7 6.34315 8.34315 5 10 5C11.6569 5 13 6.34315 13 8ZM11 8C11 8.55228 10.5523 9 10 9C9.44772 9 9 8.55228 9 8C9 7.44772 9.44772 7 10 7C10.5523 7 11 7.44772 11 8Z" fill="#192743"/>
<path fill-rule="evenodd" clip-rule="evenodd" d="M9.57509 0.0702069C9.85018 -0.0234023 10.1498 -0.0234023 10.4249 0.0702069L18.139 2.69523C18.6547 2.87072 19 3.34384 19 3.87494V10C19 13.2194 16.6629 15.7299 14.6706 17.3118C13.64 18.1301 12.6162 18.7681 11.8534 19.2008C11.4705 19.4179 11.1497 19.5854 10.9219 19.6998C10.8078 19.7571 10.7168 19.8013 10.6526 19.8319C10.6205 19.8471 10.595 19.8591 10.5768 19.8676L10.5548 19.8777L10.548 19.8808L10.5447 19.8823L10 18.7501L9.45534 19.8823L9.45204 19.8808L9.44519 19.8777L9.42322 19.8676C9.40495 19.8591 9.37953 19.8471 9.34742 19.8319C9.28321 19.8013 9.19218 19.7571 9.07815 19.6998C8.85025 19.5854 8.52947 19.4179 8.14661 19.2008C7.38377 18.7681 6.36002 18.1301 5.32944 17.3118C3.3371 15.7299 1 13.2194 1 10V3.87494C1 3.34384 1.3453 2.87072 1.86102 2.69523L9.57509 0.0702069ZM10 18C10.1588 17.9167 10.3468 17.8149 10.5573 17.6956C11.2298 17.3142 12.1164 16.761 13 16.0643V15.75C13 14.5 12.5 14 11.5 14H8.5C7.5 14 7 14.5 7 15.5V16.0643C7.88359 16.761 8.77024 17.3142 9.44275 17.6956C9.65317 17.8149 9.84124 17.9167 10 18ZM11.25 12C12.8521 12 14.2195 13.0047 14.7567 14.4183C15.9947 13.05 17 11.4077 17 10V4.76166L10.0742 2.5L3 4.76166V10C3 11.4077 4.00531 13.05 5.24333 14.4183C5.78047 13.0047 7.14791 12 8.75 12H11.25Z" fill="#192743"/>
<path d="M9.45534 19.8823C9.45534 19.8823 9.45608 19.8827 10 18.7501C10.5439 19.8827 10.5447 19.8823 10.5447 19.8823C10.1999 20.0388 9.80009 20.0388 9.45534 19.8823Z" fill="#192743"/>
</svg>
