<svg width="20" height="20" viewBox="0 0 20 20" fill="none" xmlns="http://www.w3.org/2000/svg">
<path d="M14.8737 1.12621C14.4832 0.735682 13.85 0.735682 13.4595 1.12621C13.069 1.51673 13.069 2.1499 13.4595 2.54042L15.0858 4.16666H5.83333C4.68406 4.16666 3.58186 4.6232 2.7692 5.43586C1.95655 6.24852 1.5 7.35072 1.5 8.49999V10.1667C1.5 10.7189 1.94772 11.1667 2.5 11.1667C3.05228 11.1667 3.5 10.7189 3.5 10.1667V8.49999C3.5 7.88115 3.74583 7.28766 4.18342 6.85007C4.621 6.41249 5.21449 6.16666 5.83333 6.16666H15.0857L13.4595 7.79287C13.069 8.1834 13.069 8.81656 13.4595 9.20709C13.85 9.59761 14.4832 9.59761 14.8737 9.20709L18.201 5.87977C18.2244 5.85678 18.2467 5.83266 18.2677 5.80748C18.3219 5.74277 18.3665 5.67284 18.4017 5.59949C18.4647 5.46852 18.5 5.32171 18.5 5.16666C18.5 5.01593 18.4667 4.873 18.4069 4.74483C18.3681 4.66121 18.317 4.58185 18.2537 4.50944C18.2373 4.49063 18.2202 4.47243 18.2024 4.45489L14.8737 1.12621Z" fill="#192743"/>
<path d="M6.54044 10.7929C6.93096 11.1834 6.93096 11.8166 6.54044 12.2071L4.91422 13.8333H14.1667C14.7855 13.8333 15.379 13.5875 15.8166 13.1499C16.2542 12.7123 16.5 12.1188 16.5 11.5V9.83331C16.5 9.28103 16.9477 8.83331 17.5 8.83331C18.0523 8.83331 18.5 9.28103 18.5 9.83331V11.5C18.5 12.6493 18.0435 13.7515 17.2308 14.5641C16.4181 15.3768 15.3159 15.8333 14.1667 15.8333H4.91421L6.54044 17.4595C6.93096 17.8501 6.93096 18.4832 6.54044 18.8738C6.14992 19.2643 5.51675 19.2643 5.12623 18.8738L1.79289 15.5404C1.59763 15.3452 1.5 15.0892 1.5 14.8333C1.5 14.6966 1.52742 14.5664 1.57705 14.4477C1.6232 14.3371 1.6901 14.2331 1.77773 14.1417L1.79474 14.1244L5.12623 10.7929C5.51675 10.4024 6.14992 10.4024 6.54044 10.7929Z" fill="#192743"/>
</svg>
