<svg width="20" height="20" viewBox="0 0 20 20" fill="none" xmlns="http://www.w3.org/2000/svg">
<path fill-rule="evenodd" clip-rule="evenodd" d="M8.58445 3.28786C9.63781 3.03124 10.7344 3.06611 11.7718 3.38922C12.8093 3.71233 13.7538 4.31315 14.5173 5.13562C14.5246 5.14345 14.532 5.15115 14.5395 5.15873L16.5331 7.17581H14.0984C13.5552 7.17581 13.1148 7.64997 13.1148 8.23488C13.1148 8.81979 13.5552 9.29395 14.0984 9.29395H19.013H19.0164C19.1828 9.29395 19.3396 9.24944 19.4771 9.17086C19.5278 9.1419 19.5766 9.10786 19.6229 9.06875C19.8525 8.87487 20 8.57343 20 8.23488V2.93954C20 2.35463 19.5596 1.88047 19.0164 1.88047C18.4732 1.88047 18.0328 2.35463 18.0328 2.93954V5.78662L15.8974 3.62615C14.901 2.55682 13.67 1.77544 12.3184 1.35449C10.9618 0.93196 9.52779 0.886359 8.15032 1.22194C6.77285 1.55753 5.49677 2.26336 4.44117 3.27358C3.38557 4.2838 2.58484 5.56548 2.11371 6.99903C1.93249 7.55043 2.20073 8.1556 2.71284 8.35073C3.22495 8.54585 3.787 8.25703 3.96822 7.70563C4.3285 6.60939 4.94082 5.62928 5.74804 4.85676C6.55527 4.08424 7.53109 3.54448 8.58445 3.28786ZM0.211468 11.1089C0.238578 11.072 0.267926 11.0371 0.29929 11.0043C0.381588 10.9184 0.474659 10.8509 0.573874 10.802C0.698609 10.7404 0.837377 10.706 0.983599 10.706H5.90159C6.44482 10.706 6.88519 11.1802 6.88519 11.7651C6.88519 12.35 6.44482 12.8242 5.90159 12.8242H3.46672L5.4604 14.8413C5.46789 14.8488 5.47527 14.8566 5.48253 14.8644C6.24601 15.6868 7.19055 16.2877 8.22801 16.6108C9.26546 16.9339 10.362 16.9688 11.4154 16.7121C12.4688 16.4555 13.4446 15.9158 14.2518 15.1432C15.059 14.3707 15.6714 13.3906 16.0316 12.2944C16.2128 11.743 16.7749 11.4541 17.287 11.6493C17.7991 11.8444 18.0674 12.4496 17.8861 13.001C17.415 14.4345 16.6143 15.7162 15.5587 16.7264C14.5031 17.7366 13.227 18.4425 11.8495 18.7781C10.4721 19.1136 9.03808 19.068 7.6814 18.6455C6.32981 18.2246 5.09883 17.4432 4.10241 16.3738L1.9672 14.2135V17.0604C1.9672 17.6453 1.52683 18.1195 0.983599 18.1195C0.440372 18.1195 1.37998e-08 17.6453 1.37998e-08 17.0604V11.7651C-1.35448e-06 11.7563 9.90284e-05 11.7474 0.000301202 11.7386C0.00339048 11.603 0.0301521 11.4737 0.0763052 11.3554C0.110084 11.2686 0.155114 11.1856 0.211468 11.1089Z" fill="#192743"/>
</svg>
