<svg width="20" height="20" viewBox="0 0 20 20" fill="none" xmlns="http://www.w3.org/2000/svg">
<path d="M15.1111 2.56877C13.4983 1.67719 11.6394 1.33391 9.8145 1.59066C7.9992 1.84607 6.31537 2.68146 5.01398 3.97182L3 5.76812V3.33331C3 2.78103 2.55228 2.33331 2 2.33331C1.44772 2.33331 1 2.78103 1 3.33331V8.33331C1 8.8856 1.44772 9.33331 2 9.33331H7C7.55228 9.33331 8 8.8856 8 8.33331C8 7.78103 7.55228 7.33331 7 7.33331H4.24983L6.36555 5.44626C6.37954 5.43379 6.39317 5.42092 6.40644 5.40768C7.40376 4.41204 8.69765 3.76749 10.0931 3.57116C11.4886 3.37482 12.9102 3.63732 14.1435 4.31912C15.3768 5.00092 16.3552 6.06508 16.9311 7.35126C17.5071 8.63743 17.6494 10.0759 17.3367 11.4501C17.024 12.8242 16.2732 14.0594 15.1974 14.9697C14.1216 15.88 12.7791 16.416 11.3722 16.497C9.96532 16.578 8.5702 16.1995 7.39708 15.4187C6.22396 14.6378 5.33639 13.4968 4.8681 12.1677C4.68458 11.6468 4.11353 11.3733 3.59263 11.5568C3.07173 11.7403 2.79823 12.3114 2.98175 12.8323C3.59413 14.5704 4.75479 16.0624 6.28887 17.0836C7.82295 18.1047 9.64734 18.5996 11.4872 18.4937C13.327 18.3878 15.0825 17.6869 16.4893 16.4965C17.8961 15.3061 18.8779 13.6908 19.2868 11.8938C19.6958 10.0969 19.5096 8.21579 18.7565 6.53387C18.0033 4.85195 16.7239 3.46036 15.1111 2.56877Z" fill="#192743"/>
</svg>
