<svg width="20" height="20" viewBox="0 0 20 20" fill="none" xmlns="http://www.w3.org/2000/svg">
<path fill-rule="evenodd" clip-rule="evenodd" d="M4.14197 9.4231C4.14197 6.50645 6.50639 4.14203 9.42304 4.14203C12.3397 4.14203 14.7041 6.50645 14.7041 9.4231C14.7041 12.3398 12.3397 14.7042 9.42304 14.7042C6.50639 14.7042 4.14197 12.3398 4.14197 9.4231ZM9.42304 2.14203C5.40182 2.14203 2.14197 5.40188 2.14197 9.4231C2.14197 13.4443 5.40182 16.7042 9.42304 16.7042C11.1245 16.7042 12.6896 16.1206 13.9292 15.1426L16.3517 17.5651C16.7422 17.9557 17.3754 17.9557 17.7659 17.5651C18.1564 17.1746 18.1564 16.5414 17.7659 16.1509L15.3157 13.7007C16.189 12.4998 16.7041 11.0216 16.7041 9.4231C16.7041 5.40188 13.4443 2.14203 9.42304 2.14203Z" fill="#192743"/>
</svg>
