<svg width="20" height="20" viewBox="0 0 20 20" fill="none" xmlns="http://www.w3.org/2000/svg">
<g clip-path="url(#clip0_134_4290)">
<path fill-rule="evenodd" clip-rule="evenodd" d="M18.4435 0.672729C18.6616 0.696745 18.8733 0.792362 19.0405 0.95958C19.3274 1.24641 19.4035 1.66414 19.269 2.02049L13.4439 18.6637C13.3084 19.0507 12.9505 19.3158 12.5408 19.3325C12.1311 19.3492 11.7527 19.1141 11.5862 18.7395L8.40909 11.5909L1.26055 8.4138C0.885873 8.24727 0.650809 7.8689 0.667523 7.45922C0.684237 7.04955 0.949341 6.69158 1.33634 6.55613L17.9845 0.729284C18.0461 0.7064 18.1095 0.689791 18.1737 0.679456C18.2636 0.664893 18.3544 0.662838 18.4435 0.672729ZM14.5278 4.05808L4.37777 7.61059L8.94529 9.6406L14.5278 4.05808ZM10.3595 11.0548L15.9418 5.47247L12.3894 15.6222L10.3595 11.0548Z" fill="#192743"/>
</g>
<defs>
<clipPath id="clip0_134_4290">
<rect width="20" height="20" fill="white"/>
</clipPath>
</defs>
</svg>
