<svg width="20" height="20" viewBox="0 0 20 20" fill="none" xmlns="http://www.w3.org/2000/svg">
<path fill-rule="evenodd" clip-rule="evenodd" d="M12.0001 6.68251L10.047 6.72838C7.73634 6.78265 6.45877 7.29497 5.4624 8.4656C4.59285 9.48723 3.80523 11.1582 3.07772 13.9342C5.89918 12.068 7.67821 11.3423 9.95056 11.286L12.0001 11.2353V13.2854V14.8909C12.0001 15.0434 12.0426 15.1302 12.0857 15.1877C12.137 15.2563 12.2209 15.3223 12.3324 15.362C12.4439 15.4017 12.5507 15.4035 12.6338 15.3828C12.7035 15.3654 12.7913 15.325 12.8876 15.2068L17.525 9.51739C17.6749 9.33347 17.6749 9.06952 17.525 8.8856L12.8876 3.19614C12.7913 3.07798 12.7035 3.03755 12.6338 3.02015C12.5507 2.99944 12.4439 3.0013 12.3324 3.04099C12.2209 3.08068 12.137 3.14669 12.0857 3.21523C12.0426 3.27277 12.0001 3.35959 12.0001 3.51204V4.72893V6.68251ZM2.45564 16.6582C2.44426 16.6641 2.43287 16.67 2.42146 16.676C2.31156 16.7331 2.20004 16.7911 2.08685 16.8502C2.00312 16.8939 1.91847 16.9382 1.8329 16.983C1.66625 17.0702 1.49608 17.1596 1.32229 17.2511C0.832177 17.5092 0.27005 17.0535 0.44262 16.5271C0.488279 16.2948 0.534327 16.0667 0.580797 15.8429C0.613989 15.6831 0.647396 15.5254 0.681031 15.3699C0.684392 15.3544 0.687757 15.3389 0.691123 15.3234C2.50353 6.97804 4.97833 4.84687 10.0001 4.72893V3.51204C10.0001 1.16025 12.9521 0.109611 14.4379 1.93255L19.0753 7.622C19.8248 8.54161 19.8248 9.86138 19.0753 10.781L14.4379 16.4704C13.0379 18.188 10.3364 17.3546 10.0288 15.2853C10.0099 15.1584 10.0001 15.0269 10.0001 14.8909V13.2854C9.31512 13.3024 8.68225 13.3901 8.00008 13.6008C6.75678 13.9846 5.34975 14.7766 3.16524 16.2919L2.90764 16.4243C2.7601 16.5004 2.60947 16.5783 2.45564 16.6582Z" fill="#192743"/>
</svg>
