<svg width="20" height="20" viewBox="0 0 20 20" fill="none" xmlns="http://www.w3.org/2000/svg">
<path d="M7.6 6C6.71634 6 6 6.71634 6 7.6V12.4C6 13.2837 6.71634 14 7.6 14H12.4C13.2837 14 14 13.2837 14 12.4V7.6C14 6.71634 13.2837 6 12.4 6H7.6Z" fill="#192743"/>
<path fill-rule="evenodd" clip-rule="evenodd" d="M10 20C15.5228 20 20 15.5228 20 10C20 4.47715 15.5228 0 10 0C4.47715 0 0 4.47715 0 10C0 15.5228 4.47715 20 10 20ZM10 18C14.4183 18 18 14.4183 18 10C18 5.58172 14.4183 2 10 2C5.58172 2 2 5.58172 2 10C2 14.4183 5.58172 18 10 18Z" fill="#192743"/>
</svg>
