<svg width="20" height="20" viewBox="0 0 20 20" fill="none" xmlns="http://www.w3.org/2000/svg">
<g clip-path="url(#clip0_1335_3386)">
<path fill-rule="evenodd" clip-rule="evenodd" d="M10.229 14.9523C10.0814 15.0159 9.91865 15.0159 9.77101 14.9523L5.42318 13.0773C5.16863 12.9675 5 12.6876 5 12.375L5 8.00001C5 5.79018 6.2707 4.03729 7.39663 2.90433C7.97329 2.32406 8.54688 1.87094 8.975 1.56323C9.18974 1.40888 9.36963 1.28988 9.49732 1.20859C9.56121 1.16791 9.61216 1.1366 9.64802 1.11495C9.66595 1.10413 9.68012 1.09571 9.69026 1.08974L9.70242 1.08262L9.70617 1.08044L9.70745 1.0797L10 1.00012L10.2921 1.07941L10.2938 1.08044L10.2976 1.08262L10.3097 1.08974C10.3199 1.09571 10.334 1.10413 10.352 1.11495C10.3878 1.1366 10.4388 1.16791 10.5027 1.20859C10.6304 1.28988 10.8103 1.40888 11.025 1.56323C11.4531 1.87094 12.0267 2.32406 12.6034 2.90433C13.7293 4.03729 15 5.79018 15 8.00001L15 12.375C15 12.6876 14.8314 12.9675 14.5768 13.0773L10.229 14.9523ZM10 1.00012L10.2921 1.07941C10.1084 0.973842 9.89194 0.973617 9.70834 1.07919L10 1.00012ZM10 2.60474C9.90634 2.66672 9.79352 2.74379 9.6663 2.83523C9.27921 3.11345 8.76584 3.51971 8.25555 4.03319C7.20756 5.08773 6.30435 6.45984 6.30435 8.00001L6.30435 11.8553L10 13.449L13.6957 11.8553L13.6957 8.00001C13.6957 6.45984 12.7924 5.08773 11.7445 4.03319C11.2342 3.51971 10.7208 3.11345 10.3337 2.83523C10.2065 2.74379 10.0937 2.66672 10 2.60474Z" fill="#192743"/>
<path fill-rule="evenodd" clip-rule="evenodd" d="M10.328 15.1818C10.1172 15.2727 9.88284 15.2727 9.67201 15.1818L5.32418 13.3068C4.96396 13.1515 4.75 12.7712 4.75 12.375L4.75 8.00001C4.75 5.69238 6.07544 3.87911 7.2193 2.7281C7.80807 2.13565 8.39292 1.67373 8.82909 1.36023C9.04807 1.20283 9.23189 1.0812 9.36307 0.997692C9.42871 0.955901 9.48135 0.923549 9.5188 0.900936C9.53754 0.889623 9.5525 0.880736 9.56341 0.874314L9.57608 0.866888L9.57697 0.866372L9.58228 0.863294M9.87001 14.7227C9.95446 14.7591 10.0455 14.7591 10.13 14.7227L14.4778 12.8477C14.6267 12.7835 14.75 12.6041 14.75 12.375L14.75 8.00001C14.75 5.88798 13.534 4.19546 12.426 3.08055C11.8615 2.51247 11.2992 2.06816 10.8791 1.76623C10.6686 1.61493 10.4926 1.49855 10.3684 1.41948C10.3063 1.37992 10.257 1.34965 10.2228 1.32897C10.2117 1.32229 10.2022 1.31661 10.1943 1.31193L10.0001 1.25919L9.80526 1.31218C9.79747 1.3168 9.78811 1.3224 9.77724 1.32897C9.74298 1.34965 9.69371 1.37992 9.63158 1.41948C9.50737 1.49855 9.33141 1.61493 9.12091 1.76623C8.70083 2.06816 8.13851 2.51247 7.57395 3.08055C6.46597 4.19546 5.25 5.88798 5.25 8.00001L5.25 12.375C5.25 12.6041 5.3733 12.7835 5.52218 12.8477L9.87001 14.7227ZM9.58372 0.862461C9.84467 0.712418 10.1561 0.712859 10.4167 0.862687L10.4189 0.863983L10.423 0.866373L10.4239 0.86689L10.4361 0.874011C10.447 0.880432 10.4625 0.889621 10.4812 0.900937C10.5187 0.923549 10.5713 0.955902 10.6369 0.997693C10.7681 1.0812 10.9519 1.20283 11.1709 1.36023C11.6071 1.67373 12.1919 2.13565 12.7807 2.7281C13.9246 3.87911 15.25 5.69238 15.25 8.00001L15.25 12.375C15.25 12.7712 15.036 13.1515 14.6758 13.3068L10.328 15.1818M10.099 13.6786C10.0358 13.7058 9.96419 13.7058 9.901 13.6786L6.20535 12.0848C6.11371 12.0453 6.05435 11.9551 6.05435 11.8553L6.05435 8.00001C6.05435 6.36222 7.01208 4.92977 8.07822 3.85697C8.60063 3.33129 9.12526 2.91623 9.5204 2.63222C9.65042 2.53877 9.7659 2.45988 9.86203 2.39626C9.94568 2.3409 10.0543 2.3409 10.138 2.39626C10.2341 2.45988 10.3496 2.53877 10.4796 2.63222C10.8747 2.91623 11.3994 3.33129 11.9218 3.85697C12.9879 4.92977 13.9457 6.36222 13.9457 8.00001L13.9457 11.8553C13.9457 11.9551 13.8863 12.0453 13.7947 12.0848L10.099 13.6786ZM13.4457 11.6908L13.4457 8.00001C13.4457 6.55745 12.597 5.2457 11.5671 4.20942C11.0689 3.70812 10.5668 3.31067 10.1878 3.03823C10.1208 2.9901 10.058 2.94607 10 2.90626C9.94202 2.94607 9.87918 2.9901 9.81221 3.03823C9.43317 3.31067 8.93105 3.70812 8.43287 4.20942C7.40303 5.2457 6.55435 6.55745 6.55435 8.00001L6.55435 11.6908L10 13.1768L13.4457 11.6908Z" fill="#192743"/>
<path fill-rule="evenodd" clip-rule="evenodd" d="M10 11C10.8284 11 11.5 10.3284 11.5 9.50001C11.5 8.67158 10.8284 8.00001 10 8.00001C9.17157 8.00001 8.5 8.67158 8.5 9.50001C8.5 10.3284 9.17157 11 10 11Z" fill="#192743"/>
<path fill-rule="evenodd" clip-rule="evenodd" d="M10 16C10.5523 16 11 16.4477 11 17V19C11 19.5523 10.5523 20 10 20C9.44771 20 9 19.5523 9 19V17C9 16.4477 9.44771 16 10 16Z" fill="#192743"/>
<path fill-rule="evenodd" clip-rule="evenodd" d="M13 15C13.5523 15 14 15.4477 14 16V18C14 18.5523 13.5523 19 13 19C12.4477 19 12 18.5523 12 18V16C12 15.4477 12.4477 15 13 15Z" fill="#192743"/>
<path fill-rule="evenodd" clip-rule="evenodd" d="M7 15C7.55228 15 8 15.4477 8 16V18C8 18.5523 7.55228 19 7 19C6.44772 19 6 18.5523 6 18V16C6 15.4477 6.44772 15 7 15Z" fill="#192743"/>
<path fill-rule="evenodd" clip-rule="evenodd" d="M14.0183 6.70319C14.3911 6.38761 14.9394 6.44609 15.2428 6.8338L19.3046 12.0234C19.5167 12.2944 19.5599 12.668 19.4157 12.9835C19.2714 13.299 18.9655 13.5 18.6296 13.5H14.3704C13.8897 13.5 13.5 13.0948 13.5 12.5948C13.5 12.0949 13.8897 11.6897 14.3704 11.6897H16.7989L13.8927 7.97661C13.5893 7.5889 13.6455 7.01877 14.0183 6.70319Z" fill="#192743"/>
<path fill-rule="evenodd" clip-rule="evenodd" d="M5.98167 6.70319C5.60886 6.38761 5.06063 6.44609 4.75718 6.8338L0.695358 12.0234C0.483307 12.2944 0.440096 12.668 0.584328 12.9835C0.72856 13.299 1.03449 13.5 1.3704 13.5H5.62961C6.11031 13.5 6.5 13.0948 6.5 12.5948C6.5 12.0949 6.11031 11.6897 5.62961 11.6897H3.20113L6.10726 7.97661C6.41071 7.5889 6.35449 7.01877 5.98167 6.70319Z" fill="#192743"/>
</g>
<defs>
<clipPath id="clip0_1335_3386">
<rect width="20" height="20" fill="white"/>
</clipPath>
</defs>
</svg>
