<svg width="20" height="20" viewBox="0 0 20 20" fill="none" xmlns="http://www.w3.org/2000/svg">
<path fill-rule="evenodd" clip-rule="evenodd" d="M1 5.08333C1 4.48502 1.44772 4 2 4H12C12.5523 4 13 4.48502 13 5.08333C13 5.68164 12.5523 6.16667 12 6.16667H2C1.44772 6.16667 1 5.68164 1 5.08333ZM4 10.5C4 9.90169 4.44772 9.41667 5 9.41667H15C15.5523 9.41667 16 9.90169 16 10.5C16 11.0983 15.5523 11.5833 15 11.5833H5C4.44772 11.5833 4 11.0983 4 10.5ZM8 14.8333C7.44772 14.8333 7 15.3184 7 15.9167C7 16.515 7.44771 17 8 17H18C18.5523 17 19 16.515 19 15.9167C19 15.3184 18.5523 14.8333 18 14.8333H8Z" fill="#192743"/>
</svg>
