<svg width="20" height="20" viewBox="0 0 20 20" fill="none" xmlns="http://www.w3.org/2000/svg">
<path d="M5.66667 5.83332C5.66667 5.28104 6.11438 4.83332 6.66667 4.83332H6.675C7.22728 4.83332 7.675 5.28104 7.675 5.83332C7.675 6.38561 7.22728 6.83332 6.675 6.83332H6.66667C6.11438 6.83332 5.66667 6.38561 5.66667 5.83332Z" fill="#192743"/>
<path fill-rule="evenodd" clip-rule="evenodd" d="M1.5 1.66666C1.5 1.11437 1.94772 0.666656 2.5 0.666656H10.8333C11.0985 0.666656 11.3529 0.772013 11.5404 0.95955L18.7009 8.11999C19.1975 8.61962 19.4763 9.2955 19.4763 9.99999C19.4763 10.7045 19.1975 11.3804 18.7009 11.88L17.9915 11.1748L18.6988 11.8821L12.7242 17.8567C12.4765 18.1046 12.1824 18.3013 11.8587 18.4355C11.5349 18.5697 11.1879 18.6388 10.8375 18.6388C10.4871 18.6388 10.1401 18.5697 9.81633 18.4355C9.4928 18.3014 9.1984 18.1044 8.95083 17.8567L1.79331 10.7075C1.60552 10.5199 1.5 10.2654 1.5 9.99999V1.66666ZM17.2825 10.47L17.2833 10.4691C17.4069 10.3443 17.4763 10.1757 17.4763 9.99999C17.4763 9.82427 17.4069 9.65567 17.2833 9.53085L17.2825 9.52999L10.4191 2.66666H3.5V9.58544L10.3658 16.4433C10.4277 16.5053 10.5013 16.5544 10.5822 16.588C10.6631 16.6215 10.7499 16.6388 10.8375 16.6388C10.9251 16.6388 11.0119 16.6215 11.0928 16.588C11.1737 16.5544 11.2476 16.5049 11.3096 16.4429L17.2825 10.47Z" fill="#192743"/>
</svg>
