<svg width="20" height="20" viewBox="0 0 20 20" fill="none" xmlns="http://www.w3.org/2000/svg">
<path d="M10 3C10.1466 3 10.2921 3.00451 10.4364 3.01338C10.626 2.64138 10.8745 2.298 11.1757 1.99765L11.9613 1.21433C11.3299 1.074 10.6736 1 10 1C5.02944 1 1 5.02944 1 10C1 14.9706 5.02944 19 10 19C14.9706 19 19 14.9706 19 10C19 9.32758 18.9263 8.67239 18.7864 8.04207L17.9999 8.82854C17.7001 9.12837 17.3576 9.37568 16.9867 9.56456C16.9955 9.70857 17 9.85376 17 10C17 13.866 13.866 17 10 17C6.13401 17 3 13.866 3 10C3 6.13401 6.13401 3 10 3Z" fill="#192743"/>
<path d="M9.2935 9.28905L12 6.58254V4.83013C12 4.29869 12.2115 3.7891 12.5878 3.41386L15.0087 1L15 5H19L16.5857 7.41427C16.567 7.43301 16.5479 7.45139 16.5285 7.4693C16.1598 7.80988 15.6755 8.00002 15.1717 8.00006L13.4261 8.00018L10.7154 10.7109C10.3227 11.1036 9.68615 11.1036 9.29351 10.7109C8.90086 10.3183 8.90086 9.6817 9.2935 9.28905Z" fill="#192743"/>
<path d="M10 5C7.23858 5 5 7.23858 5 10C5 12.7614 7.23858 15 10 15C12.7614 15 14.9999 12.7615 15 10.0001L14.2546 10.0002L12.1296 12.1252C10.9559 13.2989 9.053 13.2989 7.8793 12.1252C6.7056 10.9515 6.7056 9.0486 7.87929 7.8749L10 5.75418L10 5Z" fill="#192743"/>
</svg>
