<svg width="21" height="20" viewBox="0 0 21 20" fill="none" xmlns="http://www.w3.org/2000/svg">
<path fill-rule="evenodd" clip-rule="evenodd" d="M13.5 6.49969C15.4329 6.49969 16.9998 8.06684 17 9.99969C17 11.9327 15.433 13.4997 13.5 13.4997C11.567 13.4997 10 11.9327 10 9.99969C10.0002 8.06684 11.5671 6.49969 13.5 6.49969ZM13.5 8.49969C12.6717 8.49969 12.0002 9.17141 12 9.99969C12 10.8281 12.6716 11.4997 13.5 11.4997C14.3284 11.4997 15 10.8281 15 9.99969C14.9998 9.17141 14.3283 8.49969 13.5 8.49969Z" fill="#192743"/>
<path fill-rule="evenodd" clip-rule="evenodd" d="M13.5 3.16669C17.2738 3.16669 20.3328 6.2259 20.333 9.99969C20.333 13.7736 17.2739 16.8337 13.5 16.8337H6.83301C3.05921 16.8335 0 13.7735 0 9.99969C0.000175742 6.22601 3.05932 3.16686 6.83301 3.16669H13.5ZM6.83301 5.16669C4.16389 5.16686 2.00018 7.33058 2 9.99969C2 12.669 4.16378 14.8335 6.83301 14.8337H13.5C16.1694 14.8337 18.333 12.6691 18.333 9.99969C18.3328 7.41398 16.3026 5.30213 13.749 5.17255L13.5 5.16669H6.83301Z" fill="#192743"/>
</svg>
