<svg width="20" height="20" viewBox="0 0 20 20" fill="none" xmlns="http://www.w3.org/2000/svg">
<path fill-rule="evenodd" clip-rule="evenodd" d="M13.4211 2.66466C13.1517 2.65854 12.8811 2.67963 12.6133 2.72842C11.8134 2.87417 11.0768 3.26025 10.5019 3.83521C9.92692 4.41016 9.54084 5.14669 9.39509 5.94663C9.24934 6.74657 9.35084 7.57193 9.68606 8.31273C9.85766 8.69194 9.77643 9.13779 9.48211 9.43211L3.72377 15.1904C3.57979 15.3344 3.4989 15.5297 3.4989 15.7333C3.4989 15.937 3.57979 16.1322 3.72377 16.2762C3.86776 16.4202 4.06304 16.5011 4.26667 16.5011C4.47029 16.5011 4.66558 16.4202 4.80956 16.2762L10.5679 10.5179C10.8622 10.2236 11.3081 10.1423 11.6873 10.3139C12.4281 10.6492 13.2534 10.7507 14.0534 10.6049C14.8533 10.4592 15.5898 10.0731 16.1648 9.49813C16.7397 8.92317 17.1258 8.18664 17.2716 7.3867C17.3204 7.1189 17.3415 6.84825 17.3353 6.57888L15.45 8.46418C15.1073 8.8001 14.6465 8.98821 14.1667 8.98821C13.6868 8.98821 13.226 8.80006 12.8833 8.46414L12.8762 8.45714L11.5358 7.1167C11.1999 6.774 11.0118 6.31322 11.0118 5.83333C11.0118 5.35345 11.1999 4.8927 11.5359 4.55L11.5429 4.54286L13.4211 2.66466ZM12.2548 0.760816C13.4547 0.542189 14.6928 0.694438 15.8039 1.19727C16.103 1.33261 16.3166 1.60612 16.3755 1.92908C16.4343 2.25204 16.3309 2.58331 16.0988 2.81544L13.0809 5.83333L14.1667 6.91912L17.1846 3.90123C17.4167 3.6691 17.748 3.56569 18.0709 3.62453C18.3939 3.68337 18.6674 3.89698 18.8027 4.19606C19.3056 5.30725 19.4578 6.54529 19.2392 7.74521C19.0206 8.94512 18.4414 10.0499 17.579 10.9123C16.7166 11.7748 15.6118 12.3539 14.4119 12.5725C13.4454 12.7486 12.4543 12.6841 11.5246 12.3896L6.22377 17.6904C5.70472 18.2095 5.00073 18.5011 4.26667 18.5011C3.53261 18.5011 2.82862 18.2095 2.30956 17.6904C1.7905 17.1714 1.4989 16.4674 1.4989 15.7333C1.4989 14.9993 1.7905 14.2953 2.30956 13.7762L7.61038 8.47541C7.3159 7.54571 7.2514 6.55455 7.42748 5.58813C7.64611 4.38822 8.22523 3.28343 9.08766 2.42099C9.9501 1.55856 11.0549 0.979442 12.2548 0.760816Z" fill="#192743"/>
</svg>
