<svg width="20" height="20" viewBox="0 0 20 20" fill="none" xmlns="http://www.w3.org/2000/svg">
<path d="M8.33321 8.3335C8.79345 8.3335 9.16654 8.70659 9.16654 9.16683V14.1668C9.16654 14.6271 8.79345 15.0002 8.33321 15.0002C7.87297 15.0002 7.49988 14.6271 7.49988 14.1668V9.16683C7.49988 8.70659 7.87297 8.3335 8.33321 8.3335Z" fill="#192743"/>
<path d="M12.5 9.16683C12.5 8.70659 12.1269 8.3335 11.6667 8.3335C11.2065 8.3335 10.8334 8.70659 10.8334 9.16683V14.1668C10.8334 14.6271 11.2065 15.0002 11.6667 15.0002C12.1269 15.0002 12.5 14.6271 12.5 14.1668V9.16683Z" fill="#192743"/>
<path fill-rule="evenodd" clip-rule="evenodd" d="M1.5 5C1.5 4.44772 1.94772 4 2.5 4H5.66675V3.33341C5.66675 2.62617 5.9477 1.94789 6.4478 1.4478C6.94789 0.9477 7.62617 0.666748 8.33341 0.666748H11.6667C12.374 0.666748 13.0523 0.9477 13.5524 1.4478C14.0525 1.94789 14.3334 2.62617 14.3334 3.33341V4H17.5C18.0523 4 18.5 4.44772 18.5 5C18.5 5.55228 18.0523 6 17.5 6H16.8334V16.6667C16.8334 17.374 16.5525 18.0523 16.0524 18.5524C15.5523 19.0525 14.874 19.3334 14.1667 19.3334H5.83341C5.12617 19.3334 4.44789 19.0525 3.9478 18.5524C3.4477 18.0523 3.16675 17.374 3.16675 16.6667V6H2.5C1.94772 6 1.5 5.55228 1.5 5ZM7.86201 2.86201C7.98703 2.73699 8.1566 2.66675 8.33341 2.66675H11.6667C11.8436 2.66675 12.0131 2.73699 12.1382 2.86201C12.2632 2.98703 12.3334 3.1566 12.3334 3.33341V4H7.66675V3.33341C7.66675 3.1566 7.73699 2.98703 7.86201 2.86201ZM6.65388 6L6.66675 6.00008L6.67961 6H13.3205L13.3334 6.00008L13.3463 6H14.8334V16.6667C14.8334 16.8436 14.7632 17.0131 14.6382 17.1382C14.5131 17.2632 14.3436 17.3334 14.1667 17.3334H5.83341C5.6566 17.3334 5.48703 17.2632 5.36201 17.1382C5.23699 17.0131 5.16675 16.8436 5.16675 16.6667V6H6.65388Z" fill="#192743"/>
</svg>
