<svg width="20" height="20" viewBox="0 0 20 20" fill="none" xmlns="http://www.w3.org/2000/svg">
<g clip-path="url(#clip0_134_4473)">
<path fill-rule="evenodd" clip-rule="evenodd" d="M12.8571 14C12.8571 14.5523 13.3049 15 13.8571 15H19C19.5523 15 20 14.5523 20 14V8.66667C20 8.11438 19.5523 7.66667 19 7.66667C18.4477 7.66667 18 8.11438 18 8.66667V11.5223L12.0056 5.30586C11.8171 5.11041 11.5572 5 11.2857 5C11.0142 5 10.7543 5.11041 10.5659 5.30586L6.14286 9.89269L1.71985 5.30586C1.33648 4.90831 0.703425 4.8968 0.305865 5.28016C-0.0916936 5.66352 -0.103204 6.29658 0.280157 6.69414L5.42301 12.0275C5.61149 12.2229 5.87134 12.3333 6.14286 12.3333C6.41438 12.3333 6.67423 12.2229 6.8627 12.0275L11.2857 7.44064L16.6465 13H13.8571C13.3049 13 12.8571 13.4477 12.8571 14Z" fill="#192743"/>
</g>
<defs>
<clipPath id="clip0_134_4473">
<rect width="20" height="20" fill="white"/>
</clipPath>
</defs>
</svg>
