<svg width="20" height="20" viewBox="0 0 20 20" fill="none" xmlns="http://www.w3.org/2000/svg">
<path d="M15.0061 5.32109C14.6156 4.93057 13.9824 4.93057 13.5919 5.32109C13.2014 5.71162 13.2014 6.34478 13.5919 6.7353L16.1274 9.27078L1.72918 9.27082C1.1769 9.27082 0.729187 9.71854 0.729187 10.2708C0.729187 10.8231 1.17691 11.2708 1.72919 11.2708L16.1275 11.2708L13.5919 13.8064C13.2014 14.1969 13.2014 14.8301 13.5919 15.2206C13.9824 15.6111 14.6156 15.6111 15.0061 15.2206L19.2487 10.9779C19.3628 10.8639 19.4435 10.7292 19.4909 10.5859C19.5144 10.515 19.5302 10.4406 19.5373 10.3637C19.5519 10.2064 19.5294 10.0463 19.4697 9.89763C19.4274 9.79245 19.3666 9.693 19.2872 9.60432C19.2733 9.58879 19.2589 9.57369 19.2441 9.55905L15.0061 5.32109Z" fill="#192743"/>
</svg>
