<svg width="20" height="20" viewBox="0 0 20 20" fill="none" xmlns="http://www.w3.org/2000/svg">
<g clip-path="url(#clip0_134_4477)">
<path fill-rule="evenodd" clip-rule="evenodd" d="M12.8571 6C12.8571 5.44772 13.3049 5 13.8571 5H19C19.5523 5 20 5.44772 20 6V11.3333C20 11.8856 19.5523 12.3333 19 12.3333C18.4477 12.3333 18 11.8856 18 11.3333V8.47768L12.0056 14.6941C11.8171 14.8896 11.5572 15 11.2857 15C11.0142 15 10.7543 14.8896 10.5659 14.6941L6.14286 10.1073L1.71985 14.6941C1.33648 15.0917 0.703425 15.1032 0.305865 14.7198C-0.0916936 14.3365 -0.103204 13.7034 0.280157 13.3059L5.42301 7.97253C5.61149 7.77708 5.87134 7.66667 6.14286 7.66667C6.41438 7.66667 6.67423 7.77708 6.8627 7.97253L11.2857 12.5594L16.6465 7H13.8571C13.3049 7 12.8571 6.55228 12.8571 6Z" fill="#192743"/>
</g>
<defs>
<clipPath id="clip0_134_4477">
<rect width="20" height="20" fill="white"/>
</clipPath>
</defs>
</svg>
