<svg width="18" height="19" viewBox="0 0 18 19" fill="none" xmlns="http://www.w3.org/2000/svg">
<path fill-rule="evenodd" clip-rule="evenodd" d="M10 12.1716C10 11.067 10.8954 10.1716 12 10.1716H16C17.1046 10.1716 18 11.067 18 12.1716V16.1716C18 17.2761 17.1046 18.1716 16 18.1716H12C10.8954 18.1716 10 17.2761 10 16.1716V12.1716ZM12 12.1716H16V16.1716H12V12.1716Z" fill="#192743"/>
<path fill-rule="evenodd" clip-rule="evenodd" d="M14 8.17157C16.2091 8.17157 18 6.38071 18 4.17157C18 1.96243 16.2091 0.171573 14 0.171573C11.7909 0.171573 10 1.96243 10 4.17157C10 6.38071 11.7909 8.17157 14 8.17157ZM14 6.17157C15.1046 6.17157 16 5.27614 16 4.17157C16 3.067 15.1046 2.17157 14 2.17157C12.8954 2.17157 12 3.067 12 4.17157C12 5.27614 12.8954 6.17157 14 6.17157Z" fill="#192743"/>
<path fill-rule="evenodd" clip-rule="evenodd" d="M6.67157 4.17158L4.5 2L2.32842 4.17157L4.5 6.34315L6.67157 4.17158ZM5.91421 0.585787C5.13316 -0.195262 3.86683 -0.195263 3.08579 0.585786L0.914209 2.75736C0.133161 3.53841 0.13316 4.80474 0.914208 5.58579L3.08578 7.75736C3.86683 8.53841 5.13316 8.53841 5.91421 7.75736L8.08578 5.58579C8.86683 4.80474 8.86683 3.53841 8.08579 2.75736L5.91421 0.585787Z" fill="#192743"/>
<path fill-rule="evenodd" clip-rule="evenodd" d="M3.68467 10.3832C3.93421 10.2442 4.21498 10.1716 4.5 10.1716C4.78502 10.1716 5.06579 10.2442 5.31533 10.3832C5.56493 10.5223 5.77536 10.7233 5.92537 10.968L5.92829 10.9727L7.34697 13.316L8.76565 15.6593L8.77388 15.6732C8.92093 15.9251 8.99917 16.2116 8.99999 16.504C9.00082 16.7965 8.92421 17.0834 8.77857 17.3362C8.63298 17.5889 8.42381 17.7982 8.17292 17.9443C7.92209 18.0903 7.63781 18.1684 7.34825 18.1715L7.33738 18.1716L1.65175 18.1716C1.36219 18.1684 1.07791 18.0903 0.827082 17.9443C0.576184 17.7982 0.367015 17.5889 0.221425 17.3362C0.07579 17.0834 -0.000820858 16.7965 6.63309e-06 16.504C0.000834184 16.2116 0.0790677 15.9251 0.226116 15.6732L0.234346 15.6593L3.07462 10.968C3.22462 10.7233 3.43507 10.5223 3.68467 10.3832ZM4.5 12.4754L6.73779 16.1716H2.26221L4.5 12.4754Z" fill="#192743"/>
</svg>
