<svg width="20" height="21" viewBox="0 0 20 21" fill="none" xmlns="http://www.w3.org/2000/svg">
<path d="M5.66663 3C5.66663 2.44772 5.21891 2 4.66663 2C4.11434 2 3.66663 2.44772 3.66663 3V8.83333C3.66663 10.4246 4.29877 11.9508 5.42399 13.076C6.5492 14.2012 8.07533 14.8333 9.66663 14.8333C11.2579 14.8333 12.784 14.2012 13.9093 13.076C15.0345 11.9508 15.6666 10.4246 15.6666 8.83333V3C15.6666 2.44772 15.2189 2 14.6666 2C14.1143 2 13.6666 2.44772 13.6666 3V8.83333C13.6666 9.8942 13.2452 10.9116 12.4951 11.6618C11.7449 12.4119 10.7275 12.8333 9.66663 12.8333C8.60576 12.8333 7.58834 12.4119 6.8382 11.6618C6.08805 10.9116 5.66663 9.8942 5.66663 8.83333V3Z" fill="#192743"/>
<path d="M3 17C2.44772 17 2 17.4477 2 18C2 18.5523 2.44772 19 3 19H16.3333C16.8856 19 17.3333 18.5523 17.3333 18C17.3333 17.4477 16.8856 17 16.3333 17H3Z" fill="#192743"/>
</svg>
