<svg width="20" height="20" viewBox="0 0 20 20" fill="none" xmlns="http://www.w3.org/2000/svg">
<path fill-rule="evenodd" clip-rule="evenodd" d="M15.4204 19.9142C14.488 19.6319 13.8946 18.7187 14.0154 17.7519C14.2292 16.0416 13.9961 14.9041 13.6408 14.1426C13.2888 13.3885 12.7491 12.8569 12.096 12.465C11.4414 12.0722 10.6984 11.8355 10 11.6948V13C10 13.8089 9.51272 14.5382 8.76537 14.8478C8.01802 15.1573 7.15778 14.9862 6.58579 14.4142L1.58579 9.41421C0.804738 8.63316 0.804738 7.36683 1.58579 6.58578L6.58579 1.58578C7.15778 1.01379 8.01802 0.842676 8.76537 1.15224C9.51272 1.4618 10 2.19107 10 3V4.62396C13.299 5.04467 15.9837 6.52418 17.5801 8.87715C19.5063 11.7164 19.5448 15.3826 17.7889 18.8944C17.3531 19.7658 16.3529 20.1965 15.4204 19.9142ZM8 6.5V3L3 8L8 13V9.5C8.45717 9.5 9.17559 9.52612 10 9.66198C11.5833 9.9229 13.5576 10.5886 14.8229 12.2513C15.7809 13.5102 16.3324 15.3408 16 18C17.2101 15.5799 17.3572 13.2411 16.612 11.3118C15.5097 8.45793 12.455 6.5 8 6.5Z" fill="#192743"/>
</svg>
