<svg width="20" height="20" viewBox="0 0 20 20" fill="none" xmlns="http://www.w3.org/2000/svg">
<path fill-rule="evenodd" clip-rule="evenodd" d="M5.66663 5.83333C5.66663 3.4401 7.60672 1.5 9.99996 1.5C12.3932 1.5 14.3333 3.4401 14.3333 5.83333C14.3333 8.22657 12.3932 10.1667 9.99996 10.1667C7.60672 10.1667 5.66663 8.22657 5.66663 5.83333ZM9.99996 3.5C8.71129 3.5 7.66663 4.54467 7.66663 5.83333C7.66663 7.122 8.71129 8.16667 9.99996 8.16667C11.2886 8.16667 12.3333 7.122 12.3333 5.83333C12.3333 4.54467 11.2886 3.5 9.99996 3.5Z" fill="#192743"/>
<path d="M3.60258 12.7692C4.41524 11.9565 5.51744 11.5 6.66671 11.5H13.3334C14.4826 11.5 15.5848 11.9565 16.3975 12.7692C17.2102 13.5819 17.6667 14.6841 17.6667 15.8333V17.5C17.6667 18.0523 17.219 18.5 16.6667 18.5C16.1144 18.5 15.6667 18.0523 15.6667 17.5V15.8333C15.6667 15.2145 15.4209 14.621 14.9833 14.1834C14.5457 13.7458 13.9522 13.5 13.3334 13.5H6.66671C6.04787 13.5 5.45438 13.7458 5.01679 14.1834C4.57921 14.621 4.33337 15.2145 4.33337 15.8333V17.5C4.33337 18.0523 3.88566 18.5 3.33337 18.5C2.78109 18.5 2.33337 18.0523 2.33337 17.5V15.8333C2.33337 14.6841 2.78992 13.5819 3.60258 12.7692Z" fill="#192743"/>
</svg>
