<svg width="20" height="20" viewBox="0 0 20 20" fill="none" xmlns="http://www.w3.org/2000/svg">
<path fill-rule="evenodd" clip-rule="evenodd" d="M2.94995 5.83333C2.94995 3.4401 4.89005 1.5 7.28328 1.5C9.67652 1.5 11.6166 3.4401 11.6166 5.83333C11.6166 8.22657 9.67652 10.1667 7.28328 10.1667C4.89005 10.1667 2.94995 8.22657 2.94995 5.83333ZM7.28328 3.5C5.99462 3.5 4.94995 4.54467 4.94995 5.83333C4.94995 7.122 5.99462 8.16667 7.28328 8.16667C8.57195 8.16667 9.61662 7.122 9.61662 5.83333C9.61662 4.54467 8.57195 3.5 7.28328 3.5Z" fill="#192743"/>
<path d="M1.30253 12.7692C2.11519 11.9565 3.21739 11.5 4.36666 11.5H10.2C11.3493 11.5 12.4515 11.9565 13.2641 12.7692C14.0768 13.5819 14.5333 14.6841 14.5333 15.8333V17.5C14.5333 18.0523 14.0856 18.5 13.5333 18.5C12.981 18.5 12.5333 18.0523 12.5333 17.5V15.8333C12.5333 15.2145 12.2875 14.621 11.8499 14.1834C11.4123 13.7458 10.8188 13.5 10.2 13.5H4.36666C3.74782 13.5 3.15433 13.7458 2.71674 14.1834C2.27916 14.621 2.03333 15.2145 2.03333 15.8333V17.5C2.03333 18.0523 1.58561 18.5 1.03333 18.5C0.48104 18.5 0.0333252 18.0523 0.0333252 17.5V15.8333C0.0333252 14.6841 0.489872 13.5819 1.30253 12.7692Z" fill="#192743"/>
<path d="M19.2071 6.79289C19.5976 7.18342 19.5976 7.81658 19.2071 8.20711L15.8738 11.5404C15.4832 11.931 14.8501 11.931 14.4596 11.5404L12.7929 9.87377C12.4024 9.48325 12.4024 8.85008 12.7929 8.45956C13.1834 8.06904 13.8166 8.06904 14.2071 8.45956L15.1667 9.41912L17.7929 6.79289C18.1834 6.40237 18.8166 6.40237 19.2071 6.79289Z" fill="#192743"/>
</svg>
