<svg width="20" height="20" viewBox="0 0 20 20" fill="none" xmlns="http://www.w3.org/2000/svg">
<path fill-rule="evenodd" clip-rule="evenodd" d="M2.92004 5.83333C2.92004 3.4401 4.86014 1.5 7.25338 1.5C9.64661 1.5 11.5867 3.4401 11.5867 5.83333C11.5867 8.22657 9.64661 10.1667 7.25338 10.1667C4.86014 10.1667 2.92004 8.22657 2.92004 5.83333ZM7.25338 3.5C5.96471 3.5 4.92004 4.54467 4.92004 5.83333C4.92004 7.122 5.96471 8.16667 7.25338 8.16667C8.54204 8.16667 9.58671 7.122 9.58671 5.83333C9.58671 4.54467 8.54204 3.5 7.25338 3.5Z" fill="#192743"/>
<path d="M1.2692 12.7692C2.08186 11.9565 3.18406 11.5 4.33333 11.5H10.1667C11.3159 11.5 12.4181 11.9565 13.2308 12.7692C14.0435 13.5819 14.5 14.6841 14.5 15.8333V17.5C14.5 18.0523 14.0523 18.5 13.5 18.5C12.9477 18.5 12.5 18.0523 12.5 17.5V15.8333C12.5 15.2145 12.2542 14.621 11.8166 14.1834C11.379 13.7458 10.7855 13.5 10.1667 13.5H4.33333C3.71449 13.5 3.121 13.7458 2.68342 14.1834C2.24583 14.621 2 15.2145 2 15.8333V17.5C2 18.0523 1.55228 18.5 1 18.5C0.447715 18.5 0 18.0523 0 17.5V15.8333C0 14.6841 0.456546 13.5819 1.2692 12.7692Z" fill="#192743"/>
<path d="M13 9.16675C13 8.61446 13.4477 8.16675 14 8.16675H19C19.5523 8.16675 20 8.61446 20 9.16675C20 9.71903 19.5523 10.1667 19 10.1667H14C13.4477 10.1667 13 9.71903 13 9.16675Z" fill="#192743"/>
</svg>
