<svg width="20" height="20" viewBox="0 0 20 20" fill="none" xmlns="http://www.w3.org/2000/svg">
<g clip-path="url(#clip0_134_4501)">
<path fill-rule="evenodd" clip-rule="evenodd" d="M3.33997 5.83333C3.33997 3.4401 5.28006 1.5 7.6733 1.5C10.0665 1.5 12.0066 3.4401 12.0066 5.83333C12.0066 8.22657 10.0665 10.1667 7.6733 10.1667C5.28006 10.1667 3.33997 8.22657 3.33997 5.83333ZM7.6733 3.5C6.38463 3.5 5.33997 4.54467 5.33997 5.83333C5.33997 7.122 6.38463 8.16667 7.6733 8.16667C8.96196 8.16667 10.0066 7.122 10.0066 5.83333C10.0066 4.54467 8.96196 3.5 7.6733 3.5Z" fill="#192743"/>
<path d="M1.2692 12.7692C2.08186 11.9565 3.18406 11.5 4.33333 11.5H11C12.1493 11.5 13.2515 11.9565 14.0641 12.7692C14.8768 13.5819 15.3333 14.6841 15.3333 15.8333V17.5C15.3333 18.0523 14.8856 18.5 14.3333 18.5C13.781 18.5 13.3333 18.0523 13.3333 17.5V15.8333C13.3333 15.2145 13.0875 14.621 12.6499 14.1834C12.2123 13.7458 11.6188 13.5 11 13.5H4.33333C3.71449 13.5 3.121 13.7458 2.68342 14.1834C2.24583 14.621 2 15.2145 2 15.8333V17.5C2 18.0523 1.55228 18.5 1 18.5C0.447715 18.5 0 18.0523 0 17.5V15.8333C0 14.6841 0.456546 13.5819 1.2692 12.7692Z" fill="#192743"/>
<path d="M15.532 12.3584C15.6701 11.8236 16.2155 11.5021 16.7502 11.6402C17.6799 11.8802 18.5035 12.4222 19.0917 13.181C19.68 13.9398 19.9995 14.8725 20.0002 15.8327V17.5001C20.0002 18.0523 19.5525 18.5001 19.0002 18.5001C18.448 18.5001 18.0002 18.0523 18.0002 17.5001V15.8338C17.9998 15.317 17.8277 14.8148 17.511 14.4063C17.1943 13.9977 16.7508 13.7059 16.2502 13.5766C15.7155 13.4386 15.3939 12.8931 15.532 12.3584Z" fill="#192743"/>
<path d="M12.2314 2.36036C12.3684 1.82533 12.9132 1.50266 13.4482 1.63965C14.3803 1.8783 15.2065 2.4204 15.7965 3.18048C16.3865 3.94056 16.7067 4.87538 16.7067 5.83756C16.7067 6.79975 16.3865 7.73457 15.7965 8.49464C15.2065 9.25472 14.3803 9.79682 13.4482 10.0355C12.9132 10.1725 12.3684 9.84979 12.2314 9.31477C12.0945 8.77974 12.4171 8.23497 12.9522 8.09798C13.4541 7.96947 13.8989 7.67757 14.2166 7.2683C14.5343 6.85902 14.7067 6.35566 14.7067 5.83756C14.7067 5.31946 14.5343 4.8161 14.2166 4.40683C13.8989 3.99755 13.4541 3.70565 12.9522 3.57715C12.4171 3.44016 12.0945 2.89538 12.2314 2.36036Z" fill="#192743"/>
</g>
<defs>
<clipPath id="clip0_134_4501">
<rect width="20" height="20" fill="white"/>
</clipPath>
</defs>
</svg>
