<svg width="20" height="20" viewBox="0 0 20 20" fill="none" xmlns="http://www.w3.org/2000/svg">
<path d="M10.1141 1C7.75301 1 5.60455 1.90971 4 3.3957V2.99048C4 2.43819 3.55228 1.99048 3 1.99048C2.44772 1.99048 2 2.43819 2 2.99048V5.99998C2 6.55226 2.44772 6.99998 3 6.99998H6.0095C6.56179 6.99998 7.0095 6.55226 7.0095 5.99998C7.0095 5.44769 6.56179 4.99998 6.0095 4.99998H5.215C6.47833 3.76182 8.20732 3 10.1141 3C13.9801 3 17.1141 6.13401 17.1141 10C17.1141 13.866 13.9801 17 10.1141 17C8.22825 17 6.51835 16.2556 5.25879 15.0424C4.86101 14.6593 4.22795 14.6712 3.84483 15.069C3.4617 15.4668 3.47359 16.0998 3.87137 16.483C5.48862 18.0406 7.69035 19 10.1141 19C15.0847 19 19.1141 14.9706 19.1141 10C19.1141 5.02944 15.0847 1 10.1141 1Z" fill="#192743"/>
<path d="M10.1141 5C10.6664 5 11.1141 5.44772 11.1141 6V9.58579L12.8212 11.2929C13.2117 11.6834 13.2117 12.3166 12.8212 12.7071C12.4307 13.0976 11.7975 13.0976 11.407 12.7071L9.40697 10.7071C9.21943 10.5196 9.11407 10.2652 9.11407 10V6C9.11407 5.44772 9.56179 5 10.1141 5Z" fill="#192743"/>
</svg>
