<svg preserveAspectRatio="none" width="100%" height="100%" overflow="visible" style="display: block;" viewBox="0 0 277 8" fill="none" xmlns="http://www.w3.org/2000/svg">
<path id="Line 127" d="M21.4331 7.93611C21.6045 7.92596 22.2939 7.95064 22.5923 7.94636C22.254 8.05368 20.8149 7.97295 21.4331 7.93611ZM52.0449 0.143331C51.7973 0.169861 51.5497 0.196392 51.3021 0.222923C52.0058 0.240162 52.9516 0.220689 53.6046 0.245873C53.7114 0.250103 53.4343 0.326919 53.687 0.330349C53.9398 0.333757 53.891 0.228781 54.2587 0.217552C54.671 0.205276 56.5592 0.27841 57.2131 0.276636C59.6588 0.26955 62.1255 0.209599 64.576 0.253198C62.0461 0.330863 64.5955 0.409908 65.3041 0.376249C65.4611 0.368456 65.436 0.173296 67.9743 0.222435C69.5874 0.253619 68.0975 0.532628 70.7893 0.392851C68.7194 0.197665 70.7549 0.211345 72.3775 0.204856C72.6572 0.203707 74.9163 0.233032 75.9142 0.224388C76.2556 0.221382 76.7758 0.119156 77.2287 0.116474C77.5404 0.114704 77.7761 0.170591 78.2388 0.167745C80.3963 0.155149 82.518 0.150803 84.6793 0.169699C83.4163 0.432394 85.6706 0.281656 85.7719 0.294215C86.2867 0.365539 83.958 0.385841 84.879 0.43045C86.166 0.422312 87.453 0.414174 88.7401 0.406035C87.6838 0.373782 90.1385 0.184822 90.5903 0.270777C90.3914 0.0386496 96.4562 0.472811 97.3794 0.395293C97.5717 0.378919 96.3131 0.264194 99.2328 0.316677C99.549 0.322508 99.4294 0.392544 99.5953 0.386015C99.6946 0.38209 100.296 0.159491 100.936 0.282496C101.17 0.327391 99.6738 0.473589 102.96 0.414825C101.651 0.188263 107.516 0.292128 108.595 0.348905C108.379 0.318467 108.164 0.28803 107.948 0.257593C109.015 0.339702 109.207 0.262672 109.448 0.26687C110.416 0.283731 111.747 0.36136 112.649 0.354276C113.705 0.346125 113.709 0.205225 114.939 0.260034C114.647 0.228946 114.355 0.197857 114.063 0.166769C114.913 0.174256 115.763 0.181743 116.613 0.18923C114.645 0.375743 117.038 0.198129 117.195 0.194114C117.447 0.187325 117.085 0.263682 117.506 0.254174C117.549 0.252609 117.487 0.180704 118.135 0.172628C119.489 0.156001 119.275 0.246408 119.843 0.245385C119.895 0.244919 119.713 0.180141 120.695 0.164815C123.816 0.116029 120.679 0.214457 120.56 0.223412C120.402 0.235221 121.473 0.505932 118.821 0.409942C119.712 0.440501 119.801 0.560294 119.901 0.563268C119.99 0.565713 121.532 0.548839 121.617 0.544713C122.376 0.504033 121.708 0.42217 121.856 0.407501C121.977 0.395674 123.835 0.502357 124.271 0.256128C125.16 0.483246 123.759 0.462438 122.268 0.497348C122.051 0.543953 123.688 0.589273 123.774 0.589148C125.886 0.588734 124.717 0.401916 125.178 0.282496C125.421 0.220013 126.281 0.347466 125.487 0.179953C127.404 0.162271 126.241 0.259341 126.365 0.273706C126.552 0.294812 127.223 0.246802 127.307 0.253198C127.43 0.262665 127.001 0.320663 127.487 0.341092C127.568 0.344062 128.351 0.244259 127.341 0.196555C128.69 0.210743 128.579 0.12564 129.036 0.297145C129.965 -0.0273199 129.71 0.488934 130.076 0.507113C131.049 0.555037 130.767 0.30029 130.818 0.287867C131.172 0.20826 133.864 0.295771 134.531 0.259058C134.268 0.442542 132.397 0.261061 131.978 0.296657C130.583 0.415082 133.944 0.388392 132.931 0.618934C133.356 0.555618 133.781 0.492302 134.206 0.428986C134.984 0.577215 133.879 0.641851 135.975 0.587683C136.318 0.459741 134.494 0.607891 134.86 0.507113C135.075 0.447968 136.291 0.435265 136.315 0.404082C136.339 0.366547 135.24 0.411032 135.413 0.353299C135.791 0.228714 139.798 0.347319 136.748 0.415313C137.599 0.413184 138.037 0.660988 138.775 0.583777C139.252 0.53366 136.568 0.191415 140.594 0.254174C140.68 0.371189 138.984 0.288728 138.941 0.297633C138.879 0.310596 139.185 0.574649 139.238 0.587683C139.426 0.630594 143.538 0.489199 144.407 0.621864C144.063 0.469251 147.514 0.594632 147.889 0.548131C147.99 0.535293 147.616 0.441811 147.723 0.431915C148.39 0.373024 150.195 0.5399 151.032 0.544224C151.969 0.549124 151.85 0.468385 151.903 0.468538C152.315 0.473042 151.986 0.527776 152.238 0.527622C152.618 0.527359 155.235 0.538554 155.367 0.527134C155.405 0.523575 154.978 0.431344 155.548 0.413848C155.647 0.410817 155.584 0.520167 157.274 0.472933C159.308 0.416122 155.861 0.336949 156.706 0.222435C158.013 0.385485 157.971 0.223908 158.325 0.236596C158.448 0.241217 159.361 0.378592 160.353 0.369902C159.641 0.3922 158.929 0.414499 158.217 0.436799C158.917 0.460886 160.276 0.431071 160.853 0.458284C161.134 0.47153 160.902 0.584384 161.513 0.581335C161.643 0.580074 162.157 0.305128 160.557 0.428497C160.429 0.330322 161.191 0.394253 161.544 0.366483C161.597 0.362156 161.808 0.198143 162.259 0.300075C162.367 0.325153 161.188 0.80359 164.23 0.457307C164.328 0.446146 163.987 0.386229 164.083 0.373808C164.148 0.365396 164.925 0.389633 165.011 0.381132C165.099 0.372011 164.723 0.306598 164.828 0.293726C165.364 0.227402 166.067 0.486841 164.962 0.467073C165.331 0.499138 165.7 0.531203 166.07 0.563268C165.675 0.367737 166.649 0.508253 167.16 0.502231C170.433 0.463746 168.241 0.336574 168.804 0.270777C169.709 0.165132 169.018 0.499743 170.362 0.399199C170.486 0.389799 168.862 0.247762 172.033 0.327908C171.565 0.333442 171.097 0.338976 170.629 0.34451C170.899 0.533632 172.319 0.331537 172.429 0.328884C173.674 0.302917 172.832 0.371095 174.681 0.273706C174.847 0.264963 175.206 0.311637 175.56 0.288355C177.024 0.192438 173.628 0.230151 173.535 0.153584C173.491 0.116068 177.143 0.125516 177.268 0.143331C177.801 0.222298 175.613 0.178112 176.03 0.276148C176.182 0.310958 181.387 0.239463 182.431 0.277613C183.636 0.322007 184.179 0.57842 184.186 0.290308C184.526 0.573115 184.827 0.380161 184.981 0.382109C186.844 0.408288 186.848 0.411142 188.446 0.384062C188.799 0.378176 189.096 0.463984 189.221 0.449494C189.294 0.440743 189.158 0.348916 189.514 0.320583C190.008 0.281823 192.979 0.376271 193.2 0.427032C193.42 0.477794 191.945 0.449046 192.21 0.532505C193.277 0.540942 194.302 0.520292 195.376 0.529087C195.823 0.532991 195.594 0.591404 195.786 0.592566C195.869 0.593284 197.41 0.541844 197.345 0.520298C197.192 0.470195 192.431 0.503874 193.685 0.401641C193.927 0.381887 194.781 0.516496 194.645 0.352811C198.899 0.389922 203.152 0.427032 207.406 0.464143C204.962 0.586572 202.211 0.477079 199.652 0.488558C199.301 0.489975 198.115 0.474188 198.259 0.55692C200.436 0.578339 203.142 0.535233 205.232 0.589148C205.299 0.590932 205.053 0.665263 205.304 0.677042C205.772 0.699027 207.297 0.579144 207.554 0.610145C207.597 0.617367 206.73 0.715358 206.993 0.777632C207.671 0.937442 207.843 0.583489 208.425 0.587683C208.876 0.591077 211.902 0.762218 212.656 0.654092C213.458 0.538842 210.426 0.587183 210.65 0.492953C212.701 0.398257 214.778 0.499379 216.717 0.487582C216.751 0.487281 216.455 0.413438 216.887 0.403106C217.64 0.385126 217.837 0.489869 218.204 0.506625C218.599 0.524463 219.996 0.509452 220.183 0.547643C220.207 0.55265 219.924 0.656542 219.881 0.659463C219.272 0.702282 219.056 0.56744 219 0.56571C218.792 0.560597 218.588 0.612245 218.398 0.609169C218.086 0.604039 217.914 0.556256 217.501 0.552037C217.216 0.548949 217.491 0.640709 217.217 0.636513C217.116 0.634602 216.03 0.425075 215.929 0.638955C215.897 0.70639 224.779 0.792989 225.667 0.739056C224.906 0.713339 224.144 0.687622 223.382 0.661905C224.929 0.724506 226.787 0.553614 226.918 0.806441C232.653 0.827113 238.387 0.847784 244.122 0.868455C245.146 0.889996 244.584 1.05246 246.269 1.00518C245.834 0.95342 245.398 0.90166 244.963 0.8499C245.826 0.886211 249.652 0.957148 250.272 0.923634C250.352 0.91924 250.463 0.772198 251.419 0.759565C252.268 0.74841 252.404 0.858582 252.857 0.879686C253.238 0.897099 253.666 0.868233 253.779 0.874315C253.865 0.879185 253.9 0.946555 254.108 0.958303C254.767 0.994625 254.233 0.804935 254.887 1.02276C254.728 1.03106 254.569 1.03936 254.41 1.04766C255.205 1.07919 256.291 1.17808 255.12 1.22687C254.918 1.23529 255.091 1.17011 254.941 1.17022C249.061 1.18234 253.756 1.30904 255.817 1.20782C256.346 1.3044 259.312 1.24544 259.411 1.26447C259.548 1.29203 259.04 1.36922 259.706 1.43586C259.846 1.44997 263.811 1.39589 262.383 1.52424C262.089 1.55072 260.187 1.5229 259.729 1.52668C260.807 1.73138 263.335 1.43811 263.62 1.44563C264.766 1.47753 261.417 1.62302 264 1.64681C265.986 1.66506 264.122 1.52838 264.885 1.47004C265.315 1.43731 267.563 1.58787 267.502 1.39289C268.273 1.37207 267.822 1.47531 267.917 1.48274C268.01 1.48926 269.527 1.43089 270.02 1.47199C270.08 1.4771 269.892 1.57845 269.953 1.58674C270.073 1.60094 271.537 1.58068 271.595 1.5721C271.633 1.56613 271.284 1.4774 271.427 1.45588C271.594 1.43107 273.002 1.45195 273.08 1.42658C273.19 1.38823 271.452 1.4135 271.741 1.31427C272.542 1.33926 273.848 1.27305 274.377 1.19317C274.247 1.21601 273.47 1.21929 273.2 1.21124C273.327 1.06592 274.995 1.0679 274.425 1.18292C274.788 1.12115 274.54 1.08838 274.744 1.03008C274.798 1.01532 275.313 1.01227 275.412 0.987113C275.425 0.9821 274.893 0.927269 275 0.897754C275.193 0.844417 276.754 0.856415 276.882 0.870409C277.241 0.910063 275.968 0.958044 275.862 1.01934C275.847 1.02875 276.93 1.14887 276.946 1.15948C277.01 1.2733 275.805 1.19128 275.943 1.29376C276.24 1.31541 276.538 1.33706 276.836 1.35871C275.687 1.46249 273.561 1.40912 273.012 1.52717C274.716 1.49204 276.5 1.4962 276.496 1.76204C276.495 1.87401 275.76 1.93964 275.788 1.96811C275.897 2.06997 276.917 1.95931 276.955 1.96469C276.986 1.9709 277 1.97694 277 1.98282C277 1.98283 277 1.98283 277 1.98283C277 2.04247 275.545 2.08541 275.472 2.11264C275.35 2.16102 275.997 2.36012 275.996 2.40416C275.974 2.41301 274.938 2.46012 275.287 2.53698C275.641 2.6146 276.548 2.61632 276.58 2.62438C276.753 2.67082 275.167 2.71317 275.119 2.7406C275.094 2.75446 275.946 2.83965 275.971 2.86414C275.992 2.88871 275.345 2.94234 275.09 3.0199C274.9 3.07753 275.453 3.12172 275.356 3.13075C275.286 3.13674 273.788 3.13575 273.714 3.14589C273.604 3.16087 273.955 3.22974 273.904 3.24696C273.832 3.27173 273.348 3.24687 273.411 3.27236C273.458 3.29135 275.334 3.52877 275.322 3.59219C275.301 3.70036 273.314 3.45148 275.163 3.87834C275.176 3.88114 275.626 3.8508 275.638 3.85343C275.916 3.93197 274.473 4.05278 276.237 4.03166C272.956 4.16807 275.829 4.19427 275.343 4.3764C275.156 4.44641 273.884 4.47528 273.878 4.48578C274.001 4.57459 274.407 4.50571 274.545 4.54926C274.62 4.57359 273.482 4.66749 273.738 4.72847C273.871 4.75989 275.079 4.7487 275.129 4.75483C275.607 4.81264 275.021 4.87491 275.126 4.91597C275.196 4.9435 275.925 4.94568 275.944 4.95064C275.974 4.96095 274.984 5.07219 274.778 5.11129C274.621 5.14138 275.21 5.18851 275.1 5.20163C274.441 5.28006 273.039 5.08003 274.39 5.36033C274.473 5.37751 274.984 5.37057 274.999 5.374C275.315 5.45346 274.374 5.46032 274.205 5.52537C273.916 5.63746 275.269 5.57497 274.144 5.65379C274.988 5.72709 275.458 5.72403 276.445 5.7036C273.711 5.7606 272.747 6.05076 275.782 6.04346C274.816 6.03893 274.923 6.2027 274.635 6.20557C274.456 6.20717 273.056 6.04435 273.698 6.40968C273.779 6.45532 274.629 6.39733 274.363 6.49074C272.322 6.4669 274.319 6.55017 274.322 6.56252C274.295 6.77772 269.308 6.60146 268.451 6.626C267.456 6.65446 266.573 6.82403 266.356 6.82425C265.645 6.82432 266.235 6.73822 266.076 6.70657C265.915 6.6752 263.893 6.84014 263.792 6.83108C263.4 6.7947 263.798 6.69267 263.757 6.68752C263.272 6.62501 260.556 6.70489 259.795 6.68118C259.819 6.74736 261.346 6.75261 260.392 6.85892C259.283 6.98285 259.219 6.69109 259.19 6.67825C254.105 6.68101 249.019 6.68378 243.934 6.68655C243.997 6.84178 247.322 6.72471 247.398 6.74514C247.842 6.86615 242.225 6.86392 241.536 6.80911C242.06 6.84264 242.583 6.87617 243.106 6.9097C242.213 7.08816 240.235 6.8563 238.942 6.93509C238.524 6.96063 239.326 7.02951 239.31 7.03422C238.84 7.10353 238.087 7.05013 238.65 6.95707C237.505 7.04623 237.672 6.94785 236.793 6.94046C236.747 6.94015 237.125 7.01217 236.429 7.04203C236.103 7.05596 234.365 7.05619 234.132 7.11918C234.036 7.1457 234.918 7.42498 235.027 7.18461C236.918 7.30178 235.631 7.07508 236.366 7.08061C236.478 7.08186 236.219 7.21603 238.069 7.15287C237.717 7.39482 235.587 7.2139 235.221 7.24321C234.468 7.30345 237.572 7.42839 238.141 7.23979C237.875 7.42859 238.361 7.26524 239.053 7.273C239.81 7.28141 239.48 7.33763 239.89 7.33794C241.01 7.33935 240.546 7.20607 241.47 7.32622C240.569 6.95427 243.051 7.27714 243.774 7.37456C242.597 7.39344 241.421 7.41232 240.244 7.4312C240.311 7.45074 240.378 7.47027 240.446 7.4898C240.136 7.48703 239.826 7.48427 239.516 7.4815C239.565 7.46278 239.615 7.44406 239.665 7.42534C238.066 7.54705 237.676 7.41026 237.546 7.40874C235.868 7.39288 233.931 7.39405 232.234 7.39361C231.98 7.39354 232.154 7.51528 230.299 7.41997C229.708 7.38962 230.266 7.29492 229.596 7.30913C228.757 7.56648 228.773 7.36121 228.523 7.36089C227.807 7.36092 227.37 7.42467 227.304 7.42534C226.419 7.43529 225.124 7.42465 224.153 7.43413C224.135 7.43511 224.64 7.51417 224.009 7.49078C223.787 7.48242 221.8 7.14491 220.062 7.25493C220.514 7.27772 220.966 7.3005 221.418 7.32329C220.887 7.29145 217.163 7.3765 218.074 7.46685C218.632 7.52207 219.994 7.30452 220.144 7.51373C218.905 7.45111 212.062 7.54476 211.529 7.49615C211.455 7.48921 211.908 7.42133 211.807 7.41265C211.728 7.40603 210.16 7.42212 209.952 7.39605C209.828 7.38056 210.521 7.33895 210.465 7.3145C210.415 7.29707 208.458 7.268 208.346 7.35308C208.827 7.31892 210.178 7.34875 209.469 7.42046C209.378 7.42937 208.906 7.37449 208.795 7.38579C207.768 7.49004 210.838 7.46502 211.313 7.46587C209.385 7.57427 206.402 7.44649 204.167 7.51715C203.264 7.44633 205.506 7.40882 204.484 7.35015C202.364 7.22854 203.92 7.44807 203.854 7.45708C203.328 7.52853 201.535 7.14564 201.534 7.43706C200.765 7.3932 201.014 7.35645 199.93 7.39458C200.072 7.41477 200.215 7.43495 200.358 7.45513C199.154 7.62394 196.606 7.19806 196.797 7.16557C197.31 7.07862 198.637 7.21424 198.75 7.21098C198.918 7.20616 199.382 6.91044 201.218 7.17485C201.969 6.97651 198.308 7.04098 199.974 6.90579C198.849 6.92798 194.22 6.78993 193.554 6.87698C193.474 6.88835 193.845 7.08597 192.701 6.98539C192.158 6.93749 193.467 6.93519 193.219 6.89017C192.454 6.752 182.058 6.84038 180.083 6.84769C179.955 6.84791 180.002 6.78657 179.876 6.78714C179.489 6.78885 178.079 6.88031 177.387 6.85208C178.821 6.96561 176.035 6.97444 175.326 6.96195C174.25 6.94293 174.317 6.83499 173.852 6.81204C172.061 6.72357 169.285 6.97982 167.893 6.74026C167.97 6.97802 165.486 6.62369 164.357 6.6216C163.472 6.6199 162.188 6.77724 163.382 6.87308C161.855 6.86213 160.247 6.90649 158.814 6.92093C158.578 6.92336 158.904 6.85305 158.5 6.85941C158.463 6.86049 158.412 6.92939 158.065 6.93656C155.201 6.99661 156.595 6.8502 156.059 6.80716C155.759 6.78305 155.537 6.77107 155.375 6.76712C157.045 6.75365 158.97 6.72659 159.485 6.72463C159.046 6.57249 155.785 6.75386 154.83 6.71292C154.797 6.71143 154.912 6.62757 154.878 6.62697C154.878 6.62697 154.877 6.62697 154.876 6.62697C154.518 6.62055 152.239 6.6515 152.708 6.75149C152.834 6.77821 153.883 6.77815 155.128 6.76907C154.791 6.78783 155.042 6.88177 154.983 6.88577C154.262 6.93221 152.496 6.84052 151.87 6.82815C151.727 6.82544 151.737 6.88563 151.714 6.88577C151.144 6.8721 151.378 6.70025 150.793 6.87747C149.762 6.66329 152.727 6.84567 152.518 6.70657C152.357 6.59947 145.771 6.65699 145.791 6.82571C145.768 6.80767 145.678 6.78527 145.492 6.75979C145.08 6.70317 143.247 6.72089 142.931 6.75198C142.877 6.7581 142.898 6.92186 142.832 6.92337C142.667 6.92713 140.426 6.79874 139.589 6.89554C140.041 6.91849 140.493 6.94144 140.945 6.96439C138.216 6.96581 138.638 7.01455 139.547 7.06351C139.593 7.06396 139.637 7.07017 139.68 7.07084C140.385 7.10704 141.288 7.14191 141.302 7.15483C141.354 7.20412 136.724 7.23156 137.614 7.07963C137.739 7.05886 139.881 7.12651 138.82 7.0181C138.634 6.99911 137.259 7.03005 137.186 7.0181C136.703 6.93866 139.707 6.83312 139.34 6.72024C138.611 6.82771 137.675 6.77111 136.839 6.79886C136.458 6.8114 136.365 6.8935 136.318 6.89505C135.616 6.91649 136.01 6.8304 135.776 6.83255C135.65 6.83403 134.268 7.01725 134.529 6.76468C129.974 6.95047 133.269 6.95029 136.063 6.93607C135.18 7.02806 133.449 6.98356 132.672 7.00492C132.394 7.01267 132.559 7.09695 132.088 7.11381C131.119 7.14848 126.493 7.05167 125.287 7.02885C126.027 6.99907 125.811 6.90726 125.24 6.91361C124.668 6.91999 125.148 7.04253 125.037 7.0557C124.917 7.06934 122.237 7.0115 121.791 7.02738C123.809 6.983 123.354 6.89145 121.641 6.88187C121.888 6.8555 122.136 6.82913 122.384 6.80276C121.38 6.83982 119.269 6.70016 118.688 6.74173C118.597 6.7484 118.924 6.82538 118.873 6.82913C118.364 6.86184 116.632 6.78333 116.552 6.8096C116.483 6.83146 117.222 6.896 116.948 6.92777C116.891 6.93446 116.179 6.83041 115.477 6.85599C115.217 6.8654 115.374 6.93819 115.308 6.94242C114.762 6.97743 115.084 6.85484 114.085 6.87454C113.354 6.88912 112.809 7.00897 111.798 6.96927C115.118 7.12205 112.327 7.05824 110.939 7.10453C110.716 7.11192 110.907 7.24407 109.578 7.17973C112.406 6.94077 108.771 7.05342 108.028 7.05082C107.987 7.05001 107.973 6.96286 107.608 6.96146C107.577 6.96154 107.622 7.02043 107.283 7.02494C104.068 7.06752 106.123 7.00098 105.513 6.9429C105.253 6.91816 103.689 7.00144 103.268 7.00345C103.171 7.00366 103.216 6.94246 102.841 6.94486C102.179 6.94925 101.585 7.0144 101.148 7.01957C101.096 7.01987 101.094 6.92331 100.265 6.95462C100.032 6.96338 99.7703 6.99766 100.101 7.02543C101.2 7.11674 103.282 6.95871 104.524 7.04984C105.655 7.13284 102.087 7.14067 101.901 7.14115C101.833 7.14146 102.53 7.09351 101.822 7.08402C101.217 7.07612 100.112 7.2429 99.2106 7.20659C99.1419 7.20389 98.4219 7.06248 98.4551 7.05424C98.4853 7.04821 99.591 7.01752 99.4304 6.9766C99.4113 6.97194 98.7085 6.97288 98.6168 6.94242C98.5044 6.90533 98.2016 6.54137 98.0515 6.53224C97.6664 6.5097 97.917 6.59271 97.6679 6.58693C97.1337 6.57476 95.2809 6.46713 95.2206 6.59328C95.5267 6.60077 95.8328 6.60826 96.1389 6.61574C94.4359 6.62872 95.1618 6.68242 94.9205 6.70608C94.6607 6.73167 94.7338 6.62079 94.1597 6.61037C94.0348 6.60808 91.6329 6.63123 91.6766 6.67776C93.0049 6.60371 92.5124 6.74074 92.5737 6.74319C92.8064 6.75212 93.1036 6.67525 93.4158 6.67678C95.612 6.68881 93.3972 6.81014 93.9156 6.84134C94.0941 6.85184 94.4496 6.78622 94.5253 6.78958C94.7714 6.80045 94.7754 6.88638 94.9396 6.87943C95.3226 6.8633 94.8754 6.7417 94.9058 6.73538C95.248 6.65928 96.5892 6.75396 95.7543 6.88626C96.2555 6.93394 96.3142 6.77315 96.7116 6.83743C97.5018 6.96472 96.318 6.93202 95.9973 6.95316C94.8468 7.0294 94.5055 6.96768 92.8769 6.9888C92.2904 6.99626 91.5957 7.07436 91.3236 7.07865C91.1522 7.08135 89.5337 6.80959 89.4861 7.23491C88.8569 7.19375 87.8698 6.91348 87.2216 6.9263C86.6397 6.938 86.8247 7.08846 86.7704 7.09428C86.6872 7.10342 85.9835 7.09157 85.7454 7.11283C85.4666 7.13795 85.6058 7.19539 85.1632 7.21879C84.062 7.27689 84.0908 7.1233 83.9776 7.11332C82.6636 6.99795 83.2389 7.21641 82.9474 7.23393C82.6762 7.25003 78.8725 7.16595 78.0719 7.22124C78.3977 7.19047 78.7235 7.15971 79.0493 7.12895C78.4663 7.03315 77.8482 7.1894 77.8373 7.01761C77.719 7.29496 76.5155 7.10957 76.154 7.11674C76.0115 7.11969 76.0228 7.16695 75.8444 7.16899C75.1478 7.17727 73.5773 7.13965 73.1996 7.16362C71.5656 7.26679 75.7437 7.43842 76.0727 7.44878C75.4142 7.44572 71.6891 7.50784 73.4014 7.64117C73.6661 7.66174 74.135 7.53763 74.2837 7.53277C75.2899 7.50082 74.4986 7.61204 74.5775 7.62262C74.7116 7.63969 75.3738 7.53217 75.5485 7.54498C75.6068 7.54908 75.2314 7.6498 76.191 7.65192C75.719 7.74955 73.0219 7.67001 72.6681 7.69293C72.542 7.70112 73.3321 7.90975 71.0239 7.70709C71.0506 7.72646 71.0774 7.74583 71.1042 7.7652C69.8189 7.77318 68.5336 7.78115 67.2484 7.78913C67.388 7.7445 68.1097 7.65487 67.2008 7.67389C66.6776 7.6849 67.0647 7.78429 67.017 7.78718C66.5474 7.81453 58.2363 7.78146 56.6256 7.79255C56.0777 7.79615 54.5505 7.87603 54.4341 7.87751C53.7378 7.88551 51.272 7.83351 50.7801 7.84479C50.473 7.85203 50.765 7.93512 50.4906 7.93122C50.2355 7.92749 50.4997 7.84718 50.424 7.84382C49.7965 7.81472 45.0299 7.92005 43.898 7.84431C44.5898 7.86704 48.0419 7.70659 47.9725 7.64996C47.9575 7.6422 47.1185 7.58111 46.9454 7.6109C46.6595 7.54137 45.6778 7.75307 45.1438 7.71149C45.0834 7.70677 45.3212 7.58802 44.3682 7.56646C44.0399 7.5591 43.1803 7.65166 42.3151 7.54791C41.0626 7.59776 34.4773 7.44376 34.0255 7.57135C34.0121 7.57808 34.9394 7.62202 34.3129 7.67438C33.48 7.74398 34.228 7.50954 33.2573 7.48931C33.111 7.48624 30.4103 7.50996 30.3218 7.52447C29.5039 7.65605 31.8638 7.70938 31.8308 7.72467C31.7485 7.76319 29.7876 7.78649 29.7079 7.77741C29.632 7.76796 31.2312 7.59362 29.3095 7.65973C29.5297 7.68056 29.7498 7.7014 29.97 7.72223C29.0662 7.76281 28.9801 7.64219 28.7611 7.63483C28.0805 7.6115 27.3442 7.7947 26.2536 7.56842C25.9653 7.50836 26.444 7.44167 26.4079 7.43267C26.0615 7.35184 25.6196 7.56807 25.0987 7.40679C25.0595 7.39476 26.2717 7.29814 24.153 7.2979C24.2988 7.31336 24.4446 7.32882 24.5904 7.34429C24.2917 7.37881 22.1465 7.39932 21.8579 7.39116C21.0148 7.36731 21.75 7.25631 20.9027 7.26958C21.4461 7.4217 18.8693 7.44155 19.0175 7.31059C18.6576 7.47507 16.4687 7.34819 15.4396 7.34429C14.7904 7.34195 13.466 7.41372 13.2597 7.40532C13.0084 7.39504 13.0848 7.28284 12.631 7.25786C12.5016 7.25073 11.1508 7.33298 9.96502 7.21684C9.73522 7.19446 9.2526 7.00414 9.67972 6.95658C10.4108 6.87518 11.7938 7.0285 11.7762 6.91605C11.7554 6.79575 9.89263 6.86729 9.39124 6.85159C7.07646 6.77898 8.41313 6.65109 8.35359 6.61233C8.19922 6.51825 6.93442 6.52117 6.88164 6.51271C6.66292 6.47514 7.55918 6.40069 7.57271 6.34327C7.58904 6.26852 6.3699 6.1336 6.64706 6.1084C7.0438 6.07261 8.1642 6.18506 8.23524 6.17969C9.15993 6.10716 7.89244 5.93445 7.54312 5.8496C7.43723 5.8235 7.85916 5.7806 7.77136 5.77294C6.43112 5.65676 7.48884 6.01567 6.5974 5.9917C5.80205 5.97033 6.82538 5.85684 6.795 5.85058C6.75573 5.8437 5.80477 5.83751 5.6559 5.79735C5.58254 5.77724 8.05422 5.55648 7.951 5.4575C7.16237 5.47931 6.37374 5.50112 5.5851 5.52293C5.52328 5.39387 6.6576 5.48887 6.77492 5.47556C7.01111 5.44886 6.35251 5.38355 6.38078 5.34275C6.39595 5.31679 7.16892 5.22418 6.4706 5.186C6.2306 5.17282 5.72694 5.26331 4.85283 5.17086C7.89483 5.0528 5.78678 4.98025 5.69711 4.93453C5.60928 4.88881 7.06155 4.78122 5.29875 4.80025C5.22232 4.54908 5.33675 4.72085 5.83765 4.67671C6.45127 4.62244 5.03307 4.53974 7.27578 4.60248C7.1482 4.48489 5.34557 4.49321 5.25014 4.48383C5.16773 4.47532 5.56842 4.41748 5.42555 4.39789C3.73565 4.17066 4.89635 4.27442 4.40691 4.12932C4.36338 4.11636 2.76616 4.06256 3.98213 4.04143C6.19744 4.00301 7.1233 4.16965 7.49557 3.81339C5.85698 3.65864 3.87159 3.8886 3.37349 3.8925C2.61107 3.89811 3.40086 3.82545 3.30692 3.80509C3.27428 3.79851 2.61728 3.80451 2.60845 3.79874C2.13997 3.52702 5.53329 3.79423 6.60162 3.74698C6.31527 3.70629 6.02891 3.6656 5.74255 3.62491C6.13105 3.62328 6.51956 3.62165 6.90806 3.62002C5.05723 3.53823 6.84281 3.58905 7.30431 3.36904C7.40792 3.3196 6.192 3.40438 7.57905 3.26698C6.55602 3.23527 6.88233 3.19032 5.956 3.25234C5.97991 3.16415 8.0641 3.06467 8.88616 3.01942C5.98205 2.92031 7.63815 3.24379 5.12757 3.07264C4.662 3.18184 5.86034 3.16058 5.76263 3.1786C5.41203 3.24341 4.59016 3.14051 3.59856 3.36757C3.4371 3.40485 4.12029 3.51961 3.10932 3.51406C2.9975 3.51328 2.35332 3.41521 2.36225 3.4081C2.44765 3.3313 3.08511 3.36008 3.11143 3.32802C3.13613 3.29767 2.42493 3.31592 2.42248 3.30751C2.40063 3.21129 3.01587 3.27074 2.92651 3.24062C2.73354 3.1751 0.175377 2.96805 3.51402 3.02869C0.740921 3.13748 3.15898 3.13494 4.2389 3.09315C4.5143 3.08267 4.58405 3.0252 4.97646 3.00526C5.48124 2.97942 6.07204 3.00701 6.33323 2.99647C6.61415 2.98484 5.018 2.84899 7.3265 2.88953C6.15163 2.7544 4.07637 2.89847 2.92229 2.80359C0.593877 2.61186 4.54575 2.57069 4.95744 2.55211C5.06712 2.54708 4.69941 2.46946 4.77252 2.46471C4.89208 2.45741 7.13494 2.49329 7.35609 2.42906C7.57664 2.36489 6.53458 2.43202 6.46531 2.36509C6.41836 2.32004 9.12404 2.24012 7.65936 2.20933C6.64984 2.18822 4.78903 2.36931 4.4756 2.17466C5.96022 2.15854 7.44485 2.14243 8.92948 2.12632C8.1169 2.05226 7.30431 1.9782 6.49173 1.90414C8.15806 1.88065 9.59862 1.96426 11.1813 1.85824C7.37824 1.62093 12.416 1.66885 12.4714 1.63997C12.49 1.6227 10.9931 1.43008 10.7522 1.39484C12.0787 1.32074 16.1091 1.28453 13.7511 1.04669C14.1791 1.10039 15.2156 0.967821 15.2019 0.957814C15.0703 0.852738 12.8097 0.920876 13.1784 0.825974C13.6056 0.715842 14.2043 0.86525 14.8616 0.853318C18.2346 0.791115 17.3092 0.242572 20.6913 0.329372C20.624 0.309841 20.5568 0.290308 20.4895 0.270777C24.1657 0.301865 27.8418 0.332953 31.518 0.364042C32.9563 0.196527 36.7842 0.0945225 38.6643 0.113056C39.0429 0.116665 40.9016 0.204581 41.0418 0.219994C41.3015 0.249533 39.8734 0.260804 40.5187 0.316188C40.655 0.327557 43.8018 0.364497 43.5768 0.270777C43.2241 0.25991 42.1206 0.307021 41.94 0.284937C40.6712 0.127315 50.3724 0.253238 50.853 0.189719C50.6382 0.159281 50.4233 0.128844 50.2084 0.0984068C50.8206 0.113381 51.4328 0.128356 52.0449 0.143331ZM23.9152 7.67047C23.5478 7.76451 22.627 7.69388 22.083 7.72028C21.3313 7.75724 20.0534 8.11936 20.6036 7.75641C21.7075 7.72777 22.8114 7.69912 23.9152 7.67047ZM40.0485 7.81061C39.3083 7.7601 39.8824 7.5574 40.4892 7.64166C40.5565 7.65124 41.05 7.8786 40.0485 7.81061ZM32.2883 7.71442C32.3195 7.71173 32.9591 7.7171 32.9815 7.72028C33.5551 7.80167 31.6266 7.78503 32.2883 7.71442ZM69.7759 7.61041C68.9603 7.61916 69.551 7.80344 70.0581 7.7276C70.09 7.72279 69.8296 7.60998 69.7759 7.61041ZM69.1958 7.60553C68.5624 7.44051 67.2866 7.77495 68.3008 7.74127C68.3992 7.73787 69.2251 7.61356 69.1958 7.60553ZM37.41 7.73004C37.4933 7.6668 38.2569 7.69734 38.5829 7.71247C38.574 7.77021 37.7298 7.72298 37.41 7.73004ZM56.7693 7.71247C56.8017 7.66274 54.1478 7.66549 53.967 7.73102C54.3859 7.70322 56.7388 7.75715 56.7693 7.71247ZM63.5754 7.64264C63.5081 7.63404 62.5913 7.64711 62.618 7.69098C63.0656 7.74853 63.8783 7.68154 63.5754 7.64264ZM77.1029 7.64557C77.1527 7.63455 76.4661 7.35537 78.093 7.53912C78.3319 7.56603 77.4788 7.63897 77.5636 7.64899C77.7414 7.66852 77.8819 7.67763 77.9947 7.67926C77.237 7.7024 76.4499 7.71329 76.3738 7.69635C76.0163 7.61637 77.0809 7.65017 77.1029 7.64557ZM84.2048 7.43755C84.3609 7.39202 85.3579 7.41636 85.5848 7.43511C85.6238 7.43864 85.454 7.55832 85.9029 7.54937C86.2633 7.54198 85.7249 7.4194 86.427 7.43902C87.1365 7.45871 86.1886 7.54607 86.2505 7.5523C86.3336 7.56048 87.4311 7.50543 87.397 7.57672C87.3716 7.62952 86.1958 7.59382 85.905 7.60504C85.5327 7.61946 85.9841 7.70744 85.3619 7.68854C84.9709 7.67674 85.1876 7.52203 85.1051 7.51422C85.0359 7.50792 83.6692 7.59695 84.2069 7.43804C84.2062 7.43788 84.2055 7.43772 84.2048 7.43755ZM78.1997 7.67242C78.1427 7.67765 78.0757 7.68043 77.9947 7.67926C78.0635 7.67716 78.132 7.67472 78.1997 7.67242ZM26.0539 7.6026C26.4387 7.65031 25.2966 7.71149 24.8641 7.64899C24.8566 7.59858 25.9927 7.59517 26.0539 7.6026ZM78.9024 7.54644C80.028 7.5852 79.2001 7.6385 78.1997 7.67242C78.5174 7.64331 78.5245 7.5335 78.9024 7.54644ZM46.9454 7.6109C46.9929 7.62244 47.023 7.64043 47.0268 7.66998C46.902 7.63766 46.8909 7.6203 46.9454 7.6109ZM49.5713 7.66364C50.4714 7.57361 48.6425 7.57724 48.6541 7.64166C48.6595 7.66598 49.5352 7.66722 49.5713 7.66364ZM70.822 7.6192C70.7397 7.61039 72.0189 7.33853 70.1616 7.54254C71.1529 7.57458 70.1071 7.60418 70.1225 7.62799C70.1629 7.69642 71.8281 7.63064 72.1968 7.66022C72.4855 7.53779 71.0939 7.64823 70.8242 7.6192C70.8234 7.6192 70.8228 7.6192 70.822 7.6192ZM97.0043 7.50347C96.7787 7.57521 96.0629 7.55213 95.5799 7.54791C95.8055 7.47617 96.5213 7.49925 97.0043 7.50347ZM223.396 7.51373C220.087 7.58006 219.658 7.2879 222.686 7.40337C222.745 7.4058 223.597 7.48411 223.396 7.51373ZM194.993 7.43804C194.681 7.31071 195.713 7.29023 196.391 7.34282C196.544 7.35465 197.111 7.48362 196.464 7.50884C196.484 7.3545 195.483 7.29555 194.993 7.43804ZM79.5385 7.4649C79.8663 7.37998 80.8752 7.44043 81.4067 7.45318C81.0824 7.5231 80.0086 7.49148 79.5385 7.4649ZM212.521 7.36138C212.172 7.35174 211.937 7.46252 211.997 7.47173C212.266 7.51401 212.918 7.42444 212.521 7.36138ZM76.2819 7.45171C76.2357 7.40097 77.572 7.35212 77.6651 7.47759C77.3794 7.46851 76.315 7.48356 76.2819 7.45171ZM96.0935 7.46539C95.886 7.43958 96.9604 7.39339 97.2854 7.419C97.2592 7.47301 96.2295 7.48216 96.0935 7.46539ZM206.905 7.39898C206.592 7.38935 205.812 7.38642 205.725 7.4312C205.618 7.48718 206.762 7.4681 206.905 7.39898ZM265.028 7.30229C265.068 7.32241 263.859 7.46741 263.322 7.43072C262.301 7.36051 264.985 7.28808 265.028 7.30229ZM215.823 7.30425C216.808 7.40961 215.714 7.30757 215.758 7.41851C216.42 7.4225 218.069 7.42798 216.936 7.3189C216.715 7.29779 216.132 7.31143 215.823 7.30425ZM214.914 7.26714C214.809 7.30307 214.099 7.41637 214.712 7.40825C214.996 7.40433 215.454 7.27844 214.914 7.26714ZM257.539 7.35161C256.656 7.2534 260.704 7.30609 260.82 7.32329C260.882 7.33238 260.922 7.34094 260.945 7.34819C261.094 7.31707 261.858 7.31146 261.947 7.39019C261.718 7.38369 261.092 7.39061 261.019 7.38189C260.988 7.37817 260.964 7.37469 260.948 7.37114C260.678 7.43949 257.709 7.37023 257.539 7.35161ZM250.833 7.25053C251.843 7.10565 252.022 7.35198 251.935 7.35991C250.835 7.46073 251.552 7.27906 251.519 7.27055C251.442 7.2564 250.66 7.34069 250.836 7.25053C250.835 7.25053 250.834 7.25053 250.833 7.25053ZM256.165 7.31108C256.206 7.30787 257.054 7.3155 257.089 7.31938C257.785 7.40217 255.384 7.38097 256.165 7.31108ZM89.5579 7.26518C90.1652 7.28967 89.5695 7.3803 89.1659 7.34771C89.1327 7.34449 89.0222 7.24355 89.5579 7.26518ZM214.429 7.29155C214.289 7.27443 210.687 7.20985 210.903 7.34673C211.209 7.33057 215.303 7.40103 214.429 7.29155ZM187.513 7.25835C188.148 7.25941 187.455 7.3885 187.116 7.34038C186.991 7.3225 187.353 7.25816 187.513 7.25835ZM74.4802 7.33452C73.8208 7.40544 73.9571 7.16751 74.5289 7.24907C74.5513 7.25226 74.5061 7.33175 74.4802 7.33452ZM192.587 7.33257C190.396 7.4108 190.915 7.00152 193.763 7.13969C193.674 7.15792 193.585 7.17615 193.496 7.19438C196.783 7.25577 193.72 7.22323 192.915 7.24614C192.61 7.25485 192.866 7.32317 192.589 7.33306C192.588 7.33289 192.588 7.33273 192.587 7.33257ZM184.173 7.25053C182.063 6.96004 186.09 7.14921 187.245 7.11137C186.126 7.23133 184.668 7.21317 186.65 7.33599C183.751 7.35974 184.958 7.24404 184.842 7.23442C184.705 7.22363 184.262 7.26301 184.173 7.25053ZM189.737 7.24858C189.859 7.24011 190.778 7.29924 191.109 7.2896C190.646 7.38883 188.927 7.30621 189.737 7.24858ZM243.802 7.31792C243.878 7.24017 244.067 7.1829 244.792 7.21196C244.568 7.25103 244.105 7.28463 243.802 7.31792ZM23.2178 7.26128C22.7185 7.2557 21.7241 7.2264 22.0291 7.30815C22.0624 7.31512 23.2163 7.30716 23.2178 7.26128ZM203.968 7.22856C203.862 7.219 201.115 7.21258 202.064 7.29839C202.35 7.32426 204.849 7.31327 203.968 7.22856ZM218.191 7.23833C217.961 7.23751 217.027 7.25216 217.008 7.27055C216.944 7.33413 218.091 7.29918 218.191 7.23833ZM20.6987 7.18168C20.633 7.17362 19.1077 7.18791 19.2754 7.22563C19.5936 7.29697 20.9241 7.20947 20.6987 7.18168ZM91.7674 7.08305C91.8949 7.08017 92.0636 7.16463 92.1077 7.16557C92.2113 7.16678 94.5453 7.13429 93.6536 7.24272C93.5048 7.26089 90.1469 7.21925 89.7101 7.20854C89.5412 7.0926 90.9756 7.20289 91.3247 7.19096C91.3862 7.1887 91.4256 7.0917 91.7664 7.08354C91.7667 7.08337 91.7671 7.08321 91.7674 7.08305ZM247.579 7.23588C247.682 7.16217 250.426 7.11336 250.394 7.20268C249.456 7.21375 248.518 7.22482 247.579 7.23588ZM246.186 7.22368C245.6 7.17153 246.971 7.15428 247.375 7.17729C247.38 7.22688 246.271 7.2313 246.186 7.22368ZM212.987 6.96292C212.711 6.98095 213.559 7.08851 213.369 7.10941C213.248 7.12244 212.632 7.08212 212.435 7.11576C212.38 7.12645 213.008 7.22756 213.19 7.22319C213.448 7.21736 213.198 7.13779 213.479 7.13725C214.415 7.13554 215.244 7.19228 216.121 7.19096C216.2 7.19069 215.586 7.1345 216.262 7.13529C216.366 7.13531 216.993 7.219 217.801 7.20659C219.586 6.94741 220.896 7.20189 223.161 7.10844C223.075 7.08403 221.382 7.01857 221.282 7.01615C219.389 6.97353 215.998 6.96885 214.015 6.9683C213.506 6.96807 213.753 7.02293 213.534 7.02494C213.361 7.02642 213.567 6.92485 212.987 6.96292ZM23.483 7.20512C23.245 7.10367 22.4102 7.16788 21.8769 7.16264C22.0646 7.25415 22.962 7.18264 23.483 7.20512ZM233.867 7.14506C233.6 7.14898 232.771 7.11842 232.702 7.14897C232.614 7.18886 233.81 7.21402 233.867 7.14506ZM104.927 7.11186C104.953 7.10909 105.596 7.11452 105.62 7.11772C106.195 7.19914 104.266 7.18246 104.927 7.11186ZM120.309 7.13139C120.797 7.11886 121.289 7.08716 121.453 7.16948C121.142 7.15687 120.252 7.18872 120.309 7.13139ZM141.53 7.12895C141.43 7.02115 142.897 7.09096 143.175 7.10063C143.072 7.14853 141.604 7.20662 141.53 7.12895ZM243.696 6.97953C244.593 6.9859 244.404 6.82262 244.973 6.89652C245.067 6.90901 245.367 7.24902 244.381 7.12162C244.203 7.09872 244.898 7.01792 243.696 6.97953ZM194.227 7.14311C194.455 7.07179 195.168 7.09296 195.65 7.09867C195.542 7.15166 194.57 7.13802 194.227 7.14311ZM17.944 7.10014C17.5231 6.99946 15.5788 7.07414 16.0599 7.14067C16.1283 7.14934 17.6712 7.09633 17.944 7.10014ZM81.8199 7.13969C82.6199 7.06041 80.9629 7.03586 80.4399 7.11332C80.6767 7.10824 81.766 7.14491 81.8199 7.13969ZM136.433 7.07035C136.471 7.0671 137.32 7.07475 137.358 7.07865C138.053 7.16144 135.653 7.14024 136.433 7.07035ZM115.251 7.00052C115.557 6.93528 117.566 6.98793 118.016 7.05326C117.583 7.14866 114.872 7.08201 115.251 7.00052ZM240.004 7.02592C240.644 7.02254 241.251 7.04263 241.839 7.07084C241.716 7.12577 240.072 7.06695 240.004 7.02592ZM139.547 7.06351C139.593 7.06396 139.637 7.07017 139.68 7.07084C139.635 7.06851 139.59 7.06585 139.547 7.06351ZM225.677 6.98734C225.14 6.96564 225.251 7.06629 225.285 7.06937C225.688 7.10197 226.284 7.01183 225.677 6.98734ZM22.8702 7.0557C22.6842 6.96487 21.782 7.03532 21.263 7.01371C21.4135 7.08544 22.4521 7.06523 22.8702 7.0557ZM181.913 7.06449C181.239 6.96601 183.981 6.85161 184.559 6.91507C184.602 6.97592 182.012 7.07797 181.913 7.06449ZM79.3357 7.00345C79.2819 6.93228 78.1306 7.01817 78.3751 7.0518C78.5301 7.07319 79.3679 7.04767 79.3357 7.00345ZM185.938 6.95658C186.196 6.93486 186.796 7.00509 186.585 7.04789C186.313 7.10275 185.872 6.9628 185.938 6.95658ZM209.053 6.89945C208.94 6.88857 207.425 6.96162 208.051 7.03422C208.485 7.08467 208.555 6.98179 208.657 6.98148C208.771 6.98181 211.203 7.10771 209.053 6.89945ZM166.556 7.00248C167.127 6.97511 167.818 7.00688 168.416 7.00492C168.173 7.04893 166.799 7.06094 166.556 7.00248ZM83.7758 6.98441C83.637 6.95563 79.8556 6.93829 82.0038 7.02689C82.129 7.0319 84.1974 7.07158 83.7758 6.98441ZM243.696 6.97953C243.583 6.97872 243.452 6.97533 243.301 6.9683C243.451 6.97106 243.582 6.97589 243.696 6.97953ZM233.505 6.96878C233.712 6.91697 232.671 6.90312 232.364 6.9307C232.27 6.994 233.477 6.97603 233.505 6.96878ZM168.462 6.93265C168.807 6.903 169.432 6.93464 169.859 6.93119C169.787 6.97935 168.611 6.98158 168.462 6.93265ZM144.259 6.87845C144.943 6.90707 145.785 6.89391 145.798 6.83499C145.813 6.8442 145.846 6.85397 145.901 6.8638C145.956 6.87353 146.69 6.84613 147.008 6.86624C148.915 6.98569 139.644 6.9364 145.017 6.77005C144.765 6.80618 144.512 6.84231 144.259 6.87845ZM112.532 6.86185C112.144 6.79013 111.056 6.88 111.338 6.90824C111.535 6.92758 112.921 6.93405 112.532 6.86185ZM127.48 6.81936C127.364 6.80656 126.301 6.85679 126.274 6.89456C126.885 6.93436 128.009 6.87883 127.48 6.81936ZM109.546 6.77786C109.302 6.76704 108.991 6.88268 109.02 6.88773C109.267 6.92994 109.955 6.84225 109.546 6.77786ZM241.837 6.66799C241.475 6.63488 240.318 6.71858 240.066 6.79495C240.019 6.78018 239.893 6.76093 239.662 6.73782C239.662 6.73782 239.663 6.73782 239.664 6.73782C239.351 6.70697 230.005 6.67327 236.274 6.82034C236.47 6.82505 236.202 6.7565 237.001 6.76858C237.054 6.76946 237.08 6.82543 237.243 6.82815C237.618 6.83407 239.616 6.86929 240.018 6.82425C240.021 6.83462 240.047 6.84449 240.102 6.85355C240.595 6.93426 242.119 6.69353 241.837 6.66799ZM129.586 6.80911C129.372 6.78837 128.695 6.80807 128.625 6.85745C128.961 6.88166 130.082 6.85749 129.586 6.80911ZM83.6585 6.78177C83.223 6.74114 82.1193 6.81709 82.4529 6.85745C82.6574 6.88228 84.1608 6.8284 83.6585 6.78177ZM122.808 6.83548C125.306 6.89386 123.404 6.83076 123.787 6.75833C123.461 6.78404 123.134 6.80976 122.808 6.83548ZM253.395 6.85501C252.997 6.83834 253.465 6.69543 253.903 6.77298C254.041 6.7976 253.618 6.86407 253.395 6.85501ZM271.377 6.81058C271.037 6.68385 272.697 6.75831 272.05 6.84524C272.02 6.84817 271.401 6.8154 271.377 6.81058ZM258.812 6.75882C258.541 6.8451 258.365 6.85534 257.604 6.83401C258.731 6.8097 257.686 6.73339 258.812 6.75882ZM145.791 6.82571C145.795 6.8292 145.799 6.83178 145.798 6.83499C145.793 6.83182 145.791 6.82881 145.791 6.82571ZM107.198 6.80032C106.886 6.72723 106.009 6.73261 106.27 6.80618C106.295 6.81299 107.07 6.85433 107.198 6.80032ZM240.066 6.79495C240.108 6.80804 240.087 6.81651 240.018 6.82425C240.014 6.81448 240.032 6.80526 240.066 6.79495ZM111.902 6.74075C111.871 6.79528 113.205 6.81649 113.258 6.81009C114.023 6.71551 112.453 6.73747 111.902 6.74075ZM74.8416 6.7051C74.7728 6.71079 75.2164 6.85157 75.4883 6.79641C75.6988 6.75362 75.0992 6.68344 74.8416 6.7051ZM261.397 6.72366C261.82 6.72375 262.414 6.72369 262.524 6.79056C262.241 6.78029 261.389 6.77272 261.397 6.72366ZM270.727 6.71878C270.228 6.79739 269.088 6.79716 268.36 6.78421C268.346 6.68073 270.258 6.74311 270.727 6.71878ZM242.983 6.70657C242.948 6.70236 241.889 6.67149 242.034 6.74075C242.245 6.84232 243.281 6.74423 242.983 6.70657ZM76.8979 6.77981C77.3714 6.73211 76.2817 6.58552 75.7821 6.69875C75.5255 6.75674 76.8181 6.7878 76.8979 6.77981ZM104.462 6.70461C103.837 6.7447 105.386 6.8161 105.602 6.74368C105.315 6.73787 104.684 6.69042 104.462 6.70461ZM125.724 6.63137C123.755 6.42249 124.827 6.80355 125.176 6.77005C125.226 6.76526 125.772 6.63628 125.724 6.63137ZM13.0579 6.68264C12.7791 6.71167 13.8184 6.8168 13.9529 6.74758C14.036 6.70427 13.2362 6.66414 13.0579 6.68264ZM155.375 6.76712C155.292 6.76779 155.209 6.76847 155.128 6.76907C155.189 6.76566 155.269 6.76455 155.375 6.76712ZM98.7901 6.42482C100.176 6.71974 100.031 6.49243 100.151 6.49367C100.411 6.49684 101.016 6.57659 101.507 6.5635C100.945 6.5967 100.383 6.6299 99.8214 6.66311C100.265 6.6844 104.12 6.79296 104.201 6.74514C104.317 6.67704 103.104 6.69841 103.069 6.69241C103.018 6.68386 102.828 6.49452 102.716 6.48732C102.53 6.47581 99.3067 6.47189 98.7901 6.42482ZM121.606 6.66409C121.922 6.68659 122.012 6.76161 122.159 6.74368C122.21 6.73754 122.218 6.66599 122.389 6.64748C122.128 6.65302 121.867 6.65855 121.606 6.66409ZM96.308 6.68997C95.9156 6.60253 97.6749 6.63573 97.7313 6.64553C98.0322 6.7048 96.6286 6.76139 96.308 6.68997ZM111.237 6.67727C111.172 6.67217 109.821 6.64487 109.832 6.69338C110.19 6.73037 111.996 6.74114 111.237 6.67727ZM122.6 6.6426C123.075 6.65095 123.972 6.723 123.869 6.61526C123.868 6.61526 123.868 6.61526 123.867 6.61526C123.445 6.62437 123.022 6.63349 122.6 6.6426ZM78.5189 6.55226C77.6392 6.38067 78.0559 6.59749 78.8348 6.65285C79.0707 6.57582 78.6631 6.58019 78.5189 6.55226ZM75.7039 6.42433C75.4592 6.39345 72.9373 6.42729 73.3221 6.51808C73.4589 6.55044 74.9091 6.46884 74.9758 6.47511C75.0771 6.48442 74.6145 6.58486 75.3879 6.56496C75.3427 6.53093 75.7877 6.43464 75.7039 6.42433ZM77.7908 6.4424C76.9167 6.3119 76.7203 6.55259 77.3776 6.55324C77.6345 6.55367 77.9155 6.46123 77.7908 6.4424ZM81.3613 6.46291C81.0468 6.44008 80.209 6.40678 79.6315 6.48683C80.4043 6.49367 81.1771 6.50051 81.9499 6.50734C82.039 6.46199 81.6365 6.48297 81.3592 6.46291C81.3599 6.46291 81.3606 6.46291 81.3613 6.46291ZM275.979 6.10205C275.285 6.0338 276.885 6.00764 276.953 6.02441C277.154 6.08008 276.29 6.13254 275.979 6.10205ZM7.63294 4.49603C7.43996 4.46883 7.3138 4.37931 6.88904 4.42621C7.31629 4.49229 7.74354 4.55837 8.17079 4.62446C8.50281 4.47304 7.84387 4.52605 7.63294 4.49603ZM6.00143 3.94279C6.06179 3.93912 5.73211 3.70629 6.51181 3.86173C7.03862 3.96669 4.1738 4.06898 3.65668 3.96574C4.22807 3.91777 5.48191 3.97268 6.00143 3.94279ZM0.98329 2.93494C0.950257 2.91637 2.03867 2.88914 2.16465 2.90222C2.82616 2.97122 1.162 3.03442 0.98329 2.93494ZM4.45552 2.97938C3.94508 2.93416 5.07587 2.90501 5.41287 2.93103C5.44555 2.97437 4.53438 2.98596 4.45552 2.97938ZM268.946 2.72985C268.394 2.57161 267.9 2.91226 268.75 2.84363C268.79 2.8404 268.97 2.7376 268.946 2.72985ZM2.04736 2.70007C2.5578 2.74528 1.42701 2.77443 1.09001 2.74841C1.05867 2.70512 1.96964 2.69346 2.04736 2.70007ZM268.557 2.35289C267.824 2.23902 268.082 2.62119 268.174 2.63659C268.551 2.69741 269.846 2.54741 270.111 2.51012C268.173 2.56747 268.903 2.40655 268.557 2.35289ZM265.174 2.58239C264.493 2.62316 266.233 2.70114 266.565 2.59459C266.226 2.59969 265.367 2.5706 265.174 2.58239ZM261.043 2.45982C260.678 2.44614 259.589 2.41336 259.407 2.4735C259.806 2.46261 260.889 2.5217 261.043 2.45982ZM260.215 2.27964C259.643 2.19793 259.506 2.436 260.165 2.36509C260.191 2.36235 260.236 2.28419 260.215 2.27964ZM257 2.1937C256.624 2.09903 256.196 2.32958 256.804 2.3358C256.985 2.33722 257.039 2.20455 257 2.1937ZM267.639 1.94174C267.102 1.90108 266.41 2.06619 267.557 2.08432C267.154 2.10955 266.751 2.13478 266.348 2.16001C267.851 2.25255 267.74 2.02358 268.172 2.03305C268.775 2.0465 268.727 2.23545 268.606 2.29478C269.1 2.17902 271.201 2.17717 272.414 2.15513C271.348 2.10654 269.616 2.02232 268.564 1.99155C268.263 1.98263 267.971 2.03445 267.715 2.02866C267.304 2.01909 267.669 1.94448 267.641 1.94174C267.641 1.94174 267.64 1.94174 267.639 1.94174ZM252.773 2.19028C251.67 2.08304 252.367 2.31459 252.99 2.27329C253.017 2.27012 252.8 2.1929 252.773 2.19028ZM0.584924 1.99643C2.0584 2.09321 0.987367 2.22149 4.06983 2.0267C2.77482 2.1646 3.99822 2.12587 3.74544 2.18149C3.54265 2.2255 2.78282 2.18905 3.2245 2.27769C2.64395 2.18122 0.123516 2.2079 0.0111503 2.19224C0.012207 2.19224 0.0132637 2.19224 0.0143204 2.19224C-0.0531675 2.18296 0.11474 1.96565 0.584924 1.99643ZM261.038 1.85433C260.67 1.57338 260.526 2.01931 259.803 1.78646C258.84 2.1246 262.462 1.78651 262.901 2.07211C258.967 2.03893 265.5 2.35511 262.754 1.92758C265.016 2.08275 263.495 1.87463 263.845 1.82015C264.218 1.76212 265.498 1.82519 265.433 1.72054C265.432 1.72054 265.431 1.72054 265.431 1.72054C264.648 1.72786 263.865 1.73519 263.083 1.74251C263.849 1.96826 262.249 1.90057 261.707 1.71663C261.484 1.76253 261.261 1.80843 261.038 1.85433ZM265.468 2.06625C265.391 2.06109 263.688 2.09273 263.798 2.13803C264.026 2.16693 266.441 2.13228 265.468 2.06625ZM272.96 2.01694C272.348 2.01639 271.403 1.97235 271.07 2.05747C271.682 2.05804 272.627 2.1021 272.96 2.01694ZM241.486 2.00082C240.707 2.07067 243.106 2.09136 242.412 2.00864C242.378 2.00474 241.525 1.99756 241.486 2.00082ZM259.266 1.89681C258.474 1.81095 258.848 2.08425 259.435 2.01303C259.469 2.00883 259.303 1.90073 259.266 1.89681ZM1.77897 1.96322C1.83195 1.89627 3.96984 1.9433 4.3488 1.94272C4.13349 2.00495 1.71818 2.03998 1.77897 1.96322ZM274.035 1.76644C272.819 1.52567 271.169 1.80377 270.988 1.79769C270.808 1.7915 271.09 1.68625 271.049 1.68343C270.956 1.67752 269.039 1.68636 268.946 1.69368C268.88 1.69939 269.227 1.84729 268.831 1.89389C269.603 1.80984 273.106 1.86242 273.288 1.84603C273.429 1.83294 272.367 1.67763 274.033 1.76644C274.034 1.76644 274.035 1.76644 274.035 1.76644ZM270.536 1.76546C271.014 1.82746 269.672 1.83522 269.347 1.81234C268.625 1.76114 270.474 1.75812 270.536 1.76546ZM267.306 1.70833C267.153 1.69443 265.769 1.68179 265.652 1.75081C266.307 1.84035 267.654 1.74073 267.306 1.70833ZM251.908 1.71761C251.549 1.72645 250.561 1.67341 250.504 1.73372C250.864 1.72493 251.852 1.77792 251.908 1.71761ZM9.07319 1.43684C8.47613 1.38637 9.85945 1.36576 10.263 1.38996C10.2849 1.43019 9.12402 1.44117 9.07319 1.43684ZM259.132 1.32013C258.919 1.30179 254.578 1.34756 253.969 1.3758C254.565 1.42141 258.867 1.42492 259.062 1.40266C259.119 1.39599 259.159 1.32302 259.132 1.32013ZM268.52 1.2923C268.918 1.20349 269.178 1.31001 269.228 1.31134C269.721 1.32493 270.741 1.30491 270.518 1.39045C269.649 1.35594 267.728 1.46867 268.52 1.2923ZM251.6 1.31574C250.126 1.3487 252.957 1.44226 252.586 1.34943C252.562 1.34382 251.752 1.31228 251.6 1.31574ZM259.617 1.29425C259.942 1.22249 264.285 1.28438 264.982 1.28449C264.357 1.41685 263.854 1.31631 263.015 1.32306C262.789 1.32504 262.849 1.38011 262.825 1.38019C262.433 1.38274 262.726 1.31914 262.485 1.31818C262.332 1.31774 259.159 1.39536 259.617 1.29425ZM268.748 1.23077C268.99 1.17986 271.702 1.15816 271.811 1.17169C272.627 1.27232 268.958 1.2485 268.748 1.23077ZM259.219 1.17657C259.685 1.02274 261.842 1.12576 260.366 1.20245C260.225 1.20943 259.628 1.14274 259.219 1.17657ZM251.757 1.16925C251.685 1.16472 250.148 1.13397 250.121 1.18292C250.343 1.20194 252.583 1.21901 251.757 1.16925ZM252.554 1.00371C252.517 1.00489 252.877 1.09916 252.157 1.08721C252.097 1.08609 251.985 0.980025 251.079 1.01885C250.895 1.02685 250.61 1.09701 250.631 1.10137C251.574 1.26783 254.415 0.949029 252.554 1.00371ZM268.797 1.14483C268.651 1.10006 269.004 0.967185 269.321 1.03448C269.458 1.06353 269.203 1.14328 268.797 1.14483ZM246.884 1.12628C247.777 1.04569 244.973 1.03045 244.83 1.05108C244.92 1.10128 246.795 1.13415 246.884 1.12628ZM10.4712 0.814743C10.4705 0.814743 10.4698 0.814743 10.4691 0.814743C11.2206 0.833003 10.7551 0.900043 10.7903 0.902148C12.3911 1.00062 11.9665 0.848776 12.2168 0.830856C12.7536 0.792102 12.6671 0.976751 13.5725 0.900195C12.0758 1.01325 13.4382 0.965855 13.4806 1.03155C13.6483 1.29963 11.4879 0.906018 10.7417 0.962209C10.6377 0.96999 11.4054 1.05555 11.139 1.07989C10.2729 1.15876 7.58742 0.744913 10.4712 0.814743ZM269.567 1.02276C269.915 0.944013 272.56 1.02039 271.858 1.08526C271.746 1.09566 269.054 1.13754 269.567 1.02276ZM146.031 0.906543C146.666 0.838396 145.193 0.758284 144.92 0.811325C144.785 0.837749 145.752 0.93645 146.031 0.906543ZM135.703 0.615028C134.948 0.628862 134.151 0.913045 135.091 0.868944C135.191 0.864123 135.789 0.654448 135.703 0.615028ZM185.295 0.76103C184.506 0.659472 184.553 0.848167 185.132 0.845505C185.336 0.844595 185.32 0.764244 185.295 0.76103ZM155.196 0.785445C155.117 0.778858 154.206 0.790906 154.239 0.834275C154.576 0.860294 155.707 0.83066 155.196 0.785445ZM185.545 0.734173C185.077 0.768181 185.882 0.904661 186.454 0.771284C186.164 0.782224 185.593 0.730699 185.545 0.734173ZM257.589 0.759565C257.198 0.837048 256.09 0.813635 255.454 0.82695C255.385 0.726566 257.134 0.777764 257.589 0.759565ZM138.909 0.72929C138.194 0.800039 139.726 0.857962 139.585 0.764448C139.566 0.759367 138.937 0.726273 138.909 0.72929ZM210.737 0.723919C210.218 0.783799 211.868 0.864327 211.414 0.759077C211.391 0.754785 210.766 0.720588 210.737 0.723919ZM217.943 0.758588C217.549 0.73839 215.867 0.744604 216.522 0.803023C216.623 0.812001 217.913 0.813435 217.943 0.758588ZM12.2612 0.758588C12.0487 0.655469 13.2819 0.680016 13.4584 0.698039C13.5277 0.705535 12.5383 0.892752 12.2612 0.758588ZM180.173 0.744915C179.765 0.757817 178.707 0.7333 178.52 0.787398C179.02 0.7762 180.307 0.852679 180.173 0.744915ZM142.169 0.728802C141.546 0.616749 140.482 0.627808 140.745 0.774214C141.92 0.764403 140.6 0.64262 142.169 0.728802ZM188.173 0.613563C187.846 0.605015 187.595 0.745617 187.632 0.75224C187.987 0.815261 188.498 0.668267 188.173 0.613563ZM163.619 0.72929C163.6 0.669205 162.551 0.696476 162.691 0.73515C162.737 0.748133 163.634 0.777916 163.619 0.72929ZM243.852 0.725384C243.372 0.67054 244.84 0.616923 245.274 0.680948C245.485 0.773205 243.913 0.731683 243.852 0.725384ZM197.247 0.648721C197.296 0.559551 195.656 0.609966 196.302 0.683878C196.464 0.702372 197.23 0.678536 197.247 0.648721ZM212.941 0.541783C211.842 0.648119 216.46 0.72361 215.246 0.591101C215.159 0.58166 213.037 0.532803 212.941 0.541783ZM220.483 0.608192C220.293 0.596475 220.388 0.296841 221.173 0.412384C221.276 0.427368 220.794 0.506576 220.878 0.524693C220.928 0.535017 222.635 0.577099 222.714 0.570104C222.798 0.562161 222.699 0.466126 222.784 0.455354C222.881 0.443315 223.932 0.527677 224.482 0.528599C225.52 0.530181 225.632 0.450247 225.717 0.449983C225.965 0.449453 226.381 0.506207 226.883 0.506137C229.415 0.505499 233.287 0.437744 235.294 0.607215C233.508 0.53916 231.806 0.611366 230.029 0.633584C230.549 0.466733 227.414 0.762142 229.248 0.569616C228.404 0.611377 221.105 0.644774 220.485 0.608192C220.484 0.608192 220.484 0.608192 220.483 0.608192ZM132.722 0.53104C133.186 0.428735 130.805 0.451748 130.603 0.570104C130.918 0.58653 132.664 0.542636 132.722 0.53104ZM143.705 0.281519C143.926 0.26386 144.136 0.0638867 145.295 0.165304C145.296 0.165304 145.297 0.165304 145.299 0.165304C145.637 0.194922 145.251 0.243648 145.313 0.261011C145.336 0.2681 146.393 0.367576 145.515 0.383574C144.176 0.408118 145.389 0.234807 144.675 0.232689C144.588 0.232525 143.237 0.34077 143.315 0.36453C143.323 0.367298 143.73 0.344399 143.797 0.354276C144.051 0.3914 143.927 0.453847 143.963 0.456819C144.08 0.464434 146.217 0.358047 146.527 0.450959C146.628 0.48092 143.121 0.550035 142.984 0.534459C142.898 0.524642 142.934 0.351304 142.845 0.334256C142.799 0.325764 141.388 0.390719 141.205 0.374784C141.152 0.370175 141.111 0.365207 141.081 0.361112C141.295 0.414741 140.017 0.410879 140.056 0.350369C140.079 0.326587 140.958 0.340353 140.989 0.34451C141.003 0.34627 141.015 0.348696 141.026 0.350369C140.844 0.285013 143.822 0.287961 143.179 0.190695C144.042 0.137412 143.056 0.333381 143.705 0.281519ZM147.854 0.174582C147.764 0.192811 147.675 0.211041 147.586 0.229271C149.097 0.184651 150.841 0.272407 152.581 0.271753C153.023 0.27172 152.515 0.160229 153.094 0.190695C153.557 0.215111 154.071 0.318523 153.818 0.34158C153.757 0.347333 152.813 0.279978 152.34 0.286891C150.945 0.307354 151.297 0.402965 151.216 0.405547C151.126 0.408265 150.248 0.341027 149.768 0.344021C148.563 0.35176 148.012 0.41046 146.365 0.333767C147.315 0.270754 146.795 0.133864 147.854 0.174582ZM204.171 0.378202C204.229 0.318023 205.217 0.371416 205.576 0.362577C205.52 0.422905 204.531 0.369359 204.171 0.378202ZM56.8327 0.300075C56.529 0.398829 58.8052 0.423281 58.2053 0.341092C58.0726 0.322851 57.1187 0.300777 56.8327 0.300075ZM67.0582 0.360136C67.3627 0.332832 66.1366 0.261731 66.1389 0.338162C66.1406 0.362671 67.019 0.363686 67.0582 0.360136ZM167.384 0.271753C167.442 0.268661 168.279 0.290656 168.305 0.29568C168.86 0.400538 166.104 0.339932 167.384 0.271753ZM79.4889 0.238549C78.4276 0.303278 81.622 0.331333 80.6459 0.248803C80.5973 0.244783 79.5399 0.235403 79.4889 0.238549ZM83.929 0.220482C83.6746 0.223951 82.5449 0.191812 82.53 0.221947C82.5074 0.270563 83.8006 0.303781 83.929 0.220482ZM188.394 0.240502C188.271 0.129232 189.761 0.213497 190.279 0.199485C190.402 0.310832 188.912 0.22645 188.394 0.240502ZM178.991 0.158468C185.271 0.0707526 183.887 0.308486 178.617 0.212669C178.609 0.141285 178.594 0.163992 178.991 0.158468ZM187.033 0.171652C186.805 0.242935 186.091 0.221797 185.61 0.216087C185.696 0.166527 186.685 0.184463 187.033 0.171652ZM54.1224 0.147237C54.5163 0.057189 56.2605 0.168202 55.9504 0.205344C55.8782 0.213366 53.9777 0.196757 54.1224 0.147237ZM167.91 0.176535C167.764 0.0683212 169.65 0.112462 169.794 0.136494C170.376 0.233159 168.063 0.15265 167.91 0.176535ZM197.308 0.145284C197.641 0.0605216 198.587 0.104118 199.195 0.105243C198.918 0.177721 197.824 0.146809 197.308 0.145284ZM192.916 0.0788746C192.955 0.0756211 193.803 0.0832739 193.841 0.0871759C194.536 0.169965 192.136 0.148763 192.916 0.0788746ZM9.42929 0.000746728C9.45756 -0.0019846 10.1001 0.00341988 10.1225 0.00660658C10.696 0.087986 8.76755 0.0713573 9.42929 0.000746728Z" fill="var(--stroke-0, #FECD29)"/>
</svg>
