<svg width="16" height="16" viewBox="0 0 16 16" fill="none" xmlns="http://www.w3.org/2000/svg">
<path d="M8 0C12.4183 0 16 3.58172 16 8C16 12.4183 12.4183 16 8 16C3.58172 16 0 12.4183 0 8C0 3.58172 3.58172 0 8 0ZM11.9521 4.93164C11.8153 4.57797 11.4277 4.40644 11.0859 4.54785L11.083 4.54883L11.0703 4.55371C11.0599 4.55792 11.0445 4.56438 11.0244 4.57227C11.0215 4.5734 11.0177 4.57399 11.0146 4.5752C10.9653 4.59451 10.892 4.62319 10.7988 4.65723C10.612 4.72549 10.3474 4.81701 10.0391 4.9082C9.41031 5.09418 8.6475 5.26465 8 5.26465C7.35248 5.26462 6.58967 5.09418 5.96094 4.9082C5.65261 4.817 5.38797 4.72548 5.20117 4.65723C5.10799 4.62318 5.03464 4.5945 4.98535 4.5752C4.96079 4.56557 4.94165 4.55854 4.92969 4.55371L4.91699 4.54883L4.91504 4.54785C4.57332 4.40654 4.1846 4.57794 4.04785 4.93164C3.91111 5.28554 4.07808 5.68754 4.41992 5.8291L4.42188 5.83008L4.42773 5.83203L4.44629 5.83984C4.46214 5.84624 4.48487 5.85493 4.51367 5.86621C4.57142 5.88883 4.65431 5.92116 4.75781 5.95898C4.96444 6.03448 5.25519 6.13492 5.59473 6.23535C5.91005 6.32862 6.27843 6.42496 6.66699 6.50098V7.56445C6.66699 8.08014 6.55492 8.58954 6.33984 9.05469L5.06738 11.8066C4.89108 12.1413 5.01076 12.5606 5.33398 12.7432C5.65716 12.9255 6.06203 12.8023 6.23828 12.4678L7.41113 9.95898C7.65195 9.44406 8.35924 9.43904 8.60742 9.9502L9.8291 12.4678C10.0054 12.8024 10.4112 12.9257 10.7344 12.7432C11.0574 12.5606 11.1763 12.1412 11 11.8066L9.68359 9.0752C9.45319 8.5969 9.33302 8.06963 9.33301 7.53516V6.50098C9.72149 6.42498 10.09 6.3286 10.4053 6.23535C10.745 6.13486 11.0365 6.0345 11.2432 5.95898C11.3465 5.92121 11.4296 5.88881 11.4873 5.86621C11.5159 5.85499 11.5389 5.8462 11.5547 5.83984L11.5732 5.83203L11.5781 5.83008L11.5811 5.8291C11.9228 5.68746 12.0889 5.28547 11.9521 4.93164ZM8 2.42773C7.44782 2.42784 7 2.89121 7 3.46289C7.00004 4.03454 7.44784 4.49795 8 4.49805C8.55224 4.49805 8.99996 4.03461 9 3.46289C9 2.89114 8.55226 2.42773 8 2.42773Z" fill="#192743"/>
</svg>
