<svg width="20" height="20" viewBox="0 0 20 20" fill="none" xmlns="http://www.w3.org/2000/svg">
<path d="M10.717 1.30292C10.5287 1.10926 10.2701 1 10 1C9.7299 1 9.47129 1.10926 9.28301 1.30292L4.28301 6.44578C3.89802 6.84176 3.90694 7.47487 4.30292 7.85985C4.69891 8.24484 5.33201 8.23592 5.717 7.83994L9 4.46313V12.0452C9 12.3055 8.89847 12.5556 8.717 12.7422L4.28301 17.3029C3.89802 17.6989 3.90694 18.332 4.30292 18.717C4.69891 19.102 5.33201 19.0931 5.717 18.6971L10.151 14.1364C10.6954 13.5764 11 12.8262 11 12.0452V4.46313L14.283 7.83994C14.668 8.23592 15.3011 8.24484 15.6971 7.85985C16.0931 7.47487 16.102 6.84176 15.717 6.44578L10.717 1.30292Z" fill="#192743"/>
<path d="M14.293 18.7072L11.354 15.7683L11.585 15.5306C11.9861 15.1182 12.309 14.6438 12.5445 14.1304L15.7072 17.293C16.0977 17.6835 16.0977 18.3167 15.7072 18.7072C15.3166 19.0977 14.6835 19.0977 14.293 18.7072Z" fill="#192743"/>
</svg>
