<svg width="20" height="20" viewBox="0 0 20 20" fill="none" xmlns="http://www.w3.org/2000/svg">
<path d="M13.8513 10.0137C14.6781 10.0748 15.5298 10.3335 16.154 10.5605C16.5241 10.6951 16.8432 10.8289 17.0701 10.9297C17.1837 10.9802 17.2753 11.0232 17.3396 11.0537C17.3716 11.0689 17.3977 11.081 17.4158 11.0898L17.4431 11.1035L17.446 11.1045L17.447 11.1055L17.5359 11.1562C17.964 11.4275 18.1258 11.9842 17.8943 12.4473C17.6627 12.9103 17.1201 13.1153 16.6462 12.9355L16.5525 12.8945L16.5388 12.8877C16.5268 12.8819 16.5074 12.8723 16.4822 12.8604C16.4313 12.8362 16.3545 12.8009 16.2576 12.7578C16.0626 12.6712 15.7875 12.5548 15.4705 12.4395C14.8089 12.1989 14.0687 12 13.4998 12C12.497 12.0001 11.565 12.3989 10.406 12.9141C9.31516 13.3989 7.99669 14 6.49975 14C5.56892 13.9999 4.55868 13.6988 3.84545 13.4395C3.4754 13.3049 3.15624 13.1711 2.92944 13.0703C2.8158 13.0198 2.72419 12.9768 2.65991 12.9463C2.62787 12.9311 2.60175 12.9189 2.58374 12.9102L2.55444 12.8955L2.55346 12.8945C2.05975 12.6475 1.85839 12.0466 2.10522 11.5527C2.35218 11.0589 2.95312 10.8587 3.44702 11.1055L3.44799 11.1064C3.45028 11.1076 3.45503 11.1096 3.46069 11.1123C3.47259 11.1181 3.49206 11.1277 3.51733 11.1396C3.56817 11.1638 3.64494 11.1991 3.74194 11.2422C3.93685 11.3288 4.21195 11.4452 4.52905 11.5605C5.19056 11.8011 5.93077 11.9999 6.49975 12C7.50259 12 8.43454 11.601 9.5935 11.0859C10.6843 10.6011 12.0028 10.0001 13.4998 10L13.8513 10.0137Z" fill="#192743"/>
<path d="M13.8513 6.01367C14.6781 6.0748 15.5298 6.33355 16.154 6.56055C16.5241 6.69512 16.8432 6.82886 17.0701 6.92969C17.1837 6.98018 17.2753 7.02318 17.3396 7.05371C17.3716 7.06891 17.3977 7.08104 17.4158 7.08984L17.4431 7.10352L17.446 7.10449L17.447 7.10547L17.5359 7.15625C17.964 7.42755 18.1258 7.98416 17.8943 8.44727C17.6627 8.91028 17.1201 9.11528 16.6462 8.93555L16.5525 8.89453L16.5388 8.8877C16.5268 8.88186 16.5074 8.87232 16.4822 8.86035C16.4313 8.8362 16.3545 8.80091 16.2576 8.75781C16.0626 8.67117 15.7875 8.55476 15.4705 8.43945C14.8089 8.1989 14.0687 8 13.4998 8C12.497 8.00009 11.565 8.39895 10.406 8.91406C9.31516 9.3989 7.99669 10 6.49975 10C5.56892 9.99992 4.55868 9.69881 3.84545 9.43945C3.4754 9.30487 3.15624 9.17111 2.92944 9.07031C2.8158 9.0198 2.72419 8.9768 2.65991 8.94629C2.62787 8.93109 2.60175 8.91895 2.58374 8.91016L2.55444 8.89551L2.55346 8.89453C2.05975 8.64747 1.85839 8.04658 2.10522 7.55273C2.35218 7.0589 2.95312 6.85873 3.44702 7.10547L3.44799 7.10645C3.45028 7.10757 3.45503 7.10956 3.46069 7.1123C3.47259 7.11811 3.49206 7.12765 3.51733 7.13965C3.56817 7.16377 3.64494 7.19907 3.74194 7.24219C3.93685 7.32881 4.21195 7.44523 4.52905 7.56055C5.19056 7.80109 5.93077 7.99992 6.49975 8C7.50259 8 8.43454 7.60105 9.5935 7.08594C10.6843 6.60112 12.0028 6.00009 13.4998 6L13.8513 6.01367Z" fill="#192743"/>
</svg>
