<svg width="20" height="20" viewBox="0 0 20 20" fill="none" xmlns="http://www.w3.org/2000/svg">
<g clip-path="url(#clip0_2278_228)">
<path d="M8.33325 9C7.78097 9 7.33325 9.44772 7.33325 10C7.33325 10.5523 7.78097 11 8.33325 11H11.6666C12.2189 11 12.6666 10.5523 12.6666 10C12.6666 9.44772 12.2189 9 11.6666 9H8.33325Z" fill="#192743"/>
<path fill-rule="evenodd" clip-rule="evenodd" d="M-0.166748 2.5C-0.166748 1.94772 0.280967 1.5 0.833252 1.5H19.1666C19.7189 1.5 20.1666 1.94772 20.1666 2.5V6.66667C20.1666 7.21895 19.7189 7.66667 19.1666 7.66667H18.4999V17.5C18.4999 18.0523 18.0522 18.5 17.4999 18.5H2.49994C1.94765 18.5 1.49994 18.0523 1.49994 17.5V7.66667H0.833252C0.280967 7.66667 -0.166748 7.21895 -0.166748 6.66667V2.5ZM3.49994 7.66667H16.4999V16.5H3.49994V7.66667ZM1.83325 3.5V5.66667H18.1666V3.5H1.83325Z" fill="#192743"/>
</g>
<defs>
<clipPath id="clip0_2278_228">
<rect width="20" height="20" fill="white"/>
</clipPath>
</defs>
</svg>
