<svg width="20" height="20" viewBox="0 0 20 20" fill="none" xmlns="http://www.w3.org/2000/svg">
<path d="M4.33337 3.33337C4.33337 2.78109 3.88566 2.33337 3.33337 2.33337C2.78109 2.33337 2.33337 2.78109 2.33337 3.33337V9.16671C2.33337 10.316 2.78992 11.4182 3.60258 12.2308C4.41524 13.0435 5.51744 13.5 6.66671 13.5H14.2525L11.7929 15.9596C11.4024 16.3501 11.4024 16.9833 11.7929 17.3738C12.1834 17.7643 12.8166 17.7643 13.2071 17.3738L17.3684 13.2125C17.4518 13.1304 17.5209 13.0337 17.5715 12.9265C17.6325 12.7972 17.6667 12.6526 17.6667 12.5C17.6667 12.3476 17.6326 12.2031 17.5716 12.0738C17.5342 11.9944 17.4858 11.919 17.4264 11.8498C17.408 11.8282 17.3886 11.8075 17.3684 11.7876L13.2071 7.62627C12.8166 7.23574 12.1834 7.23574 11.7929 7.62627C11.4024 8.01679 11.4024 8.64996 11.7929 9.04048L14.2525 11.5H6.66671C6.04787 11.5 5.45438 11.2542 5.01679 10.8166C4.57921 10.379 4.33337 9.78555 4.33337 9.16671V3.33337Z" fill="#192743"/>
</svg>
