<svg width="20" height="20" viewBox="0 0 20 20" fill="none" xmlns="http://www.w3.org/2000/svg">
<path d="M9.63402 3.23579C9.50971 3.28456 9.39319 3.35918 9.29273 3.45964L3.4594 9.29297C3.06887 9.6835 3.06887 10.3167 3.4594 10.7072C3.84992 11.0977 4.48309 11.0977 4.87361 10.7072L8.99988 6.58092V15.8334C8.99988 16.3857 9.44759 16.8334 9.99988 16.8334C10.5522 16.8334 10.9999 16.3857 10.9999 15.8334V6.581L15.1261 10.7072C15.5166 11.0977 16.1498 11.0977 16.5403 10.7072C16.9308 10.3167 16.9308 9.6835 16.5403 9.29297L10.7123 3.46505C10.6939 3.4463 10.6747 3.42828 10.6548 3.41103C10.5774 3.34382 10.4921 3.29047 10.4023 3.251C10.2791 3.19682 10.143 3.16675 9.99988 3.16675L9.99684 3.16675C9.86881 3.16713 9.74644 3.19157 9.63402 3.23579Z" fill="#192743"/>
</svg>
