<svg width="20" height="20" viewBox="0 0 20 20" fill="none" xmlns="http://www.w3.org/2000/svg">
<path d="M16.7489 10.4023C16.8031 10.2791 16.8332 10.143 16.8332 9.99988C16.8332 9.87075 16.8087 9.74733 16.7641 9.63402C16.7154 9.50971 16.6407 9.39319 16.5403 9.29273L10.7069 3.4594C10.3164 3.06887 9.68325 3.06887 9.29273 3.4594C8.90221 3.84992 8.90221 4.48309 9.29273 4.87361L13.419 8.99988H4.1665C3.61422 8.99988 3.1665 9.44759 3.1665 9.99988C3.1665 10.5522 3.61422 10.9999 4.1665 10.9999H13.4189L9.29273 15.1261C8.90221 15.5166 8.90221 16.1498 9.29273 16.5403C9.68325 16.9308 10.3164 16.9308 10.7069 16.5403L16.5349 10.7124C16.5536 10.6939 16.5716 10.6747 16.5889 10.6548C16.6561 10.5774 16.7094 10.4921 16.7489 10.4023Z" fill="#192743"/>
</svg>
