<svg width="20" height="20" viewBox="0 0 20 20" fill="none" xmlns="http://www.w3.org/2000/svg">
<g clip-path="url(#clip0_1133_3314)">
<path fill-rule="evenodd" clip-rule="evenodd" d="M12.0536 1.20081C10.0676 0.737321 7.98309 0.959314 6.13918 1.8307C4.29528 2.70208 2.80036 4.1716 1.89752 6.00031C0.994682 7.82902 0.737014 9.90937 1.16641 11.9031C1.59582 13.8968 2.68703 15.6866 4.26263 16.9816C5.83822 18.2765 7.80553 19.0003 9.84467 19.0354C11.8838 19.0704 13.8748 18.4147 15.494 17.1747C15.9325 16.8389 16.0157 16.2112 15.68 15.7728C15.3442 15.3343 14.7165 15.251 14.278 15.5868C13.0172 16.5524 11.4669 17.063 9.87905 17.0357C8.29125 17.0084 6.75937 16.4447 5.5325 15.4364C4.30564 14.4281 3.45594 13.0344 3.12158 11.482C2.78722 9.92955 2.98786 8.30965 3.69087 6.88569C4.39388 5.46173 5.55792 4.31746 6.99372 3.63895C8.42951 2.96043 10.0526 2.78757 11.5991 3.14848C13.1456 3.50938 14.5245 4.38283 15.5117 5.62678C16.4988 6.87072 17.0361 8.41201 17.0362 10V10.0001V10.8036C17.0362 11.1778 16.8876 11.5367 16.623 11.8013C16.3584 12.0659 15.9995 12.2145 15.6254 12.2145C15.2512 12.2145 14.8923 12.0659 14.6277 11.8013C14.3631 11.5367 14.2145 11.1778 14.2145 10.8036V6.78556C14.2145 6.23328 13.7668 5.78556 13.2145 5.78556C12.78 5.78556 12.4101 6.06273 12.2722 6.44993C11.6166 6.02941 10.8368 5.78556 10 5.78556C7.67243 5.78556 5.78555 7.67245 5.78555 10C5.78555 12.3276 7.67243 14.2145 10 14.2145C11.1691 14.2145 12.227 13.7385 12.9905 12.9697C13.0605 13.0548 13.1349 13.1369 13.2135 13.2155C13.8532 13.8551 14.7207 14.2145 15.6254 14.2145C16.53 14.2145 17.3975 13.8551 18.0372 13.2155C18.6768 12.5758 19.0362 11.7083 19.0362 10.8036V10V9.99997C19.0361 7.96053 18.346 5.98111 17.0783 4.38356C15.8106 2.78602 14.0397 1.6643 12.0536 1.20081ZM7.78555 10C7.78555 8.77702 8.777 7.78556 10 7.78556C11.223 7.78556 12.2145 8.77702 12.2145 10C12.2145 11.2231 11.223 12.2145 10 12.2145C8.777 12.2145 7.78555 11.2231 7.78555 10Z" fill="#192743"/>
</g>
<defs>
<clipPath id="clip0_1133_3314">
<rect width="20" height="20" fill="white"/>
</clipPath>
</defs>
</svg>
