<svg width="20" height="20" viewBox="0 0 20 20" fill="none" xmlns="http://www.w3.org/2000/svg">
<path fill-rule="evenodd" clip-rule="evenodd" d="M15 7.33331C15.5523 7.33331 16 7.78103 16 8.33331V16.6666C16 17.2189 15.5523 17.6666 15 17.6666C14.4477 17.6666 14 17.2189 14 16.6666V8.33331C14 7.78103 14.4477 7.33331 15 7.33331Z" fill="#192743"/>
<path fill-rule="evenodd" clip-rule="evenodd" d="M10 2.33331C10.5523 2.33331 11 2.78103 11 3.33331V16.6666C11 17.2189 10.5523 17.6666 10 17.6666C9.44772 17.6666 9 17.2189 9 16.6666V3.33331C9 2.78103 9.44772 2.33331 10 2.33331Z" fill="#192743"/>
<path fill-rule="evenodd" clip-rule="evenodd" d="M5 10.6666C5.55228 10.6666 6 11.1144 6 11.6666V16.6666C6 17.2189 5.55228 17.6666 5 17.6666C4.44772 17.6666 4 17.2189 4 16.6666V11.6666C4 11.1144 4.44772 10.6666 5 10.6666Z" fill="#192743"/>
</svg>
