<svg width="19" height="20" viewBox="0 0 19 20" fill="none" xmlns="http://www.w3.org/2000/svg">
<path fill-rule="evenodd" clip-rule="evenodd" d="M4 2C3.44772 2 3 2.44772 3 3V16.3334C3 16.8856 3.44772 17.3334 4 17.3334H11.5C12.6493 17.3334 13.7515 16.8768 14.5641 16.0641C15.3768 15.2515 15.8333 14.1493 15.8333 13C15.8333 11.8507 15.3768 10.7485 14.5641 9.93589C14.3312 9.70292 14.0744 9.49922 13.7995 9.32715C14.5692 8.52182 15 7.44979 15 6.33333C15 5.18406 14.5435 4.08186 13.7308 3.2692C12.9181 2.45655 11.8159 2 10.6667 2H4ZM12.3166 7.98325C11.879 8.42083 11.2855 8.66667 10.6667 8.66667H5V4H10.6667C11.2855 4 11.879 4.24583 12.3166 4.68342C12.7542 5.121 13 5.71449 13 6.33333C13 6.95217 12.7542 7.54566 12.3166 7.98325ZM13.1499 14.6499C12.7123 15.0875 12.1188 15.3334 11.5 15.3334H5V10.6667H11.5C12.1188 10.6667 12.7123 10.9125 13.1499 11.3501C13.5875 11.7877 13.8333 12.3812 13.8333 13C13.8333 13.6189 13.5875 14.2123 13.1499 14.6499Z" fill="#192743"/>
</svg>
