<svg width="20" height="20" viewBox="0 0 20 20" fill="none" xmlns="http://www.w3.org/2000/svg">
<path fill-rule="evenodd" clip-rule="evenodd" d="M1.64001 2C1.08773 2 0.640015 2.44772 0.640015 3V15.5C0.640015 16.0523 1.08773 16.5 1.64001 16.5H7.47335C7.87117 16.5 8.2527 16.658 8.53401 16.9393C8.81531 17.2206 8.97335 17.6022 8.97335 18C8.97335 18.5523 9.42106 19 9.97335 19C10.5256 19 10.9733 18.5523 10.9733 18C10.9733 17.6022 11.1314 17.2206 11.4127 16.9393C11.694 16.658 12.0755 16.5 12.4733 16.5H18.3067C18.859 16.5 19.3067 16.0523 19.3067 15.5V3C19.3067 2.44772 18.859 2 18.3067 2H13.3067C12.1574 2 11.0552 2.45655 10.2426 3.2692C10.1479 3.36382 10.0582 3.46236 9.97335 3.56444C9.88855 3.46236 9.79876 3.36382 9.70414 3.2692C8.89149 2.45655 7.78929 2 6.64001 2H1.64001ZM10.9733 14.8377C11.4378 14.6174 11.9495 14.5 12.4733 14.5H17.3067V4H13.3067C12.6878 4 12.0943 4.24583 11.6568 4.68342C11.2192 5.121 10.9733 5.71449 10.9733 6.33333V14.8377ZM7.47335 14.5C7.99719 14.5 8.50892 14.6174 8.97335 14.8377V6.33333C8.97335 5.71449 8.72752 5.121 8.28993 4.68342C7.85235 4.24583 7.25885 4 6.64001 4H2.64001V14.5H7.47335Z" fill="#192743"/>
</svg>
