<svg width="20" height="20" viewBox="0 0 20 20" fill="none" xmlns="http://www.w3.org/2000/svg">
<path fill-rule="evenodd" clip-rule="evenodd" d="M19 6.54941C19 5.63844 18.5045 4.79958 17.7067 4.35989L11.258 0.805968C10.5111 0.394364 9.60594 0.391856 8.85681 0.799315L2.3055 4.3626C1.50088 4.80023 1 5.64283 1 6.55877V13.4412C1 14.3572 1.50088 15.1998 2.3055 15.6374L8.85681 19.2007C9.60594 19.6081 10.5111 19.6056 11.258 19.194L17.7067 15.6401C18.5045 15.2004 19 14.3616 19 13.4506V6.54941ZM10.9999 17.0781L17 13.7714V7.29284L10.9999 10.5797V17.0781ZM8.99991 17.0273V10.581L3 7.31012V13.7639L8.99991 17.0273ZM4.08199 5.64756L10.0528 2.4L15.9164 5.63146L9.99874 8.87315L4.08199 5.64756Z" fill="#192743"/>
</svg>
