<svg width="20" height="20" viewBox="0 0 20 20" fill="none" xmlns="http://www.w3.org/2000/svg">
<path d="M7 4.5C7 4.22386 7.22386 4 7.5 4H8.5C8.77614 4 9 4.22386 9 4.5V5.5C9 5.77614 8.77614 6 8.5 6H7.5C7.22386 6 7 5.77614 7 5.5V4.5Z" fill="#192743"/>
<path d="M11.5 4C11.2239 4 11 4.22386 11 4.5V5.5C11 5.77614 11.2239 6 11.5 6H12.5C12.7761 6 13 5.77614 13 5.5V4.5C13 4.22386 12.7761 4 12.5 4H11.5Z" fill="#192743"/>
<path d="M11 7.5C11 7.22386 11.2239 7 11.5 7H12.5C12.7761 7 13 7.22386 13 7.5V8.5C13 8.77614 12.7761 9 12.5 9H11.5C11.2239 9 11 8.77614 11 8.5V7.5Z" fill="#192743"/>
<path d="M11.5 10C11.2239 10 11 10.2239 11 10.5V11.5C11 11.7761 11.2239 12 11.5 12H12.5C12.7761 12 13 11.7761 13 11.5V10.5C13 10.2239 12.7761 10 12.5 10H11.5Z" fill="#192743"/>
<path d="M7 7.5C7 7.22386 7.22386 7 7.5 7H8.5C8.77614 7 9 7.22386 9 7.5V8.5C9 8.77614 8.77614 9 8.5 9H7.5C7.22386 9 7 8.77614 7 8.5V7.5Z" fill="#192743"/>
<path d="M7.5 10C7.22386 10 7 10.2239 7 10.5V11.5C7 11.7761 7.22386 12 7.5 12H8.5C8.77614 12 9 11.7761 9 11.5V10.5C9 10.2239 8.77614 10 8.5 10H7.5Z" fill="#192743"/>
<path fill-rule="evenodd" clip-rule="evenodd" d="M6 0C4.34315 0 3 1.34315 3 3V18H2C1.44772 18 1 18.4477 1 19C1 19.5523 1.44772 20 2 20H18C18.5523 20 19 19.5523 19 19C19 18.4477 18.5523 18 18 18H17V3C17 1.34315 15.6569 0 14 0H6ZM15 3C15 2.44772 14.5523 2 14 2H6C5.44771 2 5 2.44772 5 3V18H8V15C8 14.4477 8.44772 14 9 14H11C11.5523 14 12 14.4477 12 15V18H15V3Z" fill="#192743"/>
</svg>
