<svg width="20" height="20" viewBox="0 0 20 20" fill="none" xmlns="http://www.w3.org/2000/svg">
<g clip-path="url(#clip0_2924_276)">
<path d="M10.0742 8.74805C11.2049 8.11851 12.5083 7.87625 13.7881 8.05957C15.058 8.24149 16.234 8.83222 17.1426 9.74121L18 10.5557V9.55469C18 9.00244 18.4478 8.55475 19 8.55469C19.5522 8.55475 20 9.00244 20 9.55469V12.8877C20 12.9011 19.9986 12.9144 19.998 12.9277C19.9975 12.9404 19.9971 12.9531 19.9961 12.9658C19.9946 12.9846 19.9917 13.003 19.9893 13.0215C19.9867 13.0404 19.9841 13.0593 19.9805 13.0781C19.9786 13.0876 19.9767 13.097 19.9746 13.1064C19.9702 13.1261 19.9655 13.1456 19.96 13.165C19.9552 13.1815 19.9499 13.1977 19.9443 13.2139C19.9397 13.2273 19.9349 13.2406 19.9297 13.2539C19.9217 13.2742 19.9126 13.2939 19.9033 13.3135C19.8992 13.3223 19.8951 13.3311 19.8906 13.3398C19.8811 13.3585 19.8709 13.3766 19.8604 13.3945C19.8522 13.4084 19.8438 13.422 19.835 13.4355C19.8293 13.4442 19.8233 13.4525 19.8174 13.4609C19.8039 13.4801 19.7903 13.4992 19.7754 13.5176C19.7697 13.5246 19.7637 13.5313 19.7578 13.5381C19.7467 13.551 19.7365 13.5647 19.7246 13.5771C19.7208 13.5811 19.7158 13.584 19.7119 13.5879C19.7076 13.5923 19.7037 13.5972 19.6992 13.6016C19.6563 13.6437 19.6106 13.681 19.5625 13.7139C19.5561 13.7182 19.5495 13.7223 19.543 13.7266C19.4945 13.758 19.4438 13.7844 19.3916 13.8066C19.3467 13.8258 19.3 13.841 19.252 13.8535C19.2363 13.8576 19.2209 13.8619 19.2051 13.8652C19.1992 13.8665 19.1934 13.868 19.1875 13.8691C19.1275 13.8805 19.0668 13.8864 19.0059 13.8867C19.0039 13.8867 19.0019 13.8877 19 13.8877H15.6992C15.1471 13.8876 14.6994 13.4398 14.6992 12.8877C14.6994 12.3356 15.1471 11.8878 15.6992 11.8877H16.4971L15.7637 11.1904C15.7563 11.1835 15.7493 11.1761 15.7422 11.1689C15.136 10.5564 14.3506 10.1603 13.5049 10.0391C12.6591 9.9179 11.7963 10.0778 11.0469 10.4951C10.2973 10.9125 9.70092 11.5662 9.34863 12.3584C8.99635 13.1507 8.90751 14.0379 9.09766 14.8857C9.28778 15.7335 9.74571 16.4939 10.3994 17.0537C11.0531 17.6134 11.868 17.9428 12.7207 17.9932C13.5734 18.0435 14.4206 17.8125 15.1338 17.334C15.5924 17.0266 16.2139 17.1489 16.5215 17.6074C16.8291 18.066 16.7064 18.6874 16.248 18.9951C15.173 19.7164 13.8931 20.0655 12.6025 19.9893C11.3122 19.9129 10.0824 19.4156 9.09863 18.5732C8.11502 17.731 7.43057 16.5899 7.14648 15.3232C6.86248 14.0568 6.99356 12.7312 7.52051 11.5459C8.04772 10.3603 8.94371 9.37757 10.0742 8.74805ZM10 0C10.5523 -2.41411e-08 11 0.447715 11 1V2H12.5557C13.8287 2.00006 14.9998 2.9707 15 4.33301V6.25195C14.3608 6.08743 13.6906 6 13 6C10.9718 6 9.12102 6.75604 7.71094 8H2V13.667C2.00024 13.7773 2.1224 14 2.44434 14H5C5 14.6906 5.08743 15.3608 5.25195 16H2.44434C1.17132 15.9999 0.00018635 15.0293 0 13.667V4.33301C0.000186555 2.9707 1.17132 2.00006 2.44434 2H4V1C4 0.447715 4.44772 0 5 0C5.55228 0 6 0.447715 6 1V2H9V1C9 0.447715 9.44771 2.41411e-08 10 0ZM2.44434 4C2.1224 4.00005 2.00024 4.22267 2 4.33301V6H13V4.33301C12.9998 4.22267 12.8776 4.00005 12.5557 4H2.44434Z" fill="#192743"/>
</g>
<defs>
<clipPath id="clip0_2924_276">
<rect width="20" height="20" fill="white"/>
</clipPath>
</defs>
</svg>
