<svg width="20" height="20" viewBox="0 0 20 20" fill="none" xmlns="http://www.w3.org/2000/svg">
<path d="M4 2V3H2.5C1.11929 3 0 4.11929 0 5.5V16.5C0 17.8807 1.11929 19 2.5 19H14.5C15.8807 19 17 17.8807 17 16.5V12.8293C16.6872 12.9398 16.3506 13 16 13C15.6494 13 15.3128 12.9398 15 12.8293V16.5C15 16.7761 14.7761 17 14.5 17H2.5C2.22386 17 2 16.7761 2 16.5V9H11.1707C11.0602 8.68722 11 8.35064 11 8C11 7.64936 11.0602 7.31278 11.1707 7H2V5.5C2 5.22386 2.22386 5 2.5 5H13.1707C13.4969 4.07709 14.2619 3.36145 15.215 3.10375C14.9885 3.03625 14.7485 3 14.5 3H13V2C13 1.44772 12.5523 1 12 1C11.4477 1 11 1.44772 11 2V3H6V2C6 1.44772 5.55228 1 5 1C4.44772 1 4 1.44772 4 2Z" fill="#192743"/>
<path d="M16 11.5C15.4477 11.5 15 11.0523 15 10.5V9H13.5C12.9477 9 12.5 8.55228 12.5 8C12.5 7.44772 12.9477 7 13.5 7H15V5.5C15 4.94772 15.4477 4.5 16 4.5C16.5523 4.5 17 4.94772 17 5.5V7H18.5C19.0523 7 19.5 7.44772 19.5 8C19.5 8.55228 19.0523 9 18.5 9H17V10.5C17 11.0523 16.5523 11.5 16 11.5Z" fill="#192743"/>
</svg>
