<svg width="20" height="20" viewBox="0 0 20 20" fill="none" xmlns="http://www.w3.org/2000/svg">
<path fill-rule="evenodd" clip-rule="evenodd" d="M19.0404 2.62623C19.431 3.01675 19.431 3.64992 19.0404 4.04044L10.7071 12.3738C10.3166 12.7643 9.68342 12.7643 9.29289 12.3738L6.79289 9.87377C6.40237 9.48325 6.40237 8.85008 6.79289 8.45956C7.18342 8.06904 7.81658 8.06904 8.20711 8.45956L10 10.2525L17.6262 2.62623C18.0168 2.2357 18.6499 2.2357 19.0404 2.62623Z" fill="#192743"/>
<path fill-rule="evenodd" clip-rule="evenodd" d="M4.16667 3.5C3.98986 3.5 3.82029 3.57024 3.69526 3.69526C3.57024 3.82029 3.5 3.98986 3.5 4.16667V15.8333C3.5 16.0101 3.57024 16.1797 3.69526 16.3047C3.82029 16.4298 3.98986 16.5 4.16667 16.5H15.8333C16.0101 16.5 16.1797 16.4298 16.3047 16.3047C16.4298 16.1797 16.5 16.0101 16.5 15.8333V10C16.5 9.44772 16.9477 9 17.5 9C18.0523 9 18.5 9.44772 18.5 10V15.8333C18.5 16.5406 18.219 17.2189 17.719 17.719C17.2189 18.219 16.5406 18.5 15.8333 18.5H4.16667C3.45942 18.5 2.78115 18.219 2.28105 17.719C1.78095 17.2189 1.5 16.5406 1.5 15.8333V4.16667C1.5 3.45942 1.78095 2.78115 2.28105 2.28105C2.78115 1.78095 3.45942 1.5 4.16667 1.5H13.3333C13.8856 1.5 14.3333 1.94772 14.3333 2.5C14.3333 3.05228 13.8856 3.5 13.3333 3.5H4.16667Z" fill="#192743"/>
</svg>
