<svg width="20" height="20" viewBox="0 0 20 20" fill="none" xmlns="http://www.w3.org/2000/svg">
<path fill-rule="evenodd" clip-rule="evenodd" d="M14.814 4C15.3663 4 15.814 4.44772 15.814 5V15C15.814 15.5523 15.3663 16 14.814 16C14.2617 16 13.814 15.5523 13.814 15V5C13.814 4.44772 14.2617 4 14.814 4ZM10.8569 10.7071C11.2474 10.3166 11.2474 9.68342 10.8569 9.29289L5.90716 4.34315C5.51664 3.95262 4.88347 3.95262 4.49295 4.34315C4.10242 4.73367 4.10242 5.36683 4.49295 5.75736L8.73559 10L4.49295 14.2426C4.10242 14.6332 4.10242 15.2663 4.49295 15.6569C4.88347 16.0474 5.51664 16.0474 5.90716 15.6569L10.8569 10.7071Z" fill="#192743"/>
</svg>
