<svg width="20" height="20" viewBox="0 0 20 20" fill="none" xmlns="http://www.w3.org/2000/svg">
<path fill-rule="evenodd" clip-rule="evenodd" d="M5.2 4C4.64771 4 4.2 4.44772 4.2 5V15C4.2 15.5523 4.64771 16 5.2 16C5.75228 16 6.2 15.5523 6.2 15V5C6.2 4.44772 5.75228 4 5.2 4ZM9.1571 10.7071C8.76658 10.3166 8.76658 9.68342 9.1571 9.29289L14.1069 4.34315C14.4974 3.95262 15.1305 3.95262 15.5211 4.34315C15.9116 4.73367 15.9116 5.36683 15.5211 5.75736L11.2784 10L15.5211 14.2426C15.9116 14.6332 15.9116 15.2663 15.5211 15.6569C15.1305 16.0474 14.4974 16.0474 14.1069 15.6569L9.1571 10.7071Z" fill="#192743"/>
</svg>
