<svg width="20" height="20" viewBox="0 0 20 20" fill="none" xmlns="http://www.w3.org/2000/svg">
<path fill-rule="evenodd" clip-rule="evenodd" d="M12.6495 13.4402C12.6281 13.3223 12.6425 13.2006 12.6909 13.0909C12.737 12.9834 12.8135 12.8916 12.9111 12.827C13.0087 12.7624 13.123 12.7277 13.24 12.7273H13.2727C13.4656 12.7273 13.6506 12.6507 13.787 12.5143C13.9234 12.3779 14 12.1929 14 12C14 11.8071 13.9234 11.6221 13.787 11.4857C13.6506 11.3494 13.4656 11.2727 13.2727 11.2727H13.2109C13.0939 11.2723 12.9796 11.2376 12.882 11.173C12.7845 11.1084 12.7079 11.0166 12.6618 10.9091V10.88C12.6134 10.7703 12.599 10.6487 12.6204 10.5307C12.6418 10.4127 12.698 10.3039 12.7818 10.2182L12.8036 10.1964C12.8713 10.1288 12.9249 10.0486 12.9615 9.96032C12.9981 9.87203 13.0169 9.77739 13.0169 9.68182C13.0169 9.58624 12.9981 9.49161 12.9615 9.40332C12.9249 9.31503 12.8713 9.23482 12.8036 9.16727C12.7361 9.09965 12.6559 9.04601 12.5676 9.00941C12.4793 8.97281 12.3847 8.95397 12.2891 8.95397C12.1935 8.95397 12.0989 8.97281 12.0106 9.00941C11.9223 9.04601 11.8421 9.09965 11.7745 9.16727L11.7527 9.18909C11.667 9.27292 11.5582 9.32916 11.4402 9.35055C11.3223 9.37194 11.2006 9.3575 11.0909 9.30909C10.9834 9.263 10.8916 9.18646 10.827 9.0889C10.7624 8.99134 10.7277 8.87701 10.7273 8.76V8.72727C10.7273 8.53439 10.6507 8.3494 10.5143 8.21301C10.3779 8.07662 10.1929 8 10 8C9.80712 8 9.62213 8.07662 9.48574 8.21301C9.34935 8.3494 9.27273 8.53439 9.27273 8.72727V8.78909C9.27226 8.9061 9.23759 9.02043 9.17298 9.11799C9.10837 9.21555 9.01664 9.29209 8.90909 9.33818H8.88C8.77032 9.38659 8.64866 9.40103 8.53069 9.37964C8.41273 9.35825 8.30388 9.30201 8.21818 9.21818L8.19636 9.19636C8.12882 9.12874 8.04861 9.0751 7.96032 9.0385C7.87203 9.0019 7.77739 8.98306 7.68182 8.98306C7.58624 8.98306 7.49161 9.0019 7.40332 9.0385C7.31503 9.0751 7.23482 9.12874 7.16727 9.19636C7.09965 9.26391 7.04601 9.34412 7.00941 9.43241C6.97281 9.5207 6.95397 9.61533 6.95397 9.71091C6.95397 9.80648 6.97281 9.90112 7.00941 9.98941C7.04601 10.0777 7.09965 10.1579 7.16727 10.2255L7.18909 10.2473C7.27292 10.333 7.32916 10.4418 7.35055 10.5598C7.37194 10.6777 7.3575 10.7994 7.30909 10.9091C7.26753 11.0221 7.19294 11.12 7.09502 11.19C6.99709 11.26 6.88036 11.299 6.76 11.3018H6.72727C6.53439 11.3018 6.3494 11.3784 6.21301 11.5148C6.07662 11.6512 6 11.8362 6 12.0291C6 12.222 6.07662 12.407 6.21301 12.5434C6.3494 12.6797 6.53439 12.7564 6.72727 12.7564H6.78909C6.9061 12.7568 7.02043 12.7915 7.11799 12.8561C7.21555 12.9207 7.29209 13.0124 7.33818 13.12C7.38659 13.2297 7.40103 13.3513 7.37964 13.4693C7.35825 13.5873 7.30201 13.6961 7.21818 13.7818L7.19636 13.8036C7.12874 13.8712 7.0751 13.9514 7.0385 14.0397C7.0019 14.128 6.98306 14.2226 6.98306 14.3182C6.98306 14.4138 7.0019 14.5084 7.0385 14.5967C7.0751 14.685 7.12874 14.7652 7.19636 14.8327C7.26391 14.9003 7.34412 14.954 7.43241 14.9906C7.5207 15.0272 7.61533 15.046 7.71091 15.046C7.80648 15.046 7.90112 15.0272 7.98941 14.9906C8.0777 14.954 8.15791 14.9003 8.22545 14.8327L8.24727 14.8109C8.33297 14.7271 8.44182 14.6708 8.55979 14.6495C8.67775 14.6281 8.79941 14.6425 8.90909 14.6909C9.02209 14.7325 9.11996 14.8071 9.19 14.905C9.26004 15.0029 9.299 15.1196 9.30182 15.24V15.2727C9.30182 15.4656 9.37844 15.6506 9.51483 15.787C9.65122 15.9234 9.83621 16 10.0291 16C10.222 16 10.407 15.9234 10.5434 15.787C10.6797 15.6506 10.7564 15.4656 10.7564 15.2727V15.2109C10.7568 15.0939 10.7915 14.9796 10.8561 14.882C10.9207 14.7845 11.0124 14.7079 11.12 14.6618C11.2297 14.6134 11.3513 14.599 11.4693 14.6204C11.5873 14.6418 11.6961 14.698 11.7818 14.7818L11.8036 14.8036C11.8712 14.8713 11.9514 14.9249 12.0397 14.9615C12.128 14.9981 12.2226 15.0169 12.3182 15.0169C12.4138 15.0169 12.5084 14.9981 12.5967 14.9615C12.685 14.9249 12.7652 14.8713 12.8327 14.8036C12.9003 14.7361 12.954 14.6559 12.9906 14.5676C13.0272 14.4793 13.046 14.3847 13.046 14.2891C13.046 14.1935 13.0272 14.0989 12.9906 14.0106C12.954 13.9223 12.9003 13.8421 12.8327 13.7745L12.8109 13.7527C12.7271 13.667 12.6708 13.5582 12.6495 13.4402ZM10 13.6C10.8837 13.6 11.6 12.8837 11.6 12C11.6 11.1163 10.8837 10.4 10 10.4C9.11634 10.4 8.4 11.1163 8.4 12C8.4 12.8837 9.11634 13.6 10 13.6Z" fill="#192743"/>
<path fill-rule="evenodd" clip-rule="evenodd" d="M14.9977 2C14.9455 0.886639 14.0263 0 12.9 0H7.1C5.97372 0 5.05453 0.886637 5.00234 2H4.75C3.23122 2 2 3.23122 2 4.75V17.25C2 18.7688 3.23122 20 4.75 20H15.25C16.7688 20 18 18.7688 18 17.25V4.75C18 3.23122 16.7688 2 15.25 2H14.9977ZM14.9977 4C14.9455 5.11336 14.0263 6 12.9 6H7.1C5.97372 6 5.05453 5.11336 5.00234 4H4.75C4.33579 4 4 4.33579 4 4.75V17.25C4 17.6642 4.33579 18 4.75 18H15.25C15.6642 18 16 17.6642 16 17.25V4.75C16 4.33579 15.6642 4 15.25 4H14.9977ZM7 2.1C7 2.04477 7.04477 2 7.1 2H12.9C12.9552 2 13 2.04477 13 2.1V3.9C13 3.95523 12.9552 4 12.9 4H7.1C7.04477 4 7 3.95523 7 3.9V2.1Z" fill="#192743"/>
</svg>
