<svg width="20" height="20" viewBox="0 0 20 20" fill="none" xmlns="http://www.w3.org/2000/svg">
<path fill-rule="evenodd" clip-rule="evenodd" d="M12.9 0H7.1C5.97372 0 5.05453 0.886637 5.00234 2H4.75C3.23122 2 2 3.23122 2 4.75V17.25C2 18.7688 3.23122 20 4.75 20H15.25C16.7688 20 18 18.7688 18 17.25V4.75C18 3.23122 16.7688 2 15.25 2H14.9977C14.9455 0.886639 14.0263 0 12.9 0ZM14.9977 4C14.9455 5.11336 14.0263 6 12.9 6H7.1C5.97372 6 5.05453 5.11336 5.00234 4H4.75C4.33579 4 4 4.33579 4 4.75V17.25C4 17.6642 4.33579 18 4.75 18H15.25C15.6642 18 16 17.6642 16 17.25V4.75C16 4.33579 15.6642 4 15.25 4H14.9977ZM7 2.1C7 2.04477 7.04477 2 7.1 2H12.9C12.9552 2 13 2.04477 13 2.1V3.9C13 3.95523 12.9552 4 12.9 4H7.1C7.04477 4 7 3.95523 7 3.9V2.1Z" fill="#192743"/>
</svg>
