<svg width="20" height="20" viewBox="0 0 20 20" fill="none" xmlns="http://www.w3.org/2000/svg">
<path fill-rule="evenodd" clip-rule="evenodd" d="M7.1 0H12.9C14.0263 0 14.9455 0.886639 14.9977 2H15.25C16.7688 2 18 3.23122 18 4.75V17.25C18 18.7688 16.7688 20 15.25 20H4.75C3.23122 20 2 18.7688 2 17.25V4.75C2 3.23122 3.23122 2 4.75 2H5.00234C5.05453 0.886637 5.97372 0 7.1 0ZM12.9 6C14.0263 6 14.9455 5.11336 14.9977 4H15.25C15.6642 4 16 4.33579 16 4.75V17.25C16 17.6642 15.6642 18 15.25 18H4.75C4.33579 18 4 17.6642 4 17.25V4.75C4 4.33579 4.33579 4 4.75 4H5.00234C5.05453 5.11336 5.97372 6 7.1 6H12.9ZM7.1 2C7.04477 2 7 2.04477 7 2.1V3.9C7 3.95523 7.04477 4 7.1 4H12.9C12.9552 4 13 3.95523 13 3.9V2.1C13 2.04477 12.9552 2 12.9 2H7.1ZM11.2038 13.466L11.5779 14.5834H13.3333L11.0024 7.91675H9.00715L6.66663 14.5834H8.41243L8.78653 13.466H11.2038ZM9.99516 9.86751L10.7913 12.2349H9.199L9.99516 9.86751Z" fill="#192743"/>
</svg>
