<svg width="20" height="20" viewBox="0 0 20 20" fill="none" xmlns="http://www.w3.org/2000/svg">
<path d="M10.8742 6.42595C10.8742 5.9289 10.4712 5.52595 9.97415 5.52595C9.4771 5.52595 9.07415 5.9289 9.07415 6.42595V9.74784C9.07415 10.2592 9.36306 10.7266 9.82041 10.9553L12.2717 12.1809C12.7162 12.4032 13.2568 12.223 13.4791 11.7784C13.7014 11.3339 13.5212 10.7933 13.0766 10.571L10.8742 9.46972V6.42595Z" fill="#192743"/>
<path fill-rule="evenodd" clip-rule="evenodd" d="M9.97037 1.00005C4.99983 1.01642 0.983684 5.0591 1.00005 10.0296C1.01642 15.0002 5.0591 19.0163 10.0296 19C15.0002 18.9836 19.0163 14.9409 19 9.97037C18.9836 4.99983 14.9409 0.983684 9.97037 1.00005ZM3 10.0222C2.98773 6.29432 6.24987 3.01227 9.97778 3C13.7057 2.98773 16.9877 6.24988 17 9.97778C17.0123 13.7057 13.7501 16.9877 10.0222 17C6.29432 17.0123 3.01227 13.7501 3 10.0222Z" fill="#192743"/>
</svg>
