<svg width="20" height="20" viewBox="0 0 20 20" fill="none" xmlns="http://www.w3.org/2000/svg">
<rect width="20" height="20" fill="white"/>
<path d="M7.37373 5.70711C7.76426 5.31658 7.76426 4.68342 7.37373 4.29289C6.98321 3.90237 6.35004 3.90237 5.95952 4.29289L0.959519 9.29289C0.568995 9.68342 0.568995 10.3166 0.959519 10.7071L5.95952 15.7071C6.35004 16.0976 6.98321 16.0976 7.37373 15.7071C7.76426 15.3166 7.76426 14.6834 7.37373 14.2929L3.08084 10L7.37373 5.70711Z" fill="#192743"/>
<path d="M14.0405 4.29289C13.65 3.90237 13.0168 3.90237 12.6263 4.29289C12.2357 4.68342 12.2357 5.31658 12.6263 5.70711L16.9192 10L12.6263 14.2929C12.2357 14.6834 12.2357 15.3166 12.6263 15.7071C13.0168 16.0976 13.65 16.0976 14.0405 15.7071L19.0405 10.7071C19.431 10.3166 19.431 9.68342 19.0405 9.29289L14.0405 4.29289Z" fill="#192743"/>
</svg>
