<svg width="20" height="20" viewBox="0 0 20 20" fill="none" xmlns="http://www.w3.org/2000/svg">
<path d="M17.5 18.3334C17.9602 18.3334 18.3333 17.9603 18.3333 17.5L18.3333 2.50002C18.3333 2.03978 17.9602 1.66669 17.5 1.66669C17.0397 1.66669 16.6666 2.03978 16.6666 2.50002L16.6666 17.5C16.6666 17.9603 17.0397 18.3334 17.5 18.3334Z" fill="#192743"/>
<path d="M7.74406 14.7559C8.06949 15.0814 8.59713 15.0814 8.92257 14.7559L13.0892 10.5893C13.4147 10.2638 13.4147 9.7362 13.0892 9.41076L8.92257 5.2441C8.59713 4.91866 8.06949 4.91866 7.74406 5.2441C7.41862 5.56953 7.41862 6.09717 7.74406 6.42261L10.4881 9.16669L2.44045 9.16669C2.01309 9.16669 1.66665 9.53978 1.66665 10C1.66665 10.4603 2.01309 10.8334 2.44045 10.8334L10.4881 10.8334L7.74406 13.5774C7.41862 13.9029 7.41862 14.4305 7.74406 14.7559Z" fill="#192743"/>
</svg>
