<svg width="20" height="20" viewBox="0 0 20 20" fill="none" xmlns="http://www.w3.org/2000/svg">
<path d="M8.11261 14.5921L8.52352 14.133C8.61866 14.0267 8.75758 13.9797 8.89225 14.0082L9.47292 14.131C9.59535 14.157 9.69972 14.2423 9.75561 14.3621L9.95726 14.7945C10.0377 14.967 10.0023 15.1759 9.8704 15.3068L9.2882 15.8849C9.16708 16.0051 8.99 16.0341 8.84107 15.9579L8.26114 15.6615C8.13216 15.5955 8.04526 15.4612 8.03267 15.3084L8.00157 14.9306C7.9913 14.8058 8.03179 14.6824 8.11261 14.5921Z" fill="#192743"/>
<path d="M14.1119 11.1689L14.8005 11.7853C14.9599 11.928 15.0305 12.1364 14.9877 12.3384L14.8034 13.2094C14.7646 13.393 14.6366 13.5496 14.4568 13.6334L13.8082 13.9359C13.5495 14.0566 13.2362 14.0034 13.0397 13.8056L12.1727 12.9323C11.9923 12.7506 11.9489 12.485 12.0631 12.2616L12.5078 11.3917C12.6067 11.1982 12.8082 11.0679 13.0375 11.049L13.6041 11.0024C13.7912 10.9869 13.9764 11.0477 14.1119 11.1689Z" fill="#192743"/>
<path d="M7.95296 9.734L8.77479 8.8158C8.93642 8.63521 9.01741 8.38832 8.99686 8.13877L8.93466 7.38328C8.90949 7.07756 8.73569 6.80895 8.47771 6.67707L7.31786 6.08411C7.02 5.93184 6.66585 5.9897 6.4236 6.23022L5.25921 7.38631C4.99542 7.64823 4.92459 8.06594 5.08548 8.41095L5.48877 9.27576C5.60055 9.51546 5.8093 9.68609 6.05416 9.7379L7.21549 9.98365C7.48484 10.0406 7.76269 9.94659 7.95296 9.734Z" fill="#192743"/>
<path fill-rule="evenodd" clip-rule="evenodd" d="M18.1185 7.54142C17.6354 7.74021 17.0899 7.72021 16.6227 7.48658L13.7024 6.02648C13.1523 5.75146 12.7799 5.21561 12.7138 4.60421L12.584 3.40318C12.3922 3.27649 12.2242 3.11297 12.091 2.91924L10.9795 1.30302C10.772 1.00126 10.6644 0.648986 10.6615 0.293606C10.6607 0.203256 10.6668 0.112705 10.6796 0.0227325C10.455 0.00765842 10.2284 0 10 0C9.54776 0 9.10253 0.0300205 8.66619 0.0881775C3.77394 0.740241 0 4.92939 0 10C0 15.5228 4.47715 20 10 20C15.5228 20 20 15.5228 20 10C20 9.47739 19.9599 8.96414 19.8826 8.46316L18.8028 7.68325C18.6843 7.59767 18.578 7.49916 18.4854 7.39046L18.1185 7.54142ZM9.33158 2.43627L10.443 4.05249C10.5157 4.15816 10.5933 4.25958 10.6754 4.3565L10.7254 4.81909C10.8646 6.10712 11.6492 7.23597 12.808 7.81534L15.7282 9.27545C16.4344 9.62853 17.2254 9.74999 17.9919 9.63583C17.9973 9.75644 18 9.87784 18 10C18 14.4183 14.4183 18 10 18C5.58172 18 2 14.4183 2 10C2 5.88651 5.1046 2.49815 9.09847 2.05023C9.168 2.1825 9.24573 2.31144 9.33158 2.43627Z" fill="#192743"/>
<path d="M13.1995 2.21472L13.8881 2.83109C14.0236 2.95232 14.2088 3.01305 14.3959 2.99764L14.9625 2.95099C15.1918 2.93212 15.3933 2.80176 15.4922 2.60829L15.9369 1.73839C16.0511 1.515 16.0077 1.24939 15.8273 1.0677L14.9603 0.194407C14.7638 -0.00343782 14.4505 -0.0565565 14.1918 0.0641106L13.5432 0.366578C13.3634 0.450413 13.2354 0.606978 13.1966 0.790622L13.0123 1.66162C12.9695 1.86363 13.0401 2.07202 13.1995 2.21472Z" fill="#192743"/>
<path d="M17.5235 4.133L17.1126 4.5921C17.0318 4.68239 16.9913 4.80584 17.0016 4.93062L17.0327 5.30836C17.0453 5.46122 17.1322 5.59553 17.2611 5.66147L17.8411 5.95794C17.99 6.03408 18.1671 6.00515 18.2882 5.88489L18.8704 5.30684C19.0023 5.17589 19.0377 4.96703 18.9573 4.79452L18.7556 4.36212C18.6997 4.24227 18.5953 4.15696 18.4729 4.13105L17.8923 4.00818C17.7576 3.97968 17.6187 4.02671 17.5235 4.133Z" fill="#192743"/>
</svg>
