<svg width="20" height="20" viewBox="0 0 20 20" fill="none" xmlns="http://www.w3.org/2000/svg">
<path d="M7.5 4C8.32843 4 9 3.32843 9 2.5C9 1.67157 8.32843 1 7.5 1C6.67157 1 6 1.67157 6 2.5C6 3.32843 6.67157 4 7.5 4Z" fill="#192743"/>
<path d="M1.5 13C2.32843 13 3 12.3284 3 11.5C3 10.6716 2.32843 10 1.5 10C0.671573 10 0 10.6716 0 11.5C0 12.3284 0.671573 13 1.5 13Z" fill="#192743"/>
<path d="M8 8C8 9.10457 7.10457 10 6 10C4.89543 10 4 9.10457 4 8C4 6.89543 4.89543 6 6 6C7.10457 6 8 6.89543 8 8Z" fill="#192743"/>
<path d="M12 19C13.1046 19 14 18.1046 14 17C14 15.8954 13.1046 15 12 15C10.8954 15 10 15.8954 10 17C10 18.1046 10.8954 19 12 19Z" fill="#192743"/>
<path d="M20 14.5C20 15.3284 19.3284 16 18.5 16C17.6716 16 17 15.3284 17 14.5C17 13.6716 17.6716 13 18.5 13C19.3284 13 20 13.6716 20 14.5Z" fill="#192743"/>
<path d="M11.7895 4C11.7895 4.55228 12.2372 5 12.7895 5H15.5858L3.29289 17.2929C2.90237 17.6834 2.90237 18.3166 3.29289 18.7071C3.68342 19.0976 4.31658 19.0976 4.70711 18.7071L17 6.41421V9.63158C17 10.1839 17.4477 10.6316 18 10.6316C18.5523 10.6316 19 10.1839 19 9.63158V4C19 3.44772 18.5523 3 18 3H12.7895C12.2372 3 11.7895 3.44772 11.7895 4Z" fill="#192743"/>
</svg>
