<svg width="20" height="20" viewBox="0 0 20 20" fill="none" xmlns="http://www.w3.org/2000/svg">
<path fill-rule="evenodd" clip-rule="evenodd" d="M16.9828 4.43173C17.3734 4.04121 17.3734 3.40806 16.9829 3.01753C16.5923 2.62701 15.9591 2.62699 15.5686 3.01752L10.0002 8.5859L4.43159 3.01725C4.04106 2.62673 3.40767 2.6265 3.01714 3.01702C2.62662 3.40754 2.62685 4.04094 3.01737 4.43147L8.58602 10.0001L3.19427 15.3919C2.80374 15.7824 2.80374 16.4156 3.19426 16.8061C3.58479 17.1966 4.21795 17.1966 4.60848 16.8061L10.0002 11.4143L15.5685 16.9826C15.959 17.3731 16.5922 17.3731 16.9827 16.9826C17.3732 16.592 17.3732 15.9589 16.9827 15.5683L11.4144 10.0001L16.9828 4.43173Z" fill="#192743"/>
</svg>
