<svg width="20" height="20" viewBox="0 0 20 20" fill="none" xmlns="http://www.w3.org/2000/svg">
<path fill-rule="evenodd" clip-rule="evenodd" d="M19.3334 12.5C19.3334 13.9728 18.1394 15.1667 16.6667 15.1667H11V16.5H13.3334C13.8856 16.5 14.3334 16.9477 14.3334 17.5C14.3334 18.0523 13.8856 18.5 13.3334 18.5H6.66669C6.1144 18.5 5.66669 18.0523 5.66669 17.5C5.66669 16.9477 6.1144 16.5 6.66669 16.5H9.00002V15.1667H3.33335C1.86059 15.1667 0.666687 13.9728 0.666687 12.5V4.16667C0.666687 2.69391 1.86059 1.5 3.33335 1.5H16.6667C18.1394 1.5 19.3334 2.69391 19.3334 4.16667V12.5ZM2.66669 4.16667C2.66669 3.79848 2.96516 3.5 3.33335 3.5H16.6667C17.0349 3.5 17.3334 3.79848 17.3334 4.16667V12.5C17.3334 12.8682 17.0349 13.1667 16.6667 13.1667H3.33335C2.96516 13.1667 2.66669 12.8682 2.66669 12.5V4.16667Z" fill="#192743"/>
</svg>
