<svg width="20" height="20" viewBox="0 0 20 20" fill="none" xmlns="http://www.w3.org/2000/svg">
<path d="M9.22169 10.3234C9.65113 9.89204 10.3478 9.89219 10.7774 10.3234L16.707 16.2834C17.0975 16.6758 17.0972 17.3127 16.707 17.7053C16.3165 18.0978 15.6835 18.0978 15.293 17.7053L10 12.3849L4.70704 17.7053C4.31653 18.0978 3.6835 18.0978 3.29298 17.7053C2.90265 17.3127 2.90252 16.6759 3.29298 16.2834L9.22169 10.3234Z" fill="#192743"/>
<path d="M9.22169 2.32342C9.65113 1.89204 10.3478 1.89219 10.7774 2.32342L16.707 8.28338C17.0975 8.67582 17.0972 9.31267 16.707 9.70525C16.3165 10.0978 15.6835 10.0978 15.293 9.70525L10 4.38494L4.70704 9.70525C4.31653 10.0978 3.6835 10.0978 3.29298 9.70525C2.90265 9.31268 2.90252 8.67587 3.29298 8.28338L9.22169 2.32342Z" fill="#192743"/>
</svg>
