<svg width="20" height="20" viewBox="0 0 20 20" fill="none" xmlns="http://www.w3.org/2000/svg">
<g clip-path="url(#clip0_134_4465)">
<path fill-rule="evenodd" clip-rule="evenodd" d="M17.0282 2.88948C16.8562 2.74185 16.636 2.6625 16.4093 2.66651L16.3917 2.66667H15.1667V9.83333H16.3917L16.4093 9.83349C16.636 9.8375 16.8562 9.75815 17.0282 9.61052C17.1862 9.4749 17.2934 9.29033 17.3333 9.08706V3.41294C17.2934 3.20967 17.1862 3.0251 17.0282 2.88948ZM13.1667 10.6211L10.2382 17.2102C10.0661 17.1358 9.90781 17.0291 9.77267 16.894C9.49136 16.6127 9.33333 16.2312 9.33333 15.8333V12.5C9.33333 11.9477 8.88561 11.5 8.33333 11.5H3.61666L3.60534 11.5001C3.5087 11.5012 3.41298 11.4812 3.32481 11.4417C3.23664 11.4021 3.15813 11.3438 3.09472 11.2709C3.0313 11.198 2.9845 11.1121 2.95756 11.0193C2.93067 10.9267 2.9242 10.8294 2.93858 10.734C2.93855 10.7342 2.93861 10.7338 2.93858 10.734L4.08869 3.23327C4.1128 3.0743 4.19355 2.9294 4.31606 2.82527C4.43856 2.72114 4.59458 2.66479 4.75536 2.6666L13.1667 2.66667V10.6211ZM16.3837 0.666668C17.0969 0.656433 17.7894 0.907167 18.3308 1.37189C18.8747 1.83873 19.2282 2.48901 19.3243 3.19929C19.3303 3.24372 19.3333 3.2885 19.3333 3.33333V9.16667C19.3333 9.2115 19.3303 9.25628 19.3243 9.30071C19.2282 10.011 18.8747 10.6613 18.3308 11.1281C17.7894 11.5928 17.0969 11.8436 16.3837 11.8333H14.8165L11.7471 18.7395C11.5866 19.1006 11.2285 19.3333 10.8333 19.3333C9.90507 19.3333 9.01483 18.9646 8.35845 18.3082C7.70208 17.6518 7.33333 16.7616 7.33333 15.8333V13.5H3.62169C3.23728 13.5034 2.85665 13.4237 2.50589 13.2663C2.15321 13.108 1.83917 12.875 1.58551 12.5833C1.33185 12.2915 1.14464 11.9482 1.03687 11.5769C0.929086 11.2057 0.903308 10.8155 0.961319 10.4333L2.1113 2.9334C2.11125 2.9337 2.11135 2.93309 2.1113 2.9334C2.2079 2.29788 2.53096 1.71772 3.02076 1.30139C3.50919 0.886221 4.13078 0.660939 4.77165 0.666668H16.3837Z" fill="#192743"/>
</g>
<defs>
<clipPath id="clip0_134_4465">
<rect width="20" height="20" fill="white"/>
</clipPath>
</defs>
</svg>
