<svg width="20" height="20" viewBox="0 0 20 20" fill="none" xmlns="http://www.w3.org/2000/svg">
<path fill-rule="evenodd" clip-rule="evenodd" d="M9.16669 16.6667C9.16669 16.2065 9.53978 15.8334 10 15.8334H17.5C17.9603 15.8334 18.3334 16.2065 18.3334 16.6667C18.3334 17.1269 17.9603 17.5 17.5 17.5H10C9.53978 17.5 9.16669 17.1269 9.16669 16.6667Z" fill="#192743"/>
<path fill-rule="evenodd" clip-rule="evenodd" d="M15 3.39893C14.7964 3.39893 14.6011 3.47982 14.4571 3.6238L4.23632 13.8446L3.87439 15.2923L5.3221 14.9304L15.5429 4.70959C15.6142 4.63829 15.6708 4.55365 15.7093 4.4605C15.7479 4.36735 15.7678 4.26752 15.7678 4.16669C15.7678 4.06587 15.7479 3.96603 15.7093 3.87288C15.6708 3.77973 15.6142 3.69509 15.5429 3.6238C15.4716 3.55251 15.387 3.49595 15.2938 3.45737C15.2007 3.41878 15.1008 3.39893 15 3.39893ZM13.0429 2.20959C13.562 1.69053 14.266 1.39893 15 1.39893C15.3635 1.39893 15.7234 1.47052 16.0592 1.60961C16.395 1.7487 16.7001 1.95257 16.9571 2.20959C17.2141 2.4666 17.418 2.77171 17.5571 3.10751C17.6962 3.44331 17.7678 3.80322 17.7678 4.16669C17.7678 4.53016 17.6962 4.89007 17.5571 5.22587C17.418 5.56167 17.2141 5.86679 16.9571 6.1238L6.54046 16.5405C6.4123 16.6686 6.25172 16.7595 6.07589 16.8035L2.74256 17.6368C2.40178 17.722 2.04129 17.6222 1.79291 17.3738C1.54453 17.1254 1.44468 16.7649 1.52988 16.4242L2.36321 13.0908C2.40717 12.915 2.49809 12.7544 2.62625 12.6263L13.0429 2.20959Z" fill="#192743"/>
</svg>
