<svg width="20" height="20" viewBox="0 0 20 20" fill="none" xmlns="http://www.w3.org/2000/svg">
<path fill-rule="evenodd" clip-rule="evenodd" d="M10 3C9.13952 3 8.31747 3.1548 7.55868 3.4372C6.66962 3.76808 5.86499 4.27507 5.18762 4.91657C4.46428 5.60161 3.8876 6.43858 3.50845 7.37522C3.18088 8.18446 3 9.06987 3 10C3 10.5523 2.55228 11 2 11C1.44772 11 1 10.5523 1 10C1 8.80833 1.23213 7.6684 1.65458 6.62478C2.14286 5.41853 2.88436 4.34331 3.81238 3.46443C4.68156 2.64127 5.71572 1.98907 6.86109 1.5628C7.83973 1.19858 8.89781 1 10 1C10.5523 1 11 1.44772 11 2C11 2.55228 10.5523 3 10 3ZM14.7739 3.50288C15.1537 3.10188 15.7866 3.08467 16.1876 3.46443C17.1156 4.34331 17.8571 5.41853 18.3454 6.62478C18.7679 7.6684 19 8.80833 19 10C19 11.1917 18.7679 12.3316 18.3454 13.3752C18.1382 13.8871 17.5552 14.1342 17.0433 13.9269C16.5313 13.7197 16.2843 13.1367 16.4915 12.6248C16.8191 11.8155 17 10.9301 17 10C17 9.06987 16.8191 8.18446 16.4915 7.37522C16.1124 6.43858 15.5357 5.60161 14.8124 4.91657C14.4114 4.5368 14.3942 3.90387 14.7739 3.50288ZM3.12916 14.2198C3.56008 13.8743 4.18944 13.9436 4.53488 14.3745C5.18109 15.1807 6.00154 15.8405 6.93806 16.2968C7.86178 16.747 8.89992 17 10 17C11.1001 17 12.1382 16.747 13.0619 16.2968C13.5584 16.0549 14.157 16.2612 14.3989 16.7577C14.6409 17.2542 14.4345 17.8528 13.9381 18.0947C12.7474 18.6749 11.4102 19 10 19C8.58976 19 7.25261 18.6749 6.06194 18.0947C4.857 17.5075 3.80362 16.6599 2.97438 15.6255C2.62894 15.1946 2.69824 14.5652 3.12916 14.2198Z" fill="#192743"/>
<path d="M5.72128 12.4894V11.6181H7.47766V12.4894H5.72128ZM5.72128 10.4357V9.56439H7.06277V10.4357H5.72128ZM4.85 7.51066H5.99787V12.4894H4.85V7.51066ZM5.79043 7.51066H7.40851V8.38194H5.79043V7.51066Z" fill="#192743"/>
<path d="M10.1293 11.2862C10.1293 11.1341 10.0786 11.005 9.97718 10.899C9.87576 10.7929 9.74437 10.6938 9.58303 10.6016C9.42629 10.5048 9.25803 10.4057 9.07824 10.3043C8.89845 10.1983 8.72789 10.0761 8.56654 9.93779C8.4098 9.79949 8.28072 9.63123 8.1793 9.433C8.07789 9.23478 8.02718 8.99275 8.02718 8.70694H9.17505C9.17505 8.85446 9.22576 8.98354 9.32718 9.09417C9.4286 9.2002 9.55767 9.30162 9.71441 9.39843C9.87576 9.49063 10.0463 9.58974 10.2261 9.69577C10.4059 9.79719 10.5742 9.91705 10.7309 10.0553C10.8922 10.1936 11.0236 10.3619 11.125 10.5601C11.2265 10.7584 11.2772 11.0004 11.2772 11.2862H10.1293ZM8.02718 8.71385C8.02718 8.46031 8.09863 8.23673 8.24154 8.04311C8.38445 7.84488 8.57806 7.68815 8.82239 7.5729C9.06672 7.45765 9.34331 7.40002 9.65218 7.40002V8.2713C9.50466 8.2713 9.3871 8.31049 9.29952 8.38885C9.21654 8.46722 9.17505 8.57556 9.17505 8.71385H8.02718ZM11.2772 11.2862C11.2772 11.5397 11.2057 11.7656 11.0628 11.9639C10.9199 12.1575 10.7263 12.3119 10.482 12.4272C10.2376 12.5424 9.96104 12.6 9.65218 12.6V11.7287C9.79969 11.7287 9.91494 11.6896 9.99792 11.6112C10.0855 11.5328 10.1293 11.4245 10.1293 11.2862H11.2772ZM10.0947 8.81758C10.0717 8.6424 10.021 8.50871 9.9426 8.41651C9.86884 8.31971 9.77203 8.2713 9.65218 8.2713V7.40002C9.91494 7.40002 10.1454 7.44843 10.3437 7.54524C10.5465 7.64205 10.7125 7.78265 10.8415 7.96705C10.9706 8.15144 11.0559 8.37502 11.0974 8.63779L10.0947 8.81758ZM9.02984 10.9059C9.04367 11.164 9.1059 11.3669 9.21654 11.5144C9.32718 11.6573 9.47239 11.7287 9.65218 11.7287V12.6C9.17735 12.6 8.79473 12.4663 8.5043 12.199C8.21388 11.9316 8.04562 11.5605 7.99952 11.0857L9.02984 10.9059Z" fill="#192743"/>
<path d="M13.3858 10.5601V9.68885H15.1076V10.5601H13.3858ZM13.9598 11.1548V9.7096H15.1076V11.1548H13.9598ZM11.8646 11.1548V8.84524H13.0124V11.1548H11.8646ZM11.8646 8.85215C11.8646 8.57556 11.936 8.32893 12.0789 8.11226C12.2218 7.89098 12.4155 7.71811 12.6598 7.59364C12.9041 7.46456 13.1807 7.40002 13.4896 7.40002V8.2713C13.342 8.2713 13.2245 8.32201 13.1369 8.42343C13.0539 8.52485 13.0124 8.66775 13.0124 8.85215H11.8646ZM11.8646 11.1479H13.0124C13.0124 11.3323 13.0539 11.4752 13.1369 11.5766C13.2245 11.678 13.342 11.7287 13.4896 11.7287V12.6C13.1807 12.6 12.9041 12.5378 12.6598 12.4133C12.4155 12.2842 12.2218 12.1114 12.0789 11.8947C11.936 11.6734 11.8646 11.4245 11.8646 11.1479ZM14.105 9.09417C14.0912 8.83602 14.0289 8.63549 13.9183 8.49258C13.8076 8.34506 13.6624 8.2713 13.4826 8.2713V7.40002C13.9575 7.40002 14.3401 7.53371 14.6305 7.80109C14.9209 8.06385 15.0892 8.43495 15.1353 8.91439L14.105 9.09417ZM15.1076 11.1479C15.1076 11.4245 15.0362 11.6734 14.8933 11.8947C14.7504 12.1114 14.5568 12.2842 14.3124 12.4133C14.0681 12.5378 13.7915 12.6 13.4826 12.6V11.7287C13.6302 11.7287 13.7454 11.678 13.8284 11.5766C13.916 11.4752 13.9598 11.3323 13.9598 11.1479H15.1076Z" fill="#192743"/>
</svg>
