<svg width="20" height="20" viewBox="0 0 20 20" fill="none" xmlns="http://www.w3.org/2000/svg">
<path d="M5.23333 4.5C5.03884 4.5 4.85231 4.57726 4.71479 4.71479C4.57726 4.85231 4.5 5.03884 4.5 5.23333V14.7667C4.5 14.9612 4.57726 15.1477 4.71479 15.2852C4.85232 15.4227 5.03884 15.5 5.23333 15.5H14.7667C14.9612 15.5 15.1477 15.4227 15.2852 15.2852C15.4227 15.1477 15.5 14.9612 15.5 14.7667V13.38C15.5 12.8277 15.9477 12.38 16.5 12.38C17.0523 12.38 17.5 12.8277 17.5 13.38V14.7667C17.5 15.4916 17.212 16.1868 16.6994 16.6994C16.1868 17.212 15.4916 17.5 14.7667 17.5H5.23333C4.50841 17.5 3.81317 17.212 3.30057 16.6994C2.78798 16.1868 2.5 15.4916 2.5 14.7667V5.23333C2.5 4.50841 2.78798 3.81317 3.30057 3.30057C3.81317 2.78798 4.50841 2.5 5.23333 2.5H6.62C7.17228 2.5 7.62 2.94772 7.62 3.5C7.62 4.05228 7.17228 4.5 6.62 4.5H5.23333Z" fill="#192743"/>
<path d="M10.5 3.5C10.5 2.94772 10.9477 2.5 11.5 2.5H16.5C17.0523 2.5 17.5 2.94772 17.5 3.5V8.5C17.5 9.05228 17.0523 9.5 16.5 9.5C15.9477 9.5 15.5 9.05228 15.5 8.5V5.74759L10.5405 10.7071C10.15 11.0976 9.51679 11.0976 9.12627 10.7071C8.73574 10.3166 8.73574 9.68342 9.12627 9.29289L13.9192 4.5H11.5C10.9477 4.5 10.5 4.05228 10.5 3.5Z" fill="#192743"/>
</svg>
