<svg width="20" height="20" viewBox="0 0 20 20" fill="none" xmlns="http://www.w3.org/2000/svg">
<path fill-rule="evenodd" clip-rule="evenodd" d="M4.16667 6C3.98986 6 3.82029 6.07024 3.69526 6.19526C3.57024 6.32029 3.5 6.48986 3.5 6.66667V15.8333C3.5 16.0101 3.57024 16.1797 3.69526 16.3047C3.82029 16.4298 3.98986 16.5 4.16667 16.5H13.3333C13.5101 16.5 13.6797 16.4298 13.8047 16.3047C13.9298 16.1797 14 16.0101 14 15.8333V10.8333C14 10.281 14.4477 9.83333 15 9.83333C15.5523 9.83333 16 10.281 16 10.8333V15.8333C16 16.5406 15.719 17.2189 15.219 17.719C14.7189 18.219 14.0406 18.5 13.3333 18.5H4.16667C3.45942 18.5 2.78115 18.219 2.28105 17.719C1.78095 17.2189 1.5 16.5406 1.5 15.8333V6.66667C1.5 5.95942 1.78095 5.28115 2.28105 4.78105C2.78115 4.28095 3.45942 4 4.16667 4H9.16667C9.71895 4 10.1667 4.44772 10.1667 5C10.1667 5.55228 9.71895 6 9.16667 6H4.16667Z" fill="#192743"/>
<path fill-rule="evenodd" clip-rule="evenodd" d="M11.5 2.5C11.5 1.94772 11.9477 1.5 12.5 1.5H17.5C18.0523 1.5 18.5 1.94772 18.5 2.5V7.5C18.5 8.05228 18.0523 8.5 17.5 8.5C16.9477 8.5 16.5 8.05228 16.5 7.5V3.5H12.5C11.9477 3.5 11.5 3.05228 11.5 2.5Z" fill="#192743"/>
<path fill-rule="evenodd" clip-rule="evenodd" d="M18.2071 1.79289C18.5977 2.18342 18.5977 2.81658 18.2071 3.20711L9.04048 12.3738C8.64996 12.7643 8.01679 12.7643 7.62627 12.3738C7.23574 11.9832 7.23574 11.3501 7.62627 10.9596L16.7929 1.79289C17.1835 1.40237 17.8166 1.40237 18.2071 1.79289Z" fill="#192743"/>
</svg>
