<svg width="20" height="20" viewBox="0 0 20 20" fill="none" xmlns="http://www.w3.org/2000/svg">
<path fill-rule="evenodd" clip-rule="evenodd" d="M6.80716 5.37733C6.68014 5.41835 6.55821 5.47037 6.4425 5.5323C6.25158 5.63448 6.07757 5.76361 5.92542 5.91473L5.91475 5.9254C5.76361 6.07757 5.63445 6.25162 5.53227 6.44257C5.47035 6.55827 5.41833 6.68018 5.37732 6.80719L5.37731 6.80723C5.35192 6.88587 5.33074 6.96647 5.31406 7.04876L5.16712 7.77341L5.16712 7.77345L5.13418 7.93588C5.04931 8.3547 4.45073 8.3547 4.36582 7.93588L4.3329 7.77352L4.33288 7.77341L4.18594 7.04876C4.16926 6.96646 4.14809 6.88585 4.1227 6.80719L4.12269 6.80716C4.08167 6.6801 4.02963 6.55815 3.96768 6.44241C3.86551 6.25152 3.73639 6.07752 3.58529 5.9254L3.57461 5.91472C3.42246 5.7636 3.24843 5.63447 3.05751 5.5323C2.94178 5.47037 2.81985 5.41834 2.69282 5.37733L2.69278 5.37732C2.61414 5.35193 2.53354 5.33076 2.45125 5.31407L1.7266 5.16714L1.72656 5.16713L1.56412 5.1342C1.14529 5.04929 1.14529 4.45071 1.56412 4.36581L1.72656 4.33287L1.7266 4.33286L2.45125 4.18593C2.53355 4.16924 2.61416 4.14807 2.69282 4.12268L2.69284 4.12267C2.81987 4.08166 2.94179 4.02964 3.05751 3.96771C3.24843 3.86554 3.42245 3.73641 3.5746 3.5853L3.58528 3.57462C3.73642 3.42244 3.86557 3.24839 3.96775 3.05744C4.02966 2.94174 4.08168 2.81982 4.12269 2.69281L4.1227 2.69277C4.14809 2.61413 4.16926 2.53353 4.18594 2.45124L4.33288 1.72659L4.33288 1.72655L4.36582 1.56412C4.45069 1.14529 5.04927 1.14529 5.13418 1.56412L5.1671 1.72648L5.16712 1.72659L5.31406 2.45124C5.33074 2.53354 5.35191 2.61415 5.3773 2.69281L5.37731 2.69283C5.41833 2.81989 5.47037 2.94185 5.53232 3.05759C5.63449 3.24849 5.76361 3.42248 5.91472 3.57461L5.92539 3.58529C6.07755 3.7364 6.25157 3.86553 6.44249 3.9677C6.55822 4.02963 6.68015 4.08166 6.80718 4.12267L6.80719 4.12267C6.88585 4.14807 6.96645 4.16924 7.04875 4.18593L7.7734 4.33286L7.77344 4.33287L7.93588 4.36581C8.35471 4.45071 8.35471 5.04929 7.93588 5.1342L7.77344 5.16713L7.7734 5.16714L7.04875 5.31407C6.96645 5.33076 6.88584 5.35193 6.80718 5.37733L6.80716 5.37733ZM16.253 13.5177C15.9331 13.6416 15.6337 13.8121 15.3614 14.0218C15.3331 14.0436 15.3051 14.0659 15.2774 14.0885C15.0268 14.2932 14.8008 14.532 14.6048 14.7987C14.5344 14.8945 14.4679 14.994 14.4055 15.0967C14.2043 15.4282 14.046 15.7944 13.9392 16.1859L13.9392 16.186C13.9069 16.3044 13.8793 16.425 13.8567 16.5477L13.602 17.9298L13.6019 17.9298L13.5569 18.1741C13.4155 18.942 12.4178 18.942 12.2763 18.1741L12.2313 17.9299L12.2313 17.9298L11.9765 16.5477C11.9539 16.425 11.9263 16.3043 11.8941 16.186L11.8941 16.1859C11.7873 15.7944 11.629 15.4282 11.4278 15.0967C11.3654 14.994 11.2989 14.8945 11.2285 14.7987C11.0325 14.532 10.8065 14.2932 10.5559 14.0885C10.5282 14.0658 10.5002 14.0436 10.4719 14.0218C10.1996 13.8121 9.90012 13.6416 9.58016 13.5177L9.58009 13.5176C9.42004 13.4556 9.25485 13.4053 9.08536 13.3675L7.93746 13.1114L7.93738 13.1114L7.60681 13.0377C6.90877 12.882 6.90877 11.7846 7.60681 11.629L7.93738 11.5553L7.93746 11.5552L9.08536 11.2992C9.25488 11.2614 9.42009 11.211 9.58016 11.149L9.5802 11.149C9.90014 11.0251 10.1996 10.8546 10.4719 10.6449C10.5002 10.6231 10.5282 10.6009 10.5559 10.5782C10.8064 10.3735 11.0325 10.1347 11.2284 9.86798C11.2988 9.77216 11.3653 9.67273 11.4277 9.56997C11.629 9.23845 11.7873 8.87224 11.894 8.48073L11.8941 8.48067C11.9263 8.36232 11.9539 8.24166 11.9765 8.11895L12.2313 6.73691L12.2313 6.73685L12.2763 6.49255C12.4178 5.72471 13.4154 5.72471 13.5569 6.49255L13.6019 6.73674L13.602 6.73691L13.8567 8.11895C13.8793 8.24168 13.9069 8.36236 13.9392 8.48072L13.9392 8.48075C14.0459 8.87225 14.2042 9.23845 14.4055 9.56996C14.4679 9.67273 14.5344 9.77216 14.6048 9.86798C14.8008 10.1347 15.0268 10.3735 15.2774 10.5782C15.3051 10.6008 15.3331 10.6231 15.3614 10.6449C15.6337 10.8546 15.9331 11.0251 16.2531 11.149L16.2531 11.149C16.4132 11.211 16.5784 11.2614 16.7479 11.2992L17.8958 11.5552L17.8958 11.5553L18.2264 11.629C18.9245 11.7846 18.9245 12.882 18.2264 13.0377L17.8958 13.1114L17.8958 13.1114L16.7479 13.3675C16.5784 13.4053 16.4131 13.4556 16.2531 13.5177L16.253 13.5177Z" fill="#192743"/>
</svg>
