<svg width="20" height="20" viewBox="0 0 20 20" fill="none" xmlns="http://www.w3.org/2000/svg">
<path d="M9.20003 15.2C9.20003 15.6419 9.5582 16 10 16C10.4419 16 10.8 15.6419 10.8 15.2V12.8H13.2C13.6418 12.8 14 12.4418 14 12C14 11.5581 13.6418 11.2 13.2 11.2H10.8V8.80003C10.8 8.3582 10.4419 8.00003 10 8.00003C9.5582 8.00003 9.20003 8.3582 9.20003 8.80003V11.2H6.79997C6.35814 11.2 5.99997 11.5581 5.99997 12C5.99997 12.4418 6.35814 12.8 6.79997 12.8H9.20003V15.2Z" fill="#192743"/>
<path fill-rule="evenodd" clip-rule="evenodd" d="M4.5 0C3.11929 0 2 1.11929 2 2.5V17.4994C2 18.8801 3.11984 20 4.50056 20H15.4994C16.8801 20 18 18.8801 18 17.4994V5.82843C18 5.29799 17.7893 4.78929 17.4142 4.41421L13.5858 0.585786C13.2107 0.210713 12.702 0 12.1716 0H4.5ZM12 7C10.8954 7 10 6.10457 10 5V2H5C4.44772 2 4 2.44772 4 3V17C4 17.5523 4.44772 18 5 18H15C15.5523 18 16 17.5523 16 17V7H12ZM15 5L12 2V5H15Z" fill="#192743"/>
</svg>
