<svg width="20" height="20" viewBox="0 0 20 20" fill="none" xmlns="http://www.w3.org/2000/svg">
<path d="M6 11C6 10.4477 6.44772 10 7 10H13C13.5523 10 14 10.4477 14 11C14 11.5523 13.5523 12 13 12H7C6.44772 12 6 11.5523 6 11Z" fill="#192743"/>
<path d="M7 14C6.44772 14 6 14.4477 6 15C6 15.5523 6.44772 16 7 16H13C13.5523 16 14 15.5523 14 15C14 14.4477 13.5523 14 13 14H7Z" fill="#192743"/>
<path fill-rule="evenodd" clip-rule="evenodd" d="M4.5 0C3.11929 0 2 1.11929 2 2.5V17.4994C2 18.8801 3.11984 20 4.50056 20H15.4994C16.8801 20 18 18.8801 18 17.4994V5.82843C18 5.29799 17.7893 4.78929 17.4142 4.41421L13.5858 0.585786C13.2107 0.210713 12.702 0 12.1716 0H4.5ZM10 2H5C4.44772 2 4 2.44772 4 3V17C4 17.5523 4.44772 18 5 18H15C15.5523 18 16 17.5523 16 17V7H12C10.8954 7 10 6.10457 10 5V2ZM15 5L12 2V5H15Z" fill="#192743"/>
</svg>
