<svg width="24" height="8" viewBox="0 0 24 8" fill="none" xmlns="http://www.w3.org/2000/svg">
<path fill-rule="evenodd" clip-rule="evenodd" d="M7 3H17V5H7V3Z" fill="#192743" fill-opacity="0.5"/>
<path d="M4 0.5C5.933 0.5 7.5 2.067 7.5 4C7.5 5.933 5.933 7.5 4 7.5C2.067 7.5 0.5 5.933 0.5 4C0.5 2.067 2.067 0.5 4 0.5Z" fill="#192743" fill-opacity="0.5" stroke="white"/>
<path d="M20 0.5C21.933 0.5 23.5 2.067 23.5 4C23.5 5.933 21.933 7.5 20 7.5C18.067 7.5 16.5 5.933 16.5 4C16.5 2.067 18.067 0.5 20 0.5Z" fill="#192743" fill-opacity="0.5" stroke="white"/>
</svg>
