<svg width="20" height="20" viewBox="0 0 20 20" fill="none" xmlns="http://www.w3.org/2000/svg">
<path d="M17.7891 0.538788C17.931 0.538854 18.0662 0.568441 18.1885 0.621796C18.3 0.670402 18.4048 0.740507 18.4961 0.831757C18.5971 0.932858 18.672 1.05032 18.7207 1.17551C18.7563 1.26696 18.7789 1.36526 18.7861 1.4675C18.788 1.49376 18.7893 1.52028 18.7891 1.5466V7.78879C18.7888 8.34072 18.341 8.78853 17.7891 8.78879C17.2369 8.78879 16.7893 8.34088 16.7891 7.78879V3.95285L13.3047 7.43625C14.3601 8.66185 14.9999 10.2555 15 11.9997C15 15.8657 11.866 18.9997 8 18.9997C4.13401 18.9997 1 15.8657 1 11.9997C1.00015 8.13386 4.1341 4.99973 8 4.99973C9.39986 4.99973 10.703 5.41206 11.7969 6.11984C11.8084 6.10708 11.8197 6.09406 11.832 6.08176L15.374 2.53879H11.5391C10.9868 2.53879 10.5391 2.09107 10.5391 1.53879C10.5391 0.986503 10.9868 0.538788 11.5391 0.538788H17.7891ZM8 6.99973C5.23867 6.99973 3.00015 9.23843 3 11.9997C3 14.7611 5.23858 16.9997 8 16.9997C10.7614 16.9997 13 14.7611 13 11.9997C12.9998 9.23843 10.7613 6.99973 8 6.99973Z" fill="#192743"/>
</svg>
