<svg width="20" height="20" viewBox="0 0 20 20" fill="none" xmlns="http://www.w3.org/2000/svg">
<path fill-rule="evenodd" clip-rule="evenodd" d="M7.37148 5.80324L9.25002 4.92726V7.0428C6.01343 7.41464 3.5 10.1638 3.5 13.5C3.5 17.0899 6.41015 20 10 20C13.5899 20 16.5 17.0899 16.5 13.5C16.5 10.1638 13.9866 7.41466 10.75 7.0428V4.92736L12.6285 5.80333C13.0039 5.97838 13.4502 5.81596 13.6252 5.44056C13.8003 5.06516 13.6379 4.61892 13.2625 4.44387L11.7746 3.75005L13.2625 3.05622C13.6379 2.88117 13.8003 2.43493 13.6252 2.05953C13.4502 1.68412 13.004 1.52171 12.6286 1.69676L10.75 2.57273V0.75C10.75 0.335787 10.4142 0 10 0C9.58581 0 9.25002 0.335787 9.25002 0.75V2.57283L7.37146 1.69685C6.99606 1.52179 6.54982 1.68421 6.37477 2.05961C6.19972 2.43502 6.36213 2.88125 6.73754 3.05631L8.22526 3.75005L6.73755 4.44378C6.36215 4.61883 6.19973 5.06507 6.37479 5.44047C6.54984 5.81588 6.99608 5.97829 7.37148 5.80324ZM10 9C7.51474 9 5.5 11.0147 5.5 13.5C5.5 15.9853 7.51472 18 10 18C12.4853 18 14.5 15.9853 14.5 13.5C14.5 11.0147 12.4853 9 10 9Z" fill="#192743"/>
</svg>
