<svg width="20" height="20" viewBox="0 0 20 20" fill="none" xmlns="http://www.w3.org/2000/svg">
<g clip-path="url(#clip0_134_4229)">
<path fill-rule="evenodd" clip-rule="evenodd" d="M3.16675 3.75008C3.16675 4.12361 3.23452 4.49014 3.36327 4.83325H1.66675C1.11446 4.83325 0.666748 5.28097 0.666748 5.83325V9.99992C0.666748 10.5522 1.11446 10.9999 1.66675 10.9999H2.33325V18.3333C2.33325 18.8856 2.78097 19.3333 3.33325 19.3333H16.6666C17.2189 19.3333 17.6666 18.8856 17.6666 18.3333V10.9999H18.3334C18.8857 10.9999 19.3334 10.5522 19.3334 9.99992V5.83325C19.3334 5.28097 18.8857 4.83325 18.3334 4.83325H16.6368C16.7656 4.49014 16.8333 4.12361 16.8333 3.75008C16.8333 2.93233 16.5085 2.14807 15.9302 1.56984C15.352 0.991598 14.5678 0.666748 13.75 0.666748C11.8324 0.666748 10.6536 1.98373 10 3.10071C9.34646 1.98373 8.1677 0.666748 6.25008 0.666748C5.43233 0.666748 4.64807 0.991598 4.06984 1.56984C3.4916 2.14807 3.16675 2.93233 3.16675 3.75008ZM6.25008 2.66675C5.96276 2.66675 5.68721 2.78088 5.48405 2.98405C5.28088 3.18721 5.16675 3.46276 5.16675 3.75008C5.16675 4.0374 5.28088 4.31295 5.48405 4.51611C5.68278 4.71485 5.95078 4.82839 6.2313 4.83325H8.63195C8.54982 4.63806 8.45376 4.43408 8.34262 4.232C7.82823 3.29676 7.15232 2.66675 6.25008 2.66675ZM14.516 4.51611C14.3173 4.71485 14.0493 4.82839 13.7688 4.83325H11.3681C11.4503 4.63806 11.5463 4.43408 11.6575 4.232C12.1718 3.29676 12.8478 2.66675 13.75 2.66675C14.0373 2.66675 14.3129 2.78088 14.516 2.98405C14.7192 3.18721 14.8333 3.46276 14.8333 3.75008C14.8333 4.0374 14.7192 4.31295 14.516 4.51611ZM13.7817 6.83325L13.75 6.83341H11V8.99992H17.3334V6.83325H13.7817ZM6.21839 6.83325L6.25008 6.83341H9V8.99992H2.66675V6.83325H6.21839ZM9 10.9999H4.33325V17.3333H9V10.9999ZM11 17.3333V10.9999H15.6666V17.3333H11Z" fill="#192743"/>
</g>
<defs>
<clipPath id="clip0_134_4229">
<rect width="20" height="20" fill="white"/>
</clipPath>
</defs>
</svg>
