<svg width="20" height="20" viewBox="0 0 20 20" fill="none" xmlns="http://www.w3.org/2000/svg">
<path fill-rule="evenodd" clip-rule="evenodd" d="M7.72601 3.30214C5.24065 4.14568 3.37615 6.33371 2.99873 9H6.03974C6.19502 6.98235 6.77472 5.03628 7.72601 3.30214ZM9.29515 1.02719C4.65403 1.38673 1 5.26664 1 10C1 14.9706 5.02944 19 10 19C14.9706 19 19 14.9706 19 10C19 5.26664 15.346 1.38673 10.7048 1.02719C10.6971 1.01812 10.6893 1.00905 10.6815 1L10.6572 1.02363C10.4402 1.00797 10.221 1 10 1C9.77898 1 9.55981 1.00797 9.34278 1.02363L9.31845 1C9.31067 1.00905 9.3029 1.01812 9.29515 1.02719ZM12.274 3.30214C13.2253 5.03627 13.805 6.98235 13.9603 9H17.0013C16.6239 6.33371 14.7593 4.14568 12.274 3.30214ZM12.1069 9C11.9172 6.89663 11.1874 4.89027 10 3.20016C8.81259 4.89027 8.08281 6.89663 7.89312 9H12.1069ZM7.92617 11H12.0738C11.8419 12.9867 11.1271 14.876 10 16.4803C8.87286 14.876 8.15807 12.9867 7.92617 11ZM6.06793 11H2.99873C3.38735 13.7454 5.35267 15.9838 7.94899 16.7694C6.91843 15.0291 6.27256 13.0559 6.06793 11ZM12.051 16.7694C13.0816 15.0291 13.7274 13.0559 13.9321 11H17.0013C16.6126 13.7454 14.6473 15.9838 12.051 16.7694Z" fill="#192743"/>
</svg>
