<svg width="20" height="20" viewBox="0 0 20 20" fill="none" xmlns="http://www.w3.org/2000/svg">
<g clip-path="url(#clip0_1754_217)">
<path fill-rule="evenodd" clip-rule="evenodd" d="M0.996033 9.99999C0.996033 14.9727 5.02724 19.0039 9.99999 19.0039C14.9712 19.0039 19.0014 14.9753 19.0039 10.0047L19.0039 9.99999C19.0039 5.02724 14.9727 0.996033 9.99999 0.996033C5.02832 0.996033 0.997783 5.02549 0.996033 9.99675V9.99999ZM3.06688 11H5.19761C5.7499 11 6.19761 10.5523 6.19761 9.99998C6.19761 9.4477 5.7499 8.99998 5.19761 8.99998H3.06688C3.50545 5.9321 5.93212 3.50544 9 3.06688V5.19761C9 5.7499 9.44771 6.19761 10 6.19761C10.5523 6.19761 11 5.7499 11 5.19761V3.06688C14.0679 3.50546 16.4945 5.93211 16.9331 8.99998H14.8024C14.2501 8.99998 13.8024 9.4477 13.8024 9.99998C13.8024 10.5523 14.2501 11 14.8024 11H16.9331C16.4945 14.0679 14.0679 16.4945 11 16.9331V14.8023C11 14.2501 10.5523 13.8023 10 13.8023C9.44771 13.8023 9 14.2501 9 14.8023V16.9331C5.93211 16.4945 3.50545 14.0679 3.06688 11Z" fill="#192743"/>
</g>
<defs>
<clipPath id="clip0_1754_217">
<rect width="20" height="20" fill="white"/>
</clipPath>
</defs>
</svg>
