<svg width="20" height="20" viewBox="0 0 20 20" fill="none" xmlns="http://www.w3.org/2000/svg">
<path fill-rule="evenodd" clip-rule="evenodd" d="M4.7 0.75C2.62893 0.75 0.949995 2.42893 0.949995 4.5C0.949995 6.57107 2.62893 8.25 4.7 8.25C5.2263 8.25 5.72728 8.14158 6.18182 7.94585C6.69024 9.57084 8.20742 10.75 10 10.75C11.7926 10.75 13.3098 9.57084 13.8182 7.94585C14.2727 8.14158 14.7737 8.25 15.3 8.25C17.3711 8.25 19.05 6.57107 19.05 4.5C19.05 2.42893 17.3711 0.75 15.3 0.75C13.6963 0.75 12.3276 1.75674 11.7917 3.17272C11.2527 2.90225 10.6441 2.75 10 2.75C9.35588 2.75 8.74732 2.90225 8.20833 3.17272C7.67236 1.75674 6.30374 0.75 4.7 0.75ZM2.95 4.5C2.95 3.5335 3.7335 2.75 4.7 2.75C5.66649 2.75 6.45 3.5335 6.45 4.5C6.45 5.4665 5.66649 6.25 4.7 6.25C3.7335 6.25 2.95 5.4665 2.95 4.5ZM10 4.75C8.89543 4.75 8 5.64543 8 6.75C8 7.85457 8.89543 8.75 10 8.75C11.1046 8.75 12 7.85457 12 6.75C12 5.64543 11.1046 4.75 10 4.75ZM15.3 2.75C14.3335 2.75 13.55 3.5335 13.55 4.5C13.55 5.4665 14.3335 6.25 15.3 6.25C16.2665 6.25 17.05 5.4665 17.05 4.5C17.05 3.5335 16.2665 2.75 15.3 2.75Z" fill="#192743"/>
<path d="M4.53408 13.5899C5.21589 12.7635 6.18654 12.25 7.25 12.25H12.75C13.8135 12.25 14.7841 12.7635 15.4659 13.5899C16.1432 14.4109 16.5 15.4896 16.5 16.5833V18.25C16.5 18.8023 16.0523 19.25 15.5 19.25C14.9477 19.25 14.5 18.8023 14.5 18.25V16.5833C14.5 15.9089 14.2773 15.292 13.9232 14.8627C13.5735 14.4389 13.1452 14.25 12.75 14.25H7.25C6.85477 14.25 6.42647 14.4389 6.07683 14.8627C5.72267 15.292 5.5 15.9089 5.5 16.5833V18.25C5.5 18.8023 5.05228 19.25 4.5 19.25C3.94771 19.25 3.5 18.8023 3.5 18.25V16.5833C3.5 15.4896 3.85679 14.4109 4.53408 13.5899Z" fill="#192743"/>
<path d="M15.5317 10.6083C15.6698 10.0736 16.2152 9.75202 16.75 9.89009C17.6796 10.1301 18.5032 10.6721 19.0915 11.4309C19.6797 12.1898 19.9993 13.1225 20 14.0826V15.75C20 16.3023 19.5523 16.75 19 16.75C18.4477 16.75 18 16.3023 18 15.75V14.0838C17.9995 13.5669 17.8275 13.0648 17.5108 12.6563C17.194 12.2477 16.7506 11.9558 16.25 11.8266C15.7152 11.6885 15.3937 11.1431 15.5317 10.6083Z" fill="#192743"/>
<path d="M4.46825 10.6083C4.33017 10.0736 3.78475 9.75202 3.25 9.89009C2.32036 10.1301 1.49676 10.6721 0.908521 11.4309C0.320282 12.1898 0.000716686 13.1225 0 14.0826V15.75C0 16.3023 0.447715 16.75 1 16.75C1.55228 16.75 2 16.3023 2 15.75V14.0838C2.00045 13.5669 2.17252 13.0648 2.4892 12.6563C2.80595 12.2477 3.24942 11.9558 3.75 11.8266C4.28475 11.6885 4.60632 11.1431 4.46825 10.6083Z" fill="#192743"/>
</svg>
