<svg width="20" height="20" viewBox="0 0 20 20" fill="none" xmlns="http://www.w3.org/2000/svg">
<g clip-path="url(#clip0_134_4384)">
<path fill-rule="evenodd" clip-rule="evenodd" d="M9.99996 2.66675C5.94987 2.66675 2.66663 5.94999 2.66663 10.0001C2.66663 14.0502 5.94987 17.3334 9.99996 17.3334C14.05 17.3334 17.3333 14.0502 17.3333 10.0001C17.3333 5.94999 14.05 2.66675 9.99996 2.66675ZM0.666626 10.0001C0.666626 4.84542 4.8453 0.666748 9.99996 0.666748C15.1546 0.666748 19.3333 4.84542 19.3333 10.0001C19.3333 15.1547 15.1546 19.3334 9.99996 19.3334C4.8453 19.3334 0.666626 15.1547 0.666626 10.0001Z" fill="#192743"/>
<path fill-rule="evenodd" clip-rule="evenodd" d="M10.1869 6.85119C9.83773 6.7913 9.47866 6.85691 9.17326 7.0364C8.86786 7.21588 8.63584 7.49766 8.51829 7.83183C8.33501 8.35282 7.7641 8.62659 7.24311 8.44332C6.72212 8.26005 6.44834 7.68913 6.63162 7.16814C6.9059 6.38842 7.44729 5.73093 8.1599 5.31213C8.8725 4.89333 9.71033 4.74024 10.525 4.87997C11.3397 5.01971 12.0786 5.44325 12.6109 6.07559C13.1431 6.70778 13.4344 7.50788 13.4333 8.33424C13.4328 9.69792 12.4232 10.5835 11.738 11.0404C11.3649 11.2891 10.9988 11.4714 10.73 11.5909C10.5942 11.6512 10.4797 11.6971 10.3967 11.7287C10.3551 11.7446 10.3213 11.7569 10.2964 11.7658L10.2658 11.7765L10.2558 11.7799L10.2522 11.7811L10.2507 11.7816C10.2504 11.7817 10.2495 11.782 9.93328 10.8333L10.2495 11.782C9.72557 11.9566 9.15925 11.6735 8.9846 11.1495C8.81016 10.6262 9.09246 10.0606 9.61524 9.88524C9.61517 9.88527 9.61531 9.88522 9.61524 9.88524L9.62635 9.88134C9.63807 9.87717 9.65791 9.86998 9.68471 9.85977C9.73847 9.83929 9.81921 9.80706 9.91777 9.76326C10.1177 9.67439 10.3767 9.54418 10.6286 9.37627C11.1932 8.99987 11.4333 8.63579 11.4333 8.33332V8.33183C11.4338 7.97759 11.309 7.6346 11.0808 7.36359C10.8527 7.09259 10.536 6.91107 10.1869 6.85119Z" fill="#192743"/>
<path fill-rule="evenodd" clip-rule="evenodd" d="M9 14.1667C9 13.6145 9.44771 13.1667 10 13.1667H10.0083C10.5606 13.1667 11.0083 13.6145 11.0083 14.1667C11.0083 14.719 10.5606 15.1667 10.0083 15.1667H10C9.44771 15.1667 9 14.719 9 14.1667Z" fill="#192743"/>
</g>
<defs>
<clipPath id="clip0_134_4384">
<rect width="20" height="20" fill="white"/>
</clipPath>
</defs>
</svg>
