<svg width="20" height="20" viewBox="0 0 20 20" fill="none" xmlns="http://www.w3.org/2000/svg">
<g clip-path="url(#clip0_134_4246)">
<path fill-rule="evenodd" clip-rule="evenodd" d="M11 7.36519C12.5856 6.92757 13.75 5.47477 13.75 3.75C13.75 1.67893 12.0711 0 10 0C7.92893 0 6.25 1.67893 6.25 3.75C6.25 5.47477 7.41441 6.92757 9 7.36519V9H5.75C4.09315 9 2.75 10.3431 2.75 12V12.5C2.75 12.5449 2.75296 12.5891 2.75869 12.6324C1.16866 13.0671 0 14.5221 0 16.25C0 18.3211 1.67893 20 3.75 20C5.82107 20 7.5 18.3211 7.5 16.25C7.5 14.5221 6.33134 13.0671 4.74131 12.6324C4.74704 12.5891 4.75 12.5449 4.75 12.5V12C4.75 11.4477 5.19772 11 5.75 11H14.25C14.8023 11 15.25 11.4477 15.25 12V12.5C15.25 12.5449 15.253 12.5891 15.2587 12.6324C13.6687 13.0671 12.5 14.5221 12.5 16.25C12.5 18.3211 14.1789 20 16.25 20C18.3211 20 20 18.3211 20 16.25C20 14.5221 18.8313 13.0671 17.2413 12.6324C17.247 12.5891 17.25 12.5449 17.25 12.5V12C17.25 10.3431 15.9069 9 14.25 9H11V7.36519ZM10 5.5C10.9665 5.5 11.75 4.7165 11.75 3.75C11.75 2.7835 10.9665 2 10 2C9.0335 2 8.25 2.7835 8.25 3.75C8.25 4.7165 9.0335 5.5 10 5.5ZM3.75 18C4.7165 18 5.5 17.2165 5.5 16.25C5.5 15.2835 4.7165 14.5 3.75 14.5C2.7835 14.5 2 15.2835 2 16.25C2 17.2165 2.7835 18 3.75 18ZM18 16.25C18 17.2165 17.2165 18 16.25 18C15.2835 18 14.5 17.2165 14.5 16.25C14.5 15.2835 15.2835 14.5 16.25 14.5C17.2165 14.5 18 15.2835 18 16.25Z" fill="#192743"/>
</g>
<defs>
<clipPath id="clip0_134_4246">
<rect width="20" height="20" fill="white"/>
</clipPath>
</defs>
</svg>
