<svg width="20" height="20" viewBox="0 0 20 20" fill="none" xmlns="http://www.w3.org/2000/svg">
<path d="M5.36358 2.2636C5.71505 1.91213 6.2849 1.91213 6.63637 2.2636L9.13637 4.7636C9.48784 5.11508 9.48784 5.68492 9.13637 6.0364C8.7849 6.38787 8.21505 6.38787 7.86358 6.0364L6.89998 5.07279V10.9C6.89998 11.3971 6.49703 11.8 5.99998 11.8C5.50292 11.8 5.09998 11.3971 5.09998 10.9V5.07279L4.13637 6.0364C3.7849 6.38787 3.21505 6.38787 2.86358 6.0364C2.51211 5.68492 2.51211 5.11508 2.86358 4.7636L5.36358 2.2636Z" fill="#192743"/>
<path d="M2 11.4C2.55228 11.4 3 11.8477 3 12.4V15.7333C3 15.9101 3.07024 16.0797 3.19526 16.2047C3.32029 16.3298 3.48986 16.4 3.66667 16.4H15.3333C15.5101 16.4 15.6797 16.3298 15.8047 16.2047C15.9298 16.0797 16 15.9101 16 15.7333V12.4C16 11.8477 16.4477 11.4 17 11.4C17.5523 11.4 18 11.8477 18 12.4V15.7333C18 16.4406 17.719 17.1189 17.219 17.619C16.7189 18.119 16.0406 18.4 15.3333 18.4H3.66667C2.95942 18.4 2.28115 18.119 1.78105 17.619C1.28095 17.1189 1 16.4406 1 15.7333V12.4C1 11.8477 1.44772 11.4 2 11.4Z" fill="#192743"/>
<path d="M16.1364 9.0364L13.6364 11.5364C13.2849 11.8879 12.7151 11.8879 12.3636 11.5364L9.86358 9.0364C9.51211 8.68493 9.51211 8.11508 9.86358 7.76361C10.2151 7.41214 10.7849 7.41214 11.1364 7.76361L12.1 8.72721V2.9C12.1 2.40294 12.5029 2 13 2C13.497 2 13.9 2.40294 13.9 2.9V8.72721L14.8636 7.76361C15.2151 7.41214 15.7849 7.41214 16.1364 7.76361C16.4878 8.11508 16.4878 8.68493 16.1364 9.0364Z" fill="#192743"/>
</svg>
