<svg width="20" height="20" viewBox="0 0 20 20" fill="none" xmlns="http://www.w3.org/2000/svg">
<path fill-rule="evenodd" clip-rule="evenodd" d="M18.2071 0.95955C18.5976 1.35007 18.5976 1.98324 18.2071 2.37376L17.2475 3.33332L19.0404 5.12622C19.228 5.31375 19.3333 5.56811 19.3333 5.83332C19.3333 6.09854 19.228 6.35289 19.0404 6.54043L16.1238 9.4571C15.9362 9.64463 15.6819 9.74999 15.4166 9.74999C15.1514 9.74999 14.8971 9.64463 14.7095 9.4571L12.9167 7.6642L10.846 9.73487C11.0732 10.0594 11.2659 10.408 11.4201 10.775C11.7053 11.4539 11.8534 12.1825 11.8558 12.9188C11.8583 13.6552 11.7151 14.3848 11.4344 15.0655C11.1538 15.7463 10.7412 16.3649 10.2205 16.8855C9.69986 17.4062 9.08132 17.8188 8.40054 18.0994C7.71976 18.3801 6.99018 18.5233 6.25383 18.5208C5.51747 18.5184 4.78887 18.3703 4.10999 18.0851C3.4311 17.7999 2.81534 17.3832 2.29816 16.859L2.29066 16.8514C1.27361 15.7984 0.710879 14.388 0.7236 12.924C0.736321 11.4601 1.32351 10.0597 2.35871 9.02455C3.3939 7.98935 4.79427 7.40216 6.25821 7.38944C7.38986 7.3796 8.4895 7.71366 9.41681 8.33562L16.7929 0.95955C17.1834 0.569025 17.8166 0.569025 18.2071 0.95955ZM8.81978 10.4173C8.8118 10.41 8.8039 10.4026 8.79611 10.3951C8.12028 9.74238 7.21512 9.3812 6.27558 9.38936C5.33605 9.39753 4.4373 9.77438 3.77292 10.4388C3.10854 11.1031 2.73169 12.0019 2.72352 12.9414C2.71538 13.8792 3.07517 14.7827 3.72555 15.4581C4.0567 15.7927 4.45056 16.0588 4.88463 16.2412C5.32033 16.4242 5.78794 16.5193 6.26053 16.5209C6.73312 16.5224 7.20135 16.4305 7.63827 16.2504C8.07519 16.0703 8.47216 15.8055 8.80633 15.4713C9.1405 15.1372 9.40527 14.7402 9.58539 14.3033C9.76551 13.8664 9.85743 13.3981 9.85585 12.9255C9.85426 12.4529 9.75921 11.9853 9.57617 11.5496C9.39869 11.1272 9.14188 10.7428 8.81978 10.4173ZM14.3309 6.24999L15.4166 7.33578L16.9191 5.83332L15.8333 4.74754L14.3309 6.24999Z" fill="#192743"/>
</svg>
