<svg width="20" height="20" viewBox="0 0 20 20" fill="none" xmlns="http://www.w3.org/2000/svg">
<path fill-rule="evenodd" clip-rule="evenodd" d="M7.0668 8.4699C8.0289 7.4276 8.7906 6.1715 9.3652 4.6615H4.6748C5.2494 6.1047 6.0378 7.3875 7.0668 8.4699ZM13.1603 4.1047C13.1603 4.4122 12.9111 4.6615 12.6035 4.6615H11.2361C10.5145 6.6392 9.539 8.2561 8.3096 9.5924C8.8834 10.2605 9.7739 10.8758 10.7807 11.1975C11.136 11.3111 11.3431 11.7104 11.1817 12.0467C11.0433 12.335 10.9565 12.5201 10.8275 12.7954C10.8124 12.8276 10.7967 12.8611 10.7803 12.8961C10.6498 13.1746 10.3164 13.2953 10.0434 13.1536C9.0007 12.6125 8.4719 12.1506 7.6737 11.4536C7.4636 11.2701 7.2349 11.0703 6.9733 10.8486C5.6304 11.9204 4.0603 12.7424 2.2317 13.3668C1.9647 13.458 1.6723 13.3282 1.5284 13.0855C1.45 12.9532 1.3621 12.8135 1.2712 12.6759C1.0471 12.3366 1.2089 11.8516 1.597 11.7301C3.2129 11.2243 4.6025 10.5396 5.7572 9.6592C4.5546 8.2829 3.6325 6.6125 2.9109 4.6615H1.5568C1.2493 4.6615 1 4.4122 1 4.1047V3.6682C1 3.3606 1.2493 3.1114 1.5568 3.1114H6.2383V1.5568C6.2383 1.2493 6.4876 1 6.7951 1H7.2984C7.6059 1 7.8552 1.2493 7.8552 1.5568V3.1114H12.6035C12.9111 3.1114 13.1603 3.3606 13.1603 3.6682V4.1047ZM13.1317 17.0425H16.5638L17.0952 18.6209C17.1715 18.8474 17.3838 19 17.6229 19H18.5013C18.89 19 19.159 18.612 19.0228 18.248L15.8835 9.8613C15.8021 9.6438 15.5943 9.4997 15.3621 9.4997H14.3211C14.0885 9.4997 13.8805 9.6443 13.7993 9.8623L10.6773 18.249C10.5419 18.6128 10.811 19 11.1992 19H12.0779C12.3176 19 12.5303 18.8466 12.6061 18.6193L13.1317 17.0425ZM16.0353 15.457H13.6602L14.8412 11.9009L16.0353 15.457Z" fill="#192743"/>
</svg>
