<svg width="20" height="20" viewBox="0 0 20 20" fill="none" xmlns="http://www.w3.org/2000/svg">
<path d="M9.47 1.152C9.79427 0.949333 10.2057 0.949333 10.53 1.152L18.53 6.152C18.8224 6.33474 19 6.65521 19 7C19 7.34479 18.8224 7.66526 18.53 7.848L16.0638 9.38938L14.1994 8.19615L16.1132 7L10 3.17925L3.8868 7L5.80063 8.19614L3.93621 9.38938L1.47 7.848C1.17762 7.66526 1 7.34479 1 7C1 6.65521 1.17762 6.33474 1.47 6.152L9.47 1.152Z" fill="#192743"/>
<path d="M14.8481 13.378C15.1408 12.9097 14.9985 12.2927 14.5301 12L10.0001 9L5.47013 12C5.0018 12.2927 4.85943 12.9097 5.15214 13.378C5.44485 13.8463 6.0618 13.9887 6.53013 13.696L9.00012 12.1523V18.3479C9.00012 18.9002 9.44784 19.3479 10.0001 19.3479C10.5524 19.3479 11.0001 18.9002 11.0001 18.3479L11.0001 12.1523L13.4701 13.696C13.9385 13.9887 14.5554 13.8463 14.8481 13.378Z" fill="#192743"/>
</svg>
