<svg width="20" height="20" viewBox="0 0 20 20" fill="none" xmlns="http://www.w3.org/2000/svg">
<path d="M2.5 4C1.94772 4 1.5 4.44772 1.5 5C1.5 5.55228 1.94772 6 2.5 6H2.507C3.05928 6 3.507 5.55228 3.507 5C3.507 4.44772 3.05928 4 2.507 4H2.5Z" fill="#192743"/>
<path d="M6.66669 4C6.1144 4 5.66669 4.44772 5.66669 5C5.66669 5.55228 6.1144 6 6.66669 6H17.5C18.0523 6 18.5 5.55228 18.5 5C18.5 4.44772 18.0523 4 17.5 4H6.66669Z" fill="#192743"/>
<path d="M6.66669 9C6.1144 9 5.66669 9.44772 5.66669 10C5.66669 10.5523 6.1144 11 6.66669 11H17.5C18.0523 11 18.5 10.5523 18.5 10C18.5 9.44772 18.0523 9 17.5 9H6.66669Z" fill="#192743"/>
<path d="M5.66669 15C5.66669 14.4477 6.1144 14 6.66669 14H17.5C18.0523 14 18.5 14.4477 18.5 15C18.5 15.5523 18.0523 16 17.5 16H6.66669C6.1144 16 5.66669 15.5523 5.66669 15Z" fill="#192743"/>
<path d="M1.5 10C1.5 9.44772 1.94772 9 2.5 9H2.507C3.05928 9 3.507 9.44772 3.507 10C3.507 10.5523 3.05928 11 2.507 11H2.5C1.94772 11 1.5 10.5523 1.5 10Z" fill="#192743"/>
<path d="M2.5 14C1.94772 14 1.5 14.4477 1.5 15C1.5 15.5523 1.94772 16 2.5 16H2.507C3.05928 16 3.507 15.5523 3.507 15C3.507 14.4477 3.05928 14 2.507 14H2.5Z" fill="#192743"/>
</svg>
