<svg width="20" height="20" viewBox="0 0 20 20" fill="none" xmlns="http://www.w3.org/2000/svg">
<path fill-rule="evenodd" clip-rule="evenodd" d="M8.21478 4.70045C8.6803 4.2571 9.32164 4 10 4C10.6784 4 11.3197 4.2571 11.7852 4.70045C12.2491 5.14222 12.5 5.73067 12.5 6.33333V8H7.5V6.33333C7.5 5.73067 7.75092 5.14222 8.21478 4.70045ZM5.5 8V6.33333C5.5 5.16788 5.98657 4.06065 6.83547 3.25217C7.68271 2.44528 8.82184 2 10 2C11.1782 2 12.3173 2.44528 13.1645 3.25217C14.0134 4.06065 14.5 5.16788 14.5 6.33333V8H15.0556C16.5192 8 17.5 9.30123 17.5 10.6364V16.3636C17.5 17.6988 16.5192 19 15.0556 19H4.94444C3.48083 19 2.5 17.6988 2.5 16.3636V10.6364C2.5 9.30123 3.48083 8 4.94444 8H5.5ZM13.5 10H6.5H4.94444C4.86524 10 4.7672 10.0341 4.67277 10.1411C4.57666 10.2499 4.5 10.4221 4.5 10.6364V16.3636C4.5 16.5779 4.57666 16.7501 4.67277 16.8589C4.7672 16.9659 4.86524 17 4.94444 17H15.0556C15.1348 17 15.2328 16.9659 15.3272 16.8589C15.4233 16.7501 15.5 16.5779 15.5 16.3636V10.6364C15.5 10.4221 15.4233 10.2499 15.3272 10.1411C15.2328 10.0341 15.1348 10 15.0556 10H13.5Z" fill="#192743"/>
</svg>
