<svg width="20" height="20" viewBox="0 0 20 20" fill="none" xmlns="http://www.w3.org/2000/svg">
<path fill-rule="evenodd" clip-rule="evenodd" d="M11.7934 2.39828C12.4258 2.13536 13.1039 2 13.7887 2C14.4735 2 15.1516 2.13536 15.7841 2.39828C16.4164 2.66112 16.9907 3.04627 17.4743 3.53156C17.9582 4.01677 18.3419 4.5927 18.6036 5.22636C18.8653 5.86001 19 6.53908 19 7.22479C19 7.91049 18.8653 8.58956 18.6036 9.22321C18.3419 9.8568 17.9583 10.4327 17.4745 10.9178C17.4744 10.9179 17.4745 10.9178 17.4745 10.9178L10.708 17.706C10.5204 17.8942 10.2656 18 9.9998 18C9.73403 18 9.47919 17.8942 9.29156 17.706L2.5251 10.9178C1.54823 9.93784 1 8.60935 1 7.22479C1 5.84023 1.54823 4.51173 2.5251 3.53173C3.50209 2.55161 4.82784 2.00041 6.21089 2.00041C7.59393 2.00041 8.91969 2.55161 9.89667 3.53173L9.9998 3.63518L10.1028 3.53189C10.1027 3.53195 10.1028 3.53184 10.1028 3.53189C10.5864 3.04652 11.1609 2.66115 11.7934 2.39828ZM16.0578 4.94351C15.7596 4.64418 15.4057 4.4069 15.0164 4.24508C14.6271 4.08325 14.2099 4 13.7887 4C13.3675 4 12.9503 4.08325 12.561 4.24508C12.1717 4.4069 11.8178 4.64418 11.5196 4.94351L10.708 5.75764C10.5204 5.94587 10.2656 6.05166 9.9998 6.05166C9.73403 6.05166 9.47919 5.94587 9.29156 5.75764L8.4802 4.94368C7.87779 4.33934 7.06143 4.00041 6.21089 4.00041C5.36034 4.00041 4.54398 4.33934 3.94158 4.94368C3.33906 5.54812 3 6.3686 3 7.22479C3 8.08097 3.33906 8.90145 3.94158 9.5059L9.9998 15.5835L16.058 9.5059C16.3564 9.2067 16.5934 8.85112 16.7551 8.45971C16.9167 8.0683 17 7.64866 17 7.22479C17 6.80092 16.9167 6.38127 16.7551 5.98986C16.5934 5.59845 16.3562 5.2427 16.0578 4.94351Z" fill="#192743"/>
</svg>
