<svg width="20" height="20" viewBox="0 0 20 20" fill="none" xmlns="http://www.w3.org/2000/svg">
<path d="M8.99448 3.50597L8.57749 2.67297L8.16049 3.50597L7.32749 3.60997L8.02248 4.19997L7.74448 5.17297L8.57749 4.61797L9.41049 5.17297L9.13249 4.19997L9.82749 3.60997L8.99448 3.50597ZM15.9395 12.394L15.2445 11.006L14.5495 12.394L13.1615 12.568L14.3185 13.552L13.8555 15.173L15.2435 14.247L16.6325 15.173L16.1695 13.553L17.3275 12.569L15.9395 12.394ZM5.38349 5.45097L4.82749 4.33997L4.27149 5.45097L3.16049 5.58997L4.08649 6.37697L3.71649 7.67297L4.82749 6.93197L5.93849 7.67297L5.56849 6.37597L6.49449 5.58997L5.38349 5.45097ZM2.67249 14.34C2.67249 14.785 2.84549 15.203 3.16049 15.518L4.48249 16.84C4.79749 17.155 5.21549 17.328 5.66049 17.328C6.10549 17.328 6.52349 17.155 6.83849 16.84L16.4945 7.18497C16.8095 6.86997 16.9825 6.45197 16.9825 6.00697C16.9825 5.56197 16.8095 5.14297 16.4945 4.82797L15.1725 3.50597C14.5425 2.87597 13.4455 2.87597 12.8155 3.50597L3.16049 13.161C2.84549 13.476 2.67249 13.895 2.67249 14.34ZM13.9945 4.68497L15.3155 6.00597L12.3275 8.99497L11.0055 7.67297L13.9945 4.68497Z" fill="#192743"/>
</svg>
