<svg width="20" height="20" viewBox="0 0 20 20" fill="none" xmlns="http://www.w3.org/2000/svg">
<path fill-rule="evenodd" clip-rule="evenodd" d="M2.81529 4.58337C2.93815 4.43148 3.12564 4.33331 3.33329 4.33331H16.6666C16.8743 4.33331 17.0618 4.43152 17.1847 4.58345L10 9.6127L2.81529 4.58337ZM2.66663 6.92062V15C2.66663 15.3644 2.96891 15.6666 3.33329 15.6666H16.6666C17.031 15.6666 17.3333 15.3644 17.3333 15V6.92074L10.5735 11.6526C10.2292 11.8936 9.7709 11.8936 9.42658 11.6526L2.66663 6.92062ZM19.3333 5.01769V15C19.3333 16.4689 18.1356 17.6666 16.6666 17.6666H3.33329C1.86434 17.6666 0.666626 16.4689 0.666626 15V4.99998C0.666626 3.53103 1.86434 2.33331 3.33329 2.33331H16.6666C18.1273 2.33331 19.3198 3.51763 19.3332 4.97529C19.3335 4.98943 19.3336 5.00356 19.3333 5.01769Z" fill="#192743"/>
</svg>
