<svg width="20" height="20" viewBox="0 0 20 20" fill="none" xmlns="http://www.w3.org/2000/svg">
<path fill-rule="evenodd" clip-rule="evenodd" d="M2 5C2 4.44772 2.51167 4 3.14286 4H16.8571C17.4883 4 18 4.44772 18 5C18 5.55228 17.4883 6 16.8571 6H3.14286C2.51167 6 2 5.55228 2 5ZM2 10C2 9.44772 2.51167 9 3.14286 9H16.8571C17.4883 9 18 9.44772 18 10C18 10.5523 17.4883 11 16.8571 11H3.14286C2.51167 11 2 10.5523 2 10ZM3.14286 14C2.51167 14 2 14.4477 2 15C2 15.5523 2.51167 16 3.14286 16H16.8571C17.4883 16 18 15.5523 18 15C18 14.4477 17.4883 14 16.8571 14H3.14286Z" fill="#192743"/>
</svg>
