<svg width="20" height="20" viewBox="0 0 20 20" fill="none" xmlns="http://www.w3.org/2000/svg">
<path fill-rule="evenodd" clip-rule="evenodd" d="M2.33337 11.6667C2.33337 11.1144 2.78109 10.6667 3.33337 10.6667H8.33337C8.88566 10.6667 9.33337 11.1144 9.33337 11.6667V16.6667C9.33337 17.219 8.88566 17.6667 8.33337 17.6667C7.78109 17.6667 7.33337 17.219 7.33337 16.6667V12.6667H3.33337C2.78109 12.6667 2.33337 12.219 2.33337 11.6667Z" fill="#192743"/>
<path fill-rule="evenodd" clip-rule="evenodd" d="M11.6666 2.33331C12.2189 2.33331 12.6666 2.78103 12.6666 3.33331V7.33331H16.6666C17.2189 7.33331 17.6666 7.78103 17.6666 8.33331C17.6666 8.8856 17.2189 9.33331 16.6666 9.33331H11.6666C11.1143 9.33331 10.6666 8.8856 10.6666 8.33331V3.33331C10.6666 2.78103 11.1143 2.33331 11.6666 2.33331Z" fill="#192743"/>
<path fill-rule="evenodd" clip-rule="evenodd" d="M18.2071 1.79289C18.5976 2.18342 18.5976 2.81658 18.2071 3.20711L12.3737 9.04044C11.9832 9.43096 11.35 9.43096 10.9595 9.04044C10.569 8.64992 10.569 8.01675 10.9595 7.62623L16.7929 1.79289C17.1834 1.40237 17.8165 1.40237 18.2071 1.79289Z" fill="#192743"/>
<path fill-rule="evenodd" clip-rule="evenodd" d="M9.04044 10.9596C9.43096 11.3501 9.43096 11.9833 9.04044 12.3738L3.20711 18.2071C2.81658 18.5977 2.18342 18.5977 1.79289 18.2071C1.40237 17.8166 1.40237 17.1834 1.79289 16.7929L7.62623 10.9596C8.01675 10.5691 8.64992 10.5691 9.04044 10.9596Z" fill="#192743"/>
</svg>
