<svg width="20" height="20" viewBox="0 0 20 20" fill="none" xmlns="http://www.w3.org/2000/svg">
<path d="M8.99997 15C8.99997 14.4477 9.44768 14 9.99997 14H10.0083C10.5606 14 11.0083 14.4477 11.0083 15C11.0083 15.5523 10.5606 16 10.0083 16H9.99997C9.44768 16 8.99997 15.5523 8.99997 15Z" fill="#192743"/>
<path fill-rule="evenodd" clip-rule="evenodd" d="M3.16663 3.33332C3.16663 1.86056 4.36053 0.666656 5.83329 0.666656H14.1666C15.6394 0.666656 16.8333 1.86056 16.8333 3.33332V16.6667C16.8333 18.1394 15.6394 19.3333 14.1666 19.3333H5.83329C4.36053 19.3333 3.16663 18.1394 3.16663 16.6667V3.33332ZM5.83329 2.66666C5.4651 2.66666 5.16663 2.96513 5.16663 3.33332V16.6667C5.16663 17.0348 5.4651 17.3333 5.83329 17.3333H14.1666C14.5348 17.3333 14.8333 17.0348 14.8333 16.6667V3.33332C14.8333 2.96513 14.5348 2.66666 14.1666 2.66666H5.83329Z" fill="#192743"/>
</svg>
