<svg width="20" height="20" viewBox="0 0 20 20" fill="none" xmlns="http://www.w3.org/2000/svg">
<path fill-rule="evenodd" clip-rule="evenodd" d="M10.1459 3.09439C10.3802 2.77742 10.4064 2.35239 10.2129 2.00901C10.0194 1.66563 9.64217 1.46796 9.24969 1.50423C7.64205 1.6528 6.10997 2.25614 4.83272 3.24366C3.55547 4.23119 2.58588 5.56204 2.0374 7.08051C1.48892 8.59898 1.38424 10.2422 1.7356 11.818C2.08696 13.3938 2.87984 14.837 4.02145 15.9786C5.16307 17.1202 6.6062 17.9131 8.18199 18.2644C9.75778 18.6158 11.4011 18.5111 12.9195 17.9626C14.438 17.4141 15.7688 16.4446 16.7564 15.1673C17.7439 13.8901 18.3472 12.358 18.4958 10.7503C18.5321 10.3579 18.3344 9.98067 17.991 9.78715C17.6476 9.59362 17.2226 9.61986 16.9056 9.85416C15.9747 10.5423 14.8277 10.8734 13.6732 10.7873C12.5188 10.7012 11.4336 10.2036 10.615 9.38504C9.79639 8.56646 9.2988 7.48125 9.21271 6.3268C9.12662 5.17235 9.45775 4.02534 10.1459 3.09439ZM6.05605 4.8259C6.4993 4.48319 6.98269 4.20099 7.49339 3.98434C7.25077 4.78442 7.15509 5.62856 7.21825 6.47553C7.33997 8.10769 8.04345 9.64195 9.20077 10.7993C10.3581 11.9566 11.8923 12.6601 13.5245 12.7818C14.3715 12.8449 15.2156 12.7493 16.0157 12.5066C15.799 13.0173 15.5168 13.5007 15.1741 13.944C14.419 14.9207 13.4012 15.6622 12.2401 16.0816C11.0789 16.501 9.82227 16.5811 8.61726 16.3124C7.41224 16.0437 6.30867 15.4374 5.43567 14.5644C4.56267 13.6914 3.95635 12.5878 3.68766 11.3828C3.41897 10.1778 3.49902 8.92114 3.91845 7.75996C4.33787 6.59878 5.07933 5.58106 6.05605 4.8259Z" fill="#192743"/>
</svg>
