<svg width="20" height="20" viewBox="0 0 20 20" fill="none" xmlns="http://www.w3.org/2000/svg">
<path fill-rule="evenodd" clip-rule="evenodd" d="M10 5.75C8.89543 5.75 8 4.85457 8 3.75C8 2.64543 8.89543 1.75 10 1.75C11.1046 1.75 12 2.64543 12 3.75C12 4.85457 11.1046 5.75 10 5.75ZM10 12C8.89543 12 8 11.1046 8 10C8 8.89543 8.89543 8 10 8C11.1046 8 12 8.89543 12 10C12 11.1046 11.1046 12 10 12ZM8 16.25C8 17.3546 8.89543 18.25 10 18.25C11.1046 18.25 12 17.3546 12 16.25C12 15.1454 11.1046 14.25 10 14.25C8.89543 14.25 8 15.1454 8 16.25Z" fill="#192743"/>
</svg>
