<svg width="20" height="20" viewBox="0 0 20 20" fill="none" xmlns="http://www.w3.org/2000/svg">
<path fill-rule="evenodd" clip-rule="evenodd" d="M19 10C19 14.9706 14.9706 19 10 19C5.02944 19 1 14.9706 1 10C1 5.02944 5.02944 1 10 1C14.9706 1 19 5.02944 19 10ZM7.37501 8.50002C7.99633 8.50002 8.50001 7.99634 8.50001 7.37502C8.50001 6.7537 7.99633 6.25002 7.37501 6.25002C6.75369 6.25002 6.25001 6.7537 6.25001 7.37502C6.25001 7.99634 6.75369 8.50002 7.37501 8.50002ZM12.3519 14.4907C12.5604 14.8486 13.0196 14.9697 13.3775 14.7612C13.7354 14.5527 13.8565 14.0936 13.648 13.7356C12.9769 12.5837 11.5389 11.8906 9.99996 11.8906C8.46103 11.8906 7.02298 12.5837 6.35189 13.7356C6.14338 14.0936 6.2645 14.5527 6.62241 14.7612C6.98032 14.9697 7.43949 14.8486 7.64799 14.4907C7.9868 13.9091 8.85518 13.3906 9.99996 13.3906C11.1447 13.3906 12.0131 13.9091 12.3519 14.4907ZM12.625 8.50002C13.2463 8.50002 13.75 7.99634 13.75 7.37502C13.75 6.7537 13.2463 6.25002 12.625 6.25002C12.0037 6.25002 11.5 6.7537 11.5 7.37502C11.5 7.99634 12.0037 8.50002 12.625 8.50002Z" fill="#192743"/>
</svg>
