<svg width="20" height="20" viewBox="0 0 20 20" fill="none" xmlns="http://www.w3.org/2000/svg">
<path fill-rule="evenodd" clip-rule="evenodd" d="M10 19C14.9706 19 19 14.9706 19 10C19 5.02944 14.9706 1 10 1C5.02944 1 1 5.02944 1 10C1 14.9706 5.02944 19 10 19ZM8.50009 7.37501C8.50009 7.99633 7.99641 8.50001 7.37509 8.50001C6.75377 8.50001 6.25009 7.99633 6.25009 7.37501C6.25009 6.75369 6.75377 6.25001 7.37509 6.25001C7.99641 6.25001 8.50009 6.75369 8.50009 7.37501ZM6.62259 11.9917C6.9805 11.7832 7.43967 11.9043 7.64818 12.2623C7.98699 12.8438 8.85537 13.3623 10.0001 13.3623C11.1449 13.3623 12.0133 12.8438 12.3521 12.2623C12.5606 11.9043 13.0198 11.7832 13.3777 11.9917C13.7356 12.2002 13.8567 12.6594 13.6482 13.0173C12.9771 14.1693 11.5391 14.8623 10.0001 14.8623C8.46121 14.8623 7.02317 14.1693 6.35207 13.0173C6.14357 12.6594 6.26468 12.2002 6.62259 11.9917ZM13.7501 7.37501C13.7501 7.99633 13.2464 8.50001 12.6251 8.50001C12.0038 8.50001 11.5001 7.99633 11.5001 7.37501C11.5001 6.75369 12.0038 6.25001 12.6251 6.25001C13.2464 6.25001 13.7501 6.75369 13.7501 7.37501Z" fill="#192743"/>
</svg>
