<svg width="20" height="20" viewBox="0 0 20 20" fill="none" xmlns="http://www.w3.org/2000/svg">
<g clip-path="url(#clip0_22632_37630)">
<path d="M10 1.03312e-06C4.47716 5.50298e-07 3.2644e-06 4.47715 2.78158e-06 10C2.29875e-06 15.5228 4.47715 20 10 20C15.5228 20 20 15.5228 20 10C20 4.47715 15.5229 1.51594e-06 10 1.03312e-06Z" fill="#3174DB"/>
<path fill-rule="evenodd" clip-rule="evenodd" d="M9.99967 14.1665C9.53944 14.1665 9.16634 13.7934 9.16634 13.3332L9.16634 9.99984C9.16634 9.5396 9.53944 9.1665 9.99967 9.1665C10.4599 9.1665 10.833 9.5396 10.833 9.99984L10.833 13.3332C10.833 13.7934 10.4599 14.1665 9.99967 14.1665Z" fill="white"/>
<path fill-rule="evenodd" clip-rule="evenodd" d="M10.833 6.66667C10.833 7.1269 10.4599 7.5 9.99967 7.5L9.99134 7.5C9.5311 7.5 9.15801 7.1269 9.15801 6.66667C9.15801 6.20643 9.5311 5.83333 9.99134 5.83333L9.99967 5.83333C10.4599 5.83333 10.833 6.20643 10.833 6.66667Z" fill="white"/>
</g>
<defs>
<clipPath id="clip0_22632_37630">
<rect width="20" height="20" fill="white" transform="translate(20 20) rotate(-180)"/>
</clipPath>
</defs>
</svg>
