<svg width="20" height="20" viewBox="0 0 20 20" fill="none" xmlns="http://www.w3.org/2000/svg">
<path d="M10 20C15.5228 20 20 15.5228 20 10C20 4.47715 15.5228 1.35705e-06 10 8.74228e-07C4.47715 3.91405e-07 -3.91405e-07 4.47715 -8.74228e-07 10C-1.35705e-06 15.5228 4.47715 20 10 20Z" fill="#278747"/>
<path fill-rule="evenodd" clip-rule="evenodd" d="M13.6872 7.39645C13.8825 7.59171 13.8825 7.90829 13.6872 8.10355L9.10388 12.6869C8.90862 12.8821 8.59203 12.8821 8.39677 12.6869L6.31344 10.6036C6.11818 10.4083 6.11818 10.0917 6.31344 9.89645C6.5087 9.70118 6.82528 9.70118 7.02055 9.89645L8.75032 11.6262L12.9801 7.39645C13.1754 7.20119 13.4919 7.20119 13.6872 7.39645Z" fill="white"/>
</svg>
