<svg width="20" height="20" viewBox="0 0 20 20" fill="none" xmlns="http://www.w3.org/2000/svg">
<g clip-path="url(#clip0_22632_37625)">
<path d="M10 20C15.5228 20 20 15.5228 20 10C20 4.47715 15.5228 0 10 0C4.47715 0 0 4.47715 0 10C0 15.5228 4.47715 20 10 20Z" fill="#FA8324"/>
<path fill-rule="evenodd" clip-rule="evenodd" d="M10.0003 5.8335C10.4606 5.8335 10.8337 6.20659 10.8337 6.66683V10.0002C10.8337 10.4604 10.4606 10.8335 10.0003 10.8335C9.54009 10.8335 9.16699 10.4604 9.16699 10.0002V6.66683C9.16699 6.20659 9.54009 5.8335 10.0003 5.8335Z" fill="white"/>
<path fill-rule="evenodd" clip-rule="evenodd" d="M9.16699 13.3333C9.16699 12.8731 9.54009 12.5 10.0003 12.5H10.0087C10.4689 12.5 10.842 12.8731 10.842 13.3333C10.842 13.7936 10.4689 14.1667 10.0087 14.1667H10.0003C9.54009 14.1667 9.16699 13.7936 9.16699 13.3333Z" fill="white"/>
</g>
<defs>
<clipPath id="clip0_22632_37625">
<rect width="20" height="20" fill="white"/>
</clipPath>
</defs>
</svg>
