<svg width="20" height="20" viewBox="0 0 20 20" fill="none" xmlns="http://www.w3.org/2000/svg">
<path d="M0.5 16.4511V14.1817C0.5 13.5701 0.658335 13.047 0.975 12.6125C1.29166 12.1779 1.7 11.848 2.2 11.6226C3.31665 11.1398 4.3875 10.7776 5.4125 10.5362C6.4375 10.2948 7.46665 10.1741 8.5 10.1741C8.93335 10.1741 9.35415 10.1942 9.7625 10.2344C10.1708 10.2747 10.5916 10.335 11.025 10.4155C10.9416 11.349 11.1208 12.2302 11.5625 13.0591C12.0041 13.888 12.65 14.5358 13.5 15.0025V16.4511H0.5ZM16.5 20L15 18.5515V14.061C14.2666 13.8518 13.6666 13.4534 13.2 12.8659C12.7333 12.2785 12.5 11.5985 12.5 10.8259C12.5 9.89244 12.8417 9.09574 13.525 8.43583C14.2083 7.77593 15.0333 7.446 16 7.446C16.9667 7.446 17.7916 7.77593 18.475 8.43583C19.1583 9.09574 19.5 9.89244 19.5 10.8259C19.5 11.5502 19.2875 12.194 18.8625 12.7573C18.4375 13.3206 17.9 13.723 17.25 13.9644L18.5 15.1715L17 16.6201L18.5 18.0686L16.5 20ZM8.5 8.24269C7.45 8.24269 6.5625 7.89263 5.8375 7.1925C5.1125 6.49238 4.75 5.63532 4.75 4.62135C4.75 3.60737 5.1125 2.75032 5.8375 2.05019C6.5625 1.35006 7.45 1 8.5 1C9.55 1 10.4375 1.35006 11.1625 2.05019C11.8875 2.75032 12.25 3.60737 12.25 4.62135C12.25 5.63532 11.8875 6.49238 11.1625 7.1925C10.4375 7.89263 9.55 8.24269 8.5 8.24269ZM16 11.3088C16.2833 11.3088 16.5208 11.2162 16.7125 11.0311C16.9041 10.8461 17 10.6167 17 10.3431C17 10.0694 16.9041 9.84009 16.7125 9.65502C16.5208 9.46994 16.2833 9.37738 16 9.37738C15.7166 9.37738 15.4791 9.46994 15.2875 9.65502C15.0958 9.84009 15 10.0694 15 10.3431C15 10.6167 15.0958 10.8461 15.2875 11.0311C15.4791 11.2162 15.7166 11.3088 16 11.3088Z" fill="#192743"/>
</svg>
