<svg width="20" height="20" viewBox="0 0 20 20" fill="none" xmlns="http://www.w3.org/2000/svg">
<path fill-rule="evenodd" clip-rule="evenodd" d="M10 3C6.13401 3 3 6.13401 3 10C3 13.866 6.13401 17 10 17C13.866 17 17 13.866 17 10C17 6.13401 13.866 3 10 3ZM1 10C1 5.02944 5.02944 1 10 1C14.9706 1 19 5.02944 19 10C19 14.9706 14.9706 19 10 19C5.02944 19 1 14.9706 1 10ZM8.26074 6.5C8.81303 6.5 9.26074 6.94772 9.26074 7.5V12.5C9.26074 13.0523 8.81303 13.5 8.26074 13.5C7.70846 13.5 7.26074 13.0523 7.26074 12.5V7.5C7.26074 6.94772 7.70846 6.5 8.26074 6.5ZM12.7391 7.5C12.7391 6.94772 12.2914 6.5 11.7391 6.5C11.1869 6.5 10.7391 6.94772 10.7391 7.5V12.5C10.7391 13.0523 11.1869 13.5 11.7391 13.5C12.2914 13.5 12.7391 13.0523 12.7391 12.5V7.5Z" fill="#192743"/>
</svg>
