<svg width="20" height="20" viewBox="0 0 20 20" fill="none" xmlns="http://www.w3.org/2000/svg">
<g clip-path="url(#clip0_134_4359)">
<path fill-rule="evenodd" clip-rule="evenodd" d="M9.29288 0.95958C9.48041 0.772044 9.73477 0.666687 9.99998 0.666687C11.2257 0.666687 12.4393 0.908101 13.5717 1.37714C14.7041 1.84619 15.733 2.53368 16.5996 3.40036C17.4663 4.26704 18.1538 5.29594 18.6229 6.42831C19.0919 7.56068 19.3333 8.77435 19.3333 10C19.3333 10.5523 18.8856 11 18.3333 11H9.99998C9.4477 11 8.99998 10.5523 8.99998 10V1.66669C8.99998 1.40147 9.10534 1.14712 9.29288 0.95958ZM12.8063 3.2249C12.2263 2.98466 11.6192 2.82042 11 2.73519V9.00002H17.2648C17.1796 8.38082 17.0153 7.77367 16.7751 7.19367C16.4066 6.30395 15.8664 5.49553 15.1854 4.81457C14.5045 4.13361 13.6961 3.59344 12.8063 3.2249Z" fill="#192743"/>
<path d="M7.58319 1.95839C7.80408 2.46457 7.5728 3.05399 7.06662 3.27488C5.96873 3.75398 5.00492 4.49473 4.25945 5.43237C3.51398 6.37001 3.00955 7.47598 2.79026 8.65361C2.57096 9.83124 2.64348 11.0447 3.00148 12.1878C3.35948 13.3309 3.99205 14.3689 4.8439 15.2111C5.69574 16.0533 6.74092 16.6739 7.88806 17.0189C9.03519 17.3638 10.2494 17.4224 11.4244 17.1897C12.5994 16.957 13.6996 16.44 14.6287 15.6838C15.5577 14.9277 16.2874 13.9555 16.754 12.8522C16.969 12.3435 17.5558 12.1055 18.0645 12.3206C18.5731 12.5357 18.8111 13.1225 18.596 13.6311C18.0023 15.0353 17.0736 16.2727 15.8911 17.235C14.7087 18.1974 13.3085 18.8554 11.813 19.1516C10.3175 19.4478 8.77216 19.3731 7.31217 18.9342C5.85218 18.4952 4.52195 17.7052 3.43778 16.6334C2.35362 15.5615 1.54852 14.2404 1.09289 12.7855C0.637256 11.3306 0.544954 9.78627 0.824055 8.28747C1.10316 6.78868 1.74516 5.38107 2.69394 4.18771C3.64272 2.99435 4.86939 2.05158 6.2667 1.44181C6.77288 1.22092 7.3623 1.4522 7.58319 1.95839Z" fill="#192743"/>
</g>
<defs>
<clipPath id="clip0_134_4359">
<rect width="20" height="20" fill="white"/>
</clipPath>
</defs>
</svg>
