<svg width="20" height="20" viewBox="0 0 20 20" fill="none" xmlns="http://www.w3.org/2000/svg">
<path fill-rule="evenodd" clip-rule="evenodd" d="M10 19C10.5523 19 11 18.5523 11 18V13H16C16.5523 13 17 12.5523 17 12C17 9.13641 14.9421 7.6354 14 7.01874V3H15C15.5523 3 16 2.55228 16 2C16 1.44772 15.5523 1 15 1H5C4.44772 1 4 1.44772 4 2C4 2.55228 4.44772 3 5 3H6V7.01874C5.05791 7.6354 3 9.13641 3 12C3 12.5523 3.44772 13 4 13H9L9 18C9 18.5523 9.44772 19 10 19ZM12.4 8.35556C12.1482 8.1667 12 7.87031 12 7.55556V3H8V7.55556C8 7.87031 7.85181 8.1667 7.6 8.35556C7.47543 8.44898 7.3333 8.54567 7.18118 8.64915C6.45093 9.14591 5.49043 9.79931 5.13761 11H9V10C9 9.44771 9.44772 9 10 9C10.5523 9 11 9.44771 11 10V11H14.8624C14.5096 9.79931 13.5491 9.14594 12.8189 8.64918C12.6667 8.54569 12.5246 8.44898 12.4 8.35556Z" fill="#192743"/>
</svg>
