<svg width="20" height="20" viewBox="0 0 20 20" fill="none" xmlns="http://www.w3.org/2000/svg">
<path fill-rule="evenodd" clip-rule="evenodd" d="M13.843 1.31277C13.3942 0.535546 12.4004 0.269249 11.6232 0.71798C10.8459 1.16671 10.5796 2.16055 11.0284 2.93777L11.5413 3.82617C11.3277 3.90387 11.1179 4.0012 10.9142 4.11878L5.17994 7.42948C3.65012 8.31272 2.93685 10.0671 3.30496 11.7043C3.16497 11.7289 3.02683 11.778 2.89659 11.8532C2.29873 12.1983 2.09388 12.9628 2.43906 13.5607C2.78424 14.1586 3.54873 14.3634 4.14659 14.0182C4.27684 13.943 4.38843 13.8479 4.47974 13.739C5.7135 14.8763 7.58946 15.1358 9.11925 14.2526L14.8535 10.9419C15.0572 10.8243 15.2464 10.6913 15.4205 10.5451L15.9334 11.4336C16.3822 12.2108 17.376 12.4771 18.1532 12.0284C18.9304 11.5796 19.1967 10.5858 18.748 9.80857L16.9205 6.64321L18.2195 5.89323C18.8173 5.54806 19.0222 4.78357 18.677 4.1857C18.3318 3.58784 17.5673 3.38299 16.9695 3.72817L15.6705 4.47814L13.843 1.31277ZM12.5743 5.61536L14.3875 8.75593C14.2427 8.93359 14.0638 9.08841 13.8535 9.20981L8.11925 12.5205C7.19169 13.056 6.00563 12.7382 5.47011 11.8107C4.93458 10.8831 5.25239 9.69705 6.17994 9.16153L11.9142 5.85083C12.1245 5.72944 12.348 5.6519 12.5743 5.61536ZM2.64893 14.6812C0.773913 15.9312 0.148878 19.6812 2.64899 19.6812C5.14886 19.6812 4.52394 15.9312 2.64893 14.6812Z" fill="#192743"/>
</svg>
