<svg width="20" height="20" viewBox="0 0 20 20" fill="none" xmlns="http://www.w3.org/2000/svg">
<path fill-rule="evenodd" clip-rule="evenodd" d="M3 10C3 6.13401 6.13401 3 10 3C13.866 3 17 6.13401 17 10C17 13.866 13.866 17 10 17C6.13401 17 3 13.866 3 10ZM10 1C5.02944 1 1 5.02944 1 10C1 14.9706 5.02944 19 10 19C14.9706 19 19 14.9706 19 10C19 5.02944 14.9706 1 10 1ZM8.88807 5.83464C8.58122 5.63007 8.18667 5.61099 7.86152 5.78501C7.53636 5.95903 7.33337 6.29789 7.33337 6.66669V13.3334C7.33337 13.7022 7.53636 14.041 7.86152 14.215C8.18667 14.389 8.58122 14.37 8.88807 14.1654L13.8881 10.8321C14.1663 10.6466 14.3334 10.3344 14.3334 10C14.3334 9.66567 14.1663 9.35344 13.8881 9.16797L8.88807 5.83464ZM11.5306 10L9.33337 11.4648V8.53521L11.5306 10Z" fill="#192743"/>
</svg>
