<svg width="20" height="20" viewBox="0 0 20 20" fill="none" xmlns="http://www.w3.org/2000/svg">
<path d="M5.38765 2.56877C7.00047 1.67719 8.85936 1.33391 10.6842 1.59066C12.4996 1.84607 14.1834 2.68146 15.4848 3.97182L17.4987 5.76812V3.33331C17.4987 2.78103 17.9465 2.33331 18.4987 2.33331C19.051 2.33331 19.4987 2.78103 19.4987 3.33331V8.33331C19.4987 8.8856 19.051 9.33331 18.4987 9.33331H13.4987C12.9465 9.33331 12.4987 8.8856 12.4987 8.33331C12.4987 7.78103 12.9465 7.33331 13.4987 7.33331H16.2489L14.1332 5.44626C14.1192 5.43379 14.1056 5.42092 14.0923 5.40768C13.095 4.41204 11.8011 3.76749 10.4056 3.57116C9.0101 3.37482 7.5886 3.63732 6.35526 4.31912C5.12193 5.00092 4.14359 6.06508 3.56764 7.35126C2.99169 8.63743 2.84934 10.0759 3.16204 11.4501C3.47474 12.8242 4.22554 14.0594 5.30133 14.9697C6.37712 15.88 7.7196 16.416 9.12652 16.497C10.5334 16.578 11.9286 16.1995 13.1017 15.4187C14.2748 14.6378 15.1624 13.4968 15.6306 12.1677C15.8142 11.6468 16.3852 11.3733 16.9061 11.5568C17.427 11.7403 17.7005 12.3114 17.517 12.8323C16.9046 14.5704 15.744 16.0624 14.2099 17.0836C12.6758 18.1047 10.8514 18.5996 9.0116 18.4937C7.17179 18.3878 5.41623 17.6869 4.00943 16.4965C2.60263 15.3061 1.62081 13.6908 1.2119 11.8938C0.802986 10.0969 0.989134 8.21579 1.7423 6.53387C2.49546 4.85195 3.77483 3.46036 5.38765 2.56877Z" fill="#192743"/>
</svg>
