<svg width="20" height="20" viewBox="0 0 20 20" fill="none" xmlns="http://www.w3.org/2000/svg">
<path fill-rule="evenodd" clip-rule="evenodd" d="M10 0.666992C12.1484 0.666992 14.135 0.955569 15.6191 1.4502C16.3558 1.69576 17.0246 2.01053 17.5293 2.4082C18.0227 2.79712 18.5 3.38417 18.5 4.16699V15.834C18.4997 16.6139 18.0284 17.201 17.5352 17.5918C17.0319 17.9906 16.3646 18.3052 15.6289 18.5508C14.147 19.0455 12.16 19.334 10 19.334C7.84004 19.334 5.85299 19.0455 4.37109 18.5508C3.63541 18.3052 2.96815 17.9906 2.46484 17.5918C1.97164 17.201 1.50027 16.6139 1.5 15.834V4.16699L1.50586 4.02246C1.56008 3.3116 2.00812 2.7728 2.4707 2.4082C2.97541 2.01053 3.6442 1.69576 4.38086 1.4502C5.86497 0.955569 7.85158 0.666992 10 0.666992ZM16.5 12.374C16.2256 12.5006 15.9336 12.6161 15.6289 12.7178C14.147 13.2124 12.1599 13.5 10 13.5C7.84009 13.5 5.85298 13.2124 4.37109 12.7178C4.06644 12.6161 3.77436 12.5006 3.5 12.374V15.8066C3.51291 15.8329 3.55948 15.9075 3.70703 16.0244C3.95894 16.2239 4.38586 16.448 5.00391 16.6543C6.23031 17.0637 7.99349 17.334 10 17.334C12.0065 17.334 13.7697 17.0637 14.9961 16.6543C15.6141 16.448 16.0411 16.2239 16.293 16.0244C16.4405 15.9075 16.4871 15.8329 16.5 15.8066V12.374ZM16.5 6.53613C16.2227 6.66406 15.9273 6.78108 15.6191 6.88379C14.135 7.37839 12.1484 7.66699 10 7.66699C7.85163 7.66699 5.86495 7.37839 4.38086 6.88379C4.07272 6.78108 3.77733 6.66406 3.5 6.53613V9.97266C3.51254 9.99844 3.55848 10.0727 3.70703 10.1904C3.95888 10.39 4.38565 10.6139 5.00391 10.8203C6.23032 11.2297 7.99343 11.5 10 11.5C12.0066 11.5 13.7697 11.2297 14.9961 10.8203C15.6144 10.6139 16.0411 10.39 16.293 10.1904C16.4431 10.0715 16.4881 9.99671 16.5 9.97168V6.53613ZM10 2.66699C8.0065 2.66699 6.24301 2.93755 5.0127 3.34766C4.39244 3.55443 3.96225 3.77913 3.70801 3.97949C3.59886 4.06557 3.54589 4.12955 3.51953 4.16699C3.54595 4.20449 3.59897 4.26852 3.70801 4.35449C3.96228 4.55484 4.39252 4.77959 5.0127 4.98633C6.243 5.39641 8.00656 5.66699 10 5.66699C11.9934 5.66699 13.757 5.39641 14.9873 4.98633C15.6075 4.77959 16.0377 4.55484 16.292 4.35449C16.4006 4.26888 16.453 4.20454 16.4795 4.16699C16.453 4.1295 16.4007 4.06521 16.292 3.97949C16.0378 3.77913 15.6076 3.55443 14.9873 3.34766C13.757 2.93755 11.9935 2.66699 10 2.66699Z" fill="#192743"/>
</svg>
