<svg width="20" height="20" viewBox="0 0 20 20" fill="none" xmlns="http://www.w3.org/2000/svg">
<path fill-rule="evenodd" clip-rule="evenodd" d="M3.69526 3.69526C3.82029 3.57024 3.98986 3.5 4.16667 3.5H13.3333C13.8856 3.5 14.3333 3.05228 14.3333 2.5C14.3333 1.94772 13.8856 1.5 13.3333 1.5H4.16667C3.45942 1.5 2.78115 1.78095 2.28105 2.28105C1.78095 2.78115 1.5 3.45942 1.5 4.16667V15.8333C1.5 16.5406 1.78095 17.2189 2.28105 17.719C2.78115 18.219 3.45942 18.5 4.16667 18.5H15.8333C16.5406 18.5 17.2189 18.219 17.719 17.719C18.219 17.2189 18.5 16.5406 18.5 15.8333V10C18.5 9.44772 18.0523 9 17.5 9C16.9477 9 16.5 9.44772 16.5 10V15.8333C16.5 16.0101 16.4298 16.1797 16.3047 16.3047C16.1797 16.4298 16.0101 16.5 15.8333 16.5H4.16667C3.98986 16.5 3.82029 16.4298 3.69526 16.3047C3.57024 16.1797 3.5 16.0101 3.5 15.8333V4.16667C3.5 3.98986 3.57024 3.82029 3.69526 3.69526ZM19.0404 4.04043C19.431 3.6499 19.431 3.01674 19.0404 2.62621C18.6499 2.23569 18.0168 2.23569 17.6262 2.62621L10 10.2524L8.20711 8.45955C7.81658 8.06902 7.18342 8.06902 6.79289 8.45955C6.40237 8.85007 6.40237 9.48324 6.79289 9.87376L9.29289 12.3738C9.68342 12.7643 10.3166 12.7643 10.7071 12.3738L19.0404 4.04043Z" fill="#192743"/>
</svg>
