<svg width="20" height="20" viewBox="0 0 20 20" fill="none" xmlns="http://www.w3.org/2000/svg">
<path fill-rule="evenodd" clip-rule="evenodd" d="M16.3047 3.69526C16.4298 3.82029 16.5 3.98986 16.5 4.16667V8.75C16.5 9.30229 16.9477 9.75 17.5 9.75C18.0523 9.75 18.5 9.30229 18.5 8.75V4.16667C18.5 3.45942 18.219 2.78115 17.719 2.28105C17.2189 1.78095 16.5406 1.5 15.8333 1.5L4.16667 1.5C3.45942 1.5 2.78115 1.78095 2.28105 2.28105C1.78095 2.78115 1.5 3.45942 1.5 4.16667V15.8333C1.5 16.5406 1.78095 17.2189 2.28105 17.719C2.78115 18.219 3.45942 18.5 4.16667 18.5H7.08333C7.63562 18.5 8.08333 18.0523 8.08333 17.5C8.08333 16.9477 7.63562 16.5 7.08333 16.5H4.16667C3.98985 16.5 3.82029 16.4298 3.69526 16.3047C3.57024 16.1797 3.5 16.0101 3.5 15.8333L3.5 4.16667C3.5 3.98986 3.57024 3.82029 3.69526 3.69526C3.82029 3.57024 3.98985 3.5 4.16667 3.5L15.8333 3.5C16.0101 3.5 16.1797 3.57024 16.3047 3.69526ZM9.13458 9.07691C8.76053 8.92107 8.32942 9.00637 8.04289 9.29289C7.75637 9.57942 7.67107 10.0105 7.82691 10.3846L11.4723 19.1346C11.6323 19.5186 12.0133 19.7634 12.4291 19.7494C12.8448 19.7354 13.2085 19.4655 13.3423 19.0716L14.4779 15.7279L17.8216 14.5923C18.2155 14.4585 18.4854 14.0948 18.4994 13.6791C18.5134 13.2633 18.2686 12.8823 17.8846 12.7223L9.13458 9.07691ZM12.3001 15.9211L10.607 11.857L14.6711 13.5501L13.368 13.9927C13.0737 14.0927 12.8427 14.3237 12.7427 14.618L12.3001 15.9211Z" fill="#192743"/>
</svg>
