<svg width="20" height="20" viewBox="0 0 20 20" fill="none" xmlns="http://www.w3.org/2000/svg">
<g clip-path="url(#clip0_2542_715)">
<path fill-rule="evenodd" clip-rule="evenodd" d="M13.8069 9C14.7425 9 15.3129 7.90689 14.817 7.06417L11.0102 0.594671C10.5436 -0.198223 9.45641 -0.198224 8.98984 0.594669L5.18297 7.06417C4.68709 7.90688 5.2575 9 6.19313 9H13.8069ZM12.4587 7L10 2.82161L7.54129 7H12.4587Z" fill="#192743"/>
<path fill-rule="evenodd" clip-rule="evenodd" d="M4.5 20C6.98528 20 9 17.9853 9 15.5C9 13.0147 6.98528 11 4.5 11C2.01472 11 0 13.0147 0 15.5C0 17.9853 2.01472 20 4.5 20ZM4.5 18C5.88071 18 7 16.8807 7 15.5C7 14.1193 5.88071 13 4.5 13C3.11929 13 2 14.1193 2 15.5C2 16.8807 3.11929 18 4.5 18Z" fill="#192743"/>
<path fill-rule="evenodd" clip-rule="evenodd" d="M12.125 11C11.5037 11 11 11.5037 11 12.125V18.875C11 19.4963 11.5037 20 12.125 20H18.875C19.4963 20 20 19.4963 20 18.875V12.125C20 11.5037 19.4963 11 18.875 11H12.125ZM18 18H13V13H18V18Z" fill="#192743"/>
</g>
<defs>
<clipPath id="clip0_2542_715">
<rect width="20" height="20" fill="white"/>
</clipPath>
</defs>
</svg>
