<svg width="20" height="20" viewBox="0 0 20 20" fill="none" xmlns="http://www.w3.org/2000/svg">
<path fill-rule="evenodd" clip-rule="evenodd" d="M15.889 4.3564C15.889 5.18614 15.2164 5.85878 14.3867 5.85878C13.5569 5.85878 12.8843 5.18614 12.8843 4.3564C12.8843 3.52665 13.5569 2.85401 14.3867 2.85401C15.2164 2.85401 15.889 3.52665 15.889 4.3564ZM17.889 4.3564C17.889 6.29071 16.321 7.85878 14.3867 7.85878C13.5606 7.85878 12.8013 7.57277 12.2024 7.09438L8.89571 9.41819C9.03789 9.79926 9.11561 10.2117 9.11561 10.6424C9.11561 10.9059 9.0865 11.1627 9.03131 11.4096L11.9936 13.0862C12.6198 12.5001 13.4613 12.1412 14.3867 12.1412C16.321 12.1412 17.889 13.7093 17.889 15.6436C17.889 17.5779 16.321 19.146 14.3867 19.146C12.4523 19.146 10.8843 17.5779 10.8843 15.6436C10.8843 15.3573 10.9186 15.079 10.9835 14.8126L8.05373 13.1545C7.42298 13.7674 6.56217 14.1448 5.61322 14.1448C3.67891 14.1448 2.11084 12.5767 2.11084 10.6424C2.11084 8.70806 3.67891 7.13999 5.61322 7.13999C6.3904 7.13999 7.10845 7.39313 7.68943 7.82144L11.0594 5.45313C10.9458 5.10814 10.8843 4.73945 10.8843 4.3564C10.8843 2.42208 12.4523 0.854012 14.3867 0.854012C16.321 0.854012 17.889 2.42208 17.889 4.3564ZM5.61322 12.1448C6.44297 12.1448 7.11561 11.4721 7.11561 10.6424C7.11561 9.81263 6.44297 9.13999 5.61322 9.13999C4.78348 9.13999 4.11084 9.81263 4.11084 10.6424C4.11084 11.4721 4.78348 12.1448 5.61322 12.1448ZM14.3867 17.146C15.2164 17.146 15.889 16.4733 15.889 15.6436C15.889 14.8139 15.2164 14.1412 14.3867 14.1412C13.5569 14.1412 12.8843 14.8139 12.8843 15.6436C12.8843 16.4733 13.5569 17.146 14.3867 17.146Z" fill="#192743"/>
</svg>
