<svg width="20" height="20" viewBox="0 0 20 20" fill="none" xmlns="http://www.w3.org/2000/svg">
<path fill-rule="evenodd" clip-rule="evenodd" d="M9.64889 0.730327C9.87527 0.645433 10.1247 0.645433 10.3511 0.730327L17.0178 3.23033C17.4081 3.37669 17.6667 3.74981 17.6667 4.16666V9.99999C17.6667 12.9464 15.7183 15.2836 13.9918 16.7942C13.1076 17.5679 12.2281 18.1721 11.5717 18.5824C11.2424 18.7882 10.9666 18.9468 10.7708 19.0552C10.6728 19.1095 10.5947 19.1512 10.5397 19.1801C10.5122 19.1945 10.4905 19.2057 10.4749 19.2137L10.4563 19.2232L10.4505 19.2261L10.4486 19.2271L10.4478 19.2274C10.4475 19.2276 10.4472 19.2278 10 18.3333C9.5528 19.2278 9.55251 19.2276 9.5522 19.2274L9.55144 19.2271L9.54947 19.2261L9.54372 19.2232L9.52508 19.2137C9.50953 19.2057 9.4878 19.1945 9.46031 19.1801C9.40532 19.1512 9.3272 19.1095 9.22924 19.0552C9.03344 18.9468 8.75762 18.7882 8.42834 18.5824C7.77189 18.1721 6.89239 17.5679 6.00817 16.7942C4.28176 15.2836 2.33334 12.9464 2.33334 9.99999V4.16666C2.33334 3.74981 2.59192 3.37669 2.98222 3.23033L9.64889 0.730327ZM10 18.3333L9.5528 19.2278C9.83432 19.3685 10.1657 19.3685 10.4472 19.2278L10 18.3333ZM10 17.1937C10.1436 17.111 10.3166 17.0083 10.5117 16.8864C11.1052 16.5154 11.8924 15.9737 12.6748 15.2891C14.2818 13.883 15.6667 12.0536 15.6667 9.99999V4.85966L10 2.73466L4.33334 4.85966V9.99999C4.33334 12.0536 5.71826 13.883 7.32518 15.2891C8.10763 15.9737 8.8948 16.5154 9.48834 16.8864C9.6834 17.0083 9.8564 17.111 10 17.1937Z" fill="#192743"/>
</svg>
