<svg width="20" height="20" viewBox="0 0 20 20" fill="none" xmlns="http://www.w3.org/2000/svg">
<g clip-path="url(#clip0_2292_254)">
<path d="M18.5 3.33339C18.5 3.88567 18.0523 4.33339 17.5 4.33339L11.6667 4.33339C11.1144 4.33339 10.6667 3.88567 10.6667 3.33339C10.6667 2.7811 11.1144 2.33339 11.6667 2.33339L17.5 2.33339C18.0523 2.33339 18.5 2.7811 18.5 3.33339Z" fill="#192743"/>
<path d="M1.49998 3.33339C1.49998 3.88567 1.94769 4.33339 2.49998 4.33339L7.33331 4.33339L7.33331 5.83339C7.33331 6.38567 7.78103 6.83339 8.33331 6.83339C8.8856 6.83339 9.33331 6.38567 9.33331 5.83339L9.33331 0.833389C9.33331 0.281104 8.8856 -0.166611 8.33331 -0.166611C7.78103 -0.166611 7.33331 0.281104 7.33331 0.833389L7.33331 2.33339L2.49998 2.33339C1.94769 2.33339 1.49998 2.7811 1.49998 3.33339Z" fill="#192743"/>
<path d="M10 11C10.5523 11 11 10.5523 11 10C11 9.44773 10.5523 9.00001 10 9.00001L2.5 9.00001C1.94772 9.00001 1.5 9.44773 1.5 10C1.5 10.5523 1.94772 11 2.5 11L10 11Z" fill="#192743"/>
<path d="M18.5 10C18.5 10.5523 18.0523 11 17.5 11L14.3333 11L14.3333 12.5C14.3333 13.0523 13.8856 13.5 13.3333 13.5C12.781 13.5 12.3333 13.0523 12.3333 12.5L12.3333 7.50001C12.3333 6.94773 12.781 6.50002 13.3333 6.50002C13.8856 6.50002 14.3333 6.94773 14.3333 7.50002L14.3333 9.00002L17.5 9.00002C18.0523 9.00002 18.5 9.44773 18.5 10Z" fill="#192743"/>
<path d="M6.66669 13.1666C7.21897 13.1666 7.66669 13.6144 7.66669 14.1666L7.66669 19.1666C7.66669 19.7189 7.21897 20.1666 6.66669 20.1666C6.1144 20.1666 5.66669 19.7189 5.66669 19.1666L5.66669 17.6666L2.50002 17.6666C1.94774 17.6666 1.50002 17.2189 1.50002 16.6666C1.50002 16.1144 1.94774 15.6666 2.50002 15.6666L5.66669 15.6666L5.66669 14.1666C5.66669 13.6144 6.1144 13.1666 6.66669 13.1666Z" fill="#192743"/>
<path d="M18.5 16.6666C18.5 17.2189 18.0523 17.6666 17.5 17.6666L10 17.6666C9.44771 17.6666 9 17.2189 9 16.6666C9 16.1144 9.44772 15.6666 10 15.6666L17.5 15.6666C18.0523 15.6666 18.5 16.1144 18.5 16.6666Z" fill="#192743"/>
</g>
<defs>
<clipPath id="clip0_2292_254">
<rect width="20" height="20" fill="white"/>
</clipPath>
</defs>
</svg>
