<svg width="20" height="20" viewBox="0 0 20 20" fill="none" xmlns="http://www.w3.org/2000/svg">
<path d="M1.99951 2.12402C1.44723 2.12402 0.999512 2.57174 0.999512 3.12402C0.999512 3.67631 1.44723 4.12402 1.99951 4.12402H15.9995C16.5518 4.12402 16.9995 3.67631 16.9995 3.12402C16.9995 2.57174 16.5518 2.12402 15.9995 2.12402H1.99951Z" fill="#192743"/>
<path d="M1.99951 7.12402C1.44723 7.12402 0.999512 7.57174 0.999512 8.12402C0.999512 8.67631 1.44723 9.12402 1.99951 9.12402H7.99951C8.5518 9.12402 8.99951 8.67631 8.99951 8.12402C8.99951 7.57174 8.5518 7.12402 7.99951 7.12402H1.99951Z" fill="#192743"/>
<path d="M1.99951 12.124C1.44723 12.124 0.999512 12.5717 0.999512 13.124C0.999512 13.6763 1.44723 14.124 1.99951 14.124H4.99951C5.5518 14.124 5.99951 13.6763 5.99951 13.124C5.99951 12.5717 5.5518 12.124 4.99951 12.124H1.99951Z" fill="#192743"/>
<path d="M13.291 18.5C13.0043 18.5 12.7458 18.3794 12.5635 18.1861L7.87291 13.4956C7.48239 13.105 7.48239 12.4719 7.87291 12.0814C8.26343 11.6908 8.8966 11.6908 9.28712 12.0814L12.291 15.0852V6.5C12.291 5.94772 12.7387 5.5 13.291 5.5C13.8432 5.5 14.291 5.94772 14.291 6.5V15.0864L17.296 12.0814C17.6865 11.6908 18.3197 11.6908 18.7102 12.0814C19.1007 12.4719 19.1007 13.105 18.7102 13.4956L13.9987 18.2071C13.8041 18.4016 13.5494 18.4993 13.2945 18.5L13.291 18.5Z" fill="#192743"/>
</svg>
