<svg width="20" height="20" viewBox="0 0 20 20" fill="none" xmlns="http://www.w3.org/2000/svg">
<path d="M1.99951 17.876C1.44723 17.876 0.999512 17.4283 0.999512 16.876C0.999512 16.3237 1.44723 15.876 1.99951 15.876H15.9995C16.5518 15.876 16.9995 16.3237 16.9995 16.876C16.9995 17.4283 16.5518 17.876 15.9995 17.876H1.99951Z" fill="#192743"/>
<path d="M1.99951 12.876C1.44723 12.876 0.999512 12.4283 0.999512 11.876C0.999512 11.3237 1.44723 10.876 1.99951 10.876H7.99951C8.5518 10.876 8.99951 11.3237 8.99951 11.876C8.99951 12.4283 8.5518 12.876 7.99951 12.876H1.99951Z" fill="#192743"/>
<path d="M1.99951 7.87598C1.44723 7.87598 0.999512 7.42826 0.999512 6.87598C0.999512 6.32369 1.44723 5.87598 1.99951 5.87598H4.99951C5.5518 5.87598 5.99951 6.32369 5.99951 6.87598C5.99951 7.42826 5.5518 7.87598 4.99951 7.87598H1.99951Z" fill="#192743"/>
<path d="M9.28712 7.91864L12.291 4.91481V13.5C12.291 14.0523 12.7387 14.5 13.291 14.5C13.8432 14.5 14.291 14.0523 14.291 13.5V4.91361L17.296 7.91864C17.6865 8.30917 18.3197 8.30917 18.7102 7.91864C19.1007 7.52812 19.1007 6.89495 18.7102 6.50443L13.9987 1.79289C13.6081 1.40237 12.975 1.40237 12.5844 1.79289L7.87291 6.50443C7.48239 6.89495 7.48239 7.52812 7.87291 7.91864C8.26343 8.30917 8.8966 8.30917 9.28712 7.91864Z" fill="#192743"/>
</svg>
