<svg width="20" height="20" viewBox="0 0 20 20" fill="none" xmlns="http://www.w3.org/2000/svg">
<path d="M10.8967 1.22406C10.7282 0.882759 10.3806 0.666687 9.99999 0.666687C9.61937 0.666687 9.27175 0.882759 9.10328 1.22406L6.76073 5.96982L1.52203 6.73553C1.14547 6.79057 0.832787 7.05458 0.715409 7.41659C0.598031 7.77859 0.696304 8.17585 0.968922 8.44138L4.7588 12.1327L3.86438 17.3476C3.80003 17.7228 3.95428 18.102 4.26225 18.3257C4.57023 18.5495 4.97852 18.5789 5.31544 18.4018L9.99999 15.9382L14.6845 18.4018C15.0215 18.5789 15.4297 18.5495 15.7377 18.3257C16.0457 18.102 16.1999 17.7228 16.1356 17.3476L15.2412 12.1327L19.0311 8.44138C19.3037 8.17585 19.4019 7.77859 19.2846 7.41659C19.1672 7.05458 18.8545 6.79057 18.478 6.73553L13.2393 5.96982L10.8967 1.22406Z" fill="#192743"/>
</svg>
