<svg width="20" height="20" viewBox="0 0 20 20" fill="none" xmlns="http://www.w3.org/2000/svg">
<path fill-rule="evenodd" clip-rule="evenodd" d="M9.99999 0.666664C10.3806 0.666664 10.7282 0.882736 10.8967 1.22404L13.2393 5.9698L18.478 6.73551C18.8545 6.79055 19.1672 7.05456 19.2846 7.41656C19.4019 7.77857 19.3037 8.17583 19.0311 8.44136L15.2412 12.1327L16.1356 17.3476C16.1999 17.7228 16.0457 18.102 15.7377 18.3257C15.4297 18.5494 15.0215 18.5789 14.6845 18.4017L9.99999 15.9382L5.31544 18.4017C4.97852 18.5789 4.57023 18.5494 4.26225 18.3257C3.95428 18.102 3.80003 17.7228 3.86438 17.3476L4.7588 12.1327L0.968922 8.44136C0.696304 8.17583 0.598031 7.77857 0.715409 7.41656C0.832787 7.05456 1.14547 6.79055 1.52203 6.73551L6.76073 5.9698L9.10328 1.22404C9.27175 0.882736 9.61937 0.666664 9.99999 0.666664ZM9.99999 3.92592L8.3217 7.32595C8.17616 7.6208 7.89497 7.82526 7.56962 7.87282L3.81507 8.4216L6.53105 11.067C6.76693 11.2967 6.87459 11.6278 6.81893 11.9524L6.17817 15.6883L9.53454 13.9233C9.82592 13.77 10.1741 13.77 10.4654 13.9233L13.8218 15.6883L13.181 11.9524C13.1254 11.6278 13.233 11.2967 13.4689 11.067L16.1849 8.4216L12.4304 7.87282C12.105 7.82526 11.8238 7.6208 11.6783 7.32595L9.99999 3.92592Z" fill="#192743"/>
</svg>
