<svg width="20" height="20" viewBox="0 0 20 20" fill="none" xmlns="http://www.w3.org/2000/svg">
<g clip-path="url(#clip0_2224_2417)">
<path d="M10 -0.166656C10.5523 -0.166656 11 0.281059 11 0.833344V2.50001C11 3.05229 10.5523 3.50001 10 3.50001C9.44771 3.50001 9 3.05229 9 2.50001V0.833344C9 0.281059 9.44771 -0.166656 10 -0.166656Z" fill="#192743"/>
<path fill-rule="evenodd" clip-rule="evenodd" d="M4.83337 10C4.83337 7.14654 7.14657 4.83334 10 4.83334C12.8535 4.83334 15.1667 7.14654 15.1667 10C15.1667 12.8535 12.8535 15.1667 10 15.1667C7.14657 15.1667 4.83337 12.8535 4.83337 10ZM10 6.83334C8.25114 6.83334 6.83337 8.25111 6.83337 10C6.83337 11.7489 8.25114 13.1667 10 13.1667C11.7489 13.1667 13.1667 11.7489 13.1667 10C13.1667 8.25111 11.7489 6.83334 10 6.83334Z" fill="#192743"/>
<path d="M11 17.5C11 16.9477 10.5523 16.5 10 16.5C9.44771 16.5 9 16.9477 9 17.5V19.1667C9 19.719 9.44771 20.1667 10 20.1667C10.5523 20.1667 11 19.719 11 19.1667V17.5Z" fill="#192743"/>
<path d="M2.80962 2.80956C3.20014 2.41903 3.83331 2.41903 4.22383 2.80956L5.40716 3.99289C5.79769 4.38341 5.79769 5.01658 5.40716 5.4071C5.01664 5.79763 4.38347 5.79763 3.99295 5.4071L2.80962 4.22377C2.41909 3.83324 2.41909 3.20008 2.80962 2.80956Z" fill="#192743"/>
<path d="M16.0072 14.5929C15.6166 14.2024 14.9835 14.2024 14.5929 14.5929C14.2024 14.9834 14.2024 15.6166 14.5929 16.0071L15.7763 17.1904C16.1668 17.581 16.8 17.581 17.1905 17.1904C17.581 16.7999 17.581 16.1667 17.1905 15.7762L16.0072 14.5929Z" fill="#192743"/>
<path d="M-0.166626 10C-0.166626 9.44771 0.281089 9 0.833374 9H2.50004C3.05233 9 3.50004 9.44771 3.50004 10C3.50004 10.5523 3.05233 11 2.50004 11H0.833374C0.281089 11 -0.166626 10.5523 -0.166626 10Z" fill="#192743"/>
<path d="M17.5 9C16.9477 9 16.5 9.44771 16.5 10C16.5 10.5523 16.9477 11 17.5 11H19.1667C19.719 11 20.1667 10.5523 20.1667 10C20.1667 9.44771 19.719 9 19.1667 9H17.5Z" fill="#192743"/>
<path d="M5.40716 14.5929C5.79769 14.9834 5.79769 15.6166 5.40716 16.0071L4.22383 17.1904C3.83331 17.581 3.20014 17.581 2.80962 17.1904C2.41909 16.7999 2.41909 16.1667 2.80962 15.7762L3.99295 14.5929C4.38347 14.2024 5.01664 14.2024 5.40716 14.5929Z" fill="#192743"/>
<path d="M17.1905 4.22377C17.581 3.83324 17.581 3.20008 17.1905 2.80956C16.8 2.41903 16.1668 2.41903 15.7763 2.80956L14.5929 3.99289C14.2024 4.38341 14.2024 5.01658 14.5929 5.4071C14.9835 5.79763 15.6166 5.79763 16.0072 5.4071L17.1905 4.22377Z" fill="#192743"/>
</g>
<defs>
<clipPath id="clip0_2224_2417">
<rect width="20" height="20" fill="white"/>
</clipPath>
</defs>
</svg>
