<svg width="20" height="20" viewBox="0 0 20 20" fill="none" xmlns="http://www.w3.org/2000/svg">
<path fill-rule="evenodd" clip-rule="evenodd" d="M15.833 1.5C16.5403 1.5 17.2187 1.78115 17.7188 2.28125C18.2188 2.78135 18.5 3.45975 18.5 4.16699V15.833C18.5 16.5403 18.2188 17.2187 17.7188 17.7188C17.2187 18.2188 16.5403 18.5 15.833 18.5H4.16699C3.45975 18.5 2.78135 18.2188 2.28125 17.7188C1.78115 17.2187 1.5 16.5403 1.5 15.833V4.16699C1.5 3.45975 1.78115 2.78135 2.28125 2.28125C2.78135 1.78115 3.45975 1.5 4.16699 1.5H15.833ZM3.5 15.833C3.5 16.0098 3.57029 16.1797 3.69531 16.3047C3.82034 16.4297 3.99018 16.5 4.16699 16.5H6.5V8.5H3.5V15.833ZM8.5 16.5H15.833C16.0098 16.5 16.1797 16.4297 16.3047 16.3047C16.4297 16.1797 16.5 16.0098 16.5 15.833V8.5H8.5V16.5ZM4.16699 3.5C3.99018 3.5 3.82034 3.57029 3.69531 3.69531C3.57029 3.82034 3.5 3.99018 3.5 4.16699V6.5H6.5V3.5H4.16699ZM8.5 6.5H16.5V4.16699C16.5 3.99018 16.4297 3.82034 16.3047 3.69531C16.1797 3.57029 16.0098 3.5 15.833 3.5H8.5V6.5Z" fill="#192743"/>
</svg>
