<svg width="20" height="20" viewBox="0 0 20 20" fill="none" xmlns="http://www.w3.org/2000/svg">
<path d="M2 5C2 4.44772 2.44772 4 3 4H17C17.5523 4 18 4.44772 18 5C18 5.55228 17.5523 6 17 6H3C2.44772 6 2 5.55228 2 5Z" fill="#192743"/>
<path d="M2 10C2 9.44772 2.44772 9 3 9H17C17.5523 9 18 9.44772 18 10C18 10.5523 17.5523 11 17 11H3C2.44772 11 2 10.5523 2 10Z" fill="#192743"/>
<path d="M3 14C2.44772 14 2 14.4477 2 15C2 15.5523 2.44772 16 3 16H10C10.5523 16 11 15.5523 11 15C11 14.4477 10.5523 14 10 14H3Z" fill="#192743"/>
</svg>
