<svg width="20" height="20" viewBox="0 0 20 20" fill="none" xmlns="http://www.w3.org/2000/svg">
<path d="M5.00002 9.29999C5.00002 8.7477 5.44773 8.29999 6.00002 8.29999H14C14.5523 8.29999 15 8.7477 15 9.29999C15 9.85227 14.5523 10.3 14 10.3H6.00002C5.44773 10.3 5.00002 9.85227 5.00002 9.29999Z" fill="#192743"/>
<path d="M6.00002 12.3C5.44773 12.3 5.00002 12.7477 5.00002 13.3C5.00002 13.8523 5.44773 14.3 6.00002 14.3H14C14.5523 14.3 15 13.8523 15 13.3C15 12.7477 14.5523 12.3 14 12.3H6.00002Z" fill="#192743"/>
<path fill-rule="evenodd" clip-rule="evenodd" d="M3.33335 1.5C2.62611 1.5 1.94783 1.78095 1.44774 2.28105C0.947638 2.78115 0.666687 3.45942 0.666687 4.16667V15.8333C0.666687 16.5406 0.947639 17.2189 1.44774 17.719C1.94783 18.219 2.62611 18.5 3.33335 18.5H16.6667C17.3739 18.5 18.0522 18.219 18.5523 17.719C19.0524 17.2189 19.3334 16.5406 19.3334 15.8333V6.66667C19.3334 5.95942 19.0524 5.28115 18.5523 4.78105C18.0522 4.28095 17.3739 4 16.6667 4H9.70187L8.33207 1.9453C8.1466 1.6671 7.83437 1.5 7.50002 1.5H3.33335ZM2.86195 3.69526C2.98697 3.57024 3.15654 3.5 3.33335 3.5H6.96484L8.33464 5.5547C8.5201 5.8329 8.83233 6 9.16669 6H16.6667C16.8435 6 17.0131 6.07024 17.1381 6.19526C17.2631 6.32029 17.3334 6.48986 17.3334 6.66667V15.8333C17.3334 16.0101 17.2631 16.1797 17.1381 16.3047C17.0131 16.4298 16.8435 16.5 16.6667 16.5H3.33335C3.15654 16.5 2.98697 16.4298 2.86195 16.3047C2.73692 16.1797 2.66669 16.0101 2.66669 15.8333V4.16667C2.66669 3.98986 2.73692 3.82029 2.86195 3.69526Z" fill="#192743"/>
</svg>
