<svg width="20" height="20" viewBox="0 0 20 20" fill="none" xmlns="http://www.w3.org/2000/svg">
<path fill-rule="evenodd" clip-rule="evenodd" d="M13.2783 6.41504C11.3772 6.41529 9.83596 8.02003 9.83594 10C9.83594 11.98 11.3772 13.5847 13.2783 13.585C15.1796 13.585 16.7217 11.9801 16.7217 10C16.7217 8.01988 15.1796 6.41504 13.2783 6.41504ZM13.2783 8.46387C14.0932 8.46387 14.7539 9.15139 14.7539 10C14.7539 10.8486 14.0932 11.5371 13.2783 11.5371C12.4637 11.5369 11.8037 10.8485 11.8037 10C11.8037 9.15154 12.4637 8.46412 13.2783 8.46387Z" fill="#192743"/>
<path fill-rule="evenodd" clip-rule="evenodd" d="M6.72168 3C3.0096 3 0 6.13401 0 10C0 13.866 3.0096 17 6.72168 17H13.2783C16.9904 17 20 13.866 20 10C20 6.13401 16.9904 3 13.2783 3H6.72168ZM13.2783 5.04883C15.9039 5.04883 18.0332 7.26552 18.0332 10C18.0332 12.7345 15.9039 14.9512 13.2783 14.9512H6.72168C4.09606 14.9512 1.9668 12.7345 1.9668 10C1.9668 7.35101 3.9647 5.18834 6.47656 5.05566L6.72168 5.04883H13.2783Z" fill="#192743"/>
</svg>
