<svg width="20" height="20" viewBox="0 0 20 20" fill="none" xmlns="http://www.w3.org/2000/svg">
<g clip-path="url(#clip0_1225_3336)">
<path d="M10.2395 0.141275C10.137 -0.0470913 9.86302 -0.0470917 9.76053 0.141274L8.72209 2.04979C8.68087 2.12556 8.60527 2.17721 8.51884 2.18867L6.23584 2.4914C6.00601 2.52188 5.918 2.80391 6.09069 2.9565L7.71219 4.38926C7.78285 4.45169 7.81536 4.54594 7.79798 4.6379L7.41145 6.68239C7.37061 6.89842 7.59635 7.0684 7.79696 6.97269L9.88164 5.97813C9.9564 5.94246 10.0436 5.94246 10.1184 5.97813L12.203 6.97269C12.4037 7.0684 12.6294 6.89842 12.5886 6.68239L12.202 4.6379C12.1846 4.54594 12.2172 4.45169 12.2878 4.38926L13.9093 2.9565C14.082 2.80391 13.994 2.52188 13.7642 2.4914L11.4812 2.18867C11.3947 2.17721 11.3191 2.12556 11.2779 2.04979L10.2395 0.141275Z" fill="#192743"/>
<path d="M16 14C15.4477 14 15 14.4477 15 15V19C15 19.5523 15.4477 20 16 20H19C19.5523 20 20 19.5523 20 19V15C20 14.4477 19.5523 14 19 14H16Z" fill="#192743"/>
<path d="M0 13C0 12.4477 0.447715 12 1 12H4C4.55228 12 5 12.4477 5 13V19C5 19.5523 4.55228 20 4 20H1C0.447715 20 0 19.5523 0 19V13Z" fill="#192743"/>
<path d="M8 9C7.44772 9 7 9.44772 7 10V19C7 19.5523 7.44772 20 8 20H12C12.5523 20 13 19.5523 13 19V10C13 9.44772 12.5523 9 12 9H8Z" fill="#192743"/>
</g>
<defs>
<clipPath id="clip0_1225_3336">
<rect width="20" height="20" fill="white"/>
</clipPath>
</defs>
</svg>
