<svg width="20" height="20" viewBox="0 0 20 20" fill="none" xmlns="http://www.w3.org/2000/svg">
<path fill-rule="evenodd" clip-rule="evenodd" d="M10 3C8.34315 3 7 4.34315 7 6V8.16667H15.8333C17.3061 8.16667 18.5 9.36058 18.5 10.8333V16.6667C18.5 18.1394 17.3061 19.3333 15.8333 19.3333H4.16667C2.69391 19.3333 1.5 18.1394 1.5 16.6667V10.8333C1.5 9.36058 2.69391 8.16667 4.16667 8.16667H5V6C5 3.23858 7.23858 1 10 1H10.2308C12.5242 1 14.4396 2.61886 14.8965 4.77622C15.0109 5.31652 14.5523 5.76923 14 5.76923C13.4477 5.76923 13.0173 5.30719 12.8221 4.79056C12.4267 3.74414 11.4156 3 10.2308 3H10ZM4.16667 10.1667C3.79848 10.1667 3.5 10.4651 3.5 10.8333V16.6667C3.5 17.0349 3.79848 17.3333 4.16667 17.3333H15.8333C16.2015 17.3333 16.5 17.0349 16.5 16.6667V10.8333C16.5 10.4651 16.2015 10.1667 15.8333 10.1667H4.16667Z" fill="#192743"/>
</svg>
