<svg width="20" height="20" viewBox="0 0 20 20" fill="none" xmlns="http://www.w3.org/2000/svg">
<g clip-path="url(#clip0_408_3040)">
<path fill-rule="evenodd" clip-rule="evenodd" d="M17.0282 17.1102C16.8562 17.2578 16.636 17.3372 16.4094 17.3332L16.3917 17.333H15.1667V10.1664H16.3917L16.4094 10.1662C16.636 10.1622 16.8562 10.2415 17.0282 10.3892C17.1862 10.5248 17.2934 10.7094 17.3334 10.9126V16.5868C17.2934 16.79 17.1862 16.9746 17.0282 17.1102ZM13.1667 9.37858L10.2382 2.78948C10.0661 2.86387 9.90784 2.97056 9.7727 3.1057C9.49139 3.387 9.33336 3.76854 9.33336 4.16636V7.49969C9.33336 8.05198 8.88564 8.49969 8.33336 8.49969H3.61669L3.60537 8.49963C3.50873 8.49854 3.41301 8.51847 3.32484 8.55804C3.23667 8.59761 3.15816 8.65588 3.09475 8.7288C3.03133 8.80173 2.98453 8.88757 2.95759 8.98038C2.9307 9.073 2.92423 9.17034 2.93861 9.2657C2.93858 9.2655 2.93864 9.2659 2.93861 9.2657L4.08872 16.7664C4.11283 16.9254 4.19358 17.0703 4.31609 17.1744C4.4386 17.2786 4.59461 17.3349 4.75539 17.3331L13.1667 17.333V9.37858ZM16.3838 19.333C17.097 19.3433 17.7895 19.0925 18.3309 18.6278C18.8747 18.161 19.2283 17.5107 19.3243 16.8004C19.3303 16.756 19.3334 16.7112 19.3334 16.6664V10.833C19.3334 10.7882 19.3303 10.7434 19.3243 10.699C19.2283 9.9887 18.8747 9.33842 18.3309 8.87158C17.7895 8.40686 17.097 8.15613 16.3838 8.16636H14.8166L11.7472 1.26022C11.5867 0.899096 11.2285 0.666361 10.8334 0.666361C9.9051 0.666361 9.01486 1.03511 8.35848 1.69149C7.70211 2.34786 7.33336 3.2381 7.33336 4.16636V6.49969H3.62172C3.23731 6.49625 2.85668 6.57596 2.50592 6.73338C2.15324 6.89167 1.8392 7.12474 1.58554 7.41644C1.33188 7.70815 1.14468 8.05152 1.0369 8.42276C0.929117 8.794 0.903339 9.18423 0.961349 9.56643L2.11133 17.0663C2.11128 17.066 2.11138 17.0666 2.11133 17.0663C2.20793 17.7018 2.53099 18.282 3.02079 18.6983C3.50922 19.1135 4.13081 19.3388 4.77168 19.333H16.3838Z" fill="#192743"/>
</g>
<defs>
<clipPath id="clip0_408_3040">
<rect width="20" height="20" fill="white"/>
</clipPath>
</defs>
</svg>
