<svg width="20" height="20" viewBox="0 0 20 20" fill="none" xmlns="http://www.w3.org/2000/svg">
<path d="M7.26637 1.50718C8.40907 1.46429 9.5459 1.6859 10.5911 2.15463C11.6363 2.62332 12.5619 3.32652 13.2992 4.21C13.868 4.89161 14.3135 5.66696 14.6179 6.49991H14.9122C16.0479 6.50067 17.1496 6.8868 18.0421 7.594C18.9342 8.30092 19.5667 9.28765 19.8438 10.3964C20.1208 11.505 20.0277 12.676 19.5783 13.7257C19.1288 14.7756 18.3471 15.647 17.3529 16.1992C16.8701 16.4673 16.2613 16.2932 15.9932 15.8104C15.7251 15.3276 15.8991 14.7188 16.382 14.4507C16.9836 14.1165 17.4626 13.5857 17.7397 12.9385C18.0169 12.2911 18.0748 11.5669 17.9034 10.8812C17.7321 10.1957 17.3425 9.59141 16.8 9.16156C16.258 8.73212 15.5938 8.50052 14.9122 8.49991H13.8814C13.4238 8.49991 13.0246 8.18939 12.9121 7.74592C12.701 6.91429 12.3079 6.14363 11.7637 5.49147C11.2195 4.83937 10.5385 4.32291 9.77278 3.97953C9.00714 3.63619 8.17593 3.47445 7.34138 3.50577C6.50682 3.53709 5.68926 3.76072 4.95005 4.16076C4.21076 4.56085 3.56847 5.12736 3.07249 5.81899C2.57646 6.51068 2.23997 7.30917 2.0895 8.15462C1.93902 9.00011 1.97871 9.86937 2.20541 10.6967C2.43211 11.5239 2.83959 12.2866 3.39593 12.9279C3.75785 13.3451 3.71306 13.9767 3.29589 14.3386C2.87872 14.7005 2.24714 14.6557 1.88522 14.2386C1.13135 13.3696 0.581777 12.3392 0.276524 11.2252C-0.0287183 10.1113 -0.0820267 8.94179 0.120444 7.80418C0.322919 6.66653 0.776141 5.58923 1.4472 4.65346C2.11832 3.71762 2.99013 2.94734 3.99814 2.40182C5.00623 1.85626 6.12368 1.55006 7.26637 1.50718Z" fill="#192743"/>
<path d="M10.0036 9C10.2462 9 10.4685 9.08634 10.6416 9.22997C10.6679 9.25172 10.6931 9.27489 10.7172 9.29944L13.9896 12.6328C14.3766 13.0269 14.3707 13.66 13.9766 14.0469C13.5825 14.4338 12.9494 14.428 12.5625 14.0339L11.0035 12.446V17.5C11.0035 18.0523 10.5558 18.5 10.0035 18.5C9.45125 18.5 9.00354 18.0523 9.00354 17.5V12.4461L7.4448 14.0339C7.05789 14.428 6.42475 14.4338 6.03064 14.0469C5.63654 13.66 5.6307 13.0269 6.01761 12.6328L9.28438 9.3052C9.46624 9.11702 9.72128 9 10.0036 9Z" fill="#192743"/>
</svg>
