<svg width="20" height="20" viewBox="0 0 20 20" fill="none" xmlns="http://www.w3.org/2000/svg">
<g clip-path="url(#clip0_134_4485)">
<path fill-rule="evenodd" clip-rule="evenodd" d="M15.707 6.70704C15.3165 7.09756 14.6834 7.09756 14.2928 6.70704L10.9999 3.41414L10.9999 13.0001C10.9999 13.5524 10.5522 14.0001 9.99994 14.0001C9.44765 14.0001 8.99994 13.5524 8.99994 13.0001L8.99994 3.41414L5.70705 6.70703C5.31652 7.09756 4.68336 7.09756 4.29283 6.70703C3.90231 6.31651 3.90231 5.68334 4.29283 5.29282L9.29283 0.292817C9.68336 -0.0977075 10.3165 -0.0977074 10.707 0.292817L15.707 5.29282C16.0976 5.68335 16.0976 6.31651 15.707 6.70704ZM0.999939 12C1.55222 12 1.99994 12.4477 1.99994 13V17C1.99994 17.2652 2.1053 17.5196 2.29283 17.7071C2.48037 17.8947 2.73472 18 2.99994 18H16.9999C17.2652 18 17.5195 17.8947 17.707 17.7071C17.8946 17.5196 17.9999 17.2652 17.9999 17V13C17.9999 12.4477 18.4477 12 18.9999 12C19.5522 12 19.9999 12.4477 19.9999 13V17C19.9999 17.7957 19.6839 18.5587 19.1213 19.1214C18.5587 19.684 17.7956 20 16.9999 20H2.99994C2.20429 20 1.44123 19.684 0.878619 19.1214C0.316009 18.5587 -6.10352e-05 17.7957 -6.10352e-05 17V13C-6.10352e-05 12.4477 0.447654 12 0.999939 12Z" fill="#192743"/>
</g>
<defs>
<clipPath id="clip0_134_4485">
<rect width="20" height="20" fill="white"/>
</clipPath>
</defs>
</svg>
