<svg width="20" height="20" viewBox="0 0 20 20" fill="none" xmlns="http://www.w3.org/2000/svg">
<path fill-rule="evenodd" clip-rule="evenodd" d="M7.25338 1.5C4.86014 1.5 2.92004 3.4401 2.92004 5.83333C2.92004 8.22657 4.86014 10.1667 7.25338 10.1667C9.64661 10.1667 11.5867 8.22657 11.5867 5.83333C11.5867 3.4401 9.64661 1.5 7.25338 1.5ZM4.92004 5.83333C4.92004 4.54467 5.96471 3.5 7.25338 3.5C8.54204 3.5 9.58671 4.54467 9.58671 5.83333C9.58671 7.122 8.54204 8.16667 7.25338 8.16667C5.96471 8.16667 4.92004 7.122 4.92004 5.83333Z" fill="#192743"/>
<path d="M4.33333 11.5C3.18406 11.5 2.08186 11.9565 1.2692 12.7692C0.456546 13.5819 0 14.6841 0 15.8333V17.5C0 18.0523 0.447715 18.5 1 18.5C1.55228 18.5 2 18.0523 2 17.5V15.8333C2 15.2145 2.24583 14.621 2.68342 14.1834C3.121 13.7458 3.71449 13.5 4.33333 13.5H10.1667C10.7855 13.5 11.379 13.7458 11.8166 14.1834C12.2542 14.621 12.5 15.2145 12.5 15.8333V17.5C12.5 18.0523 12.9477 18.5 13.5 18.5C14.0523 18.5 14.5 18.0523 14.5 17.5V15.8333C14.5 14.6841 14.0435 13.5819 13.2308 12.7692C12.4181 11.9565 11.3159 11.5 10.1667 11.5H4.33333Z" fill="#192743"/>
<path d="M17.5 6.66675C17.5 6.11446 17.0523 5.66675 16.5 5.66675C15.9477 5.66675 15.5 6.11446 15.5 6.66675V8.16675H14C13.4477 8.16675 13 8.61446 13 9.16675C13 9.71903 13.4477 10.1667 14 10.1667H15.5V11.6667C15.5 12.219 15.9477 12.6667 16.5 12.6667C17.0523 12.6667 17.5 12.219 17.5 11.6667V10.1667H19C19.5523 10.1667 20 9.71903 20 9.16675C20 8.61446 19.5523 8.16675 19 8.16675H17.5V6.66675Z" fill="#192743"/>
</svg>
