<svg width="20" height="20" viewBox="0 0 20 20" fill="none" xmlns="http://www.w3.org/2000/svg">
<g clip-path="url(#clip0_1111_3358)">
<path fill-rule="evenodd" clip-rule="evenodd" d="M9.99995 0C10.5522 0 11 0.447715 11 1V2H15.241C15.4487 2 15.6532 2.05178 15.8359 2.15066L19.2809 4.01499C20.0635 4.4385 20.0635 5.56149 19.2809 5.98501L15.8359 7.84934C15.6532 7.94822 15.4487 8 15.241 8H11V10H15.75C16.4403 10 17 10.5596 17 11.25L17 14.75C17 15.4404 16.4403 16 15.75 16H11V19C11 19.5523 10.5522 20 9.99995 20C9.44767 20 8.99995 19.5523 8.99995 19V16L4.75891 16C4.55116 16 4.34669 15.9482 4.16398 15.8493L0.719018 13.985C-0.0635594 13.5615 -0.0635718 12.4385 0.719016 12.015L4.16398 10.1507C4.34669 10.0518 4.55116 10 4.75891 10H8.99995V8H4.24995C3.55959 8 2.99995 7.44035 2.99995 6.75V3.25C2.99995 2.55964 3.5596 2 4.24995 2H8.99995V1C8.99995 0.447715 9.44767 0 9.99995 0ZM15 12L4.94884 12L3.10102 13L4.94884 14L15 14V12ZM16.8989 5L15.0511 6H4.99995V4H15.0511L16.8989 5Z" fill="#192743"/>
</g>
<defs>
<clipPath id="clip0_1111_3358">
<rect width="20" height="20" fill="white"/>
</clipPath>
</defs>
</svg>
