<svg width="20" height="20" viewBox="0 0 20 20" fill="none" xmlns="http://www.w3.org/2000/svg">
<path fill-rule="evenodd" clip-rule="evenodd" d="M6.14242 2H13.8567C13.9356 2 13.9996 2.06396 13.9996 2.14286V3.5V8.5V9C13.9996 11.2091 12.2087 13 9.99956 13C7.79042 13 5.99956 11.2091 5.99956 9V8.5V3.5V2.14286C5.99956 2.06396 6.06352 2 6.14242 2ZM4.00425 2C4.07776 0.883138 5.00695 0 6.14242 0H13.8567C14.9922 0 15.9214 0.883138 15.9949 2H18.7496C19.4379 2 20.0019 2.55842 19.9991 3.2539C19.9944 4.42162 19.9522 5.97295 19.4042 7.28138C19.1213 7.95681 18.692 8.5997 18.041 9.09417C17.4638 9.53254 16.7596 9.81836 15.9268 9.93714C15.5281 12.4794 13.533 14.492 10.9996 14.917V18H13.9996C14.5518 18 14.9996 18.4477 14.9996 19C14.9996 19.5523 14.5518 20 13.9996 20H5.99956C5.44728 20 4.99956 19.5523 4.99956 19C4.99956 18.4477 5.44728 18 5.99956 18H8.99956V14.917C6.46614 14.492 4.47105 12.4794 4.07232 9.93714C3.23951 9.81836 2.53529 9.53254 1.95815 9.09417C1.30717 8.5997 0.877802 7.95681 0.594932 7.28138C0.046955 5.97295 0.00470625 4.42162 1.03562e-05 3.2539C-0.00278629 2.55842 0.561198 2 1.24956 2H4.00425ZM3.99956 4H2.01294C2.04431 4.92497 2.1441 5.80302 2.43968 6.50879C2.61835 6.9354 2.85577 7.26444 3.16788 7.50151C3.37581 7.65944 3.644 7.79726 3.99956 7.88774V4ZM15.9996 7.88774V4H17.9862C17.9548 4.92497 17.855 5.80302 17.5594 6.50879C17.3808 6.9354 17.1434 7.26444 16.8312 7.50151C16.6233 7.65944 16.3551 7.79726 15.9996 7.88774Z" fill="#192743"/>
</svg>
