<svg width="20" height="20" viewBox="0 0 20 20" fill="none" xmlns="http://www.w3.org/2000/svg">
<path fill-rule="evenodd" clip-rule="evenodd" d="M7 4.5H2L2 15.5H7V4.5ZM7 17.5C7.36429 17.5 7.70583 17.4026 8 17.2324C8.29417 17.4026 8.63571 17.5 9 17.5H13C13.3643 17.5 13.7058 17.4026 14 17.2324C14.2942 17.4026 14.6357 17.5 15 17.5H18C19.1046 17.5 20 16.6046 20 15.5V4.5C20 3.39543 19.1046 2.5 18 2.5H15C14.6357 2.5 14.2942 2.59739 14 2.76757C13.7058 2.59739 13.3643 2.5 13 2.5H9C8.63571 2.5 8.29417 2.59739 8 2.76757C7.70583 2.59739 7.36429 2.5 7 2.5H2C0.895431 2.5 0 3.39543 0 4.5V15.5C0 16.6046 0.89543 17.5 2 17.5H7ZM13 4.5H9V15.5H13V4.5ZM15 15.5H18V4.5H15V15.5Z" fill="#192743"/>
</svg>
