<svg width="20" height="20" viewBox="0 0 20 20" fill="none" xmlns="http://www.w3.org/2000/svg">
<path d="M9.95 6.78001C9.53335 6.46184 8.97591 6.41066 8.51008 6.64781C8.04425 6.88496 7.75 7.36973 7.75 7.9V12.1C7.75 12.6303 8.04425 13.115 8.51008 13.3522C8.97591 13.5893 9.53335 13.5382 9.95 13.22L12.7 11.12C13.0462 10.8556 13.25 10.4407 13.25 10C13.25 9.55934 13.0462 9.1444 12.7 8.88L9.95 6.78001Z" fill="#192743"/>
<path fill-rule="evenodd" clip-rule="evenodd" d="M10 2C7.07121 2 4.94037 2.20517 3.50337 2.42301C1.65813 2.70275 0.343802 4.17292 0.173936 5.99216C0.0789188 7.00978 0 8.35127 0 10C0 11.6487 0.0789188 12.9902 0.173936 14.0078C0.343802 15.8271 1.65813 17.2973 3.50337 17.577C4.94037 17.7948 7.07121 18 10 18C12.9288 18 15.0596 17.7948 16.4966 17.577C18.3419 17.2973 19.6562 15.8271 19.8261 14.0078C19.9211 12.9902 20 11.6487 20 10C20 8.35127 19.9211 7.00978 19.8261 5.99216C19.6562 4.17292 18.3419 2.70275 16.4966 2.42301C15.0596 2.20517 12.9288 2 10 2ZM3.80314 4.40042C5.13432 4.19861 7.16465 4 10 4C12.8354 4 14.8657 4.19862 16.1969 4.40042C17.0952 4.53661 17.7466 5.23438 17.8347 6.1781C17.9241 7.13573 18 8.41515 18 10C18 11.5848 17.9241 12.8643 17.8347 13.8219C17.7466 14.7656 17.0952 15.4634 16.1969 15.5996C14.8657 15.8014 12.8354 16 10 16C7.16465 16 5.13432 15.8014 3.80314 15.5996C2.90475 15.4634 2.25339 14.7656 2.16527 13.8219C2.07586 12.8643 2 11.5848 2 10C2 8.41515 2.07586 7.13573 2.16527 6.1781C2.25339 5.23439 2.90475 4.53661 3.80314 4.40042Z" fill="#192743"/>
</svg>
